<svg version="1.1" id="Layer_1" xmlns="http://www.w3.org/2000/svg" x="0" y="0" viewBox="0 0 1200 675" xml:space="preserve"><style>.st2{fill:#00ae57}</style><g id="Layer_1_1_"><path id="Bounding_BOX" fill="none" d="M0 0h1200v675H0z"/></g><path d="M175.5 72.4c-31.4 173.6-30.4 350.7 0 530.9l572.6-135.9.3-281-572.9-114z" opacity=".2" fill="#00ae57"/><path class="st2" d="M674.7 546.4h-83.6c-5.3 0-8.3-4-8.3-8.3v-9.9c0-5 3.3-8.3 8.3-8.3h3.3c-1.3-2.3-1.7-4.6-1.7-6.9v-55.2c0-9.9 7.3-13.6 13.6-13.6h53.9c9.9 0 13.6 7.3 13.6 13.6v55.5c0 2.6-.3 5-1.7 6.9h3.3c5.3 0 8.3 4 8.3 8.3v9.9c-1.4 5.7-5.4 8-9 8zm-84.6-18.5v10.9c0 1 .3 1 1 1h83.6c1 0 1-.3 1-1v-9.9c0-1-.3-1-1-1h-83.6c-.4-.3-1 0-1 0zm15.9-76.4c-4.6 0-6.9 2.3-6.9 6.9V514c0 4.6 2.3 6.9 6.9 6.9h53.9c4.6 0 6.9-2.3 6.9-6.9v-55.5c0-4.6-2.3-6.9-6.9-6.9H606zm-79.4 94.9H443c-5.3 0-8.3-4-8.3-8.3v-9.9c0-5 3.3-8.3 8.3-8.3h3.3c-1.3-2.3-1.7-4.6-1.7-6.9v-55.2c0-9.9 7.3-13.6 13.2-13.6h53.9c9.9 0 13.6 7.3 13.6 13.6v55.5c0 2.6-.3 5-1.7 6.9h3.3c5.3 0 8.3 4 8.3 8.3v9.9c-.7 5.7-5.3 8-8.6 8zM442 527.9v10.9c0 1 .3 1 1 1h83.6c1 0 1-.3 1-1v-9.9c0-1-.3-1-1-1H443c-.7-.3-1 0-1 0zm15.9-76.4c-4.6 0-6.3 2.3-6.3 6.9V514c0 4.6 2.3 6.9 6.3 6.9h53.9c4.6 0 6.9-2.3 6.9-6.9v-55.5c0-4.6-2.3-6.9-6.9-6.9h-53.9zm-80 94.9h-83.3c-5.3 0-8.3-4-8.3-8.3v-9.9c0-5 3.3-8.3 8.3-8.3h3.3c-1.3-2.3-1.7-4.6-1.7-6.9v-55.2c0-9.9 7.3-13.6 13.6-13.6h53.9c9.9 0 13.6 7.3 13.6 13.6v55.5c0 2.6-.3 5-1.7 6.9h2.6c5.3 0 8.3 4 8.3 8.3v9.9c-.7 5.7-5 8-8.6 8zm-84.3-18.5v10.9c0 1 .3 1 1 1h83.3c1 0 1-.3 1-1v-9.9c0-1-.3-1-1-1h-83.3c-.4-.3-1 0-1 0zm15.8-76.4c-4.6 0-6.9 2.3-6.9 6.9V514c0 4.6 2.3 6.9 6.9 6.9h53.9c4.6 0 6.9-2.3 6.9-6.9v-55.5c0-4.6-2.3-6.9-6.9-6.9h-53.9zm350.4-219.8H606c-9.9 0-13.6-7.3-13.6-13.6v-55.5c0-2.6.3-5 1.7-7.3h-3.3c-5.3 0-8.3-4-8.3-8.3v-9.9c0-5.3 4-8.3 8.3-8.3h83.6c5 0 8.3 3.3 8.3 8.3v9.9c0 5-3.3 8.3-8.3 8.3h-3.3c1.3 2.3 1.7 4.6 1.7 7.3v55.5c.6 10-6.7 13.6-13 13.6zM606 156c-4.6 0-6.9 2.3-6.9 6.9v55.5c0 4.6 2.3 6.9 6.9 6.9h53.9c4.6 0 6.9-2.3 6.9-6.9v-55.9c0-4.6-2.3-6.9-6.9-6.9H606v.4zm-14.9-19.2c-1 0-1 .3-1 1v9.9c0 1 .3 1 1 1h84.6v-11.9h-84.6zm-79.7 94.9h-53.9c-9.9 0-13.2-7.3-13.2-13.6v-55.5c0-2.6.3-5 1.7-7.3h-3.3c-5.3 0-8.3-4-8.3-8.3v-9.9c0-5.3 4-8.3 8.3-8.3h83.6c5 0 8.3 3.3 8.3 8.3v9.9c0 5-3.3 8.3-8.3 8.3H523c1.3 2.3 1.7 4.6 1.7 7.3v55.5c-.1 10-6.7 13.6-13.3 13.6zM457.9 156c-4.6 0-6.3 2.3-6.3 6.9v55.5c0 4.6 2.3 6.9 6.3 6.9h53.9c4.6 0 6.9-2.3 6.9-6.9v-55.9c0-4.6-2.3-6.9-6.9-6.9h-53.9v.4zM443 136.8c-1 0-1 .3-1 1v9.9c0 1 .3 1 1 1h84.6v-11.9H443zm-79.7 94.9h-53.9c-9.9 0-13.6-7.3-13.6-13.6v-55.5c0-2.6.3-5 1.7-7.3h-2.6c-5.3 0-8.3-4-8.3-8.3v-9.9c0-5.3 4-8.3 8.3-8.3h83.3c5 0 8.3 3.3 8.3 8.3v9.9c0 5-3.3 8.3-8.3 8.3h-3.3c1.3 2.3 1.7 4.6 1.7 7.3v55.5c.3 10-7 13.6-13.3 13.6zM309.4 156c-4.6 0-6.9 2.3-6.9 6.9v55.5c0 4.6 2.3 6.9 6.9 6.9h53.9c4.6 0 6.9-2.3 6.9-6.9v-55.9c0-4.6-2.3-6.9-6.9-6.9h-53.9v.4zm-14.5-19.2c-1 0-1 .3-1 1v9.9c0 1 .3 1 1 1h84.3v-11.9h-84.3zm413.2 293.6H220.5c-1.7 0-3.6-1.3-3.6-3.6V247.2c0-1.7 1.3-3.6 3.6-3.6h487.6c1.7 0 3.6 1.3 3.6 3.6v179.5c0 1.7-1.6 3.7-3.6 3.7zm-484.6-7.3h481V250.2h-481v172.9z"/><path d="M796.7 373.5c-1.3 0-2.6-.3-3.3-1.3l-26.1-26.1c-1.7-1.7-1.7-5 0-7.3 1.7-1.7 5-1.7 7.3 0l22.8 22.8 58.8-58.5c1.7-1.7 5-1.7 7.3 0 1.7 1.7 1.7 5 0 7.3L801 372.5c-2.7.4-3.6 1-4.3 1z" fill="#00ad57"/><path class="st2" d="M964.6 254.5c-46 0-83.3 37.4-83.3 83.3s37 83.3 83.3 83.3 83.3-37.4 83.3-83.3-37.3-83.3-83.3-83.3"/><path d="M939.2 345.4L919 365.6V310l20.2 20.2v-17.9c0-1.3.7-2.6 1.7-3.6 1-.7 2.3-1.3 3.6-1.3h60.5c1.3 0 2.6.7 3.6 1.3.7.7 1.3 2.3 1.3 3.6v50.9c0 1.3-.7 2.6-1.3 3.6-.7.7-2.3 1.3-3.6 1.3h-60.8c-1.3 0-2.6-.7-3.6-1.3-1-.7-1.7-2.3-1.7-3.6.3.1.3-17.8.3-17.8z" fill="#fff"/></svg>