<svg id="e3nfjvzabr0d1" xmlns="http://www.w3.org/2000/svg" xmlns:xlink="http://www.w3.org/1999/xlink" viewBox="0 0 37 37" shape-rendering="geometricPrecision" text-rendering="geometricPrecision"><style><![CDATA[#e3nfjvzabr0d5_to {animation: e3nfjvzabr0d5_to__to 3000ms linear 1 normal forwards}@keyframes e3nfjvzabr0d5_to__to { 0% {transform: translate(11.500000px,-11.500000px);animation-timing-function: cubic-bezier(0,0,0.580000,1)} 16.666667% {transform: translate(11.500000px,25.500000px)} 100% {transform: translate(11.500000px,25.500000px)} }#e3nfjvzabr0d6_to {animation: e3nfjvzabr0d6_to__to 3000ms linear 1 normal forwards}@keyframes e3nfjvzabr0d6_to__to { 0% {transform: translate(11.500000px,-11.500000px)} 33.333333% {transform: translate(11.500000px,-11.500000px);animation-timing-function: cubic-bezier(0,0,0.580000,1)} 50% {transform: translate(11.500000px,11.500000px)} 100% {transform: translate(11.500000px,11.500000px)} }#e3nfjvzabr0d7_to {animation: e3nfjvzabr0d7_to__to 3000ms linear 1 normal forwards}@keyframes e3nfjvzabr0d7_to__to { 0% {transform: translate(25.500000px,-11.500000px)} 16.666667% {transform: translate(25.500000px,-11.500000px);animation-timing-function: cubic-bezier(0,0,0.580000,1)} 33.333333% {transform: translate(25.500000px,25.500000px)} 100% {transform: translate(25.500000px,25.500000px)} }#e3nfjvzabr0d8_to {animation: e3nfjvzabr0d8_to__to 3000ms linear 1 normal forwards}@keyframes e3nfjvzabr0d8_to__to { 0% {transform: translate(25.500000px,-11.500000px)} 50% {transform: translate(25.500000px,-11.500000px);animation-timing-function: cubic-bezier(0,0,0.580000,1)} 66.666667% {transform: translate(25.500000px,11.500000px)} 100% {transform: translate(25.500000px,11.500000px)} }]]></style><g id="e3nfjvzabr0d2"><g id="e3nfjvzabr0d3" transform="matrix(1 0 0 1 -600 -395)"><g id="e3nfjvzabr0d4" transform="matrix(1 0 0 1 600 395)"><g id="e3nfjvzabr0d5_to" transform="translate(11.500000,-11.500000)"><path id="e3nfjvzabr0d5" d="M23,14L23,30L22.998000,30L16,37L0,37L0,21L7,14L23,14ZM2.939000,35L14,35L14,30L8.477000,30L2.939000,35ZM20.139000,30L16,30L16,34.226000L20.139000,30ZM7,23L2,23L2,33.168000L7,28.589190L7,23ZM14,23L9,23L9,28L14,28L14,23ZM21,17.378000L16,22.299000L16,28L21,28L21,17.378000ZM19.518000,16L9,16L9,21L14.513000,21L14.512815,21L19.518000,16ZM7,16.866000L2.805000,21L7,21L7,16.866000Z" transform="translate(-11.500000,-25.500000)" fill="rgb(18,158,175)" fill-opacity="0" stroke="none" stroke-width="1"/></g><g id="e3nfjvzabr0d6_to" transform="translate(11.500000,-11.500000)"><path id="e3nfjvzabr0d6" d="M23,0L23,16L22.998000,16L16,23L0,23L0,7L7,0L23,0ZM2.939000,21L14,21L14,16L8.477000,16L2.939000,21ZM20.139000,16L16,16L16,20.226000L20.139000,16ZM7,9L2,9L2,19.168000L7,14.589190L7,9ZM14,9L9,9L9,14L14,14L14,9ZM21,3.378000L16,8.299000L16,14L21,14L21,3.378000ZM19.518000,2L9,2L9,7L14.513000,7L14.512815,7L19.518000,2ZM7,2.866000L2.805000,7L7,7L7,2.866000Z" transform="translate(-11.500000,-11.500000)" fill="rgb(18,158,175)" fill-opacity="0" stroke="none" stroke-width="1"/></g><g id="e3nfjvzabr0d7_to" transform="translate(25.500000,-11.500000)"><path id="e3nfjvzabr0d7" d="M37,14L37,30L36.998000,30L30,37L14,37L14,21L21,14L37,14ZM16.939000,35L28,35L28,30L22.477000,30L16.939000,35ZM34.139000,30L30,30L30,34.226000L34.139000,30ZM21,23L16,23L16,33.168000L21,28.589190L21,23ZM28,23L23,23L23,28L28,28L28,23ZM35,17.378000L30,22.299000L30,28L35,28L35,17.378000ZM33.518000,16L23,16L23,21L28.513000,21L28.512815,21L33.518000,16ZM21,16.866000L16.805000,21L21,21L21,16.866000Z" transform="translate(-25.500000,-25.500000)" fill="rgb(18,158,175)" fill-opacity="0" stroke="none" stroke-width="1"/></g><g id="e3nfjvzabr0d8_to" transform="translate(25.500000,-11.500000)"><path id="e3nfjvzabr0d8" d="M37,0L37,16L36.998000,16L30,23L14,23L14,7L21,0L37,0ZM16.939000,21L28,21L28,16L22.477000,16L16.939000,21ZM34.139000,16L30,16L30,20.226000L34.139000,16ZM21,9L16,9L16,19.168000L21,14.589190L21,9ZM28,9L23,9L23,14L28,14L28,9ZM35,3.378000L30,8.299000L30,14L35,14L35,3.378000ZM33.518000,2L23,2L23,7L28.513000,7L28.512815,7L33.518000,2ZM21,2.866000L16.805000,7L21,7L21,2.866000Z" transform="translate(-25.500000,-11.500000)" fill="rgb(18,158,175)" fill-opacity="0" stroke="none" stroke-width="1"/></g></g></g></g></svg>