<?xml version="1.0" encoding="UTF-8"?>
<svg width="30px" height="30px" viewBox="0 0 30 30" version="1.1" xmlns="http://www.w3.org/2000/svg" xmlns:xlink="http://www.w3.org/1999/xlink">
    <title>icon_camera-audio_white_red-circle_01</title>
    <g id="Icons" stroke="none" stroke-width="1" fill="none" fill-rule="evenodd">
        <g id="icon_camera-audio_white_red-circle_01" fill-rule="nonzero">
            <path d="M15,30 C23.3,30 30,23.3 30,15 C30,6.7 23.3,0 15,0 C6.7,0 0,6.7 0,15 C0,23.3 6.7,30 15,30" id="Path" fill="#EA4335"></path>
            <path d="M19.2642857,11.6666667 C19.5071429,11.6666667 19.75,11.7272727 19.9321429,11.9090909 C20.1142857,12.0909091 20.2357143,12.3333333 20.2357143,12.5757576 L20.2357143,15.9090909 L24,12.1515152 L24,22.5151515 L20.2357143,18.7575758 L20.2357143,22.0909091 C20.2357143,22.3333333 20.1142857,22.5757576 19.9321429,22.7575758 C19.75,22.9393939 19.5071429,23 19.2642857,23 L7.91071429,23 C7.66785714,23 7.425,22.9393939 7.24285714,22.7575758 C7.06071429,22.5757576 7,22.3333333 7,22.0909091 L7,12.5757576 C7,12.3333333 7.06071429,12.0909091 7.24285714,11.9090909 C7.425,11.7272727 7.66785714,11.6666667 7.91071429,11.6666667 L19.2642857,11.6666667 Z M13.375,8.11811998 C14.6593371,8.11811998 15.7622707,8.82587508 16.291969,9.85281385 L16.291969,9.85281385 L10.4507749,9.85281385 C10.9877293,8.82587508 12.0906629,8.11811998 13.375,8.11811998 Z M13.375,4.995671 C16.4806287,4.995671 19.0783275,7.07036487 19.7386364,9.85281385 L19.7386364,9.85281385 L18.2438712,9.85281385 C17.619843,7.84750773 15.675197,6.3834261 13.375,6.3834261 C11.074803,6.3834261 9.13015704,7.84750773 8.50612885,9.85281385 L8.50612885,9.85281385 L7.01136364,9.85281385 C7.67167254,7.07036487 10.2693713,4.995671 13.375,4.995671 Z" id="Combined-Shape" fill="#FFFFFF"></path>
        </g>
    </g>
</svg>