{"asset":{"version":"2.0","generator":"babylon.js glTF exporter for 3ds max 2019 v1.2.40","copyright":"2018 (c) BabylonJS"},"extensionsUsed":["KHR_lights"],"scene":0,"scenes":[{"nodes":[0,1,2,3,4,5,6,7,8,9,10,11,12,13,14,15,16,17,18,19,20],"extensions":{"KHR_lights":{"light":0}}}],"nodes":[{"mesh":0,"translation":[0.0,5E-05,0.0],"rotation":[0.0,0.0,0.0,1.0],"scale":[2.8,1.0,2.0],"name":"1mPlane"},{"mesh":1,"translation":[0.0,299.999939,-7.54979E-12],"rotation":[-1.0,0.0,0.0,7.54979E-08],"scale":[2.8,1.0,2.0],"name":"1mPlane (1)"},{"mesh":2,"translation":[0.0,150.0,-99.99995],"rotation":[0.7071068,0.0,0.0,0.7071067],"scale":[2.8,1.0,3.0],"name":"1mPlane (2)"},{"mesh":3,"translation":[0.0,150.0,99.99995],"rotation":[-0.7071068,0.0,0.0,0.7071067],"scale":[2.8,1.0,3.0],"name":"1mPlane (3)"},{"mesh":4,"translation":[-139.999954,150.0,0.0],"rotation":[0.0,0.0,-0.7071068,0.7071068],"scale":[3.0,1.0,2.0],"name":"1mPlane (4)"},{"mesh":5,"translation":[139.999954,150.0,0.0],"rotation":[0.0,0.0,0.7071068,0.7071067],"scale":[3.0,1.0,2.0],"name":"1mPlane (5)"},{"mesh":6,"translation":[100.000015,35.0,-35.01551],"rotation":[0.0,0.0,0.0,1.0],"scale":[1.0,1.0,1.0],"name":"OnePersonDesk"},{"mesh":7,"translation":[110.531715,92.99425,-67.73511],"rotation":[0.06162838,-0.704416037,0.704416037,0.0616283752],"scale":[1.0,1.0,1.0],"name":"ChromeBaseAttached"},{"mesh":8,"translation":[36.5897369,41.2166023,-13.979948],"rotation":[0.0,0.7071068,0.0,0.7071067],"scale":[1.0,1.0,1.0],"name":"GoogleChairCombined"},{"mesh":9,"translation":[0.0,187.5,-98.73],"rotation":[0.0,0.0,0.0,1.0],"scale":[1.0,1.75,0.0254],"name":"AcousticPanel"},{"mesh":10,"translation":[-138.730011,187.5,-1.90734863E-06],"rotation":[0.0,0.7071068,0.0,0.7071067],"scale":[1.0,1.75,0.0254],"name":"AcousticPanel (1)"},{"mesh":11,"translation":[-3.81469727E-06,7.5,-99.00001],"rotation":[0.0,0.0,0.0,1.0],"scale":[2.8,1.0,1.0],"name":"SkirtingBoard"},{"mesh":12,"translation":[-3.814697E-06,7.5,99.00003],"rotation":[0.0,-1.0,0.0,-7.54979E-08],"scale":[2.8,1.0,1.0],"name":"SkirtingBoard (1)"},{"mesh":13,"translation":[-138.999985,7.5,1.90734863E-06],"rotation":[0.0,0.7071067,0.0,0.7071068],"scale":[2.0,1.0,1.0],"name":"SkirtingBoard (2)"},{"mesh":14,"translation":[139.000031,7.5,1.90734863E-06],"rotation":[0.0,-0.707106948,0.0,0.7071066],"scale":[2.0,1.0,1.0],"name":"SkirtingBoard (3)"},{"mesh":15,"translation":[-5.555611,291.859558,4.76837158E-07],"rotation":[0.0,0.7071068,0.0,0.7071067],"scale":[1.0,1.0,1.0],"name":"StripLight"},{"translation":[0.0,0.0,0.0],"rotation":[0.0,0.0,0.0,1.0],"scale":[1.0,1.0,1.0],"name":"Default light"},{"camera":0,"translation":[-103.108307,141.080124,369.7817],"rotation":[-0.0425854623,-0.216233552,-0.009440966,0.9753667],"scale":[1.0,1.0,1.0],"name":"roomLayout_phoneBooth_chromeBase"},{"camera":1,"translation":[-405.0433,265.395081,48.4422531],"rotation":[-0.1360966,-0.6669944,-0.104647994,0.725013852],"scale":[0.99999994,0.99999994,0.99999994],"name":"roomLayout_phoneBooth_chromeBaseCam"},{"camera":2,"translation":[-103.108307,141.080124,369.7817],"rotation":[-0.0425854623,-0.216233552,-0.009440966,0.9753667],"scale":[1.0,1.0,1.0],"name":"equipment_chromeBase_chromeBase"},{"camera":3,"translation":[95.802475,135.278717,303.4713],"rotation":[-0.04357794,0.0435777828,0.00190263987,0.9980974],"scale":[1.0,1.0,1.0],"name":"equipment_chromeBase_mounting"}],"cameras":[{"perspective":{"yfov":0.8172757,"zfar":10000.0,"znear":0.1},"type":"perspective","name":"roomLayout_phoneBooth_chromeBase"},{"perspective":{"yfov":0.8172757,"zfar":10000.0,"znear":0.1},"type":"perspective","name":"roomLayout_phoneBooth_chromeBaseCam"},{"perspective":{"yfov":0.8172757,"zfar":10000.0,"znear":0.1},"type":"perspective","name":"equipment_chromeBase_chromeBase"},{"perspective":{"yfov":0.8172757,"zfar":10000.0,"znear":0.1},"type":"perspective","name":"equipment_chromeBase_mounting"}],"meshes":[{"primitives":[{"attributes":{"POSITION":1,"NORMAL":2,"TEXCOORD_0":3},"indices":0,"mode":4,"material":0}],"name":"1mPlane"},{"primitives":[{"attributes":{"POSITION":5,"NORMAL":6,"TEXCOORD_0":7},"indices":4,"mode":4,"material":0}],"name":"1mPlane"},{"primitives":[{"attributes":{"POSITION":9,"NORMAL":10,"TEXCOORD_0":11},"indices":8,"mode":4,"material":0}],"name":"1mPlane"},{"primitives":[{"attributes":{"POSITION":13,"NORMAL":14,"TEXCOORD_0":15},"indices":12,"mode":4,"material":0}],"name":"1mPlane"},{"primitives":[{"attributes":{"POSITION":17,"NORMAL":18,"TEXCOORD_0":19},"indices":16,"mode":4,"material":0}],"name":"1mPlane"},{"primitives":[{"attributes":{"POSITION":21,"NORMAL":22,"TEXCOORD_0":23},"indices":20,"mode":4,"material":0}],"name":"1mPlane"},{"primitives":[{"attributes":{"POSITION":25,"NORMAL":26,"TEXCOORD_0":27},"indices":24,"mode":4,"material":1},{"attributes":{"POSITION":29,"NORMAL":30,"TEXCOORD_0":31},"indices":28,"mode":4,"material":2}],"name":"OnePersonDesk"},{"primitives":[{"attributes":{"POSITION":33,"NORMAL":34,"TEXCOORD_0":35},"indices":32}],"name":"ChromeBaseAttached"},{"primitives":[{"attributes":{"POSITION":37,"NORMAL":38,"TEXCOORD_0":39,"TEXCOORD_1":40},"indices":36,"mode":4,"material":3},{"attributes":{"POSITION":42,"NORMAL":43,"TEXCOORD_0":44,"TEXCOORD_1":45},"indices":41,"mode":4,"material":4},{"attributes":{"POSITION":47,"NORMAL":48,"TEXCOORD_0":49,"TEXCOORD_1":50},"indices":46,"mode":4,"material":5}],"name":"GoogleChairCombined"},{"primitives":[{"attributes":{"POSITION":52,"NORMAL":53,"TEXCOORD_0":54},"indices":51}],"name":"AcousticPanel"},{"primitives":[{"attributes":{"POSITION":56,"NORMAL":57,"TEXCOORD_0":58},"indices":55}],"name":"AcousticPanel"},{"primitives":[{"attributes":{"POSITION":60,"NORMAL":61},"indices":59}],"name":"SkirtingBoard"},{"primitives":[{"attributes":{"POSITION":63,"NORMAL":64},"indices":62}],"name":"SkirtingBoard"},{"primitives":[{"attributes":{"POSITION":66,"NORMAL":67},"indices":65}],"name":"SkirtingBoard"},{"primitives":[{"attributes":{"POSITION":69,"NORMAL":70},"indices":68}],"name":"SkirtingBoard"},{"primitives":[{"attributes":{"POSITION":72,"NORMAL":73,"TEXCOORD_0":74},"indices":71,"mode":4,"material":6}],"name":"StripLight"}],"accessors":[{"bufferView":0,"componentType":5123,"count":6,"type":"SCALAR","name":"accessorIndices"},{"bufferView":1,"componentType":5126,"count":6,"max":[50.0,-5E-05,50.0],"min":[-50.0,-5E-05,-50.0],"type":"VEC3","name":"accessorPositions"},{"bufferView":1,"byteOffset":72,"componentType":5126,"count":6,"type":"VEC3","name":"accessorNormals"},{"bufferView":2,"componentType":5126,"count":6,"type":"VEC2","name":"accessorUVs"},{"bufferView":0,"byteOffset":12,"componentType":5123,"count":6,"type":"SCALAR","name":"accessorIndices"},{"bufferView":1,"byteOffset":144,"componentType":5126,"count":6,"max":[50.0,-6.10351563E-05,50.0],"min":[-50.0,-6.10351563E-05,-50.0],"type":"VEC3","name":"accessorPositions"},{"bufferView":1,"byteOffset":216,"componentType":5126,"count":6,"type":"VEC3","name":"accessorNormals"},{"bufferView":2,"byteOffset":48,"componentType":5126,"count":6,"type":"VEC2","name":"accessorUVs"},{"bufferView":0,"byteOffset":24,"componentType":5123,"count":6,"type":"SCALAR","name":"accessorIndices"},{"bufferView":1,"byteOffset":288,"componentType":5126,"count":6,"max":[50.0,-5.340576E-05,50.0],"min":[-50.0,-5.340576E-05,-50.0],"type":"VEC3","name":"accessorPositions"},{"bufferView":1,"byteOffset":360,"componentType":5126,"count":6,"type":"VEC3","name":"accessorNormals"},{"bufferView":2,"byteOffset":96,"componentType":5126,"count":6,"type":"VEC2","name":"accessorUVs"},{"bufferView":0,"byteOffset":36,"componentType":5123,"count":6,"type":"SCALAR","name":"accessorIndices"},{"bufferView":1,"byteOffset":432,"componentType":5126,"count":6,"max":[50.0,-5.340576E-05,50.0],"min":[-50.0,-5.340576E-05,-50.0],"type":"VEC3","name":"accessorPositions"},{"bufferView":1,"byteOffset":504,"componentType":5126,"count":6,"type":"VEC3","name":"accessorNormals"},{"bufferView":2,"byteOffset":144,"componentType":5126,"count":6,"type":"VEC2","name":"accessorUVs"},{"bufferView":0,"byteOffset":48,"componentType":5123,"count":6,"type":"SCALAR","name":"accessorIndices"},{"bufferView":1,"byteOffset":576,"componentType":5126,"count":6,"max":[50.0,-4.57763672E-05,50.0],"min":[-50.0000038,-6.10351563E-05,-50.0],"type":"VEC3","name":"accessorPositions"},{"bufferView":1,"byteOffset":648,"componentType":5126,"count":6,"type":"VEC3","name":"accessorNormals"},{"bufferView":2,"byteOffset":192,"componentType":5126,"count":6,"type":"VEC2","name":"accessorUVs"},{"bufferView":0,"byteOffset":60,"componentType":5123,"count":6,"type":"SCALAR","name":"accessorIndices"},{"bufferView":1,"byteOffset":720,"componentType":5126,"count":6,"max":[50.0,-3.05175781E-05,50.0],"min":[-50.0,-4.57763672E-05,-50.0],"type":"VEC3","name":"accessorPositions"},{"bufferView":1,"byteOffset":792,"componentType":5126,"count":6,"type":"VEC3","name":"accessorNormals"},{"bufferView":2,"byteOffset":240,"componentType":5126,"count":6,"type":"VEC2","name":"accessorUVs"},{"bufferView":0,"byteOffset":72,"componentType":5123,"count":900,"type":"SCALAR","name":"accessorIndices"},{"bufferView":1,"byteOffset":864,"componentType":5126,"count":900,"max":[40.0,35.0,65.0],"min":[-40.0,32.6,-65.0],"type":"VEC3","name":"accessorPositions"},{"bufferView":1,"byteOffset":11664,"componentType":5126,"count":900,"type":"VEC3","name":"accessorNormals"},{"bufferView":2,"byteOffset":288,"componentType":5126,"count":900,"type":"VEC2","name":"accessorUVs"},{"bufferView":0,"byteOffset":1872,"componentType":5123,"count":3600,"type":"SCALAR","name":"accessorIndices"},{"bufferView":1,"byteOffset":22464,"componentType":5126,"count":3600,"max":[36.0,32.6,62.0],"min":[-36.0,-35.0,-62.0],"type":"VEC3","name":"accessorPositions"},{"bufferView":1,"byteOffset":65664,"componentType":5126,"count":3600,"type":"VEC3","name":"accessorNormals"},{"bufferView":2,"byteOffset":7488,"componentType":5126,"count":3600,"type":"VEC2","name":"accessorUVs"},{"bufferView":0,"byteOffset":9072,"componentType":5123,"count":6462,"type":"SCALAR","name":"accessorIndices"},{"bufferView":1,"byteOffset":108864,"componentType":5126,"count":6462,"max":[22.0359726,29.0000038,23.0097351],"min":[-22.03598,-29.0000057,-23.0097275],"type":"VEC3","name":"accessorPositions"},{"bufferView":1,"byteOffset":186408,"componentType":5126,"count":6462,"type":"VEC3","name":"accessorNormals"},{"bufferView":2,"byteOffset":36288,"componentType":5126,"count":6462,"type":"VEC2","name":"accessorUVs"},{"bufferView":0,"byteOffset":21996,"componentType":5123,"count":6333,"type":"SCALAR","name":"accessorIndices"},{"bufferView":1,"byteOffset":263952,"componentType":5126,"count":6333,"max":[22.9213562,40.6171074,26.3581657],"min":[-22.9213638,-0.8798828,-26.3581619],"type":"VEC3","name":"accessorPositions"},{"bufferView":1,"byteOffset":339948,"componentType":5126,"count":6333,"type":"VEC3","name":"accessorNormals"},{"bufferView":2,"byteOffset":87984,"componentType":5126,"count":6333,"type":"VEC2","name":"accessorUVs"},{"bufferView":2,"byteOffset":138648,"componentType":5126,"count":6333,"type":"VEC2","name":"accessorUV2s"},{"bufferView":0,"byteOffset":34664,"componentType":5123,"count":978,"type":"SCALAR","name":"accessorIndices"},{"bufferView":1,"byteOffset":415944,"componentType":5126,"count":978,"max":[20.18166,-39.8043022,20.2456779],"min":[-20.18166,-40.6171036,-20.21924],"type":"VEC3","name":"accessorPositions"},{"bufferView":1,"byteOffset":427680,"componentType":5126,"count":978,"type":"VEC3","name":"accessorNormals"},{"bufferView":2,"byteOffset":189312,"componentType":5126,"count":978,"type":"VEC2","name":"accessorUVs"},{"bufferView":2,"byteOffset":197136,"componentType":5126,"count":978,"type":"VEC2","name":"accessorUV2s"},{"bufferView":0,"byteOffset":36620,"componentType":5123,"count":2244,"type":"SCALAR","name":"accessorIndices"},{"bufferView":1,"byteOffset":439416,"componentType":5126,"count":2244,"max":[19.6165123,1.07748413,19.6297264],"min":[-19.61651,-39.9821053,-19.6032848],"type":"VEC3","name":"accessorPositions"},{"bufferView":1,"byteOffset":466344,"componentType":5126,"count":2244,"type":"VEC3","name":"accessorNormals"},{"bufferView":2,"byteOffset":204960,"componentType":5126,"count":2244,"type":"VEC2","name":"accessorUVs"},{"bufferView":2,"byteOffset":222912,"componentType":5126,"count":2244,"type":"VEC2","name":"accessorUV2s"},{"bufferView":0,"byteOffset":41108,"componentType":5123,"count":30,"type":"SCALAR","name":"accessorIndices"},{"bufferView":1,"byteOffset":493272,"componentType":5126,"count":30,"max":[50.0,50.0000076,50.0],"min":[-50.0,-50.0,-49.9997559],"type":"VEC3","name":"accessorPositions"},{"bufferView":1,"byteOffset":493632,"componentType":5126,"count":30,"type":"VEC3","name":"accessorNormals"},{"bufferView":2,"byteOffset":240864,"componentType":5126,"count":30,"type":"VEC2","name":"accessorUVs"},{"bufferView":0,"byteOffset":41168,"componentType":5123,"count":30,"type":"SCALAR","name":"accessorIndices"},{"bufferView":1,"byteOffset":493992,"componentType":5126,"count":30,"max":[50.0,50.0000076,50.0],"min":[-50.0,-50.0,-50.0],"type":"VEC3","name":"accessorPositions"},{"bufferView":1,"byteOffset":494352,"componentType":5126,"count":30,"type":"VEC3","name":"accessorNormals"},{"bufferView":2,"byteOffset":241104,"componentType":5126,"count":30,"type":"VEC2","name":"accessorUVs"},{"bufferView":0,"byteOffset":41228,"componentType":5123,"count":288,"type":"SCALAR","name":"accessorIndices"},{"bufferView":1,"byteOffset":494712,"componentType":5126,"count":288,"max":[50.0,7.5,1.0],"min":[-50.0,-7.5,-1.0],"type":"VEC3","name":"accessorPositions"},{"bufferView":1,"byteOffset":498168,"componentType":5126,"count":288,"type":"VEC3","name":"accessorNormals"},{"bufferView":0,"byteOffset":41804,"componentType":5123,"count":288,"type":"SCALAR","name":"accessorIndices"},{"bufferView":1,"byteOffset":501624,"componentType":5126,"count":288,"max":[50.0,7.5,1.0],"min":[-50.0,-7.5,-1.0],"type":"VEC3","name":"accessorPositions"},{"bufferView":1,"byteOffset":505080,"componentType":5126,"count":288,"type":"VEC3","name":"accessorNormals"},{"bufferView":0,"byteOffset":42380,"componentType":5123,"count":288,"type":"SCALAR","name":"accessorIndices"},{"bufferView":1,"byteOffset":508536,"componentType":5126,"count":288,"max":[50.0,7.5,1.0],"min":[-50.0,-7.5,-1.0],"type":"VEC3","name":"accessorPositions"},{"bufferView":1,"byteOffset":511992,"componentType":5126,"count":288,"type":"VEC3","name":"accessorNormals"},{"bufferView":0,"byteOffset":42956,"componentType":5123,"count":288,"type":"SCALAR","name":"accessorIndices"},{"bufferView":1,"byteOffset":515448,"componentType":5126,"count":288,"max":[50.0,7.5,1.0],"min":[-50.0000038,-7.5,-1.0],"type":"VEC3","name":"accessorPositions"},{"bufferView":1,"byteOffset":518904,"componentType":5126,"count":288,"type":"VEC3","name":"accessorNormals"},{"bufferView":0,"byteOffset":43532,"componentType":5123,"count":420,"type":"SCALAR","name":"accessorIndices"},{"bufferView":1,"byteOffset":522360,"componentType":5126,"count":420,"max":[5.444389,8.0,50.0],"min":[-5.44438934,-8.0,-50.0],"type":"VEC3","name":"accessorPositions"},{"bufferView":1,"byteOffset":527400,"componentType":5126,"count":420,"type":"VEC3","name":"accessorNormals"},{"bufferView":2,"byteOffset":241344,"componentType":5126,"count":420,"type":"VEC2","name":"accessorUVs"}],"bufferViews":[{"buffer":0,"byteLength":44372,"name":"bufferViewScalar"},{"buffer":0,"byteOffset":44372,"byteLength":532440,"byteStride":12,"name":"bufferViewFloatVec3"},{"buffer":0,"byteOffset":576812,"byteLength":244704,"byteStride":8,"name":"bufferViewFloatVec2"}],"buffers":[{"uri":"PhoneBoothA.bin","byteLength":821516}],"materials":[{"pbrMetallicRoughness":{"baseColorFactor":[0.0784313753,0.0784313753,0.0784313753,1.0],"metallicFactor":0.0,"roughnessFactor":0.58},"emissiveFactor":[0.0,0.0,0.0],"alphaMode":"OPAQUE","name":"Rubber"},{"pbrMetallicRoughness":{"baseColorFactor":[0.7,0.454686642,0.141007185,1.0],"metallicFactor":0.0,"roughnessFactor":0.599999964},"emissiveFactor":[0.0,0.0,0.0],"alphaMode":"OPAQUE","name":"Material #19"},{"pbrMetallicRoughness":{"baseColorFactor":[0.52705884,0.52705884,0.52705884,1.0],"metallicFactor":0.0,"roughnessFactor":0.28},"emissiveFactor":[0.0,0.0,0.0],"alphaMode":"OPAQUE","name":"Material #18"},{"pbrMetallicRoughness":{"baseColorFactor":[0.833333433,0.163398713,0.163398713,1.0],"metallicFactor":0.0,"roughnessFactor":0.9},"emissiveFactor":[0.0,0.0,0.0],"alphaMode":"OPAQUE","name":"Color_A07"},{"pbrMetallicRoughness":{"baseColorFactor":[0.9232027,0.9232027,0.9232027,1.0],"metallicFactor":0.0,"roughnessFactor":0.9},"emissiveFactor":[0.0,0.0,0.0],"alphaMode":"OPAQUE","name":"Color M01"},{"pbrMetallicRoughness":{"baseColorFactor":[0.9232027,0.9232027,0.9232027,1.0],"metallicFactor":0.0,"roughnessFactor":0.9},"emissiveFactor":[0.0,0.0,0.0],"alphaMode":"OPAQUE","name":"Color_001"},{"pbrMetallicRoughness":{"baseColorFactor":[1.0,1.0,1.0,1.0],"baseColorTexture":{"index":0,"texCoord":0},"metallicFactor":0.0,"roughnessFactor":0.0},"emissiveFactor":[0.0,0.0,0.0],"alphaMode":"BLEND","name":"Material #121"}],"textures":[{"sampler":0,"source":0,"name":"LightAlbedoi255_baseColor.png"}],"images":[{"uri":"LightAlbedoi255_baseColor.png"}],"samplers":[{"magFilter":9729,"minFilter":9987,"wrapS":10497,"wrapT":10497}],"extensions":{"KHR_lights":{"lights":[{"color":[1.0,1.0,1.0],"intensity":1.0,"type":"ambient"}]}}}