<svg width="71" height="51" viewBox="0 0 71 51" fill="none" xmlns="http://www.w3.org/2000/svg">
<path fill-rule="evenodd" clip-rule="evenodd" d="M27.4394 30.5589C26.8536 31.1447 26.8536 32.0945 27.4394 32.6803C28.0251 33.266 28.9749 33.266 29.5607 32.6803L35.0172 27.2237L40.5589 32.7655C41.1447 33.3513 42.0945 33.3513 42.6803 32.7655C43.266 32.1797 43.266 31.2299 42.6803 30.6442L37.1385 25.1024L42.6803 19.5607C43.2661 18.9749 43.2661 18.0251 42.6803 17.4393C42.0945 16.8536 41.1448 16.8536 40.559 17.4393L35.0172 22.9811L29.5607 17.5245C28.9749 16.9388 28.0251 16.9388 27.4393 17.5245C26.8536 18.1103 26.8536 19.0601 27.4393 19.6459L32.8959 25.1024L27.4394 30.5589Z" fill="#353535"/>
</svg>
