<?xml version="1.0" encoding="utf-8" standalone="yes"?>
<!DOCTYPE svg PUBLIC "-//W3C//DTD SVG 1.1//EN" "http://www.w3.org/Graphics/SVG/1.1/DTD/svg11.dtd">
<svg xmlns="http://www.w3.org/2000/svg" xmlns:xlink="http://www.w3.org/1999/xlink" xmlns:dc="http://purl.org/dc/elements/1.1/" xmlns:cc="http://web.resource.org/cc/" xmlns:rdf="http://www.w3.org/1999/02/22-rdf-syntax-ns#" xmlns:sodipodi="http://sodipodi.sourceforge.net/DTD/sodipodi-0.dtd" xmlns:inkscape="http://www.inkscape.org/namespaces/inkscape" version="1.1" baseProfile="full" width="91px" height="27.469999px" viewBox="0 0 91 27.469999" preserveAspectRatio="xMidYMid meet" id="svg_document" style="zoom: 1;"><!-- Created with macSVG - https://macsvg.org/ - https://github.com/dsward2/macsvg/ --><title id="svg_document_title">Untitled.svg</title><defs id="svg_document_defs"></defs><g id="main_group"></g><svg width="91" height="28" viewBox="0 0 91 28" fill="none" id="svg1"><path fill-rule="evenodd" clip-rule="evenodd" d="M37.0525 20.7742C36.2712 20.7742 35.6886 20.6058 35.2492 20.1986C35.1526 20.1093 35.0687 20.0035 34.9933 19.8864C34.7316 19.4007 34.5996 18.7754 34.5996 18.0077V11.2121H39.2655V8.92751H34.5996V4.62158H31.6318V10.9317V11.2121V18.1248V18.3395C31.6318 19.9289 32.0515 21.1401 32.8914 21.9727C33.7308 22.8056 34.9125 23.2215 36.4356 23.2215C36.4571 23.2215 36.4778 23.2205 36.4985 23.2195H36.4986H36.4986H36.4987L36.4988 23.2195C36.5154 23.2187 36.532 23.2179 36.5491 23.2177L36.5508 23.2215H39.2655V20.7742H37.0525ZM62.0615 16.5726H51.9248C52.1403 19.5995 53.648 21.1126 56.4494 21.1126C58.0948 21.1126 59.5832 20.5758 60.9152 19.5017L61.8263 21.5814C61.1602 22.1479 60.3376 22.5969 59.3581 22.9287C58.3786 23.2605 57.3794 23.4265 56.3612 23.4265C54.0696 23.4265 52.2627 22.7726 50.9404 21.464C49.6183 20.1561 48.957 18.3497 48.957 16.0453C48.957 14.5806 49.2459 13.2824 49.8241 12.1496C50.4015 11.0173 51.2147 10.1386 52.2627 9.5135C53.3102 8.88861 54.5 8.57617 55.8325 8.57617C57.7715 8.57617 59.2943 9.20127 60.4015 10.4508C61.5076 11.7006 62.0615 13.4288 62.0615 15.6353V16.5726ZM53.1733 11.8129C52.4972 12.5258 52.0906 13.5459 51.9541 14.8737H59.5048C59.4462 13.5459 59.1085 12.5258 58.4912 11.8129C57.8741 11.1001 57.0077 10.7437 55.8908 10.7437C54.7547 10.7437 53.8491 11.1001 53.1733 11.8129ZM77.2163 23.2215V4.62164H74.249V11.212C73.8177 10.3728 73.1957 9.72331 72.3832 9.26423C71.5702 8.80579 70.6247 8.57593 69.5477 8.57593C68.2939 8.57593 67.1872 8.8789 66.2277 9.48398C65.2676 10.0895 64.5187 10.9484 63.98 12.0615C63.4413 13.1747 63.1719 14.4736 63.1719 15.9572C63.1719 17.4219 63.4413 18.7207 63.98 19.8529C64.5187 20.9858 65.2727 21.8643 66.2425 22.4892C67.2121 23.1145 68.3138 23.4265 69.5477 23.4265C70.6247 23.4265 71.575 23.1973 72.3975 22.7382C73.2205 22.2796 73.8473 21.6205 74.278 20.761V23.2215H77.2163ZM74.2779 16.0156C74.2779 17.6368 73.9303 18.8862 73.235 19.7649C72.5395 20.6437 71.5456 21.0832 70.2527 21.0832C68.9796 21.0832 67.9807 20.6289 67.256 19.7211C66.5309 18.8129 66.1689 17.5585 66.1689 15.9571C66.1689 14.3561 66.5261 13.1209 67.2414 12.2518C67.9562 11.3831 68.96 10.9483 70.2527 10.9483C71.5456 10.9483 72.5395 11.3878 73.235 12.2663C73.9303 13.1451 74.2779 14.3951 74.2779 16.0156ZM49.0193 8.58008L48.1212 8.63422C45.771 8.81014 44.2135 9.73778 43.4497 11.4169V8.92728H40.5703V23.2212H43.5378V15.2834C43.5378 14.1703 43.8462 13.2526 44.4632 12.53C45.0803 11.8077 46.0939 11.3779 47.5045 11.2412L49.0193 11.0927V8.58008ZM90.7007 10.8335L90.7024 10.8375L82.1627 20.9366H91V23.2212H78.5781V21.1708L86.9813 11.2119H78.5781V8.92725H89.8541C90.4871 8.92725 91 9.43857 91 10.0696C91 10.3645 90.8848 10.6308 90.7007 10.8335Z" fill="black" id="path1"></path><path fill-rule="evenodd" clip-rule="evenodd" d="M8.64852 0.26416H20.5154C24.3788 0.26416 27.5105 3.44546 27.5105 7.37005V20.63C27.5105 24.5544 24.3788 27.7359 20.5154 27.7359H6.99507C3.13193 27.7359 0 24.5544 0 20.63V7.37005C0 4.49255 1.68452 2.01662 4.10575 0.899157C4.10638 3.07508 4.10744 8.14031 4.10363 9.94649C4.09814 12.5229 4.09285 15.9455 4.10532 18.4829C4.11885 19.5167 4.45571 20.7494 5.13894 21.5618C5.94665 22.5645 7.08002 23.2408 8.50799 23.2408C8.71199 23.2408 8.97467 23.2434 9.25505 23.2462C9.57591 23.2495 9.91994 23.253 10.2257 23.253C10.7122 23.253 11.2104 23.2473 11.7113 23.2416L11.7714 23.241H23.4525V18.7768H16.691C16.8638 18.5114 21.824 10.6162 22.9945 8.68598C23.2809 8.26461 23.4525 7.74486 23.4525 7.18002C23.4525 5.79773 22.4375 4.67627 21.1765 4.65014L21.1756 4.64762H8.64937L8.64852 0.26416ZM11.281 18.7769H10.554C9.50158 18.7769 8.64844 17.8417 8.64844 16.6882V9.18457H12.5325H12.826H17.6605L11.281 18.7769Z" fill="#D31716" id="path1"></path></svg></svg>