<svg version="1.1" id="Layer_1" xmlns="http://www.w3.org/2000/svg" x="0" y="0" viewBox="0 0 360 360" xml:space="preserve"><style>.st1{fill:#00ae57}.st2{font-family:&apos;Roboto-Italic&apos;}.st3{font-size:12px}.st4{fill:#f04931}</style><path d="M142.3 154.8l.8 94.7-9.6.2c.3 1.1-16.5-.4-31.5-5.7-6.2-2.2-11-6.1-15.5-9.9-7.1-6.2-9.3-14.5-8.4-15l64.2-64.3zm60.6.2l64.6 64.3-5.9 10.9c1 .6-11.5 14-27.1 17.2-6.1 1.2-12.6 2.3-18.3 2.3-8.8 0-14.1-.5-14.1-.5l.8-94.2zm93.7 8.7c10 0 18.1-8.1 18.1-18.1 0-10-8.1-18.1-18.1-18.1s-18.1 8.1-18.1 18.1c0 10 8.1 18.1 18.1 18.1m-233.2 0c10 0 18.1-8.1 18.1-18.1 0-10-8.1-18.1-18.1-18.1s-18.1 8.1-18.1 18.1c0 10 8.1 18.1 18.1 18.1" fill="#fff"/><path class="st1" d="M156.3 160.6l16-16 16 16h-32zm39.9-50.5c1.4 0 2.7.5 3.7 1.6 1.1 1.1 1.6 2.3 1.6 3.7v31.9c0 1.4-.5 2.6-1.6 3.7-1.1 1-2.3 1.6-3.7 1.6h-10.6v-5.2h10.6v-31.9h-47.9v31.9h10.6v5.2h-10.6c-1.4 0-2.7-.5-3.7-1.6-1.1-1-1.6-2.3-1.6-3.7v-31.9c0-1.4.5-2.7 1.6-3.7 1.1-1.1 2.3-1.6 3.7-1.6h47.9z"/><text transform="translate(108.602 226.655)"><tspan x="0" y="0" class="st1 st2 st3">4</tspan><tspan x="6.3" y="0" class="st1 st2 st3">5</tspan><tspan x="12.1" y="0" class="st1 st2 st3">째</tspan></text><text transform="translate(87.714 148.917)"><tspan x="0" y="0" class="st1 st2 st3">+</tspan><tspan x="6.2" y="0" class="st1 st2 st3">4</tspan><tspan x="12.5" y="0" class="st1 st2 st3">5</tspan><tspan x="18.3" y="0" class="st1 st2 st3">째</tspan></text><text transform="translate(247.962 148.917)"><tspan x="0" y="0" class="st1 st2 st3">+</tspan><tspan x="6.2" y="0" class="st1 st2 st3">4</tspan><tspan x="12.5" y="0" class="st1 st2 st3">5</tspan><tspan x="18.3" y="0" class="st1 st2 st3">째</tspan></text><text transform="translate(222.266 226.655)"><tspan x="0" y="0" class="st1 st2 st3">4</tspan><tspan x="6.3" y="0" class="st1 st2 st3">5</tspan><tspan x="12.1" y="0" class="st1 st2 st3">째</tspan></text><path class="st4" d="M73.6 157.9c-.5 0-1.1-.2-1.5-.6L51.8 137c-.8-.8-.8-2.2 0-3s2.2-.8 3 0l20.3 20.3c.8.8.8 2.2 0 3-.5.3-1 .6-1.5.6z"/><path class="st4" d="M53.2 157.9c-.5 0-1.1-.2-1.5-.6-.8-.8-.8-2.2 0-3L72 134c.8-.8 2.2-.8 3 0 .8.8.8 2.2 0 3l-20.3 20.3c-.4.3-.9.6-1.5.6zm253.6 0c-.5 0-1.1-.2-1.5-.6L285 137c-.8-.8-.8-2.2 0-3 .8-.8 2.2-.8 3 0l20.3 20.3c.8.8.8 2.2 0 3-.5.3-1 .6-1.5.6z"/><path class="st4" d="M286.4 157.9c-.5 0-1.1-.2-1.5-.6-.8-.8-.8-2.2 0-3l20.3-20.3c.8-.8 2.2-.8 3 0 .8.8.8 2.2 0 3l-20.3 20.3c-.4.3-.9.6-1.5.6z"/><path class="st1" d="M141.7 245.7c0-.4.3-.8.8-.8.4 0 .8.3.8.8 0 .4-.3.8-.8.8s-.8-.4-.8-.8zm0-3c0-.4.3-.8.8-.8.4 0 .8.3.8.8 0 .4-.3.8-.8.8-.5-.1-.8-.4-.8-.8zm0-3c0-.4.3-.8.8-.8.4 0 .8.3.8.8 0 .4-.3.8-.8.8-.5-.1-.8-.4-.8-.8zm0-3.1c0-.4.3-.8.8-.8.4 0 .8.3.8.8 0 .4-.3.8-.8.8s-.8-.4-.8-.8zm0-3c0-.4.3-.8.8-.8.4 0 .8.3.8.8 0 .4-.3.8-.8.8s-.8-.4-.8-.8zm0-3c0-.4.3-.8.8-.8.4 0 .8.3.8.8 0 .4-.3.8-.8.8-.5-.1-.8-.4-.8-.8zm0-3.1c0-.4.3-.8.8-.8.4 0 .8.3.8.8 0 .4-.3.8-.8.8s-.8-.3-.8-.8zm0-3c0-.4.3-.8.8-.8.4 0 .8.3.8.8 0 .4-.3.8-.8.8s-.8-.4-.8-.8zm0-3c0-.4.3-.8.8-.8.4 0 .8.3.8.8 0 .4-.3.8-.8.8-.5-.1-.8-.4-.8-.8zm0-3c0-.4.3-.8.8-.8.4 0 .8.3.8.8 0 .4-.3.8-.8.8-.5-.1-.8-.4-.8-.8zm0-3.1c0-.4.3-.8.8-.8.4 0 .8.3.8.8 0 .4-.3.8-.8.8s-.8-.3-.8-.8zm0-3c0-.4.3-.8.8-.8.4 0 .8.3.8.8 0 .4-.3.8-.8.8s-.8-.4-.8-.8zm0-3c0-.4.3-.8.8-.8.4 0 .8.3.8.8 0 .4-.3.8-.8.8-.5-.1-.8-.4-.8-.8zm0-3c0-.4.3-.8.8-.8.4 0 .8.3.8.8 0 .4-.3.8-.8.8-.5-.1-.8-.4-.8-.8zm0-3.1c0-.4.3-.8.8-.8.4 0 .8.3.8.8 0 .4-.3.8-.8.8s-.8-.4-.8-.8zm0-3c0-.4.3-.8.8-.8.4 0 .8.3.8.8 0 .4-.3.8-.8.8-.5-.1-.8-.4-.8-.8zm0-3c0-.4.3-.8.8-.8.4 0 .8.3.8.8 0 .4-.3.8-.8.8-.5-.1-.8-.4-.8-.8zm0-3.1c0-.4.3-.8.8-.8.4 0 .8.3.8.8 0 .4-.3.7-.8.7-.5.1-.8-.2-.8-.7zm0-3c0-.4.3-.8.8-.8.4 0 .8.3.8.8 0 .4-.3.8-.8.8s-.8-.4-.8-.8zm0-3c0-.4.3-.8.8-.8.4 0 .8.3.8.8 0 .4-.3.8-.8.8-.5-.1-.8-.4-.8-.8zm0-3c0-.4.3-.8.8-.8.4 0 .8.3.8.8 0 .4-.3.8-.8.8-.5-.1-.8-.4-.8-.8zm0-3.1c0-.4.3-.8.8-.8.4 0 .8.3.8.8 0 .4-.3.8-.8.8s-.8-.4-.8-.8zm0-3c0-.4.3-.8.8-.8.4 0 .8.3.8.8 0 .4-.3.7-.8.7s-.8-.3-.8-.7zm0-3c0-.4.3-.8.8-.8.4 0 .8.3.8.8 0 .4-.3.8-.8.8-.5-.1-.8-.4-.8-.8zm0-3.1c0-.4.3-.8.8-.8.4 0 .8.3.8.8 0 .4-.3.8-.8.8s-.8-.3-.8-.8zm0-3c0-.4.3-.8.8-.8.4 0 .8.3.8.8 0 .4-.3.8-.8.8s-.8-.4-.8-.8zm0-3c0-.4.3-.8.8-.8.4 0 .8.3.8.8 0 .4-.3.8-.8.8-.5-.1-.8-.4-.8-.8zm0-3c0-.4.3-.8.8-.8.4 0 .8.3.8.8 0 .4-.3.8-.8.8-.5-.1-.8-.4-.8-.8zm0-3.1c0-.4.3-.8.8-.8.4 0 .8.3.8.8 0 .4-.3.8-.8.8s-.8-.4-.8-.8zm0-3c0-.4.3-.8.8-.8.4 0 .8.3.8.8 0 .4-.3.8-.8.8s-.8-.4-.8-.8zm-63.9 61.2c-.3-.3-.3-.8 0-1.1.3-.3.8-.3 1.1 0 .3.3.3.8 0 1.1-.1.1-.3.2-.5.2s-.4-.1-.6-.2zm2.2-2.2c-.3-.3-.3-.8 0-1.1.3-.3.8-.3 1.1 0 .3.3.3.8 0 1.1-.1.1-.3.2-.5.2-.3 0-.5 0-.6-.2zm2.1-2.1c-.3-.3-.3-.8 0-1.1.3-.3.8-.3 1.1 0 .3.3.3.8 0 1.1-.1.1-.3.2-.5.2-.3 0-.5-.1-.6-.2zm2.1-2.2c-.3-.3-.3-.8 0-1.1.3-.3.8-.3 1.1 0 .3.3.3.8 0 1.1-.2.1-.3.2-.5.2s-.4 0-.6-.2zm2.2-2.1c-.3-.3-.3-.8 0-1.1.3-.3.8-.3 1.1 0 .3.3.3.8 0 1.1-.1.1-.3.2-.5.2-.3 0-.5-.1-.6-.2zm2.1-2.2c-.3-.3-.3-.8 0-1.1.3-.3.8-.3 1.1 0 .3.3.3.8 0 1.1-.1.2-.3.2-.5.2-.2.1-.4 0-.6-.2zm2.2-2.1c-.3-.3-.3-.8 0-1.1.3-.3.8-.3 1.1 0 .3.3.3.8 0 1.1-.1.1-.3.2-.5.2-.3 0-.5 0-.6-.2zm2.1-2.1c-.3-.3-.3-.8 0-1.1.3-.3.8-.3 1.1 0 .3.3.3.8 0 1.1-.2.1-.3.2-.5.2-.3 0-.4-.1-.6-.2zm2.1-2.2c-.3-.3-.3-.8 0-1.1.3-.3.8-.3 1.1 0 .3.3.3.8 0 1.1-.1.1-.3.2-.5.2s-.4 0-.6-.2zm2.2-2.1c-.3-.3-.3-.8 0-1.1.3-.3.8-.3 1.1 0 .3.3.3.8 0 1.1-.1.1-.3.2-.5.2-.3 0-.5-.1-.6-.2zm2.1-2.2c-.3-.3-.3-.8 0-1.1.3-.3.8-.3 1.1 0 .3.3.3.8 0 1.1-.1.2-.3.2-.5.2-.2.1-.4 0-.6-.2zm2.2-2.1c-.3-.3-.3-.8 0-1.1.3-.3.8-.3 1.1 0 .3.3.3.8 0 1.1-.1.1-.3.2-.5.2-.3 0-.5-.1-.6-.2zm2.1-2.1c-.3-.3-.3-.8 0-1.1.3-.3.8-.3 1.1 0 .3.3.3.8 0 1.1-.2.1-.3.2-.5.2s-.4-.1-.6-.2zm2.2-2.2c-.3-.3-.3-.8 0-1.1.3-.3.8-.3 1.1 0 .3.3.3.8 0 1.1-.1.1-.3.2-.5.2-.3 0-.5 0-.6-.2zm2.1-2.1c-.3-.3-.3-.8 0-1.1.3-.3.8-.3 1.1 0 .3.3.3.8 0 1.1-.1.1-.3.2-.5.2-.3 0-.5-.1-.6-.2zm2.1-2.2c-.3-.3-.3-.8 0-1.1.3-.3.8-.3 1.1 0 .3.3.3.8 0 1.1-.1.1-.3.2-.5.2-.2.1-.4 0-.6-.2zm2.2-2.1c-.3-.3-.3-.8 0-1.1.3-.3.8-.3 1.1 0 .3.3.3.8 0 1.1-.2.1-.3.2-.5.2-.3 0-.5-.1-.6-.2zm2.1-2.1c-.3-.3-.3-.8 0-1.1.3-.3.8-.3 1.1 0 .3.3.3.8 0 1.1-.1.1-.3.2-.5.2s-.4-.1-.6-.2zm2.2-2.2c-.3-.3-.3-.8 0-1.1.3-.3.8-.3 1.1 0 .3.3.3.8 0 1.1-.1.1-.3.2-.5.2-.3 0-.5 0-.6-.2zm2.1-2.1c-.3-.3-.3-.8 0-1.1.3-.3.8-.3 1.1 0 .3.3.3.8 0 1.1-.1.2-.3.2-.5.2-.3 0-.5-.1-.6-.2zm2.1-2.2c-.3-.3-.3-.8 0-1.1.3-.3.8-.3 1.1 0 .3.3.3.8 0 1.1-.1.1-.3.2-.5.2s-.4 0-.6-.2zm2.2-2.1c-.3-.3-.3-.8 0-1.1.3-.3.8-.3 1.1 0 .3.3.3.8 0 1.1-.2.1-.3.2-.5.2-.3 0-.5-.1-.6-.2zm2.1-2.2c-.3-.3-.3-.8 0-1.1.3-.3.8-.3 1.1 0 .3.3.3.8 0 1.1-.1.1-.3.2-.5.2-.2.1-.4 0-.6-.2zm2.2-2.1c-.3-.3-.3-.8 0-1.1.3-.3.8-.3 1.1 0 .3.3.3.8 0 1.1-.1.1-.3.2-.5.2-.3 0-.5 0-.6-.2zm2.1-2.1c-.3-.3-.3-.8 0-1.1.3-.3.8-.3 1.1 0 .3.3.3.8 0 1.1-.1.1-.3.2-.5.2-.3 0-.4-.1-.6-.2zm2.2-2.2c-.3-.3-.3-.8 0-1.1.3-.3.8-.3 1.1 0 .3.3.3.8 0 1.1-.1.1-.3.2-.5.2-.3.1-.5 0-.6-.2zm2.1-2.1c-.3-.3-.3-.8 0-1.1.3-.3.8-.3 1.1 0 .3.3.3.8 0 1.1-.1.1-.3.2-.5.2-.3 0-.5-.1-.6-.2zm2.1-2.2c-.3-.3-.3-.8 0-1.1.3-.3.8-.3 1.1 0 .3.3.3.8 0 1.1-.1.1-.3.2-.5.2-.2.1-.4 0-.6-.2zm2.2-2.1c-.3-.3-.3-.8 0-1.1.3-.3.8-.3 1.1 0 .3.3.3.8 0 1.1-.1.2-.3.2-.5.2-.3 0-.5-.1-.6-.2zm2.1-2.1c-.3-.3-.3-.8 0-1.1.3-.3.8-.3 1.1 0 .3.3.3.8 0 1.1-.1.1-.3.2-.5.2-.3 0-.4-.1-.6-.2zm62 88.7c0-.4.3-.8.8-.8.4 0 .8.3.8.8 0 .4-.3.8-.8.8-.4 0-.8-.4-.8-.8zm0-3c0-.4.3-.8.8-.8.4 0 .8.3.8.8 0 .4-.3.8-.8.8-.4-.1-.8-.4-.8-.8zm0-3c0-.4.3-.8.8-.8.4 0 .8.3.8.8 0 .4-.3.8-.8.8-.4-.1-.8-.4-.8-.8zm0-3.1c0-.4.3-.8.8-.8.4 0 .8.3.8.8 0 .4-.3.8-.8.8-.4 0-.8-.4-.8-.8zm0-3c0-.4.3-.8.8-.8.4 0 .8.3.8.8 0 .4-.3.8-.8.8-.4 0-.8-.4-.8-.8zm0-3c0-.4.3-.8.8-.8.4 0 .8.3.8.8 0 .4-.3.8-.8.8-.4-.1-.8-.4-.8-.8zm0-3.1c0-.4.3-.8.8-.8.4 0 .8.3.8.8 0 .4-.3.8-.8.8-.4 0-.8-.3-.8-.8zm0-3c0-.4.3-.8.8-.8.4 0 .8.3.8.8 0 .4-.3.8-.8.8-.4 0-.8-.4-.8-.8zm0-3c0-.4.3-.8.8-.8.4 0 .8.3.8.8 0 .4-.3.8-.8.8-.4-.1-.8-.4-.8-.8zm0-3c0-.4.3-.8.8-.8.4 0 .8.3.8.8 0 .4-.3.8-.8.8-.4-.1-.8-.4-.8-.8zm0-3.1c0-.4.3-.8.8-.8.4 0 .8.3.8.8 0 .4-.3.8-.8.8-.4 0-.8-.4-.8-.8zm0-3c0-.4.3-.8.8-.8.4 0 .8.3.8.8 0 .4-.3.8-.8.8-.4 0-.8-.4-.8-.8zm0-3c0-.4.3-.8.8-.8.4 0 .8.3.8.8 0 .4-.3.8-.8.8-.4-.1-.8-.4-.8-.8zm0-3c0-.4.3-.8.8-.8.4 0 .8.3.8.8 0 .4-.3.8-.8.8-.4-.1-.8-.4-.8-.8zm0-3.1c0-.4.3-.8.8-.8.4 0 .8.3.8.8 0 .4-.3.8-.8.8-.4 0-.8-.4-.8-.8zm0-3c0-.4.3-.8.8-.8.4 0 .8.3.8.8 0 .4-.3.8-.8.8-.4-.1-.8-.4-.8-.8zm0-3c0-.4.3-.8.8-.8.4 0 .8.3.8.8 0 .4-.3.8-.8.8-.4-.1-.8-.4-.8-.8zm0-3.1c0-.4.3-.8.8-.8.4 0 .8.3.8.8 0 .4-.3.8-.8.8-.4 0-.8-.3-.8-.8zm0-3c0-.4.3-.8.8-.8.4 0 .8.3.8.8 0 .4-.3.8-.8.8-.4 0-.8-.4-.8-.8zm0-3c0-.4.3-.8.8-.8.4 0 .8.3.8.8 0 .4-.3.8-.8.8-.4-.1-.8-.4-.8-.8zm0-3c0-.4.3-.8.8-.8.4 0 .8.3.8.8 0 .4-.3.8-.8.8-.4-.1-.8-.4-.8-.8zm0-3.1c0-.4.3-.8.8-.8.4 0 .8.3.8.8 0 .4-.3.8-.8.8-.4 0-.8-.4-.8-.8zm0-3c0-.4.3-.8.8-.8.4 0 .8.3.8.8 0 .4-.3.8-.8.8-.4 0-.8-.4-.8-.8zm0-3c0-.4.3-.8.8-.8.4 0 .8.3.8.8 0 .4-.3.8-.8.8-.4-.1-.8-.4-.8-.8zm0-3.1c0-.4.3-.8.8-.8.4 0 .8.3.8.8 0 .4-.3.8-.8.8-.4 0-.8-.3-.8-.8zm0-3c0-.4.3-.8.8-.8.4 0 .8.3.8.8 0 .4-.3.8-.8.8-.4 0-.8-.4-.8-.8zm0-3c0-.4.3-.8.8-.8.4 0 .8.3.8.8 0 .4-.3.8-.8.8-.4-.1-.8-.4-.8-.8zm0-3c0-.4.3-.8.8-.8.4 0 .8.3.8.8 0 .4-.3.8-.8.8-.4-.1-.8-.4-.8-.8zm0-3.1c0-.4.3-.8.8-.8.4 0 .8.3.8.8 0 .4-.3.8-.8.8-.4 0-.8-.4-.8-.8zm0-3c0-.4.3-.8.8-.8.4 0 .8.3.8.8 0 .4-.3.8-.8.8-.4 0-.8-.4-.8-.8zm64.4 61.2c-.3-.3-.3-.8 0-1.1.3-.3.8-.3 1.1 0 .3.3.3.8 0 1.1-.1.1-.3.2-.5.2-.3 0-.5-.1-.6-.2zm-2.2-2.2c-.3-.3-.3-.8 0-1.1.3-.3.8-.3 1.1 0 .3.3.3.8 0 1.1-.1.1-.3.2-.5.2s-.4 0-.6-.2zm-2.1-2.1c-.3-.3-.3-.8 0-1.1.3-.3.8-.3 1.1 0 .3.3.3.8 0 1.1-.2.1-.3.2-.5.2-.3 0-.5-.1-.6-.2zm-2.2-2.2c-.3-.3-.3-.8 0-1.1.3-.3.8-.3 1.1 0 .3.3.3.8 0 1.1-.1.1-.3.2-.5.2s-.4 0-.6-.2zm-2.1-2.1c-.3-.3-.3-.8 0-1.1.3-.3.8-.3 1.1 0 .3.3.3.8 0 1.1-.1.1-.3.2-.5.2-.3 0-.5-.1-.6-.2zm-2.1-2.2c-.3-.3-.3-.8 0-1.1.3-.3.8-.3 1.1 0 .3.3.3.8 0 1.1-.2.2-.3.2-.5.2-.3.1-.5 0-.6-.2zm-2.2-2.1c-.3-.3-.3-.8 0-1.1.3-.3.8-.3 1.1 0 .3.3.3.8 0 1.1-.1.1-.3.2-.5.2s-.4 0-.6-.2zm-2.1-2.1c-.3-.3-.3-.8 0-1.1.3-.3.8-.3 1.1 0 .3.3.3.8 0 1.1-.1.1-.3.2-.5.2-.3 0-.5-.1-.6-.2zm-2.2-2.2c-.3-.3-.3-.8 0-1.1.3-.3.8-.3 1.1 0 .3.3.3.8 0 1.1-.1.1-.3.2-.5.2s-.4 0-.6-.2zm-2.1-2.1c-.3-.3-.3-.8 0-1.1.3-.3.8-.3 1.1 0 .3.3.3.8 0 1.1-.1.1-.3.2-.5.2-.3 0-.5-.1-.6-.2zm-2.1-2.2c-.3-.3-.3-.8 0-1.1.3-.3.8-.3 1.1 0 .3.3.3.8 0 1.1-.1.2-.3.2-.5.2-.3.1-.5 0-.6-.2zm-2.2-2.1c-.3-.3-.3-.8 0-1.1.3-.3.8-.3 1.1 0 .3.3.3.8 0 1.1-.1.1-.3.2-.5.2-.3 0-.4-.1-.6-.2zm-2.1-2.1c-.3-.3-.3-.8 0-1.1.3-.3.8-.3 1.1 0 .3.3.3.8 0 1.1-.1.1-.3.2-.5.2-.3 0-.5-.1-.6-.2zm-2.2-2.2c-.3-.3-.3-.8 0-1.1.3-.3.8-.3 1.1 0 .3.3.3.8 0 1.1-.1.1-.3.2-.5.2s-.4 0-.6-.2zm-2.1-2.1c-.3-.3-.3-.8 0-1.1.3-.3.8-.3 1.1 0 .3.3.3.8 0 1.1-.2.1-.3.2-.5.2-.3 0-.5-.1-.6-.2zm-2.2-2.2c-.3-.3-.3-.8 0-1.1.3-.3.8-.3 1.1 0 .3.3.3.8 0 1.1-.1.1-.3.2-.5.2-.2.1-.4 0-.6-.2zm-2.1-2.1c-.3-.3-.3-.8 0-1.1.3-.3.8-.3 1.1 0 .3.3.3.8 0 1.1-.1.1-.3.2-.5.2-.3 0-.5-.1-.6-.2zm-2.1-2.1c-.3-.3-.3-.8 0-1.1.3-.3.8-.3 1.1 0 .3.3.3.8 0 1.1-.1.1-.3.2-.5.2-.3 0-.5-.1-.6-.2zm-2.2-2.2c-.3-.3-.3-.8 0-1.1.3-.3.8-.3 1.1 0 .3.3.3.8 0 1.1-.1.1-.3.2-.5.2s-.4 0-.6-.2zm-2.1-2.1c-.3-.3-.3-.8 0-1.1.3-.3.8-.3 1.1 0 .3.3.3.8 0 1.1-.1.2-.3.2-.5.2-.3 0-.5-.1-.6-.2zm-2.2-2.2c-.3-.3-.3-.8 0-1.1.3-.3.8-.3 1.1 0 .3.3.3.8 0 1.1-.1.1-.3.2-.5.2s-.4 0-.6-.2zm-2.1-2.1c-.3-.3-.3-.8 0-1.1.3-.3.8-.3 1.1 0 .3.3.3.8 0 1.1-.1.1-.3.2-.5.2-.3 0-.5-.1-.6-.2zm-2.1-2.2c-.3-.3-.3-.8 0-1.1.3-.3.8-.3 1.1 0 .3.3.3.8 0 1.1-.1.1-.3.2-.5.2-.3.1-.5 0-.6-.2zm-2.2-2.1c-.3-.3-.3-.8 0-1.1.3-.3.8-.3 1.1 0 .3.3.3.8 0 1.1-.2.1-.3.2-.5.2s-.4 0-.6-.2zm-2.1-2.1c-.3-.3-.3-.8 0-1.1.3-.3.8-.3 1.1 0 .3.3.3.8 0 1.1-.1.1-.3.2-.5.2-.3 0-.5-.1-.6-.2zm-2.2-2.2c-.3-.3-.3-.8 0-1.1.3-.3.8-.3 1.1 0 .3.3.3.8 0 1.1-.1.1-.3.2-.5.2-.2.1-.4 0-.6-.2zm-2.1-2.1c-.3-.3-.3-.8 0-1.1.3-.3.8-.3 1.1 0 .3.3.3.8 0 1.1-.1.1-.3.2-.5.2-.3 0-.5-.1-.6-.2zm-2.2-2.2c-.3-.3-.3-.8 0-1.1.3-.3.8-.3 1.1 0 .3.3.3.8 0 1.1-.1.1-.3.2-.5.2-.2.1-.4 0-.6-.2zm-2.1-2.1c-.3-.3-.3-.8 0-1.1.3-.3.8-.3 1.1 0 .3.3.3.8 0 1.1-.2.2-.3.2-.5.2-.3 0-.4-.1-.6-.2zm-2.1-2.1c-.3-.3-.3-.8 0-1.1.3-.3.8-.3 1.1 0 .3.3.3.8 0 1.1-.1.1-.3.2-.5.2-.3 0-.5-.1-.6-.2zm-72.8 93.6c-45.3 0-53.4-28.5-53.4-28.8-.1-.4.2-.8.6-.9.4-.1.8.2.9.6.1.5 9.2 32.5 64 27 .4 0 .8.3.8.7 0 .4-.3.8-.7.8-4.3.4-8.3.6-12.2.6zm82.5 0c-3.9 0-8-.2-12.5-.7-.4 0-.7-.4-.7-.8s.4-.7.8-.7c54.1 5.7 64-26.7 64-27 .1-.4.5-.6.9-.5.4.1.6.5.5.9.1.4-8.3 28.8-53 28.8z"/></svg>