<svg version="1.1" id="Layer_1" xmlns="http://www.w3.org/2000/svg" x="0" y="0" viewBox="0 0 360 360" xml:space="preserve"><style>.st0{fill:#fff}.st1{fill:#00ae57}</style><path class="st0" d="M295.3 137.5v87.1l-191.5 11.2V123.7z"/><path class="st1" d="M296.9 134.6l-194.4-14c-.4 0-.8.1-1.1.4-.3.3-.5.7-.5 1.1v115.4c0 .4.2.8.5 1.1.3.3.6.4 1 .4h.1L297 227.6c.8-.1 1.4-.7 1.4-1.5v-90c-.1-.8-.7-1.5-1.5-1.5zm-1.6 90l-191.5 11.2V123.7l191.5 13.8v87.1zM51 200.5l14-13.9 13.9 13.9H51zm34.9-44.1c1.2 0 2.3.5 3.3 1.4.9.9 1.4 2 1.4 3.3V189c0 1.2-.5 2.3-1.4 3.2-.9.9-2 1.4-3.3 1.4h-9.2V189h9.2v-27.9H44.1V189h9.2v4.6h-9.2c-1.2 0-2.3-.5-3.3-1.4-.9-.9-1.4-2-1.4-3.2v-27.9c0-1.2.5-2.3 1.4-3.3.9-.9 2-1.4 3.3-1.4h41.8z"/><path class="st1" d="M169.3 114.1l-64.7 64.7 64 64c35.8-35.7 36.1-93.4.7-128.7"/><path class="st0" d="M154.8 175.9l6.9-6.9v19l-6.9-6.9v6.1c0 .5-.2.9-.5 1.2-.4.3-.8.5-1.3.5h-20.7c-.5 0-.9-.2-1.2-.5-.3-.3-.5-.7-.5-1.2v-17.3c0-.5.2-.9.5-1.2.3-.3.7-.5 1.2-.5H153c.5 0 .9.2 1.3.5s.5.7.5 1.2v6z"/><path class="st1" d="M200.5 119c4.6 0 8.3-3.7 8.3-8.3 0-4.6-3.7-8.3-8.3-8.3-4.6 0-8.3 3.7-8.3 8.3 0 4.5 3.7 8.3 8.3 8.3m36.3 3.7c4.6 0 8.3-3.7 8.3-8.3 0-4.6-3.7-8.3-8.3-8.3-4.6 0-8.3 3.7-8.3 8.3-.1 4.5 3.7 8.3 8.3 8.3m75.5 48c4.6 0 8.3-3.7 8.3-8.3 0-4.6-3.7-8.3-8.3-8.3-4.6 0-8.3 3.7-8.3 8.3 0 4.6 3.7 8.3 8.3 8.3m0 39.7c4.6 0 8.3-3.7 8.3-8.3 0-4.6-3.7-8.3-8.3-8.3-4.6 0-8.3 3.7-8.3 8.3 0 4.6 3.7 8.3 8.3 8.3m-111.8 47.3c4.6 0 8.3-3.7 8.3-8.3 0-4.6-3.7-8.3-8.3-8.3-4.6 0-8.3 3.7-8.3 8.3 0 4.5 3.7 8.3 8.3 8.3m36.3-5c4.6 0 8.3-3.7 8.3-8.3 0-4.6-3.7-8.3-8.3-8.3-4.6 0-8.3 3.7-8.3 8.3-.1 4.5 3.7 8.3 8.3 8.3"/></svg>