<svg version="1.1" id="Layer_1" xmlns="http://www.w3.org/2000/svg" x="0" y="0" viewBox="0 0 297.5 172" xml:space="preserve"><style>.st0{fill:#00ae57}.st1{fill:none;stroke:#00ae57;stroke-width:3;stroke-linecap:round;stroke-linejoin:round}</style><path class="st0" d="M53.3 81c.8 0 1.5.3 2.1.9.6.6.9 1.3.9 2.1v18.2c0 .8-.3 1.5-.9 2.1s-1.3.9-2.1.9h-6v-3h6V84H26v18.2h6v3h-6c-.8 0-1.5-.3-2.1-.9-.6-.6-.9-1.3-.9-2.1V84c0-.8.3-1.5.9-2.1.6-.6 1.3-.9 2.1-.9h27.3zm-22.7 28.8l9.1-9.1 9.1 9.1H30.6z"/><path class="st1" d="M11 164h230.8c.9 0 1.6-.7 1.6-1.5M10.9 10h232.4v113.6"/><path opacity=".2" fill="#00ae57" d="M189.5 78.3l.1 78.6H242l.1-78.6z"/><path class="st1" d="M237.2 125.7c-16.1 0-29.1 13-29.1 29.1m35.3 7.7v-6.6m-.7-.4h-34.4"/><path d="M104.6 50.3c.5 0 1-.2 1-1v-2.2c0-.5-.2-1-1-1H86.2c-.4 0-1 .2-1 1v2.2c0 .4.2 1 1 1h18.4zm-3.3 16.8c.4 0 2.2-.1 2.2-2.2V52.6c0-.4-.1-2.2-2.2-2.2H89.4c-.4 0-2.2.1-2.2 2.2v12.3c0 .4.1 2.2 2.2 2.2h11.9zm68.9-16.8c.5 0 1-.2 1-1v-2.2c0-.5-.2-1-1-1h-18.5c-.4 0-1 .2-1 1v2.2c0 .4.2 1 1 1h18.5zm-3.3 16.8c.4 0 2.2-.1 2.2-2.2V52.6c0-.4-.1-2.2-2.2-2.2H155c-.4 0-2.2.1-2.2 2.2v12.3c0 .4.1 2.2 2.2 2.2h11.9zm-29.5-16.8c.5 0 1-.2 1-1v-2.2c0-.5-.2-1-1-1h-18.5c-.4 0-1 .2-1 1v2.2c0 .4.2 1 1 1h18.5zm-3.3 16.8c.4 0 2.2-.1 2.2-2.2V52.6c0-.4-.1-2.2-2.2-2.2h-11.9c-.4 0-2.2.1-2.2 2.2v12.3c0 .4.1 2.2 2.2 2.2h11.9zm17.6 65.5c-.5 0-1 .2-1 1v2.2c0 .4.2 1 1 1h18.5c.4 0 1-.2 1-1v-2.2c0-.4-.2-1-1-1h-18.5zm3.3-16.8c-.4 0-2.2.1-2.2 2.2v12.3c0 .4.1 2.2 2.2 2.2h11.9c.4 0 2.2-.1 2.2-2.2V118c0-.4-.1-2.2-2.2-2.2H155zm-68.9 16.8c-.5 0-1 .2-1 1v2.2c0 .4.2 1 1 1h18.4c.4 0 1-.2 1-1v-2.2c0-.4-.2-1-1-1H86.1zm3.3-16.8c-.4 0-2.2.1-2.2 2.2v12.3c0 .4.1 2.2 2.2 2.2h11.9c.4 0 2.2-.1 2.2-2.2V118c0-.4-.1-2.2-2.2-2.2H89.4zm29.5 16.8c-.5 0-1 .2-1 1v2.2c0 .4.2 1 1 1h18.5c.4 0 1-.2 1-1v-2.2c0-.4-.2-1-1-1h-18.5zm3.3-16.8c-.4 0-2.2.1-2.2 2.2v12.3c0 .4.1 2.2 2.2 2.2h11.9c.4 0 2.2-.1 2.2-2.2V118c0-.4-.1-2.2-2.2-2.2h-11.9z" fill="none" stroke="#00ae57" stroke-width="1.5"/><path fill="none" stroke="#00ae57" stroke-width="1.5" stroke-linecap="round" stroke-linejoin="round" d="M69.7 71.3h107.9V111H69.7z"/><path class="st0" d="M273.5 159.7c-10.3 0-18.7-8.4-18.7-18.7s8.4-18.7 18.7-18.7c10.3 0 18.7 8.4 18.7 18.7-.1 10.3-8.4 18.7-18.7 18.7"/><path d="M269.8 149.1v1.6h-5.9v1.9l-2.7-2.7 2.7-2.7v1.9h5.9zm-2.7-6.5l2.7 2.7-2.7 2.7v-1.9h-5.9v-1.6h5.9v-1.9zm5.4-11c0-.6.2-1.1.6-1.5s.9-.7 1.5-.7 1.1.2 1.5.7c.4.4.7.9.7 1.5s-.2 1.1-.7 1.5c-.4.4-.9.6-1.5.6s-1.1-.2-1.5-.6c-.4-.5-.6-1-.6-1.5m6.2 5.8l1.9.8v3.6h2.1v-5.1l-5.7-2.3c-.2-.1-.5-.2-.8-.2-.8 0-1.5.3-1.8 1l-1 1.7c-.5.8-1.2 1.5-2 2s-1.7.7-2.7.7v2.1c2.4 0 4.4-.9 5.9-2.8l.7 3.3-2.2 2.2v8.2h2.2v-6.5l2.3-2.2 1.9 8.7h2.3l-3.1-15.2z" fill="#fff"/></svg>