<svg version="1.1" id="Layer_1" xmlns="http://www.w3.org/2000/svg" x="0" y="0" viewBox="0 0 185.3 143.3" xml:space="preserve"><style>.st1{fill:none;stroke:#00ae57;stroke-width:3;stroke-linecap:round;stroke-linejoin:round}.st2{fill:#00ae57}.st3{fill:none;stroke:#00ae57;stroke-width:1.5}.st4{font-family:&apos;Roboto-Italic&apos;}.st5{font-size:12px}</style><circle cx="146.5" cy="60.3" r="31.6" opacity=".2" fill="#00ae57"/><path class="st1" d="M173.8 100.4c-16.1 0-29.1 13-29.1 29.1m34.5.7h-34.4"/><path class="st2" d="M41.1 25.7H22.6c-1 0-1.7-.7-1.8-1.7v-2.3c0-1 .7-1.7 1.7-1.7H41c1 0 1.7.7 1.8 1.7V24c0 1-.6 1.7-1.7 1.7zm-18.5-4.2c-.2 0-.2 0-.2.2V24c0 .2 0 .2.2.2H41c.3 0 .3 0 .3-.2v-2.2c0-.2 0-.2-.2-.2l-18.5-.1z"/><path class="st2" d="M37.8 42.5H25.9c-2 0-3-1.5-3-3V27.2c0-2 1.5-3 3-3h11.9c2 0 3 1.5 3 3v12.3c0 2-1.5 3-3 3zM25.9 25.8c-.6 0-1.5.2-1.5 1.5v12.3c0 .6.2 1.5 1.5 1.5h11.9c.6 0 1.5-.2 1.5-1.5V27.2c0-.5-.2-1.5-1.5-1.5l-11.9.1zm48-.1H55.4c-1 0-1.7-.7-1.8-1.7v-2.3c0-1 .7-1.7 1.7-1.7h18.5c1 0 1.7.7 1.8 1.7V24c0 1-.6 1.7-1.7 1.7zm-18.5-4.2c-.2 0-.2 0-.2.2V24c0 .2 0 .2.2.2h18.4c.3 0 .3 0 .3-.2v-2.2c0-.2 0-.2-.2-.2l-18.5-.1z"/><path class="st2" d="M70.6 42.5H58.7c-2 0-3-1.5-3-3V27.2c0-2 1.5-3 3-3h11.9c2 0 3 1.5 3 3v12.3c0 2-1.5 3-3 3zM58.7 25.8c-.6 0-1.5.2-1.5 1.5v12.3c0 .5.2 1.5 1.5 1.5h11.9c.6 0 1.5-.2 1.5-1.5V27.2c0-.6-.2-1.5-1.5-1.5l-11.9.1zm48-.1H88.2c-1 0-1.7-.7-1.8-1.7v-2.3c0-1 .7-1.7 1.7-1.7h18.5c1 0 1.7.7 1.8 1.7V24c0 1-.6 1.7-1.7 1.7zm-18.5-4.2c-.2 0-.2 0-.2.2V24c0 .2 0 .2.2.2h18.4c.3 0 .3 0 .3-.2v-2.2c0-.2 0-.2-.2-.2l-18.5-.1z"/><path class="st2" d="M103.4 42.5H91.5c-2 0-3-1.5-3-3V27.2c0-2 1.5-3 3-3h11.9c2 0 3 1.5 3 3v12.3c0 2-1.5 3-3 3zM91.5 25.8c-.5 0-1.5.2-1.5 1.4v12.3c0 .6.2 1.5 1.5 1.5h11.9c.6 0 1.5-.2 1.5-1.5V27.2c0-.6-.2-1.5-1.5-1.5l-11.9.1z"/><path class="st3" d="M22.6 107.3c-.5 0-1 .2-1 1v2.2c0 .5.2 1 1 1H41c.5 0 1-.2 1-1v-2.2c0-.4-.2-1-1-1H22.6z"/><path class="st2" d="M25.9 108c-2 0-3-1.5-3-3V92.7c0-2 1.5-3 3-3h11.9c2 0 3 1.5 3 3V105c0 2-1.5 3-3 3H25.9zm0-16.8c-.6 0-1.5.2-1.5 1.5V105c0 .6.2 1.5 1.5 1.5h11.9c.5 0 1.5-.2 1.5-1.5V92.7c0-.5-.2-1.5-1.5-1.5H25.9z"/><path class="st3" d="M55.4 107.3c-.5 0-1 .2-1 1v2.2c0 .5.2 1 1 1h18.5c.4 0 1-.2 1-1v-2.2c0-.4-.2-1-1-1H55.4z"/><path class="st2" d="M58.7 108c-2 0-3-1.5-3-3V92.7c0-2 1.5-3 3-3h11.9c2 0 3 1.5 3 3V105c0 2-1.5 3-3 3H58.7zm0-16.8c-.6 0-1.5.2-1.5 1.5V105c0 .5.2 1.5 1.5 1.5h11.9c.5 0 1.5-.2 1.5-1.5V92.7c0-.6-.2-1.5-1.5-1.5H58.7zm29.5 21.1c-1 0-1.7-.7-1.8-1.7v-2.3c0-1 .7-1.7 1.7-1.7h18.4c1 0 1.7.7 1.8 1.7v2.3c0 1-.7 1.7-1.7 1.7H88.2zm0-4.3c-.3 0-.3 0-.3.2v2.2c0 .2 0 .2.2.2h18.5c.2 0 .2 0 .2-.2v-2.2c0-.2 0-.2-.2-.2H88.2z"/><path class="st2" d="M91.5 108c-2 0-3-1.5-3-3V92.7c0-2 1.5-3 3-3h11.9c2 0 3 1.5 3 3V105c0 2-1.5 3-3 3H91.5zm0-16.8c-.6 0-1.5.2-1.5 1.5V105c0 .6.2 1.5 1.5 1.5h11.9c.5 0 1.5-.2 1.5-1.5V92.7c0-.6-.2-1.5-1.5-1.5H91.5zm22.6-4.8H6.2c-.4 0-.8-.3-.8-.8V46c0-.4.3-.8.8-.8h107.9c.4 0 .8.3.8.8v39.7c-.1.3-.4.7-.8.7zM6.9 84.9h106.4V46.7H6.9v38.2z"/><text transform="translate(124.531 59.461)" class="st2 st4 st5">1</text><text transform="translate(130.132 59.461)" class="st2 st4 st5">5</text><text transform="translate(136.431 59.461)" class="st2 st4 st5">00</text><text transform="translate(149.332 59.461)" class="st2 st4 st5">m</text><text transform="translate(159.132 59.461)" class="st2 st4 st5">m</text><text transform="rotate(-90 130.16 4.141)" class="st2 st4 st5">1</text><text transform="rotate(-90 127.41 1.391)" class="st2 st4 st5">2</text><text transform="rotate(-90 124.31 -1.709)" class="st2 st4 st5">00</text><text transform="rotate(-90 117.81 -8.209)" class="st2 st4 st5">m</text><text transform="rotate(-90 112.91 -13.109)" class="st2 st4 st5">m</text><path class="st2" d="M177.2 61.9h-60.3c-.4 0-.8-.3-.8-.8s.3-.8.8-.8h60.3c.4 0 .8.3.8.8s-.3.8-.8.8z"/><path class="st2" d="M116.9 65.3c-.4 0-.8-.3-.8-.8v-6.8c0-.4.3-.8.8-.8s.8.3.8.8v6.8c-.1.4-.4.8-.8.8zm60.3 0c-.4 0-.8-.3-.8-.8v-6.8c0-.4.3-.8.8-.8s.8.3.8.8v6.8c0 .4-.3.8-.8.8zm-64.5 71.5c-.4 0-.8-.3-.8-.8V87c0-.4.3-.8.8-.8s.8.3.8.8v49.1c-.1.4-.4.7-.8.7z"/><path class="st2" d="M116.1 136.8h-6.8c-.4 0-.8-.3-.8-.8s.3-.8.8-.8h6.8c.4 0 .8.3.8.8s-.4.8-.8.8zm0-49.1h-6.8c-.4 0-.8-.3-.8-.8s.3-.8.8-.8h6.8c.4 0 .8.3.8.8s-.4.8-.8.8z"/><path class="st1" d="M7.6 138.7h170.7c.9 0 1.6-.7 1.6-1.5v-6.6m-.1-126v93.6"/></svg>