<svg version="1.1" id="Layer_1" xmlns="http://www.w3.org/2000/svg" x="0" y="0" viewBox="0 0 88 156" xml:space="preserve"><style>.st1{fill:#00ae57}</style><path d="M49.8 81.5c0-1.4-.5-2.7-1.6-3.7s-2.3-1.6-3.7-1.6c-1.4 0-2.7.5-3.7 1.6s-1.6 2.3-1.6 3.7.5 2.6 1.6 3.7c1.1 1 2.3 1.6 3.7 1.6 1.4 0 2.6-.5 3.7-1.6 1.1-1 1.6-2.2 1.6-3.7M34.6 95.9l-4.7 2v8.9h-5.2V94.3l14-5.7c.6-.2 1.2-.4 2-.4 2.1 0 3.6.8 4.5 2.5l2.5 4.2c1.2 2 2.9 3.6 4.9 4.8 2 1.2 4.3 1.8 6.7 1.8v5.2c-5.9 0-10.7-2.3-14.5-6.9l-1.6 8 5.5 5.5v20.1h-5.4v-16l-5.7-5.4-4.6 21.4h-5.6l7.2-37.5z" opacity=".2" fill="#00ae57"/><path class="st1" d="M81.4 154.4H6.6c-1.1 0-2-.9-2-2V3.6c0-1.1.9-2 2-2h74.7c1.1 0 2 .9 2 2v148.7c.1 1.2-.8 2.1-1.9 2.1zm-72.8-4h70.7V5.6H8.6v144.8z"/><path class="st1" d="M4.6 49.4h78.7v59.7H4.6z"/><path d="M74.4 83.1h-1.3V71.4h1.1c.4 0 .8-.3.8-.8s-.3-.8-.8-.8h-1.1c-.8 0-1.5.7-1.5 1.5V83c0 .8.7 1.5 1.5 1.5h1.3c.4 0 .8-.3.8-.8s-.4-.6-.8-.6z" fill="#f7f8f9"/></svg>