<svg version="1.1" id="Layer_1" xmlns="http://www.w3.org/2000/svg" x="0" y="0" viewBox="0 0 363 204" xml:space="preserve"><style>.st1{fill:#0080c5}</style><path id="Bounding_BOX" fill="none" d="M0 0h363v204H0z"/><path class="st1" d="M348.5-54.8h-384c-1.4 0-2.5 1.1-2.5 2.5v241.8c0 1.4 1.1 2.5 2.5 2.5h384c1.4 0 2.5-1.1 2.5-2.5V-52.3c0-1.6-1.1-2.5-2.5-2.5zM345.8 187H-32.8V-49.8H346l-.2 236.8z"/><path class="st1" d="M254.2 132.1c-.6.6-.6 1.1-2.3 1.7-1.7.6-4 2.3-5.7 3.4-2.3 1.1-5.7 2.3-8 3.4-4.6 1.7-9.2 2.9-9.2 2.9v38.9h-12.6v-49.2l5.1-5.1 6.9-13.2-2.9-14.3c-2.3 2.3-4.6 5.1-7.4 7.4-1.7 1.1-4 2.3-5.7 4-6.3 4-14.3 5.7-22.3 5.7v-12.6c3.4 0 6.9-.6 9.7-1.7 2.3-.6 4-1.7 6.3-2.9 0 0 .6 0 .6-.6 4.6-2.9 8.6-6.9 11.4-11.4l5.7-10.3c2.3-4 5.7-5.7 10.9-5.7 1.7 0 3.4.6 4.6.6 0 0 8 4 10.9 12.6 2.9 8.6 7.5 41.2 4 46.4zm-41.1-76.7c0-3.4 1.1-6.3 4-9.2 2.3-2.3 5.7-4 9.2-4s6.3 1.1 9.2 4c2.3 2.3 4 5.7 4 9.2s-1.1 6.3-4 9.2c-2.3 2.3-5.7 4-9.2 4s-6.3-1.1-9.2-4c-2.9-2.3-4-5.7-4-9.2zm60.6 81.8c-1.1 0-2.3 0-3.4-.6-2.9-.6-5.7-2.9-6.9-5.7-1.1-2.3-1.7-5.7-.6-8.6l9.2-28.6c2.3-5.7 8.6-9.2 14.3-7.4 2.9.6 5.7 2.9 6.9 5.7 1.1 2.3 1.7 5.7.6 8.6l-9.2 28.6c-1.8 4.6-5.8 8-10.9 8zm9.1-44.6c-2.3 0-4 1.1-4.6 3.4l-9.2 28.6c-.6 1.1-.6 2.3.6 4 .6 1.1 1.7 2.3 2.9 2.3 2.3.6 5.7-.6 6.3-2.9l9.2-28.6c.6-1.1.6-2.3-.6-4-.6-1.1-1.7-2.3-2.9-2.9-.5.1-1.1.1-1.7.1z"/><path class="st1" d="M261.1 153.8h-30.3c-6.3 0-11.4-4-11.4-9.2v-2.3c0-5.1 5.1-9.2 11.4-9.2h30.3c6.3 0 11.4 4 11.4 9.2v2.3c0 5.2-5.1 9.2-11.4 9.2zm-30.3-13.2c-2.9 0-5.1 1.7-5.1 2.3v2.3c0 .6 2.3 2.3 5.1 2.3h30.3c2.9 0 5.1-1.7 5.1-2.3v-2.3c-.6-1.1-2.3-2.3-5.1-2.3h-30.3zm15.4 13.2h6.3v12.6h-6.3z"/><path class="st1" d="M241.7 174.4l7.4-7.4 7.4 7.4h9.2l-14.3-14.3c-1.1-1.1-3.4-1.1-4 0l-14.3 14.3h8.6z"/><path class="st1" d="M232.5 174.4c0-2.9 2.3-5.7 5.7-5.7s5.7 2.3 5.7 5.7c0 2.9-2.3 5.7-5.7 5.7-4-.6-5.7-2.9-5.7-5.7zm23.5 0c0-2.9 2.3-5.7 5.7-5.7s5.7 2.3 5.7 5.7c0 2.9-2.3 5.7-5.7 5.7-3.4-.6-5.7-2.9-5.7-5.7zm-43.3-59.1H30.1c-1.7 0-3.1 1.3-3.1 3.2v17c0 1.7 1.4 3.1 3.1 3.1h40.6v40.6c0 1.7 1.5 3.2 3.2 3.2s3.2-1.5 3.2-3.2v-40.6H165v40.6c0 1.7 1.5 3.2 3.2 3.2 1.7 0 3.1-1.5 3.1-3.2v-40.6h41.4c1.7 0 3.2-1.4 3.2-3.1v-17.2c0-1.9-1.5-3-3.2-3zm-3.1 16.9H33.3v-10.6h176.2v10.6z"/><path opacity=".5" fill="#0080c5" d="M327.3-172.2h19.3V49.9h-19.3z"/><path class="st1" d="M333.8 181.7c-1.1 0-1.7-.6-1.7-1.7V54.8c0-.4.2-1.1.6-1.3.2-.2.6-.4 1.1-.4.4 0 .9.2 1.1.4.4.2.4.6.4 1.3v125.1c.2.9-.4 1.8-1.5 1.8z"/><path class="st1" d="M323.4 62.5l10.3-10.3L344 62.5zM344 172.2l-10.3 10.3-10.3-10.3zm-5.5-120h-9.6c-.6 0-1.1-.4-1.1-1.1v-.3c.1-.4.6-.8 1.1-.8h9.6c.4 0 1 .3 1.1.8v.3c0 .7-.4 1.1-1.1 1.1zm0 132.6h-9.6c-.6 0-1.1-.4-1.1-1.1v-.3c.1-.4.6-.8 1.1-.8h9.6c.4 0 1 .3 1.1.8v.3c0 .7-.4 1.1-1.1 1.1z"/></svg>