<svg version="1.1" id="Layer_1" xmlns="http://www.w3.org/2000/svg" x="0" y="0" viewBox="0 0 363 204" xml:space="preserve"><style>.st1{fill:#0080c5}</style><path id="Bounding_BOX" fill="none" d="M0 0h363v204H0z"/><path class="st1" d="M323.2 22.9h-142c-.8 0-1.5.7-1.5 1.5v40.5h3.1v-39h139v146h-41v3h42.4c.9 0 1.5-.6 1.5-1.5v-149c0-.8-.7-1.5-1.5-1.5zm-140.4 149v-21.8h-3.1v23.3c0 .8.7 1.5 1.5 1.5h14.5v-3h-12.9z"/><path class="st1" d="M183.3 64.2V24.4c0-.8-.7-1.5-1.5-1.5h-142c-.8 0-1.5.7-1.5 1.5v149c0 .8.7 1.5 1.5 1.5h141.9c.9 0 1.5-.6 1.6-1.5v-22.6h-3v21.1h-139v-146h139v38.3h3z"/><path class="st1" d="M79.6 172.1c-.4 0-.8-.3-.8-.8 0-5.7-1.6-10.1-4.7-13.2-3.5-3.4-8.8-5.1-15.9-4.9-.4 0-.7-.3-.8-.7 0-.4.3-.8.7-.8 7.5-.2 13.2 1.6 17 5.4 3.5 3.4 5.2 8.2 5.2 14.3.1.4-.3.7-.7.7z"/><path class="st1" d="M57.8 172.7c-.4 0-.8-.3-.8-.8v-19.5c0-.4.3-.8.8-.8s.8.3.8.8V172c-.1.4-.4.7-.8.7zM184.5 63.4h-6.2c-.5 0-.8.4-.8.8v86.6c0 .5.4.8.8.8h6.2c.4 0 .7-.4.8-.8V64.2c0-.5-.4-.8-.8-.8zm-.8 86.7H179V64.9h4.7v85.2zM116 76.8h-10c-1.1 0-1.8-.7-1.8-1.8V64.6c0-1.1.8-1.8 1.8-1.8h10c.9 0 1.8.6 1.8 1.8V75c.1.9-.5 1.8-1.8 1.8zm-10-1.5h10c.2 0 .3 0 .3-.4V64.6c0-.2 0-.3-.4-.3h-10c-.2 0-.3 0-.3.4V75c0 .2 0 .3.4.3z"/><path class="st1" d="M118.4 64.2h-14.8c-.6 0-1-.4-1-1v-2.7c0-.5.3-1 1-1h14.8c.5 0 1 .3 1 1v2.7c0 .5-.3 1-1 1zm-14.3-1.5h13.8V61h-13.8v1.7zM87.6 76.8H77.5c-1.1 0-1.8-.7-1.8-1.8V64.6c0-.9.6-1.8 1.8-1.8h10.1c.9 0 1.8.6 1.8 1.8V75c0 .9-.6 1.8-1.8 1.8zm-10.1-1.5h10c.2 0 .3 0 .3-.4V64.6c0-.2 0-.3-.4-.3h-9.9c-.2 0-.3 0-.3.4V75c0 .2 0 .3.3.3z"/><path class="st1" d="M89.9 64.2H75.1c-.6 0-1-.4-1-1v-2.7c0-.5.3-1 1-1h14.8c.5 0 1 .3 1 1v2.7c0 .5-.2 1-1 1zm-14.3-1.5h13.9V61H75.7l-.1 1.7zm68.9 14.1h-10.1c-1.1 0-1.8-.7-1.8-1.8V64.6c0-.9.6-1.8 1.8-1.8h10c.9 0 1.8.6 1.8 1.8V75c.1.9-.5 1.8-1.7 1.8zm-10.1-1.5h10c.2 0 .3 0 .3-.4V64.6c0-.2 0-.3-.4-.3h-10c-.2 0-.3 0-.3.4V75c.1.2.1.3.4.3z"/><path class="st1" d="M146.9 64.2h-14.8c-.6 0-1-.4-1-1v-2.7c0-.5.3-1 1-1h14.8c.5 0 1 .3 1 1v2.7c-.1.5-.3 1-1 1zm-14.4-1.5h13.8V61h-13.8v1.7zM116 126.1h-10c-.9 0-1.8-.6-1.8-1.8v-10.4c0-1.1.7-1.8 1.8-1.8h10.1c1.1 0 1.8.7 1.8 1.8v10.4c-.1 1.1-.8 1.8-1.9 1.8zm-10-12.6c-.2 0-.3 0-.3.4v10.4c0 .2 0 .3.4.3h10c.2 0 .3 0 .3-.4v-10.3c0-.2 0-.3-.4-.3l-10-.1z"/><path class="st1" d="M118.4 129.4h-14.8c-.5 0-1-.3-1-1v-2.7c0-.5.3-1 1-1h14.8c.6 0 1 .4 1 1v2.7c0 .4-.3 1-1 1zm-14.3-3.2v1.7h13.8v-1.7h-13.8zm40.4-.1h-10c-.9 0-1.8-.6-1.8-1.8v-10.4c0-.9.6-1.8 1.8-1.8h10c1.1 0 1.8.7 1.8 1.8v10.4c0 1.1-.7 1.8-1.8 1.8zm-10.1-12.6c-.2 0-.3 0-.3.4v10.4c0 .2 0 .3.4.3h10c.2 0 .3 0 .3-.4v-10.3c0-.2 0-.3-.4-.3l-10-.1z"/><path class="st1" d="M146.9 129.4H132c-.5 0-1-.3-1-1v-2.7c0-.5.3-1 1-1h14.8c.6 0 1 .4 1 1v2.7c0 .4-.2 1-.9 1zm-14.4-3.2v1.7h13.8v-1.7h-13.8zm-44.9-.1H77.5c-.9 0-1.8-.6-1.8-1.8v-10.4c0-.9.6-1.8 1.8-1.8h10.1c1.1 0 1.8.7 1.8 1.8v10.4c0 1.1-.7 1.8-1.8 1.8zm-10.1-12.6c-.2 0-.3 0-.3.4v10.4c0 .2 0 .3.4.3h10c.2 0 .3 0 .3-.4v-10.3c0-.2 0-.3-.4-.3l-10-.1z"/><path class="st1" d="M89.9 129.4H75.1c-.5 0-1-.3-1-1v-2.7c0-.5.3-1 1-1h14.8c.6 0 1 .4 1 1v2.7c0 .4-.2 1-1 1zm-14.3-3.2v1.7h13.8v-1.7H75.6zm182.2-49.4h-10.1c-1.1 0-1.8-.7-1.8-1.8V64.6c0-.9.6-1.8 1.8-1.8h10c.9 0 1.8.6 1.8 1.8V75c.1.9-.5 1.8-1.7 1.8zm-10.1-1.5h10c.2 0 .3 0 .3-.4V64.6c0-.2 0-.3-.4-.3h-10c-.2 0-.3 0-.3.4V75c.1.2.1.3.4.3z"/><path class="st1" d="M260.1 64.2h-14.8c-.6 0-1-.4-1-1v-2.7c0-.5.3-1 1-1h14.8c.5 0 1 .3 1 1v2.7c0 .5-.3 1-1 1zm-14.3-1.5h13.8V61h-13.8v1.7zm-16.5 14.1h-10.1c-1.1 0-1.8-.7-1.8-1.8V64.6c0-.9.6-1.8 1.8-1.8h10c.9 0 1.8.6 1.8 1.8V75c.1.9-.4 1.8-1.7 1.8zm-10-1.5h10c.2 0 .3 0 .3-.4V64.6c0-.2 0-.3-.4-.3h-10c-.2 0-.3 0-.3.4V75c0 .2 0 .3.4.3z"/><path class="st1" d="M231.7 64.2h-14.8c-.6 0-1-.4-1-1v-2.7c0-.5.3-1 1-1h14.8c.5 0 1 .3 1 1v2.7c0 .5-.3 1-1 1zm-14.3-1.5h13.8V61h-13.8v1.7zm68.8 14.1h-10.1c-1.1 0-1.8-.7-1.8-1.8V64.6c0-.9.6-1.8 1.8-1.8h10.1c.9 0 1.8.6 1.8 1.8V75c0 .9-.5 1.8-1.8 1.8zm-10-1.5h10c.2 0 .3 0 .3-.4V64.6c0-.2 0-.3-.4-.3h-10c-.2 0-.3 0-.3.4V75c0 .2 0 .3.4.3z"/><path class="st1" d="M288.6 64.2h-14.8c-.6 0-1-.4-1-1v-2.7c0-.5.3-1 1-1h14.8c.5 0 1 .3 1 1v2.7c0 .5-.3 1-1 1zm-14.3-1.5h13.8V61h-13.8v1.7zm-16.5 63.4h-10.1c-.9 0-1.8-.6-1.8-1.8v-10.4c0-.9.6-1.8 1.8-1.8h10.1c1.1 0 1.8.7 1.8 1.8v10.4c0 1.1-.7 1.8-1.8 1.8zm-10.1-12.6c-.2 0-.3 0-.3.4v10.4c0 .2 0 .3.4.3h10c.2 0 .3 0 .3-.4v-10.3c0-.2 0-.3-.4-.3l-10-.1z"/><path class="st1" d="M260.1 129.4h-14.8c-.5 0-1-.3-1-1v-2.7c0-.5.3-1 1-1h14.8c.6 0 1 .4 1 1v2.7c0 .4-.2 1-1 1zm-14.3-3.2v1.7h13.8v-1.7h-13.8zm40.4-.1h-10c-.9 0-1.8-.6-1.8-1.8v-10.4c0-.9.6-1.8 1.8-1.8h10.1c1.1 0 1.8.7 1.8 1.8v10.4c-.1 1.1-.8 1.8-1.9 1.8zm-10-12.6c-.2 0-.3 0-.3.4v10.4c0 .2 0 .3.4.3h10c.2 0 .3 0 .3-.4v-10.3c0-.2 0-.3-.4-.3l-10-.1z"/><path class="st1" d="M288.6 129.4h-14.8c-.5 0-1-.3-1-1v-2.7c0-.5.3-1 1-1h14.8c.6 0 1 .4 1 1v2.7c0 .4-.3 1-1 1zm-14.3-3.2v1.7h13.8v-1.7h-13.8zm-45-.1h-10c-.9 0-1.8-.6-1.8-1.8v-10.4c0-.9.6-1.8 1.8-1.8h10.1c1.1 0 1.8.7 1.8 1.8v10.4c-.1 1.1-.8 1.8-1.9 1.8zm-10-12.6c-.2 0-.3 0-.3.4v10.4c0 .2 0 .3.4.3h10c.2 0 .3 0 .3-.4v-10.3c0-.2 0-.3-.4-.3l-10-.1z"/><path class="st1" d="M231.7 129.4h-14.8c-.5 0-1-.3-1-1v-2.7c0-.5.3-1 1-1h14.8c.6 0 1 .4 1 1v2.7c0 .4-.3 1-1 1zm-14.3-3.2v1.7h13.8v-1.7h-13.8zm-64.3-15.5h-82c-.4 0-.8-.3-.8-.8V79.4c0-.4.3-.8.8-.8H153c.4 0 .8.3.8.8V110c0 .4-.3.7-.7.7zm-81.2-1.5h80.4V80.1H71.9v29.1zm222.9 1.5h-81.9c-.4 0-.8-.3-.8-.8V79.4c0-.4.3-.8.8-.8h81.9c.4 0 .8.3.8.8V110c0 .4-.4.7-.8.7zm-81.2-1.5H294V80.1h-80.4v29.1zm68 60.3H195c-.5 0-.8.4-.8.8v6.2c0 .5.4.8.8.8h86.6c.4 0 .8-.4.8-.8v-6.2c0-.5-.4-.8-.8-.8zm-.8 6.3h-85.1v-4.7h85.1v4.7z"/><path d="M273.5 171.6c-.2 0-.4-.1-.5-.2l-4.5-4.5c-.3-.3-.3-.9 0-1.2s.9-.3 1.2 0l4 4 10.2-10.1c.3-.3.9-.3 1.2 0s.3.9 0 1.2l-10.8 10.8c-.4-.1-.6 0-.8 0z" fill="#00ad57"/><path class="st1" d="M310.8 172.7c-.4 0-.8-.3-.8-.8v-19.5c0-.4.3-.8.8-.8s.8.3.8.8V172c0 .4-.4.7-.8.7z"/><path class="st1" d="M289.5 171.8c-.4 0-.8-.3-.8-.8 0-6.1 1.8-10.9 5.2-14.3 3.8-3.7 9.5-5.5 17-5.4.4 0 .7.4.7.8s-.3.7-.8.7c-7.1-.2-12.4 1.5-15.9 4.9-3.2 3.1-4.7 7.5-4.7 13.2 0 .5-.3.9-.7.9z"/><path d="M182.6 63.8l5.9-5.9c.3-.3.3-.9 0-1.2-.3-.3-.9-.3-1.2 0l-5.9 5.9-5.9-5.9c-.3-.3-.9-.3-1.2 0-.3.3-.3.9 0 1.2l5.9 5.9-5.9 5.9c-.3.3-.3.9 0 1.2.1.1.3.2.5.2s.3-.1.7-.2l5.9-5.9 5.9 5.9c.1.1.3.2.5.2s.4-.1.7-.2c.3-.3.3-.9 0-1.2l-5.9-5.9z" fill="#ef4931"/></svg>