<svg version="1.1" id="Layer_1" xmlns="http://www.w3.org/2000/svg" x="0" y="0" viewBox="0 0 363 204" xml:space="preserve"><style>.st2{fill:#ef4931}.st3,.st4{fill:#0080c5}.st4{opacity:.5;enable-background:new}</style><path id="Bounding_BOX" fill="none" d="M0 0h363v204H0z"/><path d="M93.7 43c-.3 0-.6-.1-.7-.3l-5.8-5.8c-.4-.4-.4-1.1 0-1.6.4-.4 1.1-.4 1.6 0l5.1 5.1 13.1-13c.4-.4 1.1-.4 1.6 0 .4.4.4 1.1 0 1.6L94.7 42.8c-.6 0-.8.2-1 .2z" fill="#00ad57"/><path class="st2" d="M256.7 44.4c-.3 0-.6-.1-.7-.3-.4-.4-.4-1.1 0-1.6l16.8-16.8c.4-.4 1.1-.4 1.6 0s.4 1.1 0 1.6l-16.8 16.8c-.3.3-.6.3-.9.3z"/><path class="st2" d="M273.7 44.4c-.3 0-.6-.1-.7-.3l-17-16.8c-.4-.4-.4-1.1 0-1.6.4-.4 1.1-.4 1.6 0l16.8 16.8c.4.4.4 1.1 0 1.6-.2.3-.4.3-.7.3z"/><path class="st3" d="M173.9 184.1H21.3c-.6 0-1.1-.4-1.1-1.1V56.3c0-.6.4-1.1 1.1-1.1h152.5c.6 0 1.1.4 1.1 1.1v126.8c0 .4-.5 1-1 1zm-151.6-2.2h150.4V57.3H22.3v124.6z"/><path class="st4" d="M172.7 56.8H21.8v12h138.9v113.1h12V68.8z"/><path class="st3" d="M341.7 184.1H189.1c-.6 0-1.1-.4-1.1-1.1V56.3c0-.6.4-1.1 1.1-1.1h152.5c.6 0 1.1.4 1.1 1.1v126.8c0 .4-.5 1-1 1zm-151.6-2.2h150.4V57.3H190.1v124.6z"/><path class="st4" d="M189.3 56.3h152v12.6h-152zm0 113.9h152v12.6h-152z"/></svg>