<svg version="1.1" id="Layer_1" xmlns="http://www.w3.org/2000/svg" x="0" y="0" viewBox="0 0 363 204" xml:space="preserve"><style>.st1{fill:#0080c5}</style><path id="Bounding_BOX" fill="none" d="M0 0h363v204H0z"/><path class="st1" d="M257.2 26.6H105.6c-.7 0-1 .6-1 1.1v125.9c0 .7.6 1.1 1.1 1.1h151.6c.6 0 1-.6 1.1-1v-126c-.1-.6-.7-1.1-1.2-1.1zm-150.7 2.2h148.7L106.5 151.4V28.8zM256 152.7H108.4L256 30.9v121.8z"/><path opacity=".5" fill="#0080c5" d="M256.7 30l.7 123.4-149.9-.7z"/><path class="st1" d="M168.7 170l1.6-6.4h6.4l-.2 1.5h-5l-1 3.5c.6-.4 1.3-.6 2.1-.6 1.1 0 1.9.4 2.4 1.2.6.8.8 1.8.7 3-.1 1.3-.6 2.4-1.4 3.2s-1.8 1.2-3.1 1.2c-1 0-1.8-.3-2.5-1s-1-1.5-1-2.6h1.5c0 .7.2 1.2.6 1.6s.8.6 1.5.6c.8 0 1.4-.2 1.9-.8s.8-1.3.9-2.2c.1-.8-.1-1.4-.4-2s-.9-.8-1.6-.8c-.4 0-.8.1-1.1.2s-.7.3-1 .6l-1.3-.2zm12.1 6.7c-1.1 0-1.9-.4-2.4-1.1s-.8-1.8-.7-3.2c0-.4 0-.9.1-1.3l.3-2.1c.3-1.8.8-3.2 1.6-4.1s1.8-1.3 3.1-1.3c1.1 0 1.9.4 2.4 1.1s.8 1.8.7 3.2c0 .4-.1.9-.1 1.3l-.3 2.1c-.3 1.9-.9 3.3-1.6 4.2s-1.8 1.2-3.1 1.2zm3.5-7.9c.1-.7.1-1.3.1-1.7 0-1.5-.6-2.3-1.7-2.3-.8 0-1.5.3-2 .9-.5.6-.9 1.6-1.1 3l-.4 2.5c-.1.7-.1 1.2-.1 1.7 0 1.6.6 2.3 1.7 2.4.8 0 1.4-.3 1.9-.9s.9-1.6 1.1-2.9l.5-2.7zm6.8-5.3c.7 0 1.3.3 1.7.8.4.5.6 1.1.6 1.9l-.1.7c-.1.8-.4 1.4-.9 1.9s-1.2.7-1.9.7-1.3-.3-1.7-.8-.6-1.1-.6-1.9l.1-.6c.1-.8.4-1.5.9-2 .6-.5 1.2-.7 1.9-.7zm-1.4 12l-.9-.6 7.7-9.9.9.6-7.7 9.9zm-.3-8.7c0 .5.1.9.3 1.1.2.3.5.4.9.4s.7-.1 1-.4c.3-.3.5-.7.5-1.2l.1-.7c0-.4 0-.8-.2-1.1s-.5-.5-.9-.5-.8.1-1.1.4-.5.7-.5 1.2l-.1.8zm6.5 3.9c.7 0 1.3.3 1.7.8.4.5.6 1.1.6 1.9l-.1.6c-.1.8-.4 1.5-.9 2s-1.2.8-1.9.7c-.7 0-1.3-.3-1.7-.8s-.6-1.1-.6-1.9l.1-.6c.1-.8.4-1.5.9-2s1.2-.7 1.9-.7zm-1.7 3.3c0 .5.1.8.3 1.1.2.3.5.4.9.4s.8-.1 1.1-.4.5-.7.5-1.2l.1-.7c0-.4 0-.8-.2-1.1s-.5-.5-.9-.5-.8.1-1.1.4-.5.7-.5 1.2l-.2.8z"/></svg>