<svg version="1.1" id="Layer_1" xmlns="http://www.w3.org/2000/svg" x="0" y="0" viewBox="0 0 363 204" xml:space="preserve"><style>.st1{fill:#0080c5}</style><path id="Bounding_BOX" fill="none" d="M0 0h363v204H0z"/><path class="st1" d="M304.4 31.5v126.2h-72.1v-1.5H248V33h-15.7v-1.5z"/><path class="st1" d="M248 157.7h-69.1c-.8 0-1.5-.7-1.5-1.5V33c0-.8.7-1.5 1.5-1.5H248c.8 0 1.5.7 1.5 1.5v123.2c0 .8-.7 1.5-1.5 1.5zm-67.6-3h66.1V34.5h-66.1v120.2z"/><path class="st1" d="M241.6 96.1l-7.4-6.2v12.3z"/><path class="st1" d="M235.4 97.1h-7.7c-.4 0-.8-.3-.8-.8s.3-.8.8-.8h7.7c.4 0 .8.3.8.8s-.4.8-.8.8zm-119.7-4.7c2.8 0 5-2.2 5-5s-2.2-5-5-5-5 2.2-5 5 2.3 5 5 5"/><path class="st1" d="M133 156.9H46.8c-.8 0-1.5-.7-1.5-1.5V22.5c0-.8.7-1.5 1.5-1.5H133c.9 0 1.5.7 1.5 1.5v132.9c0 .9-.6 1.5-1.5 1.5zm-84.7-3h83.2V24H48.3v129.9zM316.9 28.6h-152c-.4 0-.8-.3-.8-.8v-5.6c0-.4.3-.8.8-.8h152c.4 0 .8.3.8.8v5.7c0 .4-.4.7-.8.7zm-151.2-1.5h150.5v-4.2H165.7v4.2z"/><path class="st1" d="M125.2 156.9H54.6c-.4 0-.8-.3-.8-.8V28.3c0-.4.3-.8.8-.8h70.6c.4 0 .8.3.8.8v127.9c0 .4-.4.7-.8.7zm-69.8-1.5h69.1V29H55.4v126.4z"/><path d="M86.6 180.4c-.2 0-.4-.1-.5-.2l-4.5-4.5c-.3-.3-.3-.9 0-1.2s.9-.3 1.2 0l4 4L97 168.4c.3-.3.9-.3 1.2 0 .3.3.3.9 0 1.2l-10.8 10.7c-.3 0-.6.1-.8.1z" fill="#00ad57"/><path d="M242.1 175.7l5.9-5.9c.3-.3.3-.9 0-1.2s-.9-.3-1.2 0l-5.9 5.9-5.9-5.9c-.3-.3-.9-.3-1.2 0-.3.3-.3.9 0 1.2l5.9 5.9-5.9 5.9c-.3.3-.3.9 0 1.2.1.1.3.2.5.2s.3-.1.7-.2l5.9-5.9 5.9 5.9c.1.1.3.2.5.2s.4-.1.7-.2c.3-.3.3-.9 0-1.2l-5.9-5.9z" fill="#ef4931"/></svg>