<svg version="1.1" id="Layer_1" xmlns="http://www.w3.org/2000/svg" x="0" y="0" viewBox="0 0 1200 675" xml:space="preserve"><style>.st0{fill:#ccc}.st2{enable-background:new}.st3{fill:#fff}.st4{fill:#754e9e}.st5{fill:#4eb775}.st6{fill:#52575b}.st7{fill:#0580c3}.st8{fill:#0080c5}.st9{fill:#f6f8f9}</style><path class="st0" d="M596.3 248.6h6.8v238.7h-6.8z"/><path class="st0" d="M596 376.3h150.8v6.8H596z"/><path id="Bounding_BOX_1_" fill="none" d="M-1 0h1200v675H-1z"/><path class="st0" d="M354.1 248.2h393.1v6.8H354.1z"/><path class="st0" d="M410.7 253.3c0-1.7-.1-3.4-.3-5.1h-37.2v42.6c20.7 0 37.5-16.8 37.5-37.5m78.4 19.8c11.9 0 21.6-9.7 21.6-21.6s-9.7-21.6-21.6-21.6-21.6 9.7-21.6 21.6c0 12.1 9.7 21.6 21.6 21.6"/><g class="st2"><path class="st3" d="M469.9 247.6h2l3.7 6.1h.1l-.1-1.7v-4.4h1.7v9.1h-1.8l-3.8-6.5h-.1l.1 1.7v4.7H470v-9h-.1z"/></g><g class="st2"><path class="st3" d="M479.4 247.6h1.7v9.1h-1.7v-9.1z"/></g><g class="st2"><path class="st3" d="M484.8 256.3c-.8-.4-1.3-1-1.7-1.7-.4-.7-.6-1.5-.6-2.4s.2-1.7.6-2.4 1-1.3 1.7-1.7 1.5-.6 2.4-.6c1.4 0 2.5.5 3.4 1.5l-1.2 1.2c-.6-.7-1.3-1-2.2-1-.6 0-1.1.1-1.6.4-.5.2-.8.6-1.1 1.1-.3.5-.4 1-.4 1.6s.1 1.2.4 1.6c.3.5.6.8 1.1 1.1.5.2 1 .4 1.6.4.9 0 1.7-.4 2.4-1.2l1.2 1.2c-.5.5-1 .9-1.6 1.2s-1.3.4-2 .4c-.8-.1-1.6-.3-2.4-.7zm10.3-1.1l1.6-1.6 1.6-1.6c.3-.3.5-.6.6-.8s.2-.5.2-.8-.1-.5-.3-.8c-.2-.2-.5-.3-.9-.3s-.6.1-.9.3-.3.5-.5.8l-1.5-.6c.1-.3.3-.6.5-.9.2-.3.6-.6 1-.8s.9-.3 1.4-.3c.6 0 1.1.1 1.5.3s.8.5 1 .9.3.8.3 1.3c0 .9-.5 1.9-1.4 2.7-.3.3-1 1-2.1 2l.1.1h3.5v1.5H495l.1-1.4zm8.7 1.4c-.4-.2-.8-.4-1.1-.8-.3-.3-.5-.8-.6-1.3l1.5-.6c.1.4.3.8.6 1 .3.2.6.3 1 .3s.8-.1 1-.4c.3-.3.4-.6.4-1s-.1-.8-.4-1c-.3-.3-.6-.4-1-.4-.2 0-.5.1-.7.2-.2.1-.4.2-.5.4l-1.6-.7.5-4.4h4.9v1.5h-3.5l-.3 2h.1c.4-.3.9-.5 1.5-.5.5 0 .9.1 1.3.3s.8.6 1 1c.2.5.4.9.4 1.5s-.1 1.1-.4 1.5c-.3.5-.6.8-1.1 1s-1 .4-1.6.4c-.5.3-1 .2-1.4 0z"/></g><path class="st0" d="M653.2 253.8c0-1.9-.1-3.7-.3-5.5h-40.5v46.5c22.5-.2 40.8-18.5 40.8-41m39.1 19.3c11.9 0 21.6-9.7 21.6-21.6s-9.7-21.6-21.6-21.6-21.6 9.7-21.6 21.6c0 12.1 9.7 21.6 21.6 21.6"/><path class="st4" d="M740.4 248.6h6.8v130.1h-6.8z"/><path class="st4" d="M743.8 315.6c11.9 0 21.6-9.7 21.6-21.6s-9.7-21.6-21.6-21.6-21.6 9.7-21.6 21.6c.1 12.1 9.7 21.6 21.6 21.6"/><path class="st0" d="M740.4 376.5h6.8v112.3h-6.8z"/><path class="st0" d="M743.8 429.9c11.9 0 21.6-9.7 21.6-21.6s-9.7-21.6-21.6-21.6-21.6 9.7-21.6 21.6c.1 12 9.7 21.6 21.6 21.6"/><g class="st2"><path class="st3" d="M724.3 403.6h2l3.7 6.1h.1l-.1-1.7v-4.4h1.7v9.1h-1.8l-3.8-6.5h-.1l.1 1.7v4.7h-1.7l-.1-9z"/></g><g class="st2"><path class="st3" d="M733.8 403.6h1.7v9.1h-1.7v-9.1z"/></g><g class="st2"><path class="st3" d="M739.2 412.3c-.8-.4-1.3-1-1.7-1.7s-.6-1.5-.6-2.4.2-1.7.6-2.4c.4-.7 1-1.3 1.7-1.7.8-.4 1.5-.6 2.4-.6 1.4 0 2.5.5 3.4 1.5l-1.2 1.2c-.6-.7-1.3-1-2.2-1-.6 0-1.1.1-1.6.4-.5.2-.8.6-1.1 1.1s-.4 1-.4 1.6.1 1.2.4 1.6.6.8 1.1 1.1c.5.2 1 .4 1.6.4.9 0 1.7-.4 2.4-1.2l1.2 1.2c-.5.5-1 .9-1.6 1.2-.6.3-1.3.4-2 .4-.8-.1-1.6-.3-2.4-.7zm11.3 0c-.6-.4-.9-.9-1.2-1.7l1.6-.6c.1.4.3.8.5.9.3.2.6.3 1 .3.3 0 .7-.1.9-.3.3-.2.4-.5.4-.8s-.1-.6-.4-.9c-.3-.2-.6-.3-1.2-.3h-.7v-1.5h.7c.3 0 .7-.1.9-.3.2-.2.4-.5.4-.8s-.1-.5-.3-.7-.5-.3-.8-.3-.6.1-.8.3c-.2.2-.3.4-.5.7l-1.5-.6c.2-.5.5-.9 1-1.3.5-.3 1.1-.6 1.8-.6.5 0 1 .1 1.5.3.4.2.8.5 1 .8s.3.8.3 1.2c0 .5-.1.9-.3 1.2-.2.3-.5.6-.8.7v.1c.4.2.8.4 1 .8.3.3.4.8.4 1.3s-.1.9-.4 1.3c-.3.4-.6.7-1 .9-.5.2-1 .3-1.6.3-.7.2-1.3 0-1.9-.4zm7.9 0c-.5-.4-1-.9-1.3-1.6s-.5-1.5-.5-2.3.2-1.6.5-2.3c.3-.7.7-1.2 1.3-1.6.5-.4 1.2-.6 1.9-.6.8 0 1.3.2 1.9.6.5.4 1 .9 1.3 1.6s.5 1.5.5 2.3-.2 1.6-.5 2.3c-.3.7-.7 1.2-1.3 1.6-.5.4-1.2.6-1.9.6s-1.3-.2-1.9-.6zm3-1.4c.3-.2.5-.6.7-1s.2-1 .2-1.5c0-.9-.2-1.6-.5-2.2s-.8-.8-1.5-.8c-.6 0-1.1.3-1.5.8-.3.6-.5 1.3-.5 2.2 0 .6.1 1.1.2 1.5.2.5.4.8.7 1s.6.4 1 .4c.5 0 .9-.1 1.2-.4z"/></g><g class="st2"><path class="st3" d="M673.1 247.6h2l3.7 6.1h.1l-.1-1.7v-4.4h1.7v9.1h-1.8l-3.8-6.5h-.1l.1 1.7v4.7h-1.7l-.1-9z"/></g><g class="st2"><path class="st3" d="M682.6 247.6h1.7v9.1h-1.7v-9.1z"/></g><g class="st2"><path class="st3" d="M688 256.3c-.8-.4-1.3-1-1.7-1.7s-.6-1.5-.6-2.4.2-1.7.6-2.4c.4-.7 1-1.3 1.7-1.7.8-.4 1.5-.6 2.4-.6 1.4 0 2.5.5 3.4 1.5l-1.2 1.2c-.6-.7-1.3-1-2.2-1-.6 0-1.1.1-1.6.4-.5.2-.8.6-1.1 1.1s-.4 1-.4 1.6.1 1.2.4 1.6c.3.5.6.8 1.1 1.1.5.2 1 .4 1.6.4.9 0 1.7-.4 2.4-1.2l1.2 1.2c-.5.5-1 .9-1.6 1.2s-1.3.4-2 .4c-.9-.1-1.7-.3-2.4-.7zm10.3-1.1l1.6-1.6 1.6-1.6c.3-.3.5-.6.6-.8s.2-.5.2-.8-.1-.5-.3-.8c-.2-.2-.5-.3-.9-.3-.3 0-.6.1-.9.3s-.3.5-.5.8l-1.5-.6c.1-.3.3-.6.5-.9.2-.3.6-.6 1-.8s.9-.3 1.4-.3c.6 0 1.1.1 1.5.3s.8.5 1 .9.3.8.3 1.3c0 .9-.5 1.9-1.4 2.7-.3.3-1 1-2.1 2l.1.1h3.5v1.5h-5.8v-1.4h.1zm8.7 1.4c-.4-.2-.8-.4-1.1-.8-.3-.3-.5-.8-.6-1.3l1.5-.6c.1.4.3.8.6 1s.6.3 1 .3.8-.1 1-.4c.3-.3.4-.6.4-1s-.1-.8-.4-1c-.3-.3-.6-.4-1-.4-.2 0-.5.1-.7.2s-.4.2-.5.4l-1.6-.7.5-4.4h4.9v1.5h-3.5l-.3 2h.1c.4-.3.9-.5 1.5-.5.5 0 .9.1 1.3.3s.8.6 1 1 .4.9.4 1.5-.1 1.1-.4 1.5c-.3.5-.6.8-1.1 1s-1 .4-1.6.4c-.5.3-1 .2-1.4 0z"/></g><g class="st2"><path class="st3" d="M724.9 288.6h2l3.7 6.1h.1l-.1-1.7v-4.4h1.7v9.1h-1.8l-3.8-6.5h-.1l.1 1.7v4.7H725l-.1-9z"/></g><g class="st2"><path class="st3" d="M734.4 288.6h1.7v9.1h-1.7v-9.1z"/></g><g class="st2"><path class="st3" d="M739.9 297.2c-.8-.4-1.3-1-1.7-1.7s-.6-1.5-.6-2.4.2-1.7.6-2.4c.4-.7 1-1.3 1.7-1.7.8-.4 1.5-.6 2.4-.6 1.4 0 2.5.5 3.4 1.5l-1.2 1.2c-.6-.7-1.3-1-2.2-1-.6 0-1.1.1-1.6.4-.5.2-.8.6-1.1 1.1s-.4 1-.4 1.6.1 1.2.4 1.6c.3.5.6.8 1.1 1.1.5.2 1 .4 1.6.4.9 0 1.7-.4 2.4-1.2l1.2 1.2c-.5.5-1 .9-1.6 1.2-.6.3-1.3.4-2 .4-.9 0-1.7-.3-2.4-.7zm11.2.1c-.6-.4-.9-.9-1.2-1.7l1.6-.6c.1.4.3.8.5.9.3.2.6.3 1 .3.3 0 .7-.1.9-.3.3-.2.4-.5.4-.8s-.1-.6-.4-.9-.6-.3-1.2-.3h-.7v-1.5h.7c.3 0 .7-.1.9-.3s.4-.5.4-.8-.1-.5-.3-.7-.5-.3-.8-.3-.6.1-.8.3c-.2.2-.3.4-.5.7l-1.5-.6c.2-.5.5-.9 1-1.3.5-.3 1.1-.6 1.8-.6.5 0 1 .1 1.5.3.4.2.8.5 1 .8s.3.8.3 1.2c0 .5-.1.9-.3 1.2-.2.3-.5.6-.8.7v.1c.4.2.8.4 1 .8.3.3.4.8.4 1.3s-.1.9-.4 1.3c-.3.4-.6.7-1 .9-.5.2-1 .3-1.6.3-.7.2-1.4 0-1.9-.4zm7.9.3c-.4-.2-.8-.4-1.1-.8-.3-.3-.5-.8-.6-1.3l1.5-.6c.1.4.3.8.6 1s.6.3 1 .3.8-.1 1-.4c.3-.3.4-.6.4-1s-.1-.8-.4-1c-.3-.3-.6-.4-1-.4-.2 0-.5.1-.7.2s-.4.2-.5.4l-1.6-.7.5-4.4h4.9v1.5h-3.5l-.3 2h.1c.4-.3.9-.5 1.5-.5.5 0 .9.1 1.3.3.4.2.8.6 1 1 .2.5.4.9.4 1.5s-.1 1.1-.4 1.5c-.3.5-.6.8-1.1 1s-1 .4-1.6.4c-.6.3-1 .2-1.4 0z"/></g><path class="st0" d="M599.3 400.9c11.9 0 21.6-9.7 21.6-21.6s-9.7-21.6-21.6-21.6-21.6 9.7-21.6 21.6c.1 11.9 9.8 21.6 21.6 21.6m143 39.4c1.7 0 3.4.1 5.1.3v37.2h-42.6c.1-20.8 16.9-37.5 37.5-37.5"/><path class="st5" d="M354.1 248.5h6.8v240.3h-6.8z"/><path class="st5" d="M357.8 432.8c11.9 0 21.6-9.7 21.6-21.6s-9.7-21.6-21.6-21.6-21.6 9.7-21.6 21.6c0 11.9 9.7 21.6 21.6 21.6"/><g class="st2"><path class="st3" d="M337.9 406.4h2l3.7 6.1h.1l-.1-1.7v-4.4h1.7v9.1h-1.8l-3.8-6.5h-.1l.1 1.7v4.7H338v-9h-.1z"/></g><g class="st2"><path class="st3" d="M347.4 406.4h1.7v9.1h-1.7v-9.1z"/></g><g class="st2"><path class="st3" d="M352.8 415.1c-.8-.4-1.3-1-1.7-1.7-.4-.7-.6-1.5-.6-2.4s.2-1.7.6-2.4c.4-.7 1-1.3 1.7-1.7s1.5-.6 2.4-.6c1.4 0 2.5.5 3.4 1.5l-1.2 1.2c-.6-.7-1.3-1-2.2-1-.6 0-1.1.1-1.6.4-.5.2-.8.6-1.1 1.1-.3.5-.4 1-.4 1.6s.1 1.2.4 1.6c.3.5.6.8 1.1 1.1.5.2 1 .4 1.6.4.9 0 1.7-.4 2.4-1.2l1.2 1.2c-.5.5-1 .9-1.6 1.2-.6.3-1.3.4-2 .4-.8-.1-1.6-.3-2.4-.7zm11.3 0c-.6-.4-.9-.9-1.2-1.7l1.6-.6c.1.4.3.8.5.9.3.2.6.3 1 .3.3 0 .7-.1.9-.3.3-.2.4-.5.4-.8s-.1-.6-.4-.9-.6-.3-1.2-.3h-.7v-1.5h.7c.3 0 .7-.1.9-.3.2-.2.4-.5.4-.8s-.1-.5-.3-.7c-.2-.2-.5-.3-.8-.3s-.6.1-.8.3c-.2.2-.3.4-.5.7l-1.5-.6c.2-.5.5-.9 1-1.3.5-.3 1.1-.6 1.8-.6.5 0 1 .1 1.5.3s.8.5 1 .8.3.8.3 1.2c0 .5-.1.9-.3 1.2-.2.3-.5.6-.8.7v.1c.4.2.8.4 1 .8.3.3.4.8.4 1.3s-.1.9-.4 1.3c-.2.4-.6.7-1 .9-.5.2-1 .3-1.6.3-.7.2-1.3 0-1.9-.4zm7.9 0c-.5-.4-1-.9-1.3-1.6s-.5-1.5-.5-2.3.2-1.6.5-2.3c.3-.7.7-1.2 1.3-1.6.5-.4 1.2-.6 1.9-.6.8 0 1.3.2 1.9.6.5.4 1 .9 1.3 1.6s.5 1.5.5 2.3-.2 1.6-.5 2.3c-.3.7-.7 1.2-1.3 1.6-.5.4-1.2.6-1.9.6s-1.3-.2-1.9-.6zm3-1.4c.3-.2.5-.6.7-1s.2-1 .2-1.5c0-.9-.2-1.6-.5-2.2s-.8-.8-1.5-.8c-.6 0-1.1.3-1.5.8-.3.5-.5 1.3-.5 2.2 0 .6.1 1.1.2 1.5.2.4.4.8.7 1 .3.2.6.4 1 .4.6 0 .9-.1 1.2-.4z"/></g><path class="st5" d="M355.1 481.9h385.4v6.8H355.1z"/><path class="st5" d="M435.1 507c11.9 0 21.6-9.7 21.6-21.6s-9.7-21.6-21.6-21.6-21.6 9.7-21.6 21.6 9.7 21.6 21.6 21.6"/><g class="st2"><path class="st3" d="M415.3 480.6h2l3.7 6.1h.1l-.1-1.7v-4.4h1.7v9.1h-1.8l-3.8-6.5h-.1l.1 1.7v4.7h-1.7l-.1-9z"/></g><g class="st2"><path class="st3" d="M424.8 480.6h1.7v9.1h-1.7v-9.1z"/></g><g class="st2"><path class="st3" d="M430.2 489.3c-.8-.4-1.3-1-1.7-1.7-.4-.7-.6-1.5-.6-2.4s.2-1.7.6-2.4c.4-.7 1-1.3 1.7-1.7s1.5-.6 2.4-.6c1.4 0 2.5.5 3.4 1.5l-1.2 1.2c-.6-.7-1.3-1-2.2-1-.6 0-1.1.1-1.6.4-.5.2-.8.6-1.1 1.1s-.4 1-.4 1.6.1 1.2.4 1.6c.3.5.6.8 1.1 1.1.5.2 1 .4 1.6.4.9 0 1.7-.4 2.4-1.2l1.2 1.2c-.5.5-1 .9-1.6 1.2-.6.3-1.3.4-2 .4-.8-.1-1.7-.3-2.4-.7zm11.3 0c-.6-.4-.9-.9-1.2-1.7l1.6-.6c.1.4.3.8.5.9.3.2.6.3 1 .3.3 0 .7-.1.9-.3.3-.2.4-.5.4-.8s-.1-.6-.4-.9-.6-.3-1.2-.3h-.8v-1.5h.7c.3 0 .7-.1.9-.3.2-.2.4-.5.4-.8s-.1-.5-.3-.7c-.2-.2-.5-.3-.8-.3s-.6.1-.8.3c-.2.2-.3.4-.5.7l-1.5-.6c.2-.5.5-.9 1-1.3.5-.3 1.1-.6 1.8-.6.5 0 1 .1 1.5.3.4.2.8.5 1 .8s.3.8.3 1.2c0 .5-.1.9-.3 1.2-.2.3-.5.6-.8.7v.1c.4.2.8.4 1 .8.3.3.4.8.4 1.3s-.1.9-.4 1.3-.6.7-1 .9c-.4.2-1 .3-1.6.3-.6.2-1.3 0-1.8-.4zm7.9 0c-.5-.4-1-.9-1.3-1.6s-.5-1.5-.5-2.3c0-.9.2-1.6.5-2.3.3-.7.7-1.2 1.3-1.6.5-.4 1.2-.6 1.9-.6s1.3.2 1.9.6c.5.4 1 .9 1.3 1.6s.5 1.5.5 2.3c0 .9-.2 1.6-.5 2.3-.3.7-.7 1.2-1.3 1.6-.5.4-1.2.6-1.9.6s-1.3-.2-1.9-.6zm3-1.4c.3-.2.5-.6.7-1 .2-.5.2-1 .2-1.5 0-.9-.2-1.6-.5-2.2s-.8-.8-1.5-.8c-.6 0-1.1.3-1.5.8-.3.6-.5 1.3-.5 2.2 0 .6.1 1.1.2 1.5.2.5.4.8.7 1 .3.2.6.4 1 .4.5 0 .9-.1 1.2-.4z"/></g><g class="st2"><path class="st6" d="M396.2 346.3h1.2v8.8h4.4v1.1h-5.5v-9.9h-.1z"/></g><g class="st2"><path class="st6" d="M403.9 356.2c-.4-.2-.7-.5-.9-.8-.2-.3-.3-.8-.3-1.2 0-.8.3-1.3.9-1.7.6-.4 1.3-.6 2.2-.6.4 0 .8.1 1.2.1.3.1.6.2.8.3v-.4c0-.5-.2-.9-.6-1.3-.3-.3-.8-.5-1.4-.5-.4 0-.8.1-1.1.2-.3.2-.6.4-.8.7l-.9-.6c.3-.4.6-.8 1.2-1 .5-.2 1-.3 1.6-.3.9 0 1.7.2 2.3.8.5.5.8 1.2.8 2v4.5h-1.1v-1h-.1c-.2.3-.5.6-.9.9-.4.2-.9.3-1.4.3-.6-.1-1.1-.2-1.5-.4zm2.6-1.1c.3-.2.6-.5.8-.8.2-.3.3-.7.3-1.1-.2-.2-.5-.3-.8-.3-.3-.1-.6-.1-1-.1-.6 0-1.1.1-1.5.4-.3.3-.5.6-.5 1s.2.7.5.9c.3.2.7.3 1.1.3s.7-.1 1.1-.3z"/></g><g class="st2"><path class="st6" d="M410.4 349.2h1.1v1.2h.1c.1-.4.4-.7.8-1 .4-.2.8-.4 1.2-.4.3 0 .6.1.8.2v1.3c-.3-.2-.6-.2-1-.2-.3 0-.6.1-.9.3-.3.2-.5.5-.7.8s-.2.7-.2 1v4h-1.2v-7.2z"/></g><g class="st2"><path class="st6" d="M416.6 358.9c-.5-.4-.9-.9-1.1-1.4l1-.5c.2.4.4.8.8 1 .3.2.8.4 1.3.4.8 0 1.3-.2 1.7-.6.4-.4.6-1 .6-1.7v-.8h-.1c-.2.3-.6.6-1 .9-.4.2-.9.3-1.5.3s-1.2-.2-1.7-.5-.9-.8-1.2-1.3c-.3-.6-.5-1.2-.5-1.9s.2-1.3.5-1.9.7-1 1.2-1.3 1-.5 1.7-.5c.5 0 1 .1 1.5.3.4.2.8.5 1 .9h.1v-1h1.1v6.8c0 1.2-.3 2-.9 2.6s-1.5.9-2.5.9c-.8-.2-1.5-.3-2-.7zm3.2-3.8c.3-.2.6-.5.8-.9.2-.4.3-.9.3-1.5s-.1-1-.3-1.5c-.2-.4-.5-.7-.8-.9s-.8-.3-1.2-.3-.8.1-1.2.3-.6.5-.8.9c-.2.4-.3.9-.3 1.5s.1 1 .3 1.5c.2.4.5.7.8.9s.8.3 1.2.3.8-.1 1.2-.3zm5.2.9c-.5-.3-.9-.8-1.3-1.3-.3-.6-.5-1.2-.5-1.9s.1-1.3.4-1.9.7-1 1.2-1.4c.5-.3 1.1-.5 1.8-.5s1.3.2 1.8.5.9.8 1.2 1.3.4 1.2.4 1.9c0 .1 0 .2-.1.3h-5.6c0 .5.2 1 .4 1.3.2.3.5.6.9.8s.7.3 1.1.3c.9 0 1.6-.4 2.1-1.3l1 .5c-.3.6-.7 1-1.2 1.3s-1.2.5-1.9.5c-.5.1-1.1-.1-1.7-.4zm3.9-4c0-.3-.1-.6-.2-.9s-.4-.5-.7-.8c-.3-.2-.7-.3-1.2-.3-.6 0-1 .2-1.4.5s-.6.8-.8 1.4l4.3.1z"/></g><g class="st2"><path class="st6" d="M437.1 355.8c-.8-.5-1.4-1-1.9-1.9-.5-.8-.7-1.7-.7-2.6s.2-1.9.7-2.6c.5-.8 1-1.4 1.9-1.9.8-.5 1.6-.7 2.6-.7.8 0 1.4.1 2 .4s1.2.7 1.6 1.2l-.9.8c-.4-.5-.8-.8-1.2-1-.5-.2-1-.3-1.6-.3-.7 0-1.4.2-2 .5s-1.1.8-1.5 1.5c-.3.6-.5 1.3-.5 2.2 0 .8.2 1.5.5 2.2.3.6.8 1.1 1.5 1.5.6.3 1.3.5 2 .5 1.2 0 2.2-.5 3.1-1.5l.9.8c-.5.5-1 1-1.7 1.3-.6.3-1.4.5-2.2.5-1-.2-1.9-.5-2.6-.9z"/></g><g class="st2"><path class="st6" d="M446.2 355.9c-.6-.3-1-.8-1.3-1.3-.3-.6-.5-1.2-.5-1.9s.2-1.3.5-1.9.8-1 1.3-1.3c.6-.3 1.2-.5 1.9-.5s1.3.2 1.9.5 1 .8 1.3 1.3c.3.6.5 1.2.5 1.9s-.2 1.3-.5 1.9-.8 1-1.3 1.3c-.6.3-1.2.5-1.9.5-.7.1-1.3-.1-1.9-.5zm3.1-.8c.3-.2.7-.5.9-.9.2-.4.3-.9.3-1.5 0-.5-.1-1-.3-1.5-.2-.4-.5-.7-.9-.9s-.8-.3-1.2-.3-.8.1-1.2.3c-.4.2-.7.5-.9.9-.2.4-.3.9-.3 1.5 0 .5.1 1 .3 1.5.2.4.5.7.9.9.4.2.8.3 1.2.3s.8-.1 1.2-.3z"/></g><g class="st2"><path class="st6" d="M453.1 349.2h1.1v1h.1c.2-.3.5-.6.9-.9.4-.2.9-.3 1.3-.3.9 0 1.5.2 1.9.8.4.5.7 1.2.7 2v4.5H458V352c0-.6-.2-1.1-.5-1.5-.3-.3-.8-.5-1.3-.5-.4 0-.7.1-1 .3-.3.2-.5.5-.7.8s-.2.7-.2 1.1v4h-1.2v-7z"/></g><g class="st2"><path class="st6" d="M461.4 350.2h-1.3v-1h1.3v-.8c0-.5.1-.8.3-1.2.2-.3.5-.6.8-.8.3-.2.7-.3 1.2-.3.4 0 .8.1 1 .2v1.2c-.2-.1-.3-.1-.5-.2s-.3-.1-.5-.1c-.3 0-.6.1-.8.3-.2.2-.3.5-.3.9v.6h1.8v1h-1.8v6h-1.2v-5.8z"/></g><g class="st2"><path class="st6" d="M466.8 356c-.5-.3-.9-.8-1.3-1.3-.3-.6-.5-1.2-.5-1.9s.1-1.3.4-1.9.7-1 1.2-1.4c.5-.3 1.1-.5 1.8-.5s1.3.2 1.8.5.9.8 1.2 1.3c.3.5.4 1.2.4 1.9 0 .1 0 .2-.1.3h-5.6c0 .5.2 1 .4 1.3.2.3.5.6.9.8.3.2.7.3 1.1.3.9 0 1.6-.4 2.1-1.3l1 .5c-.3.6-.7 1-1.2 1.3s-1.2.5-1.9.5c-.5.1-1.2-.1-1.7-.4zm3.8-4c0-.3-.1-.6-.2-.9s-.4-.5-.7-.8c-.3-.2-.7-.3-1.2-.3-.6 0-1 .2-1.4.5s-.6.8-.8 1.4l4.3.1z"/></g><g class="st2"><path class="st6" d="M473.3 349.2h1.1v1.2h.1c.1-.4.4-.7.8-1 .4-.2.8-.4 1.2-.4.3 0 .6.1.8.2v1.3c-.3-.2-.6-.2-1-.2-.3 0-.6.1-.9.3-.3.2-.5.5-.7.8s-.2.7-.2 1v4h-1.2v-7.2z"/></g><g class="st2"><path class="st6" d="M479.6 356c-.5-.3-.9-.8-1.3-1.3-.3-.6-.5-1.2-.5-1.9s.1-1.3.4-1.9.7-1 1.2-1.4c.5-.3 1.1-.5 1.8-.5s1.3.2 1.8.5.9.8 1.2 1.3c.3.5.4 1.2.4 1.9 0 .1 0 .2-.1.3H479c0 .5.2 1 .4 1.3.2.3.5.6.9.8s.7.3 1.1.3c.9 0 1.6-.4 2.1-1.3l1 .5c-.3.6-.7 1-1.2 1.3s-1.2.5-1.9.5c-.6.1-1.2-.1-1.8-.4zm3.9-4c0-.3-.1-.6-.2-.9s-.4-.5-.7-.8c-.3-.2-.7-.3-1.2-.3-.6 0-1 .2-1.4.5s-.6.8-.8 1.4l4.3.1zm2.6-2.8h1.1v1h.1c.2-.3.5-.6.9-.9.4-.2.9-.3 1.3-.3.9 0 1.5.2 1.9.8.4.5.7 1.2.7 2v4.5H491V352c0-.6-.2-1.1-.5-1.5-.3-.3-.8-.5-1.3-.5-.4 0-.7.1-1 .3-.3.2-.5.5-.7.8s-.2.7-.2 1.1v4h-1.2v-7z"/></g><g class="st2"><path class="st6" d="M495.2 356c-.5-.3-1-.8-1.3-1.3-.3-.6-.5-1.2-.5-1.9s.2-1.3.5-1.9.8-1 1.3-1.3 1.2-.5 1.9-.5c.8 0 1.4.2 1.9.5s.9.8 1.1 1.4l-1 .5c-.2-.4-.5-.8-.8-1s-.8-.3-1.3-.3c-.4 0-.8.1-1.2.3-.3.2-.6.5-.9.9-.2.4-.3.9-.3 1.4s.1 1 .3 1.4c.2.4.5.7.9.9.3.2.8.3 1.2.3.5 0 .9-.1 1.3-.3s.6-.6.8-1l1 .5c-.2.6-.6 1-1.2 1.4-.5.3-1.2.5-1.9.5-.6 0-1.2-.2-1.8-.5z"/></g><g class="st2"><path class="st6" d="M502.7 356c-.5-.3-.9-.8-1.3-1.3-.3-.6-.5-1.2-.5-1.9s.1-1.3.4-1.9.7-1 1.2-1.4c.5-.3 1.1-.5 1.8-.5s1.3.2 1.8.5.9.8 1.2 1.3c.3.5.4 1.2.4 1.9 0 .1 0 .2-.1.3H502c0 .5.2 1 .4 1.3.2.3.5.6.9.8.3.2.7.3 1.1.3.9 0 1.6-.4 2.1-1.3l1 .5c-.3.6-.7 1-1.2 1.3s-1.2.5-1.9.5c-.5.1-1.2-.1-1.7-.4zm3.8-4c0-.3-.1-.6-.2-.9s-.4-.5-.7-.8c-.3-.2-.7-.3-1.2-.3-.6 0-1 .2-1.4.5-.3.3-.6.8-.8 1.4l4.3.1z"/></g><g class="st2"><path class="st6" d="M512.6 346.3h3.4c.5 0 1 .1 1.5.3s.9.6 1.1 1c.3.5.4.9.4 1.5 0 .5-.1.9-.3 1.3s-.5.8-.9 1c-.3.3-.8.5-1.2.5v.1l2.8 4.1v.1H518l-2.7-4.1h-1.6v4.1h-1.2l.1-9.9zm3.2 4.8c.3 0 .6-.1 1-.2.3-.2.5-.3.7-.6.2-.3.3-.6.3-.9s-.1-.6-.2-.9c-.2-.3-.3-.5-.6-.7s-.6-.3-1-.3h-2.2v3.7l2-.1z"/></g><g class="st2"><path class="st6" d="M521.7 355.9c-.6-.3-1-.8-1.3-1.3-.3-.6-.5-1.2-.5-1.9s.2-1.3.5-1.9.8-1 1.3-1.3c.6-.3 1.2-.5 1.9-.5s1.3.2 1.9.5c.6.3 1 .8 1.3 1.3.3.6.5 1.2.5 1.9s-.2 1.3-.5 1.9-.8 1-1.3 1.3c-.6.3-1.2.5-1.9.5s-1.4-.1-1.9-.5zm3-.8c.3-.2.7-.5.9-.9s.3-.9.3-1.5c0-.5-.1-1-.3-1.5-.2-.4-.5-.7-.9-.9-.3-.2-.8-.3-1.2-.3-.5 0-.8.1-1.2.3-.4.2-.7.5-.9.9s-.3.9-.3 1.5c0 .5.1 1 .3 1.5.2.4.5.7.9.9.4.2.8.3 1.2.3.5 0 .9-.1 1.2-.3z"/></g><g class="st2"><path class="st6" d="M530 355.9c-.6-.3-1-.8-1.3-1.3-.3-.6-.5-1.2-.5-1.9s.2-1.3.5-1.9.8-1 1.3-1.3c.6-.3 1.2-.5 1.9-.5s1.3.2 1.9.5c.6.3 1 .8 1.3 1.3.3.6.5 1.2.5 1.9s-.2 1.3-.5 1.9-.8 1-1.3 1.3c-.6.3-1.2.5-1.9.5s-1.3-.1-1.9-.5zm3.1-.8c.3-.2.7-.5.9-.9s.3-.9.3-1.5c0-.5-.1-1-.3-1.5-.2-.4-.5-.7-.9-.9-.3-.2-.8-.3-1.2-.3-.5 0-.8.1-1.2.3s-.7.5-.9.9-.3.9-.3 1.5c0 .5.1 1 .3 1.5.2.4.5.7.9.9s.8.3 1.2.3.8-.1 1.2-.3z"/></g><g class="st2"><path class="st6" d="M536.8 349.2h1.1v1h.1c.2-.3.5-.6.9-.9.4-.2.8-.3 1.3-.3s1 .1 1.3.3c.4.2.6.6.8 1 .2-.4.6-.8 1-1s.9-.3 1.5-.3c.8 0 1.4.2 1.9.8.4.5.6 1.2.6 2v4.5h-1.2V352c0-.6-.1-1.1-.4-1.5-.3-.3-.6-.5-1.2-.5-.3 0-.7.1-.9.3-.3.2-.5.5-.7.8s-.2.7-.2 1.1v4h-1.2V352c0-.6-.1-1.2-.4-1.5-.3-.3-.6-.5-1.2-.5-.3 0-.7.1-.9.3-.3.2-.5.5-.7.8s-.2.7-.2 1.1v4h-1.2l-.1-7z"/></g><g class="st2"><path class="st6" d="M646.8 299.4h1.7l3.1 8.1h.1l3.1-8.1h1.7v9.9h-1.2V303l.1-1.9-3.3 8.2h-1l-3.3-8.2h-.1l.1 1.9v6.3h-1.2l.2-9.9z"/></g><g class="st2"><path class="st6" d="M659.9 309.1c-.5-.3-.9-.8-1.3-1.3-.3-.6-.5-1.2-.5-1.9s.1-1.3.4-1.9c.3-.6.7-1 1.2-1.4.5-.3 1.1-.5 1.8-.5s1.3.2 1.8.5.9.8 1.2 1.3.4 1.2.4 1.9c0 .1 0 .2-.1.3h-5.6c0 .5.2 1 .4 1.3s.5.6.9.8c.3.2.7.3 1.1.3.9 0 1.6-.4 2.1-1.3l1 .5c-.3.6-.7 1-1.2 1.3s-1.2.5-1.9.5c-.5.1-1.1 0-1.7-.4zm3.9-4c0-.3-.1-.6-.2-.9-.1-.3-.4-.5-.7-.8-.3-.2-.7-.3-1.2-.3-.6 0-1 .2-1.4.5s-.6.8-.8 1.4l4.3.1z"/></g><g class="st2"><path class="st6" d="M667.7 309.1c-.5-.3-.9-.8-1.2-1.3-.3-.6-.5-1.2-.5-1.9s.2-1.3.5-1.9.7-1 1.2-1.3 1.1-.5 1.7-.5c.5 0 1 .1 1.5.3.4.2.8.5 1 .9h.1l-.1-1v-2.9h1.2v9.9H672v-1h-.1c-.2.3-.5.6-1 .9-.4.2-.9.3-1.5.3s-1.2-.1-1.7-.5zm3.1-.9c.3-.2.6-.5.9-.9s.3-.9.3-1.4-.1-1-.3-1.4-.5-.7-.9-.9c-.3-.2-.8-.3-1.2-.3s-.8.1-1.2.3c-.3.2-.6.5-.9.9-.2.4-.3.9-.3 1.4s.1 1 .3 1.4.5.7.9.9c.3.2.8.3 1.2.3s.8-.1 1.2-.3z"/></g><g class="st2"><path class="st6" d="M674.8 300.8c-.2-.2-.2-.3-.2-.6 0-.2.1-.4.2-.6.2-.2.3-.2.6-.2s.4.1.6.2c.2.2.2.3.2.6 0 .2-.1.4-.2.6-.2.2-.3.2-.6.2s-.5 0-.6-.2zm0 1.5h1.2v7h-1.2v-7z"/></g><g class="st2"><path class="st6" d="M678.4 308.9c-.5-.5-.7-1.2-.7-2.1v-4.5h1.2v4.2c0 .7.2 1.2.5 1.5s.7.5 1.2.5c.4 0 .8-.1 1-.3.3-.2.5-.5.7-.8s.2-.7.2-1.1v-4h1.2v7h-1.1v-1h-.1c-.2.3-.5.6-.9.9-.4.2-.9.3-1.3.3-.8.1-1.5-.2-1.9-.6zm7.1-6.6h1.1v1h.1c.2-.3.5-.6.9-.9s.8-.3 1.3-.3 1 .1 1.3.3c.4.2.6.6.8 1 .2-.4.6-.8 1-1s.9-.3 1.5-.3c.8 0 1.4.2 1.9.8.4.5.6 1.2.6 2v4.5h-1.2V305c0-.6-.1-1.1-.4-1.5-.3-.3-.6-.5-1.2-.5-.3 0-.7.1-.9.3-.3.2-.5.5-.7.8s-.2.7-.2 1.1v4h-1.2v-4.3c0-.6-.1-1.2-.4-1.5-.3-.3-.6-.5-1.2-.5-.3 0-.7.1-.9.3-.3.2-.5.5-.7.8s-.2.7-.2 1.1v4h-1.2v-7h-.1v.2z"/></g><g class="st2"><path class="st6" d="M638 325.9c-.8-.5-1.4-1-1.9-1.9-.5-.8-.7-1.7-.7-2.6s.2-1.9.7-2.6c.5-.8 1-1.4 1.9-1.9.8-.5 1.6-.7 2.6-.7.8 0 1.4.1 2 .4s1.2.7 1.6 1.2l-.9.8c-.4-.5-.8-.8-1.2-1-.5-.2-1-.3-1.6-.3-.7 0-1.4.2-2 .5s-1.1.8-1.5 1.5c-.3.6-.5 1.3-.5 2.2 0 .8.2 1.5.5 2.2.3.6.8 1.1 1.5 1.5.6.3 1.3.5 2 .5 1.2 0 2.2-.5 3.1-1.5l.9.8c-.5.5-1 1-1.7 1.3-.6.3-1.4.5-2.2.5-.9-.2-1.8-.4-2.6-.9z"/></g><g class="st2"><path class="st6" d="M647.1 326.1c-.6-.3-1-.8-1.3-1.3-.3-.6-.5-1.2-.5-1.9s.2-1.3.5-1.9.8-1 1.3-1.3c.6-.3 1.2-.5 1.9-.5s1.3.2 1.9.5c.6.3 1 .8 1.3 1.3.3.6.5 1.2.5 1.9s-.2 1.3-.5 1.9-.8 1-1.3 1.3c-.6.3-1.2.5-1.9.5s-1.3-.2-1.9-.5zm3.1-.9c.3-.2.7-.5.9-.9s.3-.9.3-1.5c0-.5-.1-1-.3-1.5-.2-.4-.5-.7-.9-.9s-.8-.3-1.2-.3c-.5 0-.8.1-1.2.3-.4.2-.7.5-.9.9s-.3.9-.3 1.5c0 .5.1 1 .3 1.5.2.4.5.7.9.9.4.2.8.3 1.2.3.5.1.9-.1 1.2-.3z"/></g><g class="st2"><path class="st6" d="M654.1 319.3h1.1v1h.1c.2-.3.5-.6.9-.9.4-.2.9-.3 1.3-.3.9 0 1.5.2 1.9.8.4.5.7 1.2.7 2v4.5h-1.2V322c0-.6-.2-1.1-.5-1.5-.3-.3-.8-.5-1.3-.5-.4 0-.7.1-1 .3-.3.2-.5.5-.7.8s-.2.7-.2 1.1v4H654l.1-6.9z"/></g><g class="st2"><path class="st6" d="M662.4 320.4h-1.3v-1h1.3v-.8c0-.5.1-.8.3-1.2.2-.3.5-.6.8-.8.3-.2.7-.3 1.2-.3.4 0 .8.1 1 .2v1.2c-.2-.1-.3-.1-.5-.2s-.3-.1-.5-.1c-.3 0-.6.1-.8.3-.2.2-.3.5-.3.9v.6h1.8v1h-1.7v6h-1.2l-.1-5.8z"/></g><g class="st2"><path class="st6" d="M667.8 326.1c-.5-.3-.9-.8-1.3-1.3-.3-.6-.5-1.2-.5-1.9s.1-1.3.4-1.9c.3-.6.7-1 1.2-1.4.5-.3 1.1-.5 1.8-.5s1.3.2 1.8.5.9.8 1.2 1.3.4 1.2.4 1.9c0 .1 0 .2-.1.3h-5.6c0 .5.2 1 .4 1.3s.5.6.9.8c.3.2.7.3 1.1.3.9 0 1.6-.4 2.1-1.3l1 .5c-.3.6-.7 1-1.2 1.3s-1.2.5-1.9.5c-.5.1-1.1-.1-1.7-.4zm3.9-4c0-.3-.1-.6-.2-.9-.1-.3-.4-.5-.7-.8-.3-.2-.7-.3-1.2-.3-.6 0-1 .2-1.4.5s-.6.8-.8 1.4l4.3.1z"/></g><g class="st2"><path class="st6" d="M674.2 319.3h1.1v1.2h.1c.1-.4.4-.7.8-1 .4-.2.8-.4 1.2-.4.3 0 .6.1.8.2v1.3c-.3-.2-.6-.2-1-.2-.3 0-.6.1-.9.3s-.5.5-.7.8-.2.7-.2 1v4h-1.2v-7.2z"/></g><g class="st2"><path class="st6" d="M680.7 326.1c-.5-.3-.9-.8-1.3-1.3-.3-.6-.5-1.2-.5-1.9s.1-1.3.4-1.9c.3-.6.7-1 1.2-1.4.5-.3 1.1-.5 1.8-.5s1.3.2 1.8.5.9.8 1.2 1.3.4 1.2.4 1.9c0 .1 0 .2-.1.3H680c0 .5.2 1 .4 1.3s.5.6.9.8c.3.2.7.3 1.1.3.9 0 1.6-.4 2.1-1.3l1 .5c-.3.6-.7 1-1.2 1.3s-1.2.5-1.9.5c-.6.1-1.2-.1-1.7-.4zm3.8-4c0-.3-.1-.6-.2-.9-.1-.3-.4-.5-.7-.8-.3-.2-.7-.3-1.2-.3-.6 0-1 .2-1.4.5s-.6.8-.8 1.4l4.3.1zm2.7-2.8h1.1v1h.1c.2-.3.5-.6.9-.9.4-.2.9-.3 1.3-.3.9 0 1.5.2 1.9.8.4.5.7 1.2.7 2v4.5H692V322c0-.6-.2-1.1-.5-1.5-.3-.3-.8-.5-1.3-.5-.4 0-.7.1-1 .3-.3.2-.5.5-.7.8s-.2.7-.2 1.1v4h-1.2l.1-6.9z"/></g><g class="st2"><path class="st6" d="M696.3 326.1c-.5-.3-1-.8-1.3-1.3-.3-.6-.5-1.2-.5-1.9s.2-1.3.5-1.9.8-1 1.3-1.3 1.2-.5 1.9-.5c.8 0 1.4.2 1.9.5s.9.8 1.1 1.4l-1 .5c-.2-.4-.5-.8-.8-1s-.8-.3-1.3-.3c-.4 0-.8.1-1.2.3-.3.2-.6.5-.9.9-.2.4-.3.9-.3 1.4s.1 1 .3 1.4.5.7.9.9c.3.2.8.3 1.2.3.5 0 .9-.1 1.3-.3.3-.2.6-.6.8-1l1 .5c-.2.6-.6 1-1.2 1.4s-1.2.5-1.9.5c-.6 0-1.3-.2-1.8-.5z"/></g><g class="st2"><path class="st6" d="M703.6 326.1c-.5-.3-.9-.8-1.3-1.3-.3-.6-.5-1.2-.5-1.9s.1-1.3.4-1.9c.3-.6.7-1 1.2-1.4.5-.3 1.1-.5 1.8-.5s1.3.2 1.8.5.9.8 1.2 1.3.4 1.2.4 1.9c0 .1 0 .2-.1.3H703c0 .5.2 1 .4 1.3s.5.6.9.8c.3.2.7.3 1.1.3.9 0 1.6-.4 2.1-1.3l1 .5c-.3.6-.7 1-1.2 1.3s-1.2.5-1.9.5c-.6.1-1.2-.1-1.8-.4zm3.9-4c0-.3-.1-.6-.2-.9-.1-.3-.4-.5-.7-.8-.3-.2-.7-.3-1.2-.3-.6 0-1 .2-1.4.5s-.6.8-.8 1.4l4.3.1z"/></g><g class="st2"><path class="st6" d="M653.6 333.4h3.4c.5 0 1 .1 1.5.3.5.2.9.6 1.1 1 .3.5.4.9.4 1.5 0 .5-.1.9-.3 1.3s-.5.8-.9 1c-.3.3-.8.5-1.2.5v.1l2.8 4.1v.1H659l-2.7-4.1h-1.6v4.1h-1.2l.1-9.9zm3.3 4.8c.3 0 .6-.1 1-.2s.5-.3.7-.6c.2-.3.3-.6.3-.9s-.1-.6-.2-.9c-.2-.3-.3-.5-.6-.7s-.6-.3-1-.3h-2.2v3.7h2v-.1z"/></g><g class="st2"><path class="st6" d="M662.7 343.1c-.6-.3-1-.8-1.3-1.3-.3-.6-.5-1.2-.5-1.9s.2-1.3.5-1.9.8-1 1.3-1.3c.6-.3 1.2-.5 1.9-.5s1.3.2 1.9.5c.6.3 1 .8 1.3 1.3.3.6.5 1.2.5 1.9s-.2 1.3-.5 1.9-.8 1-1.3 1.3c-.6.3-1.2.5-1.9.5s-1.4-.2-1.9-.5zm3.1-.9c.3-.2.7-.5.9-.9s.3-.9.3-1.5c0-.5-.1-1-.3-1.5-.2-.4-.5-.7-.9-.9-.3-.2-.8-.3-1.2-.3s-.8.1-1.2.3c-.4.2-.7.5-.9.9s-.3.9-.3 1.5c0 .5.1 1 .3 1.5.2.4.5.7.9.9.4.2.8.3 1.2.3s.8-.1 1.2-.3zm5.2.9c-.6-.3-1-.8-1.3-1.3-.3-.6-.5-1.2-.5-1.9s.2-1.3.5-1.9.8-1 1.3-1.3c.6-.3 1.2-.5 1.9-.5s1.3.2 1.9.5c.6.3 1 .8 1.3 1.3.3.6.5 1.2.5 1.9s-.2 1.3-.5 1.9-.8 1-1.3 1.3c-.6.3-1.2.5-1.9.5-.8 0-1.4-.2-1.9-.5zm3.1-.9c.3-.2.7-.5.9-.9s.3-.9.3-1.5c0-.5-.1-1-.3-1.5-.2-.4-.5-.7-.9-.9-.3-.2-.8-.3-1.2-.3-.5 0-.8.1-1.2.3-.4.2-.7.5-.9.9s-.3.9-.3 1.5c0 .5.1 1 .3 1.5.2.4.5.7.9.9s.8.3 1.2.3c.4.1.8-.1 1.2-.3zm3.6-5.9h1.1v1h.1c.2-.3.5-.6.9-.9.4-.2.8-.3 1.3-.3s1 .1 1.3.3c.4.2.6.6.8 1 .2-.4.6-.8 1-1s.9-.3 1.5-.3c.8 0 1.4.2 1.9.8.4.5.6 1.2.6 2v4.5H687V339c0-.6-.1-1.1-.4-1.5-.3-.3-.6-.5-1.2-.5-.3 0-.7.1-.9.3-.3.2-.5.5-.7.8s-.2.7-.2 1.1v4h-1.2v-4.3c0-.6-.1-1.2-.4-1.5-.3-.3-.6-.5-1.2-.5-.3 0-.7.1-.9.3-.3.2-.5.5-.7.8s-.2.7-.2 1.1v4h-1.2v-7h-.1v.2z"/></g><g class="st2"><path class="st6" d="M655.9 419.1c-.6-.5-1.1-1.1-1.3-2l1.1-.5c.2.6.5 1 .9 1.5s.9.6 1.5.6 1-.2 1.5-.5.6-.8.6-1.3-.2-.8-.5-1.2c-.3-.3-.9-.6-1.6-.8l-.6-.2c-.7-.2-1.3-.6-1.7-1-.5-.4-.6-1-.6-1.7 0-.5.1-.9.4-1.3.2-.4.6-.7 1.1-1 .5-.2 1-.3 1.6-.3s1 .1 1.5.3c.4.2.8.5 1 .8s.4.6.5.9l-1.1.5c-.1-.3-.3-.6-.6-.9s-.8-.4-1.3-.4-.9.1-1.3.4c-.3.3-.5.6-.5 1.1 0 .4.2.7.5.9s.8.5 1.4.7l.6.2c.8.3 1.5.7 2 1.2s.7 1.1.7 1.9c0 .6-.2 1.2-.5 1.6s-.8.8-1.2.9c-.5.2-1 .3-1.5.3-1.2 0-2-.2-2.6-.7z"/></g><g class="st2"><path class="st6" d="M662.7 412.5h1.1v1h.1c.2-.3.5-.6.9-.9.4-.2.8-.3 1.3-.3s1 .1 1.3.3c.4.2.6.6.8 1 .2-.4.6-.8 1-1s.9-.3 1.5-.3c.8 0 1.4.2 1.9.8.4.5.6 1.2.6 2v4.5H672v-4.5c0-.6-.1-1.1-.4-1.5-.3-.3-.6-.5-1.2-.5-.3 0-.7.1-.9.3-.3.2-.5.5-.7.8s-.2.7-.2 1.1v4h-1.2V415c0-.6-.1-1.2-.4-1.5-.3-.3-.6-.5-1.2-.5-.3 0-.7.1-.9.3-.3.2-.5.5-.7.8s-.2.7-.2 1.1v4h-1.2v-6.9h-.1v.2z"/></g><g class="st2"><path class="st6" d="M675.7 419.5c-.4-.2-.7-.5-.9-.8s-.3-.8-.3-1.2c0-.8.3-1.3.9-1.7.6-.4 1.3-.6 2.2-.6.4 0 .8.1 1.2.1.3.1.6.2.8.3v-.4c0-.5-.2-.9-.6-1.3s-.8-.5-1.4-.5c-.4 0-.8.1-1.1.2-.3.2-.6.4-.8.7l-.9-.6c.3-.4.6-.8 1.2-1 .5-.2 1-.3 1.6-.3 1 0 1.7.2 2.3.8.5.5.8 1.2.8 2v4.5h-1.1v-1h-.1c-.2.3-.5.6-.9.9-.4.2-.9.3-1.4.3-.6-.1-1.1-.2-1.5-.4zm2.6-1.1c.3-.2.6-.5.8-.8s.3-.7.3-1.1c-.2-.2-.5-.3-.8-.3-.3-.1-.6-.1-1-.1-.6 0-1.1.1-1.5.4-.3.3-.5.6-.5 1s.2.7.5.9.7.3 1.1.3c.4 0 .8-.1 1.1-.3z"/></g><g class="st2"><path class="st6" d="M682.2 409.7h1.2v9.9h-1.2v-9.9z"/></g><g class="st2"><path class="st6" d="M685.1 409.7h1.2v9.9h-1.2v-9.9z"/></g><g class="st2"><path class="st6" d="M638 436.1c-.8-.5-1.4-1-1.9-1.9-.5-.8-.7-1.7-.7-2.6s.2-1.9.7-2.6c.5-.8 1-1.4 1.9-1.9.8-.5 1.6-.7 2.6-.7.8 0 1.4.1 2 .4s1.2.7 1.6 1.2l-.9.8c-.4-.5-.8-.8-1.2-1-.5-.2-1-.3-1.6-.3-.7 0-1.4.2-2 .5s-1.1.8-1.5 1.5c-.3.6-.5 1.3-.5 2.2s.2 1.5.5 2.2c.3.6.8 1.1 1.5 1.5.6.3 1.3.5 2 .5 1.2 0 2.2-.5 3.1-1.5l.9.8c-.5.5-1 1-1.7 1.3s-1.4.5-2.2.5c-.9-.2-1.8-.5-2.6-.9z"/></g><g class="st2"><path class="st6" d="M647.1 436.3c-.6-.3-1-.8-1.3-1.3-.3-.6-.5-1.2-.5-1.9s.2-1.3.5-1.9.8-1 1.3-1.3c.6-.3 1.2-.5 1.9-.5s1.3.2 1.9.5c.6.3 1 .8 1.3 1.3.3.6.5 1.2.5 1.9s-.2 1.3-.5 1.9-.8 1-1.3 1.3c-.6.3-1.2.5-1.9.5s-1.3-.2-1.9-.5zm3.1-.9c.3-.2.7-.5.9-.9s.3-.9.3-1.5c0-.5-.1-1-.3-1.5-.2-.4-.5-.7-.9-.9-.3-.2-.8-.3-1.2-.3-.5 0-.8.1-1.2.3-.4.2-.7.5-.9.9s-.3.9-.3 1.5c0 .5.1 1 .3 1.5s.5.7.9.9.8.3 1.2.3c.5 0 .9-.1 1.2-.3z"/></g><g class="st2"><path class="st6" d="M654.1 429.5h1.1v1h.1c.2-.3.5-.6.9-.9.4-.2.9-.3 1.3-.3.9 0 1.5.2 1.9.8.4.5.7 1.2.7 2v4.5h-1.2v-4.4c0-.6-.2-1.1-.5-1.5-.3-.3-.8-.5-1.3-.5-.4 0-.7.1-1 .3-.3.2-.5.5-.7.8s-.2.7-.2 1.1v4H654l.1-6.9z"/></g><g class="st2"><path class="st6" d="M662.4 430.5h-1.3v-1h1.3v-.8c0-.5.1-.8.3-1.2.2-.3.5-.6.8-.8.3-.2.7-.3 1.2-.3.4 0 .8.1 1 .2v1.2c-.2-.1-.3-.1-.5-.2s-.3-.1-.5-.1c-.3 0-.6.1-.8.3-.2.2-.3.5-.3.9v.6h1.8v1h-1.7v6h-1.2l-.1-5.8z"/></g><g class="st2"><path class="st6" d="M667.8 436.3c-.5-.3-.9-.8-1.3-1.3-.3-.6-.5-1.2-.5-1.9s.1-1.3.4-1.9c.3-.6.7-1 1.2-1.4s1.1-.5 1.8-.5 1.3.2 1.8.5.9.8 1.2 1.3.4 1.2.4 1.9c0 .1 0 .2-.1.3h-5.6c0 .5.2 1 .4 1.3s.5.6.9.8c.3.2.7.3 1.1.3.9 0 1.6-.4 2.1-1.3l1 .5c-.3.6-.7 1-1.2 1.3s-1.2.5-1.9.5c-.5.1-1.1-.1-1.7-.4zm3.9-4.1c0-.3-.1-.6-.2-.9-.1-.3-.4-.5-.7-.8-.3-.2-.7-.3-1.2-.3-.6 0-1 .2-1.4.5s-.6.8-.8 1.4l4.3.1z"/></g><g class="st2"><path class="st6" d="M674.2 429.5h1.1v1.2h.1c.1-.4.4-.7.8-1 .4-.2.8-.4 1.2-.4.3 0 .6.1.8.2v1.3c-.3-.2-.6-.2-1-.2-.3 0-.6.1-.9.3-.3.2-.5.5-.7.8s-.2.7-.2 1v4h-1.2v-7.2z"/></g><g class="st2"><path class="st6" d="M680.7 436.3c-.5-.3-.9-.8-1.3-1.3-.3-.6-.5-1.2-.5-1.9s.1-1.3.4-1.9c.3-.6.7-1 1.2-1.4.5-.3 1.1-.5 1.8-.5s1.3.2 1.8.5.9.8 1.2 1.3.4 1.2.4 1.9c0 .1 0 .2-.1.3H680c0 .5.2 1 .4 1.3s.5.6.9.8c.3.2.7.3 1.1.3.9 0 1.6-.4 2.1-1.3l1 .5c-.3.6-.7 1-1.2 1.3s-1.2.5-1.9.5c-.6.1-1.2-.1-1.7-.4zm3.8-4.1c0-.3-.1-.6-.2-.9-.1-.3-.4-.5-.7-.8-.3-.2-.7-.3-1.2-.3-.6 0-1 .2-1.4.5s-.6.8-.8 1.4l4.3.1zm2.7-2.7h1.1v1h.1c.2-.3.5-.6.9-.9.4-.2.9-.3 1.3-.3.9 0 1.5.2 1.9.8.4.5.7 1.2.7 2v4.5H692v-4.4c0-.6-.2-1.1-.5-1.5-.3-.3-.8-.5-1.3-.5-.4 0-.7.1-1 .3-.3.2-.5.5-.7.8s-.2.7-.2 1.1v4h-1.2l.1-6.9z"/></g><g class="st2"><path class="st6" d="M696.3 436.3c-.5-.3-1-.8-1.3-1.3-.3-.6-.5-1.2-.5-1.9s.2-1.3.5-1.9.8-1 1.3-1.3 1.2-.5 1.9-.5c.8 0 1.4.2 1.9.5s.9.8 1.1 1.4l-1 .5c-.2-.4-.5-.8-.8-1s-.8-.3-1.3-.3c-.4 0-.8.1-1.2.3-.3.2-.6.5-.9.9s-.3.9-.3 1.4.1 1 .3 1.4.5.7.9.9c.3.2.8.3 1.2.3.5 0 .9-.1 1.3-.3.3-.2.6-.6.8-1l1 .5c-.2.6-.6 1-1.2 1.4-.5.3-1.2.5-1.9.5-.6 0-1.3-.2-1.8-.5z"/></g><g class="st2"><path class="st6" d="M703.6 436.3c-.5-.3-.9-.8-1.3-1.3-.3-.6-.5-1.2-.5-1.9s.1-1.3.4-1.9c.3-.6.7-1 1.2-1.4.5-.3 1.1-.5 1.8-.5s1.3.2 1.8.5.9.8 1.2 1.3.4 1.2.4 1.9c0 .1 0 .2-.1.3H703c0 .5.2 1 .4 1.3s.5.6.9.8c.3.2.7.3 1.1.3.9 0 1.6-.4 2.1-1.3l1 .5c-.3.6-.7 1-1.2 1.3s-1.2.5-1.9.5c-.6.1-1.2-.1-1.8-.4zm3.9-4.1c0-.3-.1-.6-.2-.9-.1-.3-.4-.5-.7-.8-.3-.2-.7-.3-1.2-.3-.6 0-1 .2-1.4.5s-.6.8-.8 1.4l4.3.1z"/></g><g class="st2"><path class="st6" d="M653.6 443.6h3.4c.5 0 1 .1 1.5.3.5.2.9.6 1.1 1 .3.5.4.9.4 1.5 0 .5-.1.9-.3 1.3s-.5.8-.9 1-.8.5-1.2.5v.1l2.8 4.1v.1H659l-2.7-4.1h-1.6v4.1h-1.2l.1-9.9zm3.3 4.8c.3 0 .6-.1 1-.2.3-.2.5-.3.7-.6.2-.3.3-.6.3-.9s-.1-.6-.2-.9c-.2-.3-.3-.5-.6-.7s-.6-.3-1-.3h-2.2v3.7h2v-.1z"/></g><g class="st2"><path class="st6" d="M662.7 453.2c-.6-.3-1-.8-1.3-1.3-.3-.6-.5-1.2-.5-1.9s.2-1.3.5-1.9.8-1 1.3-1.3 1.2-.5 1.9-.5 1.3.2 1.9.5c.6.3 1 .8 1.3 1.3.3.6.5 1.2.5 1.9s-.2 1.3-.5 1.9-.8 1-1.3 1.3c-.6.3-1.2.5-1.9.5s-1.4-.1-1.9-.5zm3.1-.8c.3-.2.7-.5.9-.9s.3-.9.3-1.5-.1-1-.3-1.5c-.2-.4-.5-.7-.9-.9-.3-.2-.8-.3-1.2-.3s-.8.1-1.2.3c-.4.2-.7.5-.9.9s-.3.9-.3 1.5.1 1 .3 1.5c.2.4.5.7.9.9.4.2.8.3 1.2.3s.8-.1 1.2-.3zm5.2.8c-.6-.3-1-.8-1.3-1.3s-.5-1.2-.5-1.9.2-1.3.5-1.9.8-1 1.3-1.3 1.2-.5 1.9-.5 1.3.2 1.9.5c.6.3 1 .8 1.3 1.3.3.6.5 1.2.5 1.9s-.2 1.3-.5 1.9-.8 1-1.3 1.3c-.6.3-1.2.5-1.9.5-.8.1-1.4-.1-1.9-.5zm3.1-.8c.3-.2.7-.5.9-.9s.3-.9.3-1.5-.1-1-.3-1.5c-.2-.4-.5-.7-.9-.9-.3-.2-.8-.3-1.2-.3-.5 0-.8.1-1.2.3-.4.2-.7.5-.9.9s-.3.9-.3 1.5.1 1 .3 1.5c.2.4.5.7.9.9.4.2.8.3 1.2.3.4 0 .8-.1 1.2-.3zm3.6-5.9h1.1v1h.1c.2-.3.5-.6.9-.9.4-.2.8-.3 1.3-.3s1 .1 1.3.3c.4.2.6.6.8 1 .2-.4.6-.8 1-1s.9-.3 1.5-.3c.8 0 1.4.2 1.9.8.4.5.6 1.2.6 2v4.5H687v-4.4c0-.6-.1-1.1-.4-1.5s-.6-.5-1.2-.5c-.3 0-.7.1-.9.3-.3.2-.5.5-.7.8s-.2.7-.2 1.1v4h-1.2V449c0-.6-.1-1.2-.4-1.5s-.6-.5-1.2-.5c-.3 0-.7.1-.9.3-.3.2-.5.5-.7.8s-.2.7-.2 1.1v4h-1.2v-7h-.1v.3z"/></g><g class="st2"><path class="st3" d="M579.5 374.6h2l3.7 6.1h.1l-.1-1.7v-4.4h1.7v9.1H585l-3.8-6.5h-.1l.1 1.7v4.7h-1.7v-9z"/></g><g class="st2"><path class="st3" d="M588.9 374.6h1.7v9.1h-1.7v-9.1z"/></g><g class="st2"><path class="st3" d="M594.4 383.2c-.8-.4-1.3-1-1.7-1.7s-.6-1.5-.6-2.4.2-1.7.6-2.4c.4-.7 1-1.3 1.7-1.7s1.5-.6 2.4-.6c1.4 0 2.5.5 3.4 1.5l-1.2 1.2c-.6-.7-1.3-1-2.2-1-.6 0-1.1.1-1.6.4-.5.2-.8.6-1.1 1.1s-.4 1-.4 1.6.1 1.2.4 1.6c.3.5.6.8 1.1 1.1.5.2 1 .4 1.6.4.9 0 1.7-.4 2.4-1.2l1.2 1.2c-.5.5-1 .9-1.6 1.2-.6.3-1.3.4-2 .4-.8 0-1.6-.3-2.4-.7zm14.1-1.1h-4v-1.3l3.8-5.8h1.8v5.5h1.1v1.6h-1.1v1.6h-1.7l.1-1.6zm0-1.6v-3.1h-.1l-2 3.1h2.1zm5.8 3.1c-.4-.2-.8-.4-1.1-.8-.3-.3-.5-.8-.6-1.3l1.5-.6c.1.4.3.8.6 1s.6.3 1 .3.8-.1 1-.4c.3-.3.4-.6.4-1s-.1-.8-.4-1c-.3-.3-.6-.4-1-.4-.2 0-.5.1-.7.2s-.4.2-.5.4l-1.6-.7.5-4.4h4.9v1.5h-3.5l-.3 2h.1c.4-.3.9-.5 1.5-.5.5 0 .9.1 1.3.3s.8.6 1 1c.2.5.4.9.4 1.5s-.1 1.1-.4 1.5c-.3.5-.6.8-1.1 1s-1 .4-1.6.4c-.5.3-1 .2-1.4 0z"/></g><path class="st7" d="M559.8 211.7v11.5h-1.3v-11.5c0-.1 1.3-.1 1.3 0zm-1.3 26.1h1.3v9.2c0 .1-.2.2-.6.2s-.6-.1-.6-.2v-9.1l-.1-.1z"/><path class="st7" d="M561.8 247.9h-5.4c-.3 0-.6-.2-.6-.6 0-.3.2-.6.6-.6h5.4c.3 0 .6.2.6.6.1.2-.2.6-.6.6zm.1-36.2h-5.4c-.3 0-.6-.2-.6-.6s.2-.6.6-.6h5.4c.3 0 .6.2.6.6s-.2.6-.6.6z"/><g class="st2"><path class="st7" d="M513.8 225.3l1.5 6.7 3.8-6.7h1.4l-1.5 8.2h-1l.6-3.3.7-3.3-3.7 6.6h-.9l-1.5-6.7-.5 3.5-.5 3.1h-1l1.5-8.2 1.1.1z"/></g><g class="st2"><path class="st7" d="M523.8 227.3c.5 0 .9.2 1.3.4.3.3.6.6.8 1.1s.2 1 .2 1.6v.1c-.1.6-.2 1.1-.5 1.6s-.6.9-1.1 1.1c-.5.2-.9.4-1.5.3-.5 0-.9-.2-1.3-.4-.3-.3-.6-.6-.8-1.1s-.2-1-.2-1.5c.1-.6.2-1.2.5-1.7s.6-.9 1.1-1.2c.4-.2.9-.3 1.5-.3zm-2.1 3.2v.8c.1.5.2.8.4 1 .2.3.5.4.9.4.3 0 .6-.1.9-.2.3-.2.5-.5.7-.8s.3-.8.3-1.2c.1-.3.1-.6 0-.9-.1-.5-.2-.8-.4-1-.2-.3-.5-.4-.9-.4-.5 0-1 .2-1.3.6-.3.5-.6 1-.6 1.7z"/></g><g class="st2"><path class="st7" d="M530.4 228.3l-.5-.1c-.6 0-1.2.3-1.6.9l-.8 4.3h-1l1-6.1h1l-.2.7c.4-.6.9-.8 1.5-.8.1 0 .3 0 .5.1l.1 1z"/></g><g class="st2"><path class="st7" d="M532.9 233.6c-.8 0-1.3-.3-1.8-.8-.4-.5-.6-1.2-.5-2.1v-.2c.1-.6.2-1.2.5-1.6.3-.5.6-.9 1.1-1.1.4-.2.9-.3 1.4-.3.6 0 1.1.2 1.5.6.3.4.5.9.6 1.6v.8l-.1.3h-4c-.1.5 0 1 .3 1.4.2.4.6.6 1.1.6.6 0 1.2-.2 1.7-.8l.6.5c-.2.3-.6.6-1 .9-.5.1-.9.2-1.4.2zm.6-5.4c-.4 0-.8.1-1.1.4-.3.3-.6.8-.8 1.3h3v-.1c.1-.5 0-.9-.2-1.2-.2-.3-.5-.4-.9-.4z"/></g><g class="st2"><path class="st7" d="M541.4 225.9l-.2 1.5h1.1l-.1.8H541l-.6 3.8v.3c0 .3.2.5.5.5.1 0 .3 0 .5-.1l-.1.9c-.2.1-.5.1-.8.1-.4 0-.7-.2-.9-.5s-.3-.7-.2-1.2l.6-3.8h-1.1l.1-.8h1.1l.2-1.5h1.1z"/></g><g class="st2"><path class="st7" d="M544.4 228.2c.5-.6 1.2-.9 1.9-.9.6 0 1 .2 1.3.6.3.4.4.9.3 1.6l-.6 4h-1l.7-4v-.5c-.1-.5-.3-.8-.9-.8-.6 0-1.2.3-1.6 1l-.8 4.4h-1l1.5-8.7h1l-.8 3.3z"/></g><g class="st2"><path class="st7" d="M552.3 233.5c0-.1-.1-.2-.1-.3v-.3c-.6.5-1.2.8-1.8.8-.5 0-1-.2-1.3-.5s-.5-.8-.5-1.2c.1-.6.3-1.2.9-1.5.5-.3 1.2-.5 2.1-.5h1l.1-.5c.1-.3-.1-.6-.2-.9-.2-.2-.5-.3-.8-.3s-.6.1-.9.2c-.3.2-.4.4-.5.7h-1c.1-.3.2-.7.4-.9s.6-.5.9-.6c.4-.2.8-.2 1.2-.2.6 0 1.1.2 1.5.6.3.3.5.9.5 1.5l-.5 3v.4c0 .2 0 .4.1.6v.1l-1.1-.2zm-1.5-.8c.3 0 .6-.1.9-.2.3-.2.5-.4.8-.7l.2-1.3h-.8c-.6 0-1.2.1-1.5.3s-.5.5-.6.9c-.1.3.1.5.2.7.2.1.4.3.8.3z"/></g><g class="st2"><path class="st7" d="M556.6 227.4l-.2.8c.5-.6 1.2-.9 1.9-.9.6 0 1 .2 1.3.6.3.4.3.9.3 1.6l-.6 4h-1l.7-4v-.5c-.1-.5-.3-.8-.9-.8-.6 0-1.2.3-1.6 1l-.8 4.4h-1l1-6.1.9-.1z"/></g><g class="st2"><path class="st7" d="M568.2 230.7h1.1l-.2.9H568l-.3 1.9h-1l.3-1.9h-3.6l.1-.7 4.5-5.6h1.1l-.9 5.4zm-3.5 0h2.4l.8-4-.2.2-3 3.8z"/></g><g class="st2"><path class="st7" d="M570.6 232.3c.2 0 .3.1.5.2.1.1.2.3.2.5s-.1.3-.2.5c-.1.1-.3.2-.5.2s-.3-.1-.5-.2c-.1-.1-.2-.2-.2-.5 0-.2.1-.3.2-.5.2-.2.3-.2.5-.2z"/></g><g class="st2"><path class="st7" d="M573.7 229.4l1-4.1h4.1l-.2 1h-3.2l-.6 2.3c.4-.2.9-.3 1.3-.3.7 0 1.2.3 1.6.8.3.5.5 1.2.5 1.9-.1.8-.3 1.5-.9 2s-1.2.8-2 .8c-.6 0-1.2-.2-1.6-.6-.4-.4-.6-1-.6-1.6h.9c0 .5.2.8.4 1s.5.3.9.4c.5 0 .9-.2 1.2-.5s.5-.8.6-1.4c.1-.5-.1-.9-.3-1.3s-.6-.5-1-.5c-.3 0-.5.1-.8.1-.2.1-.4.2-.6.4l-.7-.4zm10.1-2l-.1.7c.5-.5 1.1-.8 1.9-.8.4 0 .7.1 1 .3s.5.4.6.7c.6-.6 1.2-1 2-1 .6 0 1 .2 1.3.6.3.4.4.9.3 1.6l-.7 4h-1l.6-4v-.5c-.1-.5-.4-.8-1-.8-.3 0-.7.1-1 .3s-.5.5-.6.9l-.7 4.1h-1l.7-4c.1-.4 0-.8-.2-1s-.5-.3-.8-.3c-.6 0-1.2.3-1.5.9l-.8 4.5h-1l1-6.1 1-.1z"/></g><g class="st2"><path class="st7" d="M593.6 233.6c-.8 0-1.3-.3-1.8-.8-.4-.5-.6-1.2-.5-2.1v-.2c.1-.6.2-1.2.5-1.6.3-.5.6-.9 1.1-1.1.4-.2.9-.3 1.4-.3.6 0 1.1.2 1.5.6.3.4.5.9.6 1.6v.8l-.1.5h-4c-.1.5 0 1 .3 1.4.2.4.6.6 1.1.6.6 0 1.2-.2 1.7-.8l.6.5c-.2.3-.6.6-1 .9-.4-.1-.9 0-1.4 0zm.7-5.4c-.4 0-.8.1-1.1.4-.3.3-.6.8-.8 1.3h3v-.1c.1-.5 0-.9-.2-1.2-.2-.3-.6-.4-.9-.4z"/></g><g class="st2"><path class="st7" d="M599.3 225.9l-.2 1.5h1.1l-.1.8H599l-.6 3.8v.3c0 .3.2.5.5.5.1 0 .3 0 .5-.1l-.1.9c-.2.1-.5.1-.8.1-.4 0-.7-.2-.9-.5s-.3-.7-.2-1.2l.6-3.8h-1.1l.1-.8h1.1l.2-1.5h1z"/></g><g class="st2"><path class="st7" d="M604.2 228.3l-.5-.1c-.6 0-1.2.3-1.6.9l-.8 4.3h-1l1-6.1h1l-.2.7c.4-.6.9-.8 1.5-.8.1 0 .3 0 .5.1l.1 1z"/></g><g class="st2"><path class="st7" d="M606.7 233.6c-.8 0-1.3-.3-1.8-.8-.4-.5-.6-1.2-.5-2.1v-.2c.1-.6.2-1.2.5-1.6.3-.5.6-.9 1.1-1.1.4-.2.9-.3 1.4-.3.6 0 1.1.2 1.5.6.3.4.5.9.6 1.6v.8l-.1.5h-4c-.1.5 0 1 .3 1.4.2.4.6.6 1.1.6.6 0 1.2-.2 1.7-.8l.6.5c-.2.3-.6.6-1 .9-.5-.1-1 0-1.4 0zm.6-5.4c-.4 0-.8.1-1.1.4-.3.3-.6.8-.8 1.3h3v-.1c.1-.5 0-.9-.2-1.2-.2-.3-.5-.4-.9-.4z"/></g><g class="st2"><path class="st7" d="M613.5 231.8c.1-.4-.2-.7-.7-.9l-1-.3c-.9-.3-1.3-.8-1.3-1.5 0-.5.3-1 .8-1.3s1-.5 1.6-.5 1.1.2 1.5.5.6.8.6 1.4h-1c0-.3-.1-.5-.3-.8-.2-.2-.5-.3-.8-.3s-.6.1-.9.2c-.2.2-.3.4-.4.6-.1.3.2.6.6.8l.5.1c.7.2 1.2.4 1.5.7s.4.6.4 1.1c0 .4-.2.7-.3 1-.2.3-.5.5-.9.6-.3.1-.8.2-1.2.2-.6 0-1.2-.2-1.6-.6-.4-.3-.6-.9-.6-1.5h1c0 .3.1.6.3.8s.5.3.9.3c.3 0 .7-.1 1-.2.2.1.3-.1.3-.4z"/></g><path class="st7" d="M751.2 347.1h10.9v1.3h-10.9c-.3 0-.6-.2-.6-.6-.1-.4.3-.7.6-.7zm67.8.6c0 .3-.2.6-.6.6h-10.9V347h10.9c.3.1.6.4.6.7z"/><g class="st2"><path class="st7" d="M762.4 343.5h3.8l-.2.9h-4.8l1.5-8.2h1l-1.3 7.3z"/></g><g class="st2"><path class="st7" d="M769.2 344.5c-.8 0-1.3-.3-1.8-.8-.4-.5-.6-1.2-.5-2.1v-.2c.1-.6.2-1.2.5-1.6.3-.5.6-.9 1.1-1.1.4-.2.9-.3 1.4-.3.6 0 1.1.2 1.5.6.3.4.5.9.6 1.6v.8l-.1.5h-4c-.1.5 0 1 .3 1.4.2.4.6.6 1.1.6.6 0 1.2-.2 1.7-.8l.6.5c-.2.3-.6.6-1 .9-.5-.1-.9 0-1.4 0zm.7-5.5c-.4 0-.8.1-1.1.4s-.6.8-.8 1.3h3v-.1c.1-.5 0-.9-.2-1.2-.2-.2-.5-.4-.9-.4z"/></g><g class="st2"><path class="st7" d="M776.1 342.8c.1-.4-.2-.7-.7-.9l-1-.3c-.9-.3-1.3-.8-1.3-1.5 0-.5.3-1 .8-1.3s1-.5 1.6-.5 1.1.2 1.5.5.6.8.6 1.4h-1c0-.3-.1-.5-.3-.8-.2-.2-.5-.3-.8-.3s-.6.1-.9.2c-.2.2-.3.4-.4.6-.1.3.2.6.6.8l.5.1c.7.2 1.2.4 1.5.7s.4.6.4 1.1c0 .4-.2.7-.3 1-.2.3-.5.5-.9.6-.3.1-.8.2-1.2.2-.6 0-1.2-.2-1.6-.6-.4-.3-.6-.9-.6-1.5h1c0 .3.1.6.3.8.2.2.5.3.9.3s.7-.1 1-.2c.2.1.3-.2.3-.4z"/></g><g class="st2"><path class="st7" d="M781.8 342.8c.1-.4-.2-.7-.7-.9l-1-.3c-.9-.3-1.3-.8-1.3-1.5 0-.5.3-1 .8-1.3s1-.5 1.6-.5 1.1.2 1.5.5.6.8.6 1.4h-1c0-.3-.1-.5-.3-.8-.2-.2-.5-.3-.8-.3s-.6.1-.9.2c-.2.2-.3.4-.4.6-.1.3.2.6.6.8l.5.1c.7.2 1.2.4 1.5.7s.4.6.4 1.1c0 .4-.2.7-.3 1-.2.3-.5.5-.9.6-.3.1-.8.2-1.2.2-.6 0-1.2-.2-1.6-.6-.4-.3-.6-.9-.6-1.5h1c0 .3.1.6.3.8.2.2.5.3.9.3s.7-.1 1-.2c.1.1.2-.2.3-.4z"/></g><g class="st2"><path class="st7" d="M789.1 336.8l-.2 1.5h1.1l-.1.8h-1.1l-.6 3.8v.3c0 .3.2.5.5.5.1 0 .3 0 .5-.1l-.1.9c-.2.1-.5.1-.8.1-.4 0-.7-.2-.9-.5s-.3-.7-.2-1.2l.6-3.8h-1.1l.1-.8h1.1l.2-1.5h1z"/></g><g class="st2"><path class="st7" d="M792.1 339c.5-.6 1.2-.9 1.9-.9.6 0 1 .2 1.3.6s.4.9.3 1.6l-.6 4h-1l.7-4v-.5c-.1-.5-.3-.8-.9-.8-.6 0-1.2.3-1.6 1l-.8 4.4h-1l1.5-8.7h1l-.8 3.3z"/></g><g class="st2"><path class="st7" d="M800.1 344.4c0-.1-.1-.2-.1-.3v-.3c-.6.5-1.2.8-1.8.8-.5 0-1-.2-1.3-.5s-.5-.8-.5-1.2c.1-.6.3-1.2.9-1.5.5-.3 1.2-.5 2.1-.5h1l.1-.5c.1-.3-.1-.6-.2-.9-.2-.2-.5-.3-.8-.3s-.6.1-.9.2c-.3.2-.4.4-.5.7h-1c.1-.3.2-.7.4-.9.2-.2.6-.5.9-.6.4-.2.8-.2 1.2-.2.6 0 1.1.2 1.5.6.3.3.5.9.5 1.5l-.5 3v.4c0 .2 0 .4.1.6v.1l-1.1-.2zm-1.6-.8c.3 0 .6-.1.9-.2.3-.2.5-.4.8-.7l.2-1.3h-.8c-.6 0-1.2.1-1.5.3-.3.2-.5.5-.6.9-.1.3.1.5.2.7s.5.3.8.3z"/></g><g class="st2"><path class="st7" d="M804.4 338.3l-.2.8c.5-.6 1.2-.9 1.9-.9.6 0 1 .2 1.3.6s.3.9.3 1.6l-.6 4h-1l.7-4v-.5c-.1-.5-.3-.8-.9-.8-.6 0-1.2.3-1.6 1l-.8 4.4h-1l1-6.1h.9v-.1z"/></g><g class="st2"><path class="st7" d="M763.5 356.1h1.1l-.2.9h-1.1l-.3 1.9h-1l.3-1.9h-3.6l.1-.7 4.5-5.6h1.1l-.9 5.4zm-3.5 0h2.4l.8-4-.2.2-3 3.8z"/></g><g class="st2"><path class="st7" d="M765.8 357.7c.2 0 .3.1.5.2.1.1.2.3.2.5s-.1.3-.2.5c-.1.1-.3.2-.5.2s-.3-.1-.5-.2-.2-.2-.2-.5c0-.2.1-.3.2-.5s.3-.2.5-.2z"/></g><g class="st2"><path class="st7" d="M769 354.7l1-4.1h4.1l-.2 1h-3.2l-.6 2.3c.4-.2.9-.3 1.3-.3.7 0 1.2.3 1.6.8.3.5.5 1.2.5 1.9-.1.8-.3 1.5-.9 2-.5.5-1.2.8-2 .8-.6 0-1.2-.2-1.6-.6-.4-.4-.6-1-.6-1.6h.9c0 .5.2.8.4 1s.5.3.9.4c.5 0 .9-.2 1.2-.5s.5-.8.6-1.4c.1-.5-.1-.9-.3-1.3-.2-.3-.6-.5-1-.5-.3 0-.5.1-.8.1-.2.1-.4.2-.6.4l-.7-.4z"/></g><g class="st2"><path class="st7" d="M778.8 352.7l-.1.7c.5-.5 1.1-.8 1.9-.8.4 0 .7.1 1 .3s.5.4.6.7c.6-.6 1.2-1 2-1 .6 0 1 .2 1.3.6s.4.9.3 1.6l-.7 4h-1l.6-4v-.5c-.1-.5-.4-.8-1-.8-.3 0-.7.1-1 .3-.3.2-.5.5-.6.9l-.7 4.1h-1l.7-4c.1-.4 0-.8-.2-1s-.5-.3-.8-.3c-.6 0-1.2.3-1.5.9l-.8 4.5h-1l1-6.1 1-.1z"/></g><g class="st2"><path class="st7" d="M788.8 358.9c-.8 0-1.3-.3-1.8-.8-.4-.5-.6-1.2-.5-2.1v-.2c.1-.6.2-1.2.5-1.6.3-.5.6-.9 1.1-1.1.4-.2.9-.3 1.4-.3.6 0 1.1.2 1.5.6s.5.9.6 1.6v.8l-.1.5h-4c-.1.5 0 1 .3 1.4.2.4.6.6 1.1.6.6 0 1.2-.2 1.7-.8l.6.5c-.2.3-.6.6-1 .9-.4-.1-.9 0-1.4 0zm.7-5.4c-.4 0-.8.1-1.1.4s-.6.8-.8 1.3h3v-.1c.1-.5 0-.9-.2-1.2-.2-.3-.6-.4-.9-.4z"/></g><g class="st2"><path class="st7" d="M794.6 351.3l-.2 1.5h1.1l-.1.8h-1.1l-.6 3.8v.3c0 .3.2.5.5.5.1 0 .3 0 .5-.1l-.1.9c-.2.1-.5.1-.8.1-.4 0-.7-.2-.9-.5s-.3-.7-.2-1.2l.6-3.8h-1.1l.1-.8h1.1l.2-1.5h1z"/></g><g class="st2"><path class="st7" d="M799.4 353.6l-.5-.1c-.6 0-1.2.3-1.6.9l-.8 4.3h-1l1-6.1h1l-.2.7c.4-.6.9-.8 1.5-.8.1 0 .3 0 .5.1l.1 1z"/></g><g class="st2"><path class="st7" d="M802 358.9c-.8 0-1.3-.3-1.8-.8-.4-.5-.6-1.2-.5-2.1v-.2c.1-.6.2-1.2.5-1.6.3-.5.6-.9 1.1-1.1.4-.2.9-.3 1.4-.3.6 0 1.1.2 1.5.6.3.4.5.9.6 1.6v.8l-.1.5h-4c-.1.5 0 1 .3 1.4.2.4.6.6 1.1.6.6 0 1.2-.2 1.7-.8l.6.5c-.2.3-.6.6-1 .9-.5-.1-1 0-1.4 0zm.6-5.4c-.4 0-.8.1-1.1.4s-.6.8-.8 1.3h3v-.1c.1-.5 0-.9-.2-1.2-.2-.3-.5-.4-.9-.4z"/></g><g class="st2"><path class="st7" d="M808.8 357.2c.1-.4-.2-.7-.7-.9l-1-.3c-.9-.3-1.3-.8-1.3-1.5 0-.5.3-1 .8-1.3s1-.5 1.6-.5 1.1.2 1.5.5.6.8.6 1.4h-1c0-.3-.1-.5-.3-.8-.2-.2-.5-.3-.8-.3s-.6.1-.9.2c-.2.2-.3.4-.4.6-.1.3.2.6.6.8l.5.1c.7.2 1.2.4 1.5.7.3.3.4.6.4 1.1 0 .4-.2.7-.3 1-.2.3-.5.5-.9.6-.3.1-.8.2-1.2.2-.6 0-1.2-.2-1.6-.6-.4-.3-.6-.9-.6-1.5h1c0 .3.1.6.3.8.2.2.5.3.9.3s.7-.1 1-.2c.2.1.3-.2.3-.4z"/></g><g id="Work_Area_Illustration"><path class="st8" d="M873.7 360.9c0-.9.3-1.6 1-2.3.6-.6 1.4-1 2.3-1 .9 0 1.6.3 2.3 1 .6.6 1 1.4 1 2.3s-.3 1.6-1 2.3c-.6.6-1.4 1-2.3 1-.9 0-1.6-.3-2.3-1-.8-.7-1-1.5-1-2.3m9.4 7.5c-.5-2.2-2.7-3.2-2.7-3.2-.3-.1-.8-.2-1.2-.2-1.3 0-2.2.5-2.7 1.5l-1.5 2.6c-.8 1.2-1.7 2.2-3 2.9s-2.6 1-4.1 1v3.2c3.7 0 6.6-1.4 8.8-4.2l1 4.8-3.3 3.3v12.3h3.2v-9.8s5.6-1.6 6.3-2.8c1-1-.3-9.2-.8-11.4m-69.2.2c.5-2.2 2.7-3.2 2.7-3.2.3-.1.8-.2 1.2-.2 1.3 0 2.2.5 2.7 1.5l1.5 2.6c.8 1.2 1.7 2.2 3 2.9s2.6 1 4.1 1v3.2c-3.7 0-6.6-1.4-8.8-4.2l-1 4.8 3.3 3.3v12.3h-3.2V383s-5.6-1.6-6.3-2.8c-.7-1.2.3-9.4.8-11.6m9.6-7.5c0-.9-.3-1.6-1-2.3-.6-.6-1.4-1-2.3-1-.9 0-1.6.3-2.3 1-.6.6-1 1.4-1 2.3s.3 1.6 1 2.3c.6.6 1.4 1 2.3 1 .9 0 1.6-.3 2.3-1 .7-.7 1-1.5 1-2.3"/><path class="st8" d="M819.6 367.5c1.4.3 2.8.3 4.2-.1 1.4-.3 2.6-1 3.7-2.2l2.3 2.3c-2.6 2.6-5.6 3.7-9.3 3.3"/><path class="st9" d="M809.1 380.4c-1 .3-2.3-.2-2.6-1.3l-2.4-7.2c-.3-1 .2-2.3 1.4-2.6 1-.3 2.3.2 2.6 1.3l2.4 7.2c.3 1.1-.3 2.4-1.4 2.6m10.1 4.2h-7.6c-1.2 0-2-.6-2-1.4v-.5c0-.8 1-1.4 2-1.4h7.6c1.2 0 2 .6 2 1.4v.5c.2.8-.8 1.4-2 1.4"/><path class="st8" d="M808.5 381.3c-1.2 0-2.4-.8-2.8-1.9l-2.4-7.2c-.2-.8-.2-1.5.2-2.2.3-.6 1-1.2 1.7-1.4 1.5-.4 3.1.3 3.7 1.8l2.4 7.2c.2.8.2 1.5-.2 2.2-.3.6-1 1.2-1.7 1.4-.4.1-.6.1-.9.1zm-2.4-11.2c-.1 0-.2 0-.4.1-.3.1-.6.3-.8.6s-.2.6-.1 1l2.4 7.2c.2.6 1 1 1.6.8.3-.1.6-.3.8-.6.1-.3.2-.6.1-1l-2.4-7.2c-.1-.6-.7-.9-1.2-.9z"/><path class="st8" d="M819.2 385.5h-7.6c-1.6 0-2.9-1-2.9-2.3v-.5c0-1.3 1.3-2.3 2.9-2.3h7.6c1.6 0 2.9 1 2.9 2.3v.5c0 1.3-1.3 2.3-2.9 2.3zm-7.6-3.3c-.8 0-1.3.4-1.3.6v.5c0 .2.5.6 1.3.6h7.6c.8 0 1.3-.4 1.3-.6v-.5c0-.2-.5-.6-1.3-.6h-7.6zm2.1 3.3h1.6v3.1h-1.6z"/><path class="st8" d="M816.5 390.8l-1.9-1.9-1.9 1.9h-2.3l3.7-3.7c.3-.3.9-.3 1 0l3.7 3.7h-2.3z"/><path class="st8" d="M818.9 390.7c0-.8-.6-1.4-1.4-1.4-.8 0-1.4.6-1.4 1.4s.6 1.4 1.4 1.4 1.4-.7 1.4-1.4m-6 0c0-.8-.6-1.4-1.4-1.4-.8 0-1.4.6-1.4 1.4s.6 1.4 1.4 1.4 1.4-.7 1.4-1.4m66.8-11.7h-57.4c-.3 0-.6-.2-.8-.5-.1-.3 0-.6.2-.9l8.8-7.7c.1-.1.3-.2.5-.2h37.7c.2 0 .3 0 .4.1l11 7.7c.3.2.4.5.3.9s-.4.6-.7.6zm-55.3-1.6h52.7l-8.7-6.1h-37l-7 6.1z"/><path class="st8" d="M864.7 393.4c-.4 0-.9-.3-.9-.9v-13.9c0-.4.3-.9.9-.9.5 0 .9.3.9.9v13.9c0 .5-.5.9-.9.9zm-29 0c-.4 0-.9-.3-.9-.9v-13.9c0-.4.3-.9.9-.9s.9.3.9.9v13.9c0 .5-.4.9-.9.9zm-.5-28.4c-.1 0-.2 0-.4-.1s-.2-.4-.1-.6c2.5-3.4 3.1-7.6 1.8-11.6-1.5-4.7-5.6-8.2-10.5-8.9-.2 0-.4-.2-.3-.5 0-.2.2-.4.5-.3 5.3.8 9.6 4.4 11.3 9.6 1.4 4.2.6 8.8-1.9 12.5-.4-.2-.4-.1-.4-.1"/><path class="st8" d="M835.5 365c-.1.1-.2.2-.3.2h-.2c-.1 0-.3 0-.4-.1-.1-.1-.2-.2-.2-.4s0-.3.1-.5c2.4-3.3 3-7.5 1.7-11.5-1.5-4.7-5.5-8.1-10.4-8.8-.2 0-.3-.1-.4-.2-.1-.1-.1-.3-.1-.5s.1-.3.2-.4c.1-.1.3-.1.5-.1 5.4.8 9.8 4.5 11.5 9.7 1.3 4.3.6 8.8-2 12.6z"/><path class="st8" d="M834.5 353.2c-1.3-4.1-4.7-7-8.9-7.6-.2 0-.3 0-.5.1-.1.1-.2.2-.2.4 0 .3.2.8.5.8 3.8.5 6.8 3.1 8 6.7 1 2.9.5 6.1-1.3 8.6-.1.1-.1.3-.1.5s.1.3.3.4c.1.1.2.1.4.1h.2c.1 0 .2-.1.3-.2 1.8-2.9 2.4-6.5 1.3-9.8z"/><path class="st8" d="M831.5 354c-1-2.9-3.4-5.1-6.5-5.5-.3 0-.8.2-.8.5 0 .2 0 .3.1.5.1.1.2.2.4.2 2.6.3 4.7 2.2 5.4 4.5.6 1.9.3 4.1-.8 5.8-.2.3-.1.8.2 1 .1.1.2.1.3.1h.2c.1 0 .2-.1.3-.2 1.5-2 2-4.5 1.2-6.9z"/><path class="st9" d="M888.3 380.4c1 .3 2.3-.2 2.6-1.3l2.4-7.2c.3-1-.2-2.3-1.4-2.6-1-.3-2.3.2-2.6 1.3l-2.4 7.2c-.4 1.1.2 2.4 1.4 2.6m-10.2 4.2h7.6c1.2 0 2-.6 2-1.4v-.5c0-.8-1-1.4-2-1.4h-7.6c-1.2 0-2 .6-2 1.4v.5c-.1.8.8 1.4 2 1.4"/><path class="st8" d="M888.8 381.3c-.3 0-.5 0-.9-.1-.8-.2-1.4-.8-1.7-1.4s-.4-1.4-.2-2.2l2.4-7.2c.5-1.5 2.2-2.4 3.7-1.8.8.2 1.4.8 1.7 1.4s.4 1.4.2 2.2l-2.4 7.2c-.4 1.2-1.5 1.9-2.8 1.9zm2.4-11.2c-.5 0-1 .3-1.2.9l-2.4 7.2c-.1.3-.1.6.1 1 .1.3.4.5.8.6.6.2 1.4-.1 1.6-.8l2.4-7.2c.1-.3.1-.6-.1-1-.1-.3-.4-.5-.8-.6-.1-.1-.3-.1-.4-.1z"/><path class="st8" d="M885.7 385.5h-7.6c-1.6 0-2.9-1-2.9-2.3v-.5c0-1.3 1.3-2.3 2.9-2.3h7.6c1.6 0 2.9 1 2.9 2.3v.5c0 1.3-1.3 2.3-2.9 2.3zm-7.6-3.3c-.8 0-1.3.4-1.3.6v.5c0 .2.5.6 1.3.6h7.6c.8 0 1.3-.4 1.3-.6v-.5c0-.2-.5-.6-1.3-.6h-7.6zm4 3.3h1.6v3.1h-1.6z"/><path class="st8" d="M880.8 390.8l1.9-1.9 1.9 1.9h2.3l-3.7-3.7c-.3-.3-.9-.3-1 0l-3.7 3.7h2.3z"/><path class="st8" d="M878.5 390.7c0-.8.6-1.4 1.4-1.4s1.4.6 1.4 1.4-.6 1.4-1.4 1.4c-.9 0-1.4-.7-1.4-1.4m5.9 0c0-.8.6-1.4 1.4-1.4s1.4.6 1.4 1.4-.6 1.4-1.4 1.4-1.4-.7-1.4-1.4"/></g><g id="Work_Area_Illustration_1_"><path class="st8" d="M583.5 176.5c0-.9.3-1.6 1-2.3s1.4-1 2.3-1 1.6.3 2.3 1c.6.6 1 1.4 1 2.3s-.3 1.6-1 2.3c-.6.6-1.4 1-2.3 1s-1.6-.3-2.3-1c-.8-.7-1-1.4-1-2.3m9.4 7.5c-.5-2.2-2.7-3.2-2.7-3.2-.3-.1-.8-.2-1.2-.2-1.3 0-2.2.5-2.7 1.5l-1.5 2.6c-.8 1.2-1.7 2.2-3 2.9-1.3.8-2.6 1-4.1 1v3.2c3.7 0 6.6-1.4 8.8-4.2l1 4.8-3.3 3.3V208h3.2v-9.7s5.6-1.6 6.3-2.8c.9-1-.2-9.4-.8-11.5m-69.1.2c.5-2.2 2.7-3.2 2.7-3.2.3-.1.8-.2 1.2-.2 1.3 0 2.2.5 2.7 1.5l1.5 2.6c.8 1.2 1.7 2.2 3 2.9 1.3.8 2.6 1 4.1 1v3.2c-3.7 0-6.6-1.4-8.8-4.2l-1 4.8 3.3 3.3v12.3h-3.2v-9.6s-5.6-1.6-6.3-2.8c-.9-1.2.2-9.4.8-11.6m9.5-7.5c0-.9-.3-1.6-1-2.3s-1.4-1-2.3-1c-.9 0-1.6.3-2.3 1s-1 1.4-1 2.3.3 1.6 1 2.3c.6.6 1.4 1 2.3 1 .9 0 1.6-.3 2.3-1s1-1.5 1-2.3"/><path class="st8" d="M529.5 183.2c1.4.3 2.8.3 4.2-.1 1.4-.3 2.6-1 3.7-2.2l2.3 2.3c-2.6 2.6-5.6 3.7-9.3 3.3"/><path class="st9" d="M518.9 196c-1 .3-2.3-.2-2.6-1.3l-2.4-7.2c-.3-1 .2-2.3 1.4-2.6 1-.3 2.3.2 2.6 1.3l2.4 7.2c.3 1.2-.3 2.3-1.4 2.6m10.1 4.3h-7.6c-1.2 0-2-.6-2-1.4v-.5c0-.8 1-1.4 2-1.4h7.6c1.2 0 2 .6 2 1.4v.5c.1.7-.8 1.4-2 1.4"/><path class="st8" d="M518.2 196.9c-1.2 0-2.4-.8-2.8-1.9l-2.4-7.2c-.2-.8-.2-1.5.2-2.2.3-.6 1-1.2 1.7-1.4 1.5-.4 3.1.3 3.7 1.8l2.4 7.2c.2.8.2 1.5-.2 2.2-.3.6-1 1.2-1.7 1.4-.3.1-.5.1-.9.1zm-2.3-11.2c-.1 0-.2 0-.4.1-.3.1-.6.3-.8.6-.1.3-.2.6-.1 1l2.3 7.2c.2.6 1 1 1.6.8.3-.1.6-.3.8-.6.1-.3.2-.6.1-1l-2.4-7.2c-.1-.5-.6-.9-1.1-.9z"/><path class="st8" d="M529 201.1h-7.6c-1.6 0-2.9-1-2.9-2.3v-.5c0-1.3 1.3-2.3 2.9-2.3h7.6c1.6 0 2.9 1 2.9 2.3v.5c0 1.4-1.3 2.3-2.9 2.3zm-7.6-3.3c-.8 0-1.3.4-1.3.6v.5c0 .2.5.6 1.3.6h7.6c.8 0 1.3-.4 1.3-.6v-.5c0-.2-.5-.6-1.3-.6h-7.6zm2.1 3.3h1.6v3.1h-1.6z"/><path class="st8" d="M526.3 206.4l-1.9-1.9-1.9 1.9h-2.3l3.7-3.7c.3-.3.9-.3 1 0l3.7 3.7h-2.3z"/><path class="st8" d="M528.7 206.3c0-.8-.6-1.4-1.4-1.4-.8 0-1.4.6-1.4 1.4 0 .8.6 1.4 1.4 1.4.8 0 1.4-.7 1.4-1.4m-6 0c0-.8-.6-1.4-1.4-1.4-.8 0-1.4.6-1.4 1.4 0 .8.6 1.4 1.4 1.4s1.4-.7 1.4-1.4m66.8-11.7H532c-.3 0-.6-.2-.8-.5-.1-.3 0-.6.2-.9l8.8-7.7c.1-.1.3-.2.5-.2h37.7c.2 0 .3 0 .4.1l11 7.7c.3.2.4.5.3.9.1.5-.3.6-.6.6zm-55.3-1.5h52.7l-8.7-6.1h-37l-7 6.1z"/><path class="st8" d="M574.5 209c-.4 0-.9-.3-.9-.9v-13.8c0-.4.3-.9.9-.9s.9.3.9.9v13.9c0 .3-.4.8-.9.8zm-29 0c-.4 0-.9-.3-.9-.9v-13.8c0-.4.3-.9.9-.9s.9.3.9.9v13.9c-.1.3-.4.8-.9.8zm-.6-28.4c-.1 0-.2 0-.4-.1s-.2-.4-.1-.6c2.5-3.4 3.1-7.6 1.8-11.6-1.5-4.7-5.6-8.2-10.5-8.9-.2 0-.4-.2-.3-.5 0-.2.2-.4.5-.3 5.3.8 9.6 4.4 11.3 9.6 1.4 4.2.6 8.8-1.9 12.5-.2-.3-.4-.1-.4-.1"/><path class="st8" d="M545.3 180.6c-.1.1-.2.2-.3.2h-.2c-.1 0-.3 0-.4-.1-.1-.1-.2-.2-.2-.4s0-.3.1-.5c2.4-3.3 3-7.5 1.7-11.5-1.5-4.7-5.5-8.1-10.4-8.8-.2 0-.3-.1-.4-.2-.1-.1-.1-.3-.1-.5s.1-.3.2-.4c.1-.1.3-.1.5-.1 5.4.8 9.8 4.5 11.5 9.7 1.3 4.3.7 8.8-2 12.6z"/><path class="st8" d="M544.3 168.7c-1.3-4.1-4.7-7-8.9-7.6-.2 0-.3 0-.5.1-.1.1-.2.2-.2.4 0 .3.2.8.5.8 3.8.5 6.8 3.1 8 6.7 1 2.9.5 6.1-1.3 8.6-.1.1-.1.3-.1.5s.1.3.3.4c.1.1.2.1.4.1h.2c.1 0 .2-.1.3-.2 1.8-2.8 2.3-6.4 1.3-9.8z"/><path class="st8" d="M541.3 169.6c-1-2.9-3.4-5.1-6.5-5.5-.3 0-.8.2-.8.5 0 .2 0 .3.1.5.1.1.2.2.4.2 2.6.3 4.7 2.2 5.4 4.5.6 1.9.3 4.1-.8 5.8-.2.3-.1.8.2 1 .1.1.2.1.3.1h.2c.1 0 .2-.1.3-.2 1.5-1.9 1.9-4.6 1.2-6.9z"/><path class="st9" d="M598.1 196c1 .3 2.3-.2 2.6-1.3l2.4-7.2c.3-1-.2-2.3-1.4-2.6-1-.3-2.3.2-2.6 1.3l-2.4 7.2c-.3 1.2.2 2.3 1.4 2.6m-10.2 4.3h7.6c1.2 0 2-.6 2-1.4v-.5c0-.8-1-1.4-2-1.4h-7.6c-1.2 0-2 .6-2 1.4v.5c-.1.7.8 1.4 2 1.4"/><path class="st8" d="M598.7 196.9c-.3 0-.5 0-.9-.1-.8-.2-1.4-.8-1.7-1.4-.3-.6-.4-1.4-.2-2.2l2.4-7.2c.5-1.5 2.2-2.4 3.7-1.8.8.2 1.4.8 1.7 1.4.3.6.4 1.4.2 2.2l-2.4 7.2c-.5 1.2-1.6 1.9-2.8 1.9zm2.3-11.2c-.5 0-1 .3-1.2.9l-2.4 7.2c-.1.3-.1.6.1 1 .1.3.4.5.8.6.6.2 1.4-.1 1.6-.8l2.4-7.2c.1-.3.1-.6-.1-1-.1-.3-.4-.5-.8-.6-.1-.1-.3-.1-.4-.1z"/><path class="st8" d="M595.5 201.1h-7.6c-1.6 0-2.9-1-2.9-2.3v-.5c0-1.3 1.3-2.3 2.9-2.3h7.6c1.6 0 2.9 1 2.9 2.3v.5c0 1.4-1.3 2.3-2.9 2.3zm-7.6-3.3c-.8 0-1.3.4-1.3.6v.5c0 .2.5.6 1.3.6h7.6c.8 0 1.3-.4 1.3-.6v-.5c0-.2-.5-.6-1.3-.6h-7.6zm3.9 3.3h1.6v3.1h-1.6z"/><path class="st8" d="M590.7 206.4l1.9-1.9 1.9 1.9h2.3l-3.7-3.7c-.3-.3-.9-.3-1 0l-3.7 3.7h2.3z"/><path class="st8" d="M588.3 206.3c0-.8.6-1.4 1.4-1.4.8 0 1.4.6 1.4 1.4 0 .8-.6 1.4-1.4 1.4-.9 0-1.4-.7-1.4-1.4m5.9 0c0-.8.6-1.4 1.4-1.4s1.4.6 1.4 1.4c0 .8-.6 1.4-1.4 1.4-.7 0-1.4-.7-1.4-1.4"/></g><path class="st7" d="M750.6 350.3v-5.4c0-.3.2-.6.6-.6s.6.2.6.6v5.4c0 .3-.2.6-.6.6-.2.1-.6-.2-.6-.6zm67.3 0v-5.4c0-.3.2-.6.6-.6.3 0 .6.2.6.6v5.4c0 .3-.2.6-.6.6-.4 0-.6-.2-.6-.6z"/></svg>