<svg version="1.1" id="Layer_1" xmlns="http://www.w3.org/2000/svg" x="0" y="0" viewBox="0 0 1200 675" xml:space="preserve"><style>.st0{fill:none}.st3,.st4{fill:none;stroke:#0080c5;stroke-width:2.6344}.st4{stroke-linecap:round;stroke-linejoin:round}.st6{fill:#ccdbf0}.st11,.st7{fill:none;stroke:#ef4931;stroke-width:1.7564}.st11{stroke-linecap:round;stroke-linejoin:round}.st12{fill:#ef4931}.st19,.st20{fill:none;stroke:#0080c5;stroke-width:2.3899}.st20{stroke-linecap:round;stroke-linejoin:round}</style><path id="Bounding_BOX" class="st0" d="M250.5 141.1h699v392.8h-699z"/><path d="M883.1 211.4l-22.9 23.1m0-23.1l22.9 23.1" stroke="#ef4931" stroke-width="2.913" stroke-linecap="round" stroke-linejoin="round" fill="none"/><path fill="none" stroke="#00ad57" stroke-width="2.888" stroke-linecap="round" stroke-linejoin="round" d="M869.6 407l8.1 7.9 18.8-18.9"/><path class="st3" d="M597.3 154.2h7.5v174.1h-7.5z"/><path class="st4" d="M413.6 498.1c0-16.6-9.6-27-30-26.6"/><path d="M369.1 153.4h464.1v174.1H369.1zm0 184.3h464.1v162.9H369.1z" stroke-width="5.269" stroke-linecap="round" stroke-linejoin="round" fill="none" stroke="#0080c5"/><path class="st6" d="M371.8 162.5v16.7h459.1v-17.1z"/><path class="st7" d="M371.6 162.7l115.4-.2m-115.4 16.7H487m343.5-16.7H499.1m331.4 16.7H499.1"/><path fill="none" stroke="#ef4931" stroke-width="1.756" stroke-linecap="round" stroke-linejoin="round" stroke-dasharray="0,3.5021" d="M499.7 170.7h218.9"/><path fill="none" stroke="#ef4931" stroke-width="1.756" stroke-linecap="round" stroke-linejoin="round" stroke-dasharray="0,3.4143" d="M496.2 184.4v-11.9"/><path fill="none" stroke="#ef4931" stroke-width="1.756" stroke-linecap="round" stroke-linejoin="round" stroke-dasharray="0,3.3669" d="M720.4 174.2v15"/><path class="st12" d="M721.1 198.3l5-7.9h-9.8zm-225.5-.2l4.8-7.9h-9.6z"/><path class="st11" d="M487.4 162.5h17.5v16.8h-17.5z"/><path class="st7" d="M487.4 162.3l17.1 17.1m0-17.1l-17.1 17.1"/><path class="st11" d="M712.3 162.5h17.5v16.8h-17.5z"/><path class="st7" d="M712.3 162.3l17.1 17.1m0-17.1l-17.1 17.1"/><path class="st4" d="M413.6 325.2c0-16.6-9.6-27-30-26.6m-.4 27.3v-27.3m409.9 26.6c0-16.6 9.6-27 30-26.6m.5 27.3v-27.3"/><path class="st6" d="M713.8 345.8l-84.3-.8.2 163.5-229-.8V355.8l85.3.6v2.9l16.9.3.2-16.3h-17.7l-1.1 3.1h-97.5l.6 163.1H366l-.2 11.9h468.4v-13.1l-188.9.2V357.7l69.7-.6v3.1l16.3-.6v-16.1l-16.9-.2z"/><path class="st3" d="M597.3 338.1h7.5v161.4h-7.5z"/><path fill="none" stroke="#ef4931" stroke-width="1.756" stroke-linecap="round" stroke-linejoin="round" stroke-dasharray="0,3.5214" d="M396.8 352.3h96.9"/><path fill="none" stroke="#ef4931" stroke-width="1.756" stroke-linecap="round" stroke-linejoin="round" stroke-dasharray="0,3.2633" d="M495.4 355.6v8.1"/><path class="st7" d="M485.6 343.1l17.2 17.1m0-17.1l-17.2 17.1"/><path class="st12" d="M495.4 375.4l4.7-7.5h-9.3z"/><path class="st11" d="M485.6 343.3h17.5v16.8h-17.5z"/><path fill="none" stroke="#ef4931" stroke-width="1.756" stroke-linecap="round" stroke-linejoin="round" stroke-dasharray="0,3.3001" d="M722.1 365.6l-.2-11.5"/><path fill="none" stroke="#ef4931" stroke-width="1.756" stroke-linecap="round" stroke-linejoin="round" stroke-dasharray="0,3.4705" d="M718.8 351.9l-78-.3"/><path fill="none" stroke="#ef4931" stroke-width="1.756" stroke-linecap="round" stroke-linejoin="round" stroke-dasharray="0,3.511" d="M638.7 347.9l-.4 167.1"/><path class="st12" d="M722.1 375.4l4.4-7.5h-9z"/><path class="st11" d="M713.4 355.6h-68.5v152.9h189.3"/><path class="st7" d="M714 343.1l16.9 17.1m0-17.1L714 360.2"/><path class="st11" d="M713.8 343.3h17.5v16.8h-17.5z"/><path class="st4" d="M383.2 499.1v-27.6"/><path class="st11" d="M485.6 346.9h-98.8v162.4h-21"/><path fill="none" stroke="#ef4931" stroke-width="1.756" stroke-linecap="round" stroke-linejoin="round" stroke-dasharray="0,3.5426" d="M393.6 513.7l-.2-159.6"/><path class="st7" d="M485.2 356.4h-84.5v151.1h229l-.2-161.5h84.3"/><path class="st4" d="M792.9 498.1c0-16.6 9.6-27 30-26.6m.5 27.6v-27.6"/><path class="st19" d="M488.3 405.5c-.6 0-1.7-.2-1.7-1.7v-16.2c0-.6.2-1.7 1.7-1.7h15.6c.6 0 1.7.2 1.7 1.7v16.2c0 .6-.2 1.7-1.7 1.7h-15.6z"/><path class="st19" d="M484.8 386c-.4 0-.4-.2-.4-.4v-4c0-.4.2-.4.4-.4h22.7c.4 0 .4.2.4.4v4c0 .4-.2.4-.4.4h-22.7zm-40.4 19.5c-.6 0-1.7-.2-1.7-1.7v-16.2c0-.6.2-1.7 1.7-1.7H460c.6 0 1.7.2 1.7 1.7v16.2c0 .6-.2 1.7-1.7 1.7h-15.6z"/><path class="st19" d="M440.8 386c-.4 0-.4-.2-.4-.4v-4c0-.4.2-.4.4-.4h22.7c.4 0 .4.2.4.4v4c0 .4-.2.4-.4.4h-22.7zm91.6 19.5c-.6 0-1.7-.2-1.7-1.7v-16.2c0-.6.2-1.7 1.7-1.7H548c.6 0 1.7.2 1.7 1.7v16.2c0 .6-.2 1.7-1.7 1.7h-15.6z"/><path class="st19" d="M528.8 386c-.4 0-.4-.2-.4-.4v-4c0-.4.2-.4.4-.4h22.7c.4 0 .4.2.4.4v4c0 .4-.2.4-.4.4h-22.7zm-24.9 76.3c.6 0 1.7.2 1.7 1.7v16.2c0 .6-.2 1.7-1.7 1.7h-15.6c-.6 0-1.7-.2-1.7-1.7V464c0-.6.2-1.7 1.7-1.7h15.6z"/><path class="st19" d="M507.6 481.7c.4 0 .4.2.4.4v4c0 .4-.2.4-.4.4h-22.7c-.4 0-.4-.2-.4-.4v-4c0-.4.2-.4.4-.4h22.7zm40.2-19.4c.6 0 1.7.2 1.7 1.7v16.2c0 .6-.2 1.7-1.7 1.7h-15.6c-.6 0-1.7-.2-1.7-1.7V464c0-.6.2-1.7 1.7-1.7h15.6z"/><path class="st19" d="M551.5 481.7c.4 0 .4.2.4.4v4c0 .4-.2.4-.4.4h-22.7c-.4 0-.4-.2-.4-.4v-4c0-.4.2-.4.4-.4h22.7zM460 462.3c.6 0 1.7.2 1.7 1.7v16.2c0 .6-.2 1.7-1.7 1.7h-15.6c-.6 0-1.7-.2-1.7-1.7V464c0-.6.2-1.7 1.7-1.7H460z"/><path class="st19" d="M463.7 481.7c.4 0 .4.2.4.4v4c0 .4-.2.4-.4.4h-22.9c-.4 0-.4-.2-.4-.4v-4c0-.4.2-.4.4-.4h22.9z"/><path class="st20" d="M434.6 410.7h126.5v47.2H434.6z"/><path class="st19" d="M717.7 405.5c-.6 0-1.7-.2-1.7-1.7v-16.2c0-.6.2-1.7 1.7-1.7h15.6c.6 0 1.7.2 1.7 1.7v16.2c0 .6-.2 1.7-1.7 1.7h-15.6z"/><path class="st19" d="M714 386c-.4 0-.4-.2-.4-.4v-4c0-.4.2-.4.4-.4h22.7c.4 0 .4.2.4.4v4c0 .4-.2.4-.4.4H714zm-40.2 19.5c-.6 0-1.7-.2-1.7-1.7v-16.2c0-.6.2-1.7 1.7-1.7h15.6c.6 0 1.7.2 1.7 1.7v16.2c0 .6-.2 1.7-1.7 1.7h-15.6z"/><path class="st19" d="M670.1 386c-.4 0-.4-.2-.4-.4v-4c0-.4.2-.4.4-.4h22.7c.4 0 .4.2.4.4v4c0 .4-.2.4-.4.4h-22.7zm91.5 19.5c-.6 0-1.7-.2-1.7-1.7v-16.2c0-.6.2-1.7 1.7-1.7h15.6c.6 0 1.7.2 1.7 1.7v16.2c0 .6-.2 1.7-1.7 1.7h-15.6z"/><path class="st19" d="M757.9 386c-.4 0-.4-.2-.4-.4v-4c0-.4.2-.4.4-.4h22.7c.4 0 .4.2.4.4v4c0 .4-.2.4-.4.4h-22.7zm-24.6 76.3c.6 0 1.7.2 1.7 1.7v16.2c0 .6-.2 1.7-1.7 1.7h-15.6c-.6 0-1.7-.2-1.7-1.7V464c0-.6.2-1.7 1.7-1.7h15.6z"/><path class="st19" d="M736.7 481.7c.4 0 .4.2.4.4v4c0 .4-.2.4-.4.4H714c-.4 0-.4-.2-.4-.4v-4c0-.4.2-.4.4-.4h22.7zm40.5-19.4c.6 0 1.7.2 1.7 1.7v16.2c0 .6-.2 1.7-1.7 1.7h-15.6c-.6 0-1.7-.2-1.7-1.7V464c0-.6.2-1.7 1.7-1.7h15.6z"/><path class="st19" d="M780.8 481.7c.4 0 .4.2.4.4v4c0 .4-.2.4-.4.4h-22.7c-.4 0-.4-.2-.4-.4v-4c0-.4.2-.4.4-.4h22.7zm-91.6-19.4c.6 0 1.7.2 1.7 1.7v16.2c0 .6-.2 1.7-1.7 1.7h-15.6c-.6 0-1.7-.2-1.7-1.7V464c0-.6.2-1.7 1.7-1.7h15.6z"/><path class="st19" d="M692.8 481.7c.4 0 .4.2.4.4v4c0 .4-.2.4-.4.4h-22.7c-.4 0-.4-.2-.4-.4v-4c0-.4.2-.4.4-.4h22.7z"/><path class="st20" d="M663.9 410.7h126.5v47.2H663.9z"/><g><path class="st19" d="M490 230.8c-.6 0-1.7-.2-1.7-1.7v-16.2c0-.6.2-1.7 1.7-1.7h15.6c.6 0 1.7.2 1.7 1.7v16.2c0 .6-.2 1.7-1.7 1.7H490z"/><path class="st19" d="M486.4 211.4c-.4 0-.4-.2-.4-.4v-4c0-.4.2-.4.4-.4h22.7c.4 0 .4.2.4.4v4c0 .4-.2.4-.4.4h-22.7zm-40.3 19.4c-.6 0-1.7-.2-1.7-1.7v-16.2c0-.6.2-1.7 1.7-1.7h15.6c.6 0 1.7.2 1.7 1.7v16.2c0 .6-.2 1.7-1.7 1.7h-15.6z"/><path class="st19" d="M442.5 211.4c-.4 0-.4-.2-.4-.4v-4c0-.4.2-.4.4-.4h22.7c.4 0 .4.2.4.4v4c0 .4-.2.4-.4.4h-22.7zm91.5 19.4c-.6 0-1.7-.2-1.7-1.7v-16.2c0-.6.2-1.7 1.7-1.7h15.6c.6 0 1.7.2 1.7 1.7v16.2c0 .6-.2 1.7-1.7 1.7H534z"/><path class="st19" d="M530.3 211.4c-.4 0-.4-.2-.4-.4v-4c0-.4.2-.4.4-.4H553c.4 0 .4.2.4.4v4c0 .4-.2.4-.4.4h-22.7zm-24.8 76.2c.6 0 1.7.2 1.7 1.7v16.2c0 .6-.2 1.7-1.7 1.7h-15.6c-.6 0-1.7-.2-1.7-1.7v-16.2c0-.6.2-1.7 1.7-1.7h15.6z"/><path class="st19" d="M509.1 307.1c.4 0 .4.2.4.4v4c0 .4-.2.4-.4.4h-22.7c-.4 0-.4-.2-.4-.4v-4c0-.4.2-.4.4-.4h22.7zm40.3-19.5c.6 0 1.7.2 1.7 1.7v16.2c0 .6-.2 1.7-1.7 1.7h-15.6c-.6 0-1.7-.2-1.7-1.7v-16.2c0-.6.2-1.7 1.7-1.7h15.6z"/><path class="st19" d="M553 307.1c.4 0 .4.2.4.4v4c0 .4-.2.4-.4.4h-22.7c-.4 0-.4-.2-.4-.4v-4c0-.4.2-.4.4-.4H553zm-91.5-19.5c.6 0 1.7.2 1.7 1.7v16.2c0 .6-.2 1.7-1.7 1.7H446c-.6 0-1.7-.2-1.7-1.7v-16.2c0-.6.2-1.7 1.7-1.7h15.5z"/><path class="st19" d="M465.2 307.1c.4 0 .4.2.4.4v4c0 .4-.2.4-.4.4h-22.7c-.4 0-.4-.2-.4-.4v-4c0-.4.2-.4.4-.4h22.7z"/><path class="st20" d="M436.1 236h126.5v47.2H436.1z"/></g><g><path class="st19" d="M704.4 230.8c-.6 0-1.7-.2-1.7-1.7v-16.2c0-.6.2-1.7 1.7-1.7H720c.6 0 1.7.2 1.7 1.7v16.2c0 .6-.2 1.7-1.7 1.7h-15.6z"/><path class="st19" d="M700.7 211.4c-.4 0-.4-.2-.4-.4v-4c0-.4.2-.4.4-.4h22.7c.4 0 .4.2.4.4v4c0 .4-.2.4-.4.4h-22.7zm-40.4 19.4c-.6 0-1.7-.2-1.7-1.7v-16.2c0-.6.2-1.7 1.7-1.7h15.6c.6 0 1.7.2 1.7 1.7v16.2c0 .6-.2 1.7-1.7 1.7h-15.6z"/><path class="st19" d="M656.8 211.4c-.4 0-.4-.2-.4-.4v-4c0-.4.2-.4.4-.4h22.7c.4 0 .4.2.4.4v4c0 .4-.2.4-.4.4h-22.7zm91.5 19.4c-.6 0-1.7-.2-1.7-1.7v-16.2c0-.6.2-1.7 1.7-1.7h15.6c.6 0 1.7.2 1.7 1.7v16.2c0 .6-.2 1.7-1.7 1.7h-15.6z"/><path class="st19" d="M744.6 211.4c-.4 0-.4-.2-.4-.4v-4c0-.4.2-.4.4-.4h22.7c.4 0 .4.2.4.4v4c0 .4-.2.4-.4.4h-22.7zm-24.8 76.2c.6 0 1.7.2 1.7 1.7v16.2c0 .6-.2 1.7-1.7 1.7h-15.6c-.6 0-1.7-.2-1.7-1.7v-16.2c0-.6.2-1.7 1.7-1.7h15.6z"/><path class="st19" d="M723.4 307.1c.4 0 .4.2.4.4v4c0 .4-.2.4-.4.4h-22.7c-.4 0-.4-.2-.4-.4v-4c0-.4.2-.4.4-.4h22.7zm40.3-19.5c.6 0 1.7.2 1.7 1.7v16.2c0 .6-.2 1.7-1.7 1.7h-15.6c-.6 0-1.7-.2-1.7-1.7v-16.2c0-.6.2-1.7 1.7-1.7h15.6z"/><path class="st19" d="M767.3 307.1c.4 0 .4.2.4.4v4c0 .4-.2.4-.4.4h-22.7c-.4 0-.4-.2-.4-.4v-4c0-.4.2-.4.4-.4h22.7zm-91.4-19.5c.6 0 1.7.2 1.7 1.7v16.2c0 .6-.2 1.7-1.7 1.7h-15.6c-.6 0-1.7-.2-1.7-1.7v-16.2c0-.6.2-1.7 1.7-1.7h15.6z"/><path class="st19" d="M679.5 307.1c.4 0 .4.2.4.4v4c0 .4-.2.4-.4.4h-22.7c-.4 0-.4-.2-.4-.4v-4c0-.4.2-.4.4-.4h22.7z"/><path class="st20" d="M650.5 236H777v47.2H650.5z"/></g><path fill="none" stroke="#ef4931" stroke-width="1.756" stroke-linecap="round" stroke-linejoin="round" stroke-dasharray="0,3.5092" d="M633.1 515l-236.8-.3"/><path class="st11" d="M365.8 521.6h468"/><path class="st0" d="M0 0h1200v675H0z"/></svg>