<svg version="1.1" id="Layer_2" xmlns="http://www.w3.org/2000/svg" x="0" y="0" viewBox="0 0 1200 675" xml:space="preserve"><style>.st1{fill:#ccc}.st2{fill:#0080c5}.st3{fill:#8ab2de}.st4{enable-background:new}.st5{fill:#52575b}.st6{fill:#fff}</style><path id="Bounding_BOX_1_" fill="none" d="M-1 0h1200v675H-1z"/><path id="South_Wall_1_" class="st1" d="M403 451.4h247.9v6.8H403z"/><path id="Middle_East_Wall_5_" class="st2" d="M644.1 345.7h150.4v6.8H644.1z"/><path id="Middle_East_Wall_4_" class="st2" d="M644.1 217.7h150.4v6.8H644.1z"/><path id="Middle_East_Wall_3_" class="st2" d="M644.1 451.4h150.4v6.8H644.1z"/><path id="Large_East_Wall_1_" class="st2" d="M644.1 218.1h6.8v240.1h-6.8z"/><path id="North_Wall_1_" class="st1" d="M401.9 217.7h242.2v6.8H401.9z"/><path id="Door_Path_5_" class="st3" d="M458.6 222.8c0-1.8-.1-3.4-.4-5.1H421v42.6c20.7 0 37.6-16.9 37.6-37.5"/><path id="Door_Path_4_" class="st3" d="M701 223.2c0-1.9-.1-3.7-.4-5.5h-40.5v46.5c22.6-.1 40.9-18.4 40.9-41"/><path id="North_East_Wall_1_" class="st2" d="M788.2 218.1h6.8v130h-6.8z"/><path id="South_East_Wall_1_" class="st2" d="M788.2 346h6.8v112.2h-6.8z"/><path id="Door_Path_3_" class="st3" d="M790.1 409.7c1.8 0 3.4.1 5.1.4v37.2h-42.6c.1-20.8 16.9-37.6 37.5-37.6"/><path id="West_Wall_1_" class="st1" d="M401.9 217.9h6.8v240.3h-6.8z"/><g id="Medium_Conference_Room_1_"><g class="st4"><path class="st5" d="M704.7 251.9h1.7l3.1 8.1 3.1-8.1h1.7v9.9h-1.2v-8.2l-3.3 8.2h-1l-3.3-8.2v8.2h-1.2v-9.9h.4z"/></g><g class="st4"><path class="st5" d="M717.8 261.6c-.5-.4-1-.8-1.3-1.4-.4-.6-.5-1.2-.5-1.9s.1-1.4.4-1.9c.3-.6.7-1 1.2-1.4.5-.4 1.1-.5 1.8-.5s1.3.2 1.8.5.9.8 1.2 1.3c.3.5.4 1.2.4 1.9v.4h-5.6c0 .5.2 1 .4 1.4.2.4.5.6.9.8.4.2.8.3 1.1.3 1 0 1.6-.4 2.1-1.3l1 .5c-.3.6-.7 1-1.2 1.4-.5.4-1.2.5-1.9.5-.6-.1-1.2-.3-1.8-.6zm3.9-4c0-.3-.1-.6-.2-.9-.2-.3-.4-.5-.7-.8-.3-.2-.7-.3-1.2-.3-.6 0-1 .2-1.4.5-.4.4-.6.8-.8 1.4l4.3.1z"/></g><g class="st4"><path class="st5" d="M725.7 261.6c-.5-.4-1-.8-1.2-1.4-.3-.6-.5-1.2-.5-1.9s.2-1.4.5-1.9c.3-.6.7-1 1.2-1.4.5-.4 1.1-.5 1.7-.5.5 0 1 .1 1.4.4s.8.5 1 1V252h1.2v9.9h-1.1v-1c-.2.4-.5.6-1 .9-.4.2-1 .4-1.4.4-.8-.1-1.4-.3-1.8-.6zm2.9-.9c.4-.2.6-.5.9-1 .2-.4.4-.9.4-1.4s-.1-1-.4-1.4c-.2-.4-.5-.7-.9-1-.3-.3-.8-.4-1.2-.4s-.8.1-1.2.4c-.4.2-.6.5-.9 1-.2.4-.4.9-.4 1.4s.1 1 .4 1.4c.2.4.5.7.9 1 .4.2.8.4 1.2.4.5-.1 1-.2 1.2-.4z"/></g><g class="st4"><path class="st5" d="M732.7 253.3c-.2-.2-.2-.4-.2-.6 0-.2 0-.4.2-.6.2-.2.4-.2.6-.2.2 0 .4 0 .6.2.2.2.2.4.2.6 0 .2 0 .4-.2.6-.2.2-.4.2-.6.2-.3 0-.4 0-.6-.2zm0 1.5h1.2v7.1h-1.2v-7.1z"/></g><g class="st4"><path class="st5" d="M736.3 261.3c-.5-.5-.7-1.2-.7-2.1v-4.5h1.2v4.3c0 .7.2 1.2.5 1.4s.7.5 1.2.5c.4 0 .8-.1 1-.3.3-.2.5-.5.7-.8.2-.4.2-.7.2-1.1v-4h1.2v7.1h-1.1v-1c-.2.4-.5.6-1 .9-.4.2-.9.4-1.4.4-.7 0-1.4-.3-1.8-.8zm7.1-6.5h1.1v1c.2-.4.5-.6 1-.9s.8-.4 1.3-.4 1 .1 1.4.4.6.6.8 1c.2-.4.6-.8 1-1s.9-.4 1.4-.4c.8 0 1.4.2 1.9.8.4.5.6 1.2.6 2v4.5h-1.2v-4.3c0-.6-.1-1.1-.4-1.4-.3-.3-.6-.5-1.2-.5-.4 0-.7.1-1 .3-.3.2-.5.5-.7.8-.2.4-.2.7-.2 1.1v4H748v-4.3c0-.6-.1-1.2-.4-1.4-.3-.3-.6-.5-1.2-.5-.4 0-.7.1-1 .3-.3.2-.5.5-.7.8-.2.4-.2.7-.2 1.1v3.9h-1.2l.1-6.9z"/></g><g class="st4"><path class="st5" d="M695.9 278.4c-.8-.5-1.4-1-1.9-1.9-.5-.8-.7-1.7-.7-2.6s.2-1.9.7-2.6c.5-.8 1-1.4 1.9-1.9.8-.5 1.6-.7 2.6-.7.8 0 1.4.1 2 .4.6.3 1.2.7 1.6 1.2l-.9.8c-.4-.5-.8-.8-1.2-1-.5-.2-1-.3-1.6-.3-.7 0-1.4.2-2 .5-.6.4-1.1.8-1.4 1.4-.4.6-.5 1.4-.5 2.2 0 .8.2 1.5.5 2.2.4.6.8 1.1 1.4 1.4.6.4 1.3.5 2 .5 1.2 0 2.2-.5 3.1-1.4l.9.8c-.5.5-1 1-1.7 1.3-.7.3-1.4.5-2.2.5-.9-.1-1.8-.4-2.6-.8z"/></g><g class="st4"><path class="st5" d="M705.1 278.6c-.6-.4-1-.8-1.3-1.4s-.5-1.2-.5-1.9.2-1.4.5-1.9c.3-.6.8-1 1.3-1.4.6-.4 1.2-.5 1.9-.5s1.4.2 1.9.5c.6.4 1 .8 1.3 1.4.3.6.5 1.2.5 1.9s-.2 1.4-.5 1.9c-.3.6-.8 1-1.3 1.4-.6.4-1.2.5-1.9.5s-1.4-.2-1.9-.5zm3-.9c.4-.2.7-.5.9-1 .2-.4.4-.9.4-1.4 0-.5-.1-1-.4-1.4-.2-.4-.5-.7-.9-1-.4-.2-.8-.4-1.2-.4-.5 0-.8.1-1.2.4-.4.2-.7.5-1 1-.2.4-.4.9-.4 1.4 0 .5.1 1 .4 1.4.2.4.5.7 1 1 .4.2.8.4 1.2.4.5 0 .9-.2 1.2-.4z"/></g><g class="st4"><path class="st5" d="M711.9 271.7h1.1v1c.2-.4.5-.6 1-.9.4-.2.9-.4 1.4-.4.9 0 1.5.2 1.9.8.5.5.7 1.2.7 2v4.5h-1.1v-4.3c0-.6-.2-1.1-.5-1.4-.3-.3-.8-.5-1.3-.5-.4 0-.7.1-1 .3-.3.2-.5.5-.7.8-.2.4-.2.7-.2 1.1v3.9H712l-.1-6.9z"/></g><g class="st4"><path class="st5" d="M720.3 272.9H719v-1h1.3v-.8c0-.5.1-.8.3-1.2.2-.4.5-.6.8-.8s.7-.3 1.2-.3c.4 0 .8 0 1 .2v1.2c-.2 0-.4-.1-.5-.2h-.5c-.3 0-.6.1-.8.4-.2.2-.4.5-.4 1v.6h1.8v1h-1.8v6h-1.2v-6.1h.1z"/></g><g class="st4"><path class="st5" d="M725.7 278.6c-.5-.4-1-.8-1.3-1.4-.4-.6-.5-1.2-.5-1.9s.1-1.4.4-1.9c.3-.6.7-1 1.2-1.4.5-.4 1.1-.5 1.8-.5s1.3.2 1.8.5.9.8 1.2 1.3c.3.5.4 1.2.4 1.9v.4h-5.5c0 .5.2 1 .4 1.4.2.4.5.6.9.8.3.2.8.3 1.1.3 1 0 1.6-.4 2.1-1.3l1 .5c-.3.6-.7 1-1.2 1.4-.5.4-1.2.5-1.9.5-.7-.1-1.3-.3-1.9-.6zm3.9-4.1c0-.3-.1-.6-.2-.9-.2-.3-.4-.5-.7-.8-.3-.2-.7-.3-1.2-.3-.6 0-1 .2-1.4.5-.4.4-.6.8-.8 1.4l4.3.1z"/></g><g class="st4"><path class="st5" d="M732.2 271.7h1.1v1.2c.1-.4.4-.7.8-1 .4-.2.8-.4 1.2-.4.4 0 .6 0 .8.2v1.3c-.3-.2-.6-.2-1-.2s-.6.1-1 .3c-.3.2-.5.5-.7.8-.2.4-.2.7-.2 1v3.9H732l.2-7.1z"/></g><g class="st4"><path class="st5" d="M738.6 278.6c-.5-.4-1-.8-1.3-1.4-.3-.6-.5-1.2-.5-1.9s.1-1.4.4-1.9c.3-.6.7-1 1.2-1.4s1.1-.5 1.8-.5 1.3.2 1.8.5.9.8 1.2 1.3c.3.5.4 1.2.4 1.9v.4H738c0 .5.2 1 .4 1.4.2.4.5.6.9.8.4.2.7.3 1.1.3 1 0 1.6-.4 2.1-1.3l1 .5c-.3.6-.7 1-1.2 1.4-.5.4-1.2.5-1.9.5-.7-.1-1.3-.3-1.8-.6zm3.8-4.1c0-.3-.1-.6-.2-.9-.2-.3-.4-.5-.7-.8-.3-.2-.7-.3-1.2-.3-.6 0-1 .2-1.4.5-.4.4-.6.8-.8 1.4l4.3.1zm2.7-2.8h1.1v1c.2-.4.5-.6 1-.9.4-.2.9-.4 1.4-.4.9 0 1.5.2 1.9.8.5.5.7 1.2.7 2v4.5H750v-4.3c0-.6-.2-1.1-.5-1.4-.3-.3-.8-.5-1.3-.5-.4 0-.7.1-1 .3-.3.2-.5.5-.7.8-.2.4-.2.7-.2 1.1v3.9h-1.2v-6.9z"/></g><g class="st4"><path class="st5" d="M754.2 278.6c-.5-.4-1-.8-1.3-1.4-.3-.6-.5-1.2-.5-1.9s.2-1.4.5-1.9c.3-.6.8-1 1.3-1.4.5-.4 1.2-.5 1.9-.5.8 0 1.4.2 1.9.5.5.4.9.8 1.1 1.4l-1 .5c-.2-.4-.4-.8-.8-1s-.8-.4-1.3-.4c-.4 0-.8.1-1.2.4s-.6.5-.9 1c-.2.4-.4.9-.4 1.4s.1 1 .4 1.4c.2.4.5.7.9 1 .4.2.8.4 1.2.4.5 0 1-.1 1.3-.4.4-.2.6-.6.8-1l1 .5c-.2.6-.6 1-1.2 1.4-.5.4-1.2.5-1.9.5-.6 0-1.3-.2-1.8-.5z"/></g><g class="st4"><path class="st5" d="M761.5 278.6c-.5-.4-1-.8-1.3-1.4-.3-.6-.5-1.2-.5-1.9s.1-1.4.4-1.9c.3-.6.7-1 1.2-1.4.5-.4 1.1-.5 1.8-.5s1.3.2 1.8.5.9.8 1.2 1.3c.3.5.4 1.2.4 1.9v.4H761c0 .5.2 1 .4 1.4.2.4.5.6.9.8.3.2.8.3 1.1.3 1 0 1.6-.4 2.1-1.3l1 .5c-.3.6-.7 1-1.2 1.4-.5.4-1.2.5-1.9.5-.7-.1-1.3-.3-1.9-.6zm4-4.1c0-.3-.1-.6-.2-.9-.2-.3-.4-.5-.7-.8-.3-.2-.7-.3-1.2-.3-.6 0-1 .2-1.4.5-.4.4-.6.8-.8 1.4l4.3.1z"/></g><g class="st4"><path class="st5" d="M711.5 285.9h3.4c.5 0 1 .1 1.5.4.5.2.9.6 1.1 1 .3.5.4 1 .4 1.5s-.1.9-.3 1.3c-.2.4-.5.8-.9 1-.4.3-.8.5-1.2.5l2.8 4.1h-1.4l-2.7-4h-1.6v4h-1.2v-9.8h.1zm3.3 4.8c.4 0 .6 0 1-.2.3-.2.5-.4.7-.6.2-.3.3-.6.3-1 0-.3 0-.6-.2-.9-.2-.3-.4-.5-.6-.7-.3-.2-.6-.3-1-.3h-2.2v3.7h2z"/></g><g class="st4"><path class="st5" d="M720.7 295.5c-.6-.4-1-.8-1.3-1.4-.3-.6-.5-1.2-.5-1.9s.2-1.4.5-1.9c.3-.6.8-1 1.3-1.4.6-.4 1.2-.5 1.9-.5s1.4.2 1.9.5c.6.4 1 .8 1.3 1.4s.5 1.2.5 1.9-.2 1.4-.5 1.9c-.3.6-.8 1-1.3 1.4-.6.4-1.2.5-1.9.5s-1.4-.1-1.9-.5zm3-.8c.4-.2.7-.5.9-1 .2-.4.4-.9.4-1.4 0-.5-.1-1-.4-1.4-.2-.4-.5-.7-.9-1-.3-.3-.8-.4-1.2-.4-.5 0-.8.1-1.2.4-.4.2-.7.5-1 1-.2.4-.4.9-.4 1.4 0 .5.1 1 .4 1.4.2.4.5.7 1 1 .4.2.8.4 1.2.4.4-.1.8-.2 1.2-.4zm5.2.8c-.6-.4-1-.8-1.3-1.4-.3-.6-.5-1.2-.5-1.9s.2-1.4.5-1.9c.3-.6.8-1 1.3-1.4.6-.4 1.2-.5 1.9-.5s1.4.2 1.9.5c.6.4 1 .8 1.3 1.4.3.6.5 1.2.5 1.9s-.2 1.4-.5 1.9c-.3.6-.8 1-1.3 1.4-.6.4-1.2.5-1.9.5s-1.4-.1-1.9-.5zm3.1-.8c.4-.2.7-.5.9-1 .2-.4.4-.9.4-1.4 0-.5-.1-1-.4-1.4-.2-.4-.5-.7-.9-1-.3-.3-.8-.4-1.2-.4-.4 0-.8.1-1.2.4-.4.2-.7.5-1 1-.2.4-.4.9-.4 1.4 0 .5.1 1 .4 1.4.2.4.5.7 1 1 .4.2.8.4 1.2.4.4-.1.8-.2 1.2-.4zm3.6-5.9h1.1v1c.2-.4.5-.6 1-.9.4-.2.8-.4 1.3-.4s1 .1 1.4.4c.4.2.6.6.8 1 .2-.4.6-.8 1-1 .4-.2.9-.4 1.4-.4.8 0 1.4.2 1.9.8.4.5.6 1.2.6 2v4.5H745v-4.3c0-.6-.1-1.1-.4-1.4-.3-.3-.6-.5-1.2-.5-.4 0-.7.1-1 .3-.3.2-.5.5-.7.8-.2.4-.2.7-.2 1.1v4h-1.2v-4.3c0-.6-.1-1.2-.4-1.4-.3-.3-.6-.5-1.2-.5-.4 0-.7.1-1 .3-.3.2-.5.5-.7.8-.2.4-.2.7-.2 1.1v3.9h-1.2v-6.9z"/></g></g><g id="Small_Conference_Room_1_"><g class="st4"><path class="st5" d="M703.7 400.6c-.6-.5-1.1-1.1-1.4-2l1.1-.5c.2.6.5 1 .9 1.4s1 .6 1.5.6c.6 0 1-.2 1.4-.5.4-.3.6-.8.6-1.3s-.2-.8-.5-1.2c-.4-.3-.9-.6-1.6-.8l-.6-.2c-.7-.2-1.3-.6-1.8-1s-.6-1-.6-1.7c0-.5.1-1 .4-1.3.2-.4.6-.7 1.1-1 .5-.2 1-.4 1.6-.4s1 .1 1.5.3c.4.2.8.5 1 .8.2.3.4.6.5.9l-1.1.5c-.1-.4-.3-.6-.6-1-.4-.3-.8-.4-1.3-.4s-1 .1-1.3.4c-.4.3-.5.6-.5 1.1 0 .4.2.7.5 1 .3.2.8.5 1.4.7l.6.2c.8.3 1.5.7 2 1.2s.7 1.1.7 1.9c0 .6-.2 1.2-.5 1.6-.4.4-.8.8-1.2 1-.5.2-1 .3-1.5.3-.9.1-1.7-.2-2.3-.6z"/></g><g class="st4"><path class="st5" d="M710.5 394h1.1v1c.2-.4.5-.6 1-.9.4-.2.8-.4 1.3-.4s1 .1 1.4.4c.4.2.6.6.8 1 .2-.4.6-.8 1-1 .4-.2.9-.4 1.4-.4.8 0 1.4.2 1.9.8.4.5.6 1.2.6 2v4.5h-1.1v-4.5c0-.6-.1-1.1-.4-1.4-.3-.3-.6-.5-1.2-.5-.4 0-.7.1-1 .3-.3.2-.5.5-.7.8-.2.4-.2.7-.2 1.1v4h-1.2v-4.3c0-.6-.1-1.2-.4-1.4-.3-.3-.6-.5-1.2-.5-.4 0-.7.1-1 .3-.3.2-.5.5-.7.8-.2.4-.2.7-.2 1.1v3.9h-1.2V394z"/></g><g class="st4"><path class="st5" d="M723.5 401c-.4-.2-.7-.5-1-.8-.2-.4-.4-.8-.4-1.2 0-.8.3-1.4.9-1.8.6-.4 1.3-.6 2.2-.6.4 0 .8 0 1.2.1.4.1.6.2.8.3v-.4c0-.5-.2-1-.6-1.3-.4-.3-.8-.5-1.4-.5-.4 0-.8 0-1.1.2-.4.2-.6.4-.8.7l-.9-.6c.3-.4.6-.8 1.2-1 .5-.2 1-.4 1.6-.4 1 0 1.7.2 2.3.8.5.5.8 1.2.8 2v4.5h-1.1v-1c-.2.4-.5.6-1 .9-.4.2-.9.4-1.4.4-.4 0-.9-.1-1.3-.3zm2.6-1c.4-.2.6-.5.8-.8.2-.4.3-.7.3-1.1-.2-.2-.5-.3-.8-.4-.4-.1-.6-.1-1-.1-.6 0-1.1.1-1.4.4-.4.3-.5.6-.5 1s.2.7.5 1c.3.2.7.4 1.1.4.3-.2.7-.3 1-.4z"/></g><g class="st4"><path class="st5" d="M730 391.1h1.2v9.9H730v-9.9z"/></g><g class="st4"><path class="st5" d="M732.9 391.1h1.2v9.9h-1.2v-9.9z"/></g><g class="st4"><path class="st5" d="M685.8 417.6c-.8-.5-1.4-1-1.9-1.9-.5-.8-.7-1.7-.7-2.6 0-1 .2-1.9.7-2.6.5-.8 1-1.4 1.9-1.9.8-.5 1.6-.7 2.6-.7.8 0 1.4.1 2 .4.6.3 1.2.7 1.6 1.2l-.9.8c-.4-.5-.8-.8-1.2-1-.5-.2-1-.3-1.6-.3-.7 0-1.4.2-2 .5s-1.1.8-1.4 1.4-.5 1.4-.5 2.2c0 .8.2 1.5.5 2.2.4.6.8 1.1 1.4 1.4.6.4 1.3.5 2 .5 1.2 0 2.2-.5 3.1-1.4l.9.8c-.5.5-1 1-1.7 1.3-.7.3-1.4.5-2.2.5-.9-.2-1.8-.4-2.6-.8z"/></g><g class="st4"><path class="st5" d="M695 417.8c-.6-.4-1-.8-1.3-1.4s-.5-1.2-.5-1.9.2-1.4.5-1.9c.3-.6.8-1 1.3-1.4.6-.4 1.2-.5 1.9-.5s1.4.2 1.9.5c.6.4 1 .8 1.3 1.4.3.6.5 1.2.5 1.9s-.2 1.4-.5 1.9c-.3.6-.8 1-1.3 1.4-.6.4-1.2.5-1.9.5-.7-.1-1.4-.2-1.9-.5zm3-.9c.4-.2.7-.5.9-1 .2-.4.4-.9.4-1.4 0-.5-.1-1-.4-1.4-.2-.4-.5-.7-.9-1-.4-.2-.8-.4-1.2-.4s-.8.1-1.2.4c-.4.2-.7.5-1 1-.2.4-.4.9-.4 1.4 0 .5.1 1 .4 1.4s.5.7 1 1c.4.2.8.4 1.2.4s.9-.2 1.2-.4z"/></g><g class="st4"><path class="st5" d="M701.8 411h1.1v1c.2-.4.5-.6 1-.9.4-.2.9-.4 1.4-.4.9 0 1.5.2 1.9.8.5.5.7 1.2.7 2v4.5h-1.1v-4.3c0-.6-.2-1.1-.5-1.4-.3-.3-.8-.5-1.3-.5-.4 0-.7.1-1 .3-.3.2-.5.5-.7.8-.2.4-.2.7-.2 1.1v3.9h-1.2l-.1-6.9z"/></g><g class="st4"><path class="st5" d="M710.2 412h-1.3v-1h1.3v-.8c0-.5.1-.8.3-1.2.2-.4.5-.6.8-.8.4-.2.7-.3 1.2-.3.4 0 .8 0 1 .2v1.2c-.2 0-.4-.1-.5-.2h-.5c-.3 0-.6.1-.8.4-.2.2-.4.5-.4 1v.6h1.8v1h-1.8v6h-1.2l.1-6.1z"/></g><g class="st4"><path class="st5" d="M715.6 417.8c-.5-.4-1-.8-1.3-1.4-.3-.6-.5-1.2-.5-1.9s.1-1.4.4-1.9c.3-.6.7-1 1.2-1.4s1.1-.5 1.8-.5 1.3.2 1.8.5.9.8 1.2 1.3c.3.5.4 1.2.4 1.9v.4H715c0 .5.2 1 .4 1.4.2.4.5.6.9.8.4.2.8.3 1.1.3 1 0 1.6-.4 2.1-1.3l1 .5c-.3.6-.7 1-1.2 1.4-.5.4-1.2.5-1.9.5-.6-.2-1.2-.3-1.8-.6zm3.9-4.1c0-.3-.1-.6-.2-.9-.2-.3-.4-.5-.7-.8-.3-.2-.7-.3-1.2-.3-.6 0-1 .2-1.4.5-.4.4-.6.8-.8 1.4l4.3.1z"/></g><g class="st4"><path class="st5" d="M722.1 411h1.1v1.2c.1-.4.4-.7.8-1 .4-.2.8-.4 1.2-.4.4 0 .6 0 .8.2v1.3c-.3-.2-.6-.2-1-.2s-.6.1-1 .3c-.3.2-.5.5-.7.8-.2.4-.2.7-.2 1v3.9H722l.1-7.1z"/></g><g class="st4"><path class="st5" d="M728.5 417.8c-.5-.4-1-.8-1.3-1.4-.3-.6-.5-1.2-.5-1.9s.1-1.4.4-1.9c.3-.6.7-1 1.2-1.4.5-.4 1.1-.5 1.8-.5s1.3.2 1.8.5.9.8 1.2 1.3c.3.5.4 1.2.4 1.9v.4H728c0 .5.2 1 .4 1.4.2.4.5.6.9.8.4.2.7.3 1.1.3 1 0 1.6-.4 2.1-1.3l1 .5c-.3.6-.7 1-1.2 1.4-.5.4-1.2.5-1.9.5-.8-.2-1.4-.3-1.9-.6zm3.8-4.1c0-.3-.1-.6-.2-.9-.2-.3-.4-.5-.7-.8-.3-.2-.7-.3-1.2-.3-.6 0-1 .2-1.4.5-.4.4-.6.8-.8 1.4l4.3.1zm2.7-2.7h1.1v1c.2-.4.5-.6 1-.9.4-.2.9-.4 1.4-.4.9 0 1.5.2 1.9.8.5.5.7 1.2.7 2v4.5h-1.2v-4.3c0-.6-.2-1.1-.5-1.4-.3-.3-.8-.5-1.3-.5-.4 0-.7.1-1 .3-.3.2-.5.5-.7.8-.2.4-.2.7-.2 1.1v3.9H735V411z"/></g><g class="st4"><path class="st5" d="M744.1 417.8c-.5-.4-1-.8-1.3-1.4s-.5-1.2-.5-1.9.2-1.4.5-1.9c.3-.6.8-1 1.3-1.4.5-.4 1.2-.5 1.9-.5.8 0 1.4.2 1.9.5.5.4.9.8 1.1 1.4l-1 .5c-.2-.4-.4-.8-.8-1-.4-.2-.8-.4-1.3-.4-.4 0-.8.1-1.2.4-.4.2-.6.5-.9 1-.2.4-.4.9-.4 1.4 0 .5.1 1 .4 1.4.2.4.5.7.9 1 .4.2.8.4 1.2.4.5 0 1-.1 1.3-.4.4-.2.6-.6.8-1l1 .5c-.2.6-.6 1-1.2 1.4-.5.4-1.2.5-1.9.5-.6-.1-1.3-.2-1.8-.5z"/></g><g class="st4"><path class="st5" d="M751.4 417.8c-.5-.4-1-.8-1.3-1.4-.3-.6-.5-1.2-.5-1.9s.1-1.4.4-1.9c.3-.6.7-1 1.2-1.4.5-.4 1.1-.5 1.8-.5s1.3.2 1.8.5.9.8 1.2 1.3c.3.5.4 1.2.4 1.9v.4H751c0 .5.2 1 .4 1.4.2.4.5.6.9.8.4.2.8.3 1.1.3 1 0 1.6-.4 2.1-1.3l1 .5c-.3.6-.7 1-1.2 1.4-.5.4-1.2.5-1.9.5-.8-.2-1.4-.3-2-.6zm3.9-4.1c0-.3-.1-.6-.2-.9-.2-.3-.4-.5-.7-.8-.3-.2-.7-.3-1.2-.3-.6 0-1 .2-1.4.5-.4.4-.6.8-.8 1.4l4.3.1z"/></g><g class="st4"><path class="st5" d="M701.4 425.1h3.4c.5 0 1 .1 1.5.4.5.2.9.6 1.1 1 .3.5.4 1 .4 1.5s-.1.9-.3 1.3c-.2.4-.5.8-.9 1-.4.3-.8.5-1.2.5l2.8 4.1h-1.4l-2.7-4h-1.6v4h-1.2l.1-9.8zm3.3 4.8c.4 0 .6 0 1-.2.3-.2.5-.4.7-.6.2-.3.3-.6.3-1 0-.3 0-.6-.2-.9-.2-.3-.4-.5-.6-.7-.3-.2-.6-.3-1-.3h-2.2v3.7h2z"/></g><g class="st4"><path class="st5" d="M710.5 434.7c-.6-.4-1-.8-1.3-1.4s-.5-1.2-.5-1.9.2-1.4.5-1.9c.3-.6.8-1 1.3-1.4.6-.4 1.2-.5 1.9-.5s1.4.2 1.9.5c.6.4 1 .8 1.3 1.4s.5 1.2.5 1.9-.2 1.4-.5 1.9c-.3.6-.8 1-1.3 1.4-.6.4-1.2.5-1.9.5-.7.1-1.3-.1-1.9-.5zm3.1-.8c.4-.2.7-.5.9-1 .2-.4.4-.9.4-1.4 0-.5-.1-1-.4-1.4-.2-.4-.5-.7-.9-1-.4-.2-.8-.4-1.2-.4-.5 0-.8.1-1.2.4-.4.2-.7.5-1 1-.2.4-.4.9-.4 1.4 0 .5.1 1 .4 1.4.2.4.5.7 1 1 .4.2.8.4 1.2.4.4-.1.8-.2 1.2-.4zm5.2.8c-.6-.4-1-.8-1.3-1.4s-.5-1.2-.5-1.9.2-1.4.5-1.9c.3-.6.8-1 1.3-1.4.6-.4 1.2-.5 1.9-.5s1.4.2 1.9.5c.6.4 1 .8 1.3 1.4s.5 1.2.5 1.9-.2 1.4-.5 1.9c-.3.6-.8 1-1.3 1.4-.6.4-1.2.5-1.9.5-.8.1-1.4-.1-1.9-.5zm3.1-.8c.4-.2.7-.5.9-1 .2-.4.4-.9.4-1.4 0-.5-.1-1-.4-1.4-.2-.4-.5-.7-.9-1-.4-.2-.8-.4-1.2-.4-.4 0-.8.1-1.2.4-.4.2-.7.5-1 1-.2.4-.4.9-.4 1.4 0 .5.1 1 .4 1.4s.5.7 1 1c.4.2.8.4 1.2.4.4-.2.8-.2 1.2-.4zm3.6-5.9h1.1v1c.2-.4.5-.6 1-.9s.8-.4 1.3-.4 1 .1 1.4.4c.4.2.6.6.8 1 .2-.4.6-.8 1-1s.9-.4 1.4-.4c.8 0 1.4.2 1.9.8.4.5.6 1.2.6 2v4.5h-1.1v-4.3c0-.6-.1-1.1-.4-1.4-.3-.3-.6-.5-1.2-.5-.4 0-.7.1-1 .3-.3.2-.5.5-.7.8-.2.4-.2.7-.2 1.1v4h-1.2v-4.3c0-.6-.1-1.2-.4-1.4-.3-.3-.6-.5-1.2-.5-.4 0-.7.1-1 .3-.3.2-.5.5-.7.8-.2.4-.2.7-.2 1.1v3.9h-1.2V428z"/></g></g><path class="st2" d="M677.5 338.5c11.9 0 21.6-9.7 21.6-21.6 0-11.9-9.7-21.6-21.6-21.6s-21.6 9.7-21.6 21.6c0 12 9.6 21.6 21.6 21.6"/><path class="st6" d="M661.7 312.9h1.8l3.2 5.3h.1l-.1-1.5v-3.8h1.5v8h-1.6l-3.4-5.6h-.1l.1 1.5v4.1h-1.5v-8zm9.7 7.6c-.6-.4-1.1-.9-1.5-1.5s-.5-1.4-.5-2.1c0-.8.2-1.5.5-2.1.4-.6.9-1.1 1.5-1.5.6-.4 1.4-.5 2.1-.5 1.2 0 2.2.5 3 1.3l-1 1c-.5-.6-1.2-.9-1.9-.9-.5 0-1 .1-1.4.3-.4.2-.7.5-1 1-.2.4-.4.9-.4 1.4s.1 1 .4 1.4c.2.4.5.7 1 1 .4.2.9.3 1.4.3.8 0 1.5-.4 2.1-1l1.1 1c-.4.5-.9.8-1.4 1.1-.5.2-1.1.4-1.8.4-.8 0-1.5-.2-2.2-.6zm9.8 0c-.5-.4-.9-.9-1-1.5l1.4-.5c.1.4.3.7.5.9.2.2.5.3.9.3s.7-.1.9-.3c.2-.2.4-.5.4-.8 0-.3-.1-.6-.4-.8-.3-.2-.6-.3-1-.3h-.6v-1.3h.6c.4 0 .7-.1.9-.3.2-.2.4-.5.4-.8 0-.3-.1-.5-.3-.7-.2-.2-.5-.3-.8-.3s-.5.1-.8.3c-.2.2-.4.4-.5.6l-1.3-.5c.1-.5.5-.8.9-1.2.4-.3 1-.5 1.6-.5.5 0 1 .1 1.3.3.4.2.7.5.9.8s.3.7.3 1.1-.1.8-.2 1c-.2.3-.4.5-.7.7v.1c.4.2.6.4.9.7.2.3.3.7.3 1.2s-.1.9-.4 1.2-.5.7-1 .9c-.4.2-.9.3-1.4.3-.7 0-1.3-.2-1.8-.6zm7.1 0c-.5-.4-.9-.9-1.1-1.5s-.4-1.4-.4-2.1c0-.8.1-1.5.4-2.1.3-.6.6-1.1 1.1-1.5.5-.4 1.1-.5 1.7-.5.6 0 1.2.2 1.7.5.5.4.9.9 1.1 1.5.3.6.4 1.4.4 2.1 0 .8-.1 1.5-.4 2.1-.3.6-.6 1.1-1.1 1.5-.5.4-1.1.5-1.7.5-.6.1-1.2-.1-1.7-.5zm2.7-1.1c.3-.2.5-.6.6-1 .1-.4.2-.9.2-1.4s-.1-1-.2-1.4c-.1-.4-.4-.8-.6-1-.3-.2-.6-.4-1-.4s-.7.1-1 .4c-.3.2-.5.6-.6 1-.1.4-.2.9-.2 1.4s.1 1 .2 1.4c.1.4.4.8.6 1 .3.2.6.4 1 .4.4-.1.7-.2 1-.4z"/><path class="st2" d="M677.5 402.9c11.9 0 21.6-9.7 21.6-21.6 0-11.9-9.7-21.6-21.6-21.6s-21.6 9.7-21.6 21.6c0 11.9 9.6 21.6 21.6 21.6"/><path class="st6" d="M661.7 377.3h1.8l3.2 5.3h.1l-.1-1.5v-3.8h1.5v8h-1.6l-3.4-5.6h-.1l.1 1.5v4.1h-1.5v-8zm9.7 7.6c-.6-.4-1.1-.9-1.5-1.5-.4-.6-.5-1.4-.5-2.1 0-.8.2-1.5.5-2.1.4-.6.9-1.1 1.5-1.5.6-.4 1.4-.5 2.1-.5 1.2 0 2.2.5 3 1.3l-1 1c-.5-.6-1.2-.9-1.9-.9-.5 0-1 .1-1.4.3-.4.2-.7.5-1 1-.2.4-.4.9-.4 1.4 0 .5.1 1 .4 1.4s.5.7 1 1c.4.2.9.3 1.4.3.8 0 1.5-.4 2.1-1l1.1 1c-.4.5-.9.8-1.4 1.1-.5.2-1.1.4-1.8.4-.8-.1-1.5-.2-2.2-.6zm9.8 0c-.5-.4-.9-.9-1-1.5l1.4-.5c.1.4.3.7.5.9s.5.3.9.3.7-.1.9-.3c.2-.2.4-.5.4-.8 0-.3-.1-.6-.4-.8-.3-.2-.6-.3-1-.3h-.6v-1.3h.6c.4 0 .7-.1.9-.3.2-.2.4-.5.4-.8 0-.3-.1-.5-.3-.7-.2-.2-.5-.3-.8-.3s-.5.1-.8.3c-.2.2-.4.4-.5.6l-1.3-.5c.1-.5.5-.8.9-1.2.4-.3 1-.5 1.6-.5.5 0 1 .1 1.3.3.4.2.7.5.9.8s.3.7.3 1.1c0 .4-.1.8-.2 1-.2.3-.4.5-.7.7v.1c.4.2.6.4.9.7.2.3.3.7.3 1.2s-.1.9-.4 1.2c-.2.4-.5.7-1 .9-.4.2-.9.3-1.4.3-.7-.1-1.3-.2-1.8-.6zm7.1 0c-.5-.4-.9-.9-1.1-1.5-.3-.6-.4-1.4-.4-2.1 0-.8.1-1.5.4-2.1.3-.6.6-1.1 1.1-1.5.5-.4 1.1-.5 1.7-.5.6 0 1.2.2 1.7.5.5.4.9.9 1.1 1.5s.4 1.4.4 2.1c0 .8-.1 1.5-.4 2.1-.3.6-.6 1.1-1.1 1.5-.5.4-1.1.5-1.7.5-.6 0-1.2-.1-1.7-.5zm2.7-1.2c.3-.2.5-.6.6-1 .1-.4.2-.9.2-1.4s-.1-1-.2-1.4c-.1-.4-.4-.8-.6-1-.3-.2-.6-.4-1-.4s-.7.1-1 .4c-.3.2-.5.6-.6 1s-.2.9-.2 1.4.1 1 .2 1.4c.1.4.4.8.6 1 .3.2.6.4 1 .4s.7-.2 1-.4z"/><g id="Large_Conference_Room_1_"><g class="st4"><path class="st5" d="M450.9 301.1h1.2v8.8h4.3v1.1h-5.5v-9.9z"/></g><g class="st4"><path class="st5" d="M458.6 310.9c-.4-.2-.7-.5-1-.8-.2-.4-.4-.8-.4-1.2 0-.8.3-1.4.9-1.8.6-.4 1.3-.6 2.2-.6.4 0 .8 0 1.2.1.4.1.6.2.8.3v-.4c0-.5-.2-1-.6-1.3-.4-.3-.8-.5-1.4-.5-.4 0-.8 0-1.1.2-.4.2-.6.4-.8.7l-.9-.6c.3-.4.6-.8 1.2-1 .5-.2 1-.4 1.6-.4 1 0 1.7.2 2.3.8.5.5.8 1.2.8 2v4.5h-1.1v-1c-.2.4-.5.6-1 .9s-.9.4-1.4.4c-.4 0-.9-.1-1.3-.3zm2.6-1.1c.4-.2.6-.5.8-.8.2-.4.3-.7.3-1.1-.2-.2-.5-.3-.8-.4-.4-.1-.6-.1-1-.1-.6 0-1.1.1-1.4.4-.4.3-.5.6-.5 1s.2.7.5 1c.3.2.7.4 1.1.4.3 0 .7-.2 1-.4z"/></g><g class="st4"><path class="st5" d="M465.1 303.9h1.1v1.2c.1-.4.4-.7.8-1 .4-.2.8-.4 1.2-.4.4 0 .6 0 .8.2v1.3c-.3-.2-.6-.2-1-.2s-.6.1-1 .3c-.3.2-.5.5-.7.8-.2.4-.2.7-.2 1v3.9h-1.2l.2-7.1z"/></g><g class="st4"><path class="st5" d="M471.3 313.6c-.5-.4-1-.9-1.1-1.4l1-.5c.2.4.4.8.8 1 .4.2.8.4 1.3.4.8 0 1.3-.2 1.7-.6.4-.4.6-1 .6-1.8v-.7h-.1c-.2.4-.6.6-1 .9s-.9.4-1.4.4c-.6 0-1.2-.2-1.7-.5s-1-.8-1.2-1.4c-.3-.6-.5-1.2-.5-1.9s.2-1.4.5-1.9c.3-.6.7-1 1.2-1.4.5-.3 1-.5 1.7-.5.5 0 1 .1 1.4.4.4.2.8.5 1 .9v-1h1.1v6.8c0 1.2-.3 2-1 2.6-.6.6-1.4.9-2.5.9-.6-.2-1.3-.3-1.8-.7zm3.2-3.8c.4-.2.6-.5.8-1 .2-.4.3-.9.3-1.4 0-.6-.1-1-.3-1.4-.2-.4-.5-.7-.8-1-.4-.2-.8-.3-1.2-.3-.4 0-.8.1-1.2.4-.4.2-.6.5-.8 1-.2.4-.3.9-.3 1.4s.1 1 .3 1.4c.2.4.5.7.8 1 .4.2.8.3 1.2.3.4 0 .8-.2 1.2-.4zm5.2 1c-.5-.4-1-.8-1.3-1.4-.3-.6-.5-1.2-.5-1.9s.1-1.4.4-1.9c.3-.5.7-1 1.2-1.4s1.1-.5 1.8-.5 1.3.2 1.8.5.9.8 1.2 1.3c.3.5.4 1.2.4 1.9v.4h-5.6c0 .5.2 1 .4 1.4.2.4.5.6.9.8.3.2.8.3 1.1.3 1 0 1.6-.4 2.1-1.3l1 .5c-.3.6-.7 1-1.2 1.4-.5.4-1.2.5-1.9.5l-1.8-.6zm3.9-4.1c0-.3-.1-.6-.2-.9-.2-.3-.4-.5-.7-.8-.3-.2-.7-.3-1.2-.3-.6 0-1 .2-1.4.5-.4.4-.6.8-.8 1.4l4.3.1z"/></g><g class="st4"><path class="st5" d="M491.7 310.5c-.8-.5-1.4-1-1.9-1.9s-.7-1.7-.7-2.6c0-1 .2-1.9.7-2.6.5-.8 1-1.4 1.9-1.9.8-.5 1.6-.7 2.6-.7.8 0 1.4.1 2 .4.6.3 1.2.7 1.6 1.2l-.9.8c-.4-.5-.8-.8-1.2-1-.5-.2-1-.3-1.6-.3-.7 0-1.4.2-2 .5-.6.4-1.1.8-1.4 1.4s-.5 1.4-.5 2.2c0 .8.2 1.5.5 2.2.4.6.8 1.1 1.4 1.4.6.4 1.3.5 2 .5 1.2 0 2.2-.5 3.1-1.4l.9.8c-.5.5-1 1-1.7 1.3-.7.3-1.4.5-2.2.5-.9-.1-1.8-.3-2.6-.8z"/></g><g class="st4"><path class="st5" d="M500.9 310.7c-.6-.4-1-.8-1.3-1.4-.3-.6-.5-1.2-.5-1.9s.2-1.4.5-1.9c.3-.6.8-1 1.3-1.4.5-.3 1.2-.5 1.9-.5s1.4.2 1.9.5c.5.4 1 .8 1.3 1.4.3.6.5 1.2.5 1.9s-.2 1.4-.5 1.9c-.3.6-.8 1-1.3 1.4-.5.3-1.2.5-1.9.5s-1.3-.2-1.9-.5zm3.1-.9c.4-.2.7-.5.9-1 .2-.4.4-.9.4-1.4 0-.5-.1-1-.4-1.4-.2-.4-.5-.7-.9-1-.4-.2-.8-.4-1.2-.4-.4 0-.8.1-1.2.4-.4.2-.7.5-1 1-.2.4-.4.9-.4 1.4 0 .5.1 1 .4 1.4.2.4.5.7 1 1 .4.2.8.4 1.2.4.4 0 .8-.2 1.2-.4z"/></g><g class="st4"><path class="st5" d="M507.8 303.9h1.1v1c.2-.4.5-.6 1-.9.4-.2.9-.4 1.4-.4.9 0 1.5.2 1.9.8.5.5.7 1.2.7 2v4.5h-1.2v-4.3c0-.6-.2-1.1-.5-1.4-.3-.3-.8-.5-1.3-.5-.4 0-.7.1-1 .3-.3.2-.5.5-.7.8-.2.4-.2.7-.2 1.1v3.9h-1.2v-6.9z"/></g><g class="st4"><path class="st5" d="M516.1 305h-1.3v-1h1.3v-.7c0-.5.1-.8.3-1.2.2-.4.5-.6.8-.8s.7-.3 1.2-.3c.4 0 .8 0 1 .2v1.2c-.2 0-.4-.1-.5-.2h-.5c-.3 0-.6.1-.8.4-.2.2-.4.5-.4 1v.6h1.8v1h-1.8v6H516l.1-6.2z"/></g><g class="st4"><path class="st5" d="M521.5 310.8c-.5-.4-1-.8-1.3-1.4-.3-.6-.5-1.2-.5-1.9s.1-1.4.4-1.9c.3-.6.7-1 1.2-1.4.5-.4 1.1-.5 1.8-.5s1.3.2 1.8.5.9.8 1.2 1.3c.3.5.4 1.2.4 1.9v.4H521c0 .5.2 1 .4 1.4.2.4.5.6.9.8.4.2.8.3 1.1.3 1 0 1.6-.4 2.1-1.3l1 .5c-.3.6-.7 1-1.2 1.4-.5.4-1.2.5-1.9.5-.7-.2-1.4-.4-1.9-.6zm3.8-4.1c0-.3-.1-.6-.2-.9-.2-.3-.4-.5-.7-.8-.3-.2-.7-.3-1.2-.3-.6 0-1 .2-1.4.5-.4.4-.6.8-.8 1.4l4.3.1z"/></g><g class="st4"><path class="st5" d="M528 303.9h1.1v1.2c.1-.4.4-.7.8-1 .4-.2.8-.4 1.2-.4.4 0 .6 0 .8.2v1.3c-.3-.2-.6-.2-1-.2s-.6.1-1 .3c-.3.2-.5.5-.7.8-.2.4-.2.7-.2 1v3.9h-1v-7.1z"/></g><g class="st4"><path class="st5" d="M534.3 310.8c-.5-.4-1-.8-1.3-1.4-.3-.6-.5-1.2-.5-1.9s.1-1.4.4-1.9c.3-.6.7-1 1.2-1.4.5-.4 1.1-.5 1.8-.5s1.3.2 1.8.5.9.8 1.2 1.3c.3.5.4 1.2.4 1.9v.4h-5.6c0 .5.2 1 .4 1.4.2.4.5.6.9.8.3.2.8.3 1.1.3 1 0 1.6-.4 2.1-1.3l1 .5c-.3.6-.7 1-1.2 1.4-.5.4-1.2.5-1.9.5l-1.8-.6zm3.9-4.1c0-.3-.1-.6-.2-.9-.2-.3-.4-.5-.7-.8-.3-.2-.7-.3-1.2-.3-.6 0-1 .2-1.4.5-.4.4-.6.8-.8 1.4l4.3.1zm2.6-2.8h1.1v1c.2-.4.5-.6 1-.9.4-.2.9-.4 1.4-.4.9 0 1.5.2 1.9.8.5.5.7 1.2.7 2v4.5h-1.2v-4.3c0-.6-.2-1.1-.5-1.4-.3-.3-.8-.5-1.3-.5-.4 0-.7.1-1 .3-.3.2-.5.5-.7.8-.2.4-.2.7-.2 1.1v3.9h-1.2v-6.9z"/></g><g class="st4"><path class="st5" d="M550 310.8c-.5-.4-1-.8-1.3-1.4s-.5-1.2-.5-1.9.2-1.4.5-1.9c.3-.6.8-1 1.3-1.4.5-.4 1.2-.5 1.9-.5.8 0 1.4.2 1.9.5.5.4.9.8 1.1 1.4l-1 .5c-.2-.4-.4-.8-.8-1-.4-.2-.8-.4-1.3-.4-.4 0-.8.1-1.2.4-.4.2-.6.5-.9 1-.2.4-.4.9-.4 1.4s.1 1 .4 1.4c.2.4.5.7.9 1 .4.2.8.4 1.2.4.5 0 1-.1 1.3-.4.4-.2.6-.6.8-1l1 .5c-.2.6-.6 1-1.2 1.4-.5.4-1.2.5-1.9.5-.7-.1-1.4-.3-1.8-.5z"/></g><g class="st4"><path class="st5" d="M557.4 310.8c-.5-.4-1-.8-1.3-1.4-.3-.6-.5-1.2-.5-1.9s.1-1.4.4-1.9c.3-.5.7-1 1.2-1.4.5-.4 1.1-.5 1.8-.5s1.3.2 1.8.5.9.8 1.2 1.3c.3.5.4 1.2.4 1.9v.4h-5.6c0 .5.2 1 .4 1.4.2.4.5.6.9.8.3.2.8.3 1.1.3 1 0 1.6-.4 2.1-1.3l1 .5c-.3.6-.7 1-1.2 1.4-.5.4-1.2.5-1.9.5-.6-.2-1.3-.4-1.8-.6zm3.8-4.1c0-.3-.1-.6-.2-.9-.2-.3-.4-.5-.7-.8-.3-.2-.7-.3-1.2-.3-.6 0-1 .2-1.4.5-.4.4-.6.8-.8 1.4l4.3.1z"/></g><g class="st4"><path class="st5" d="M567.3 301.1h3.4c.5 0 1 .1 1.5.4.5.2.9.6 1.1 1 .3.5.4 1 .4 1.5s-.1.9-.3 1.3c-.2.4-.5.8-.9 1-.4.3-.8.5-1.2.5l2.8 4.1h-1.4l-2.7-4h-1.6v4h-1.2l.1-9.8zm3.2 4.8c.4 0 .6 0 1-.2.3-.2.5-.4.7-.6.2-.3.3-.6.3-1 0-.3 0-.6-.2-.9-.2-.3-.4-.5-.6-.7-.3-.2-.6-.3-1-.3h-2.2v3.7h2z"/></g><g class="st4"><path class="st5" d="M576.4 310.7c-.6-.4-1-.8-1.3-1.4s-.5-1.2-.5-1.9.2-1.4.5-1.9c.3-.6.8-1 1.3-1.4.5-.3 1.2-.5 1.9-.5s1.4.2 1.9.5c.5.4 1 .8 1.3 1.4.3.6.5 1.2.5 1.9s-.2 1.4-.5 1.9c-.3.6-.8 1-1.3 1.4-.5.3-1.2.5-1.9.5s-1.4-.2-1.9-.5zm3.1-.9c.4-.2.7-.5.9-1 .2-.4.4-.9.4-1.4 0-.5-.1-1-.4-1.4-.2-.4-.5-.7-.9-1-.4-.2-.8-.4-1.2-.4-.4 0-.8.1-1.2.4-.4.2-.7.5-1 1-.2.4-.4.9-.4 1.4 0 .5.1 1 .4 1.4.2.4.5.7 1 1 .4.2.8.4 1.2.4.4 0 .8-.2 1.2-.4z"/></g><g class="st4"><path class="st5" d="M584.7 310.7c-.6-.4-1-.8-1.3-1.4s-.5-1.2-.5-1.9.2-1.4.5-1.9c.3-.6.8-1 1.3-1.4.5-.3 1.2-.5 1.9-.5s1.4.2 1.9.5c.5.4 1 .8 1.3 1.4.3.6.5 1.2.5 1.9s-.2 1.4-.5 1.9c-.3.6-.8 1-1.3 1.4-.5.3-1.2.5-1.9.5s-1.3-.2-1.9-.5zm3.1-.9c.4-.2.7-.5.9-1 .2-.4.4-.9.4-1.4 0-.5-.1-1-.4-1.4-.2-.4-.5-.7-.9-1-.4-.2-.8-.4-1.2-.4-.4 0-.8.1-1.2.4-.4.2-.7.5-1 1-.2.4-.4.9-.4 1.4 0 .5.1 1 .4 1.4s.5.7 1 1c.4.2.8.4 1.2.4.4 0 .8-.2 1.2-.4z"/></g><g class="st4"><path class="st5" d="M591.5 303.9h1.1v1c.2-.4.5-.6 1-.9.4-.2.8-.4 1.3-.4s1 .1 1.4.4c.4.2.6.6.8 1 .2-.4.6-.8 1-1 .4-.2.9-.4 1.4-.4.8 0 1.4.2 1.9.8.4.5.6 1.2.6 2v4.5h-1.2v-4.3c0-.6-.1-1.1-.4-1.4-.3-.3-.6-.5-1.2-.5-.4 0-.7.1-1 .3-.3.2-.5.5-.7.8-.2.4-.2.7-.2 1.1v4h-1.2v-4.3c0-.6-.1-1.2-.4-1.4-.3-.3-.6-.5-1.2-.5-.4 0-.7.1-1 .3-.3.2-.5.5-.7.8-.2.4-.2.7-.2 1.1v3.9h-1.2l.1-6.9z"/></g></g></svg>