<svg version="1.1" id="Layer_1" xmlns="http://www.w3.org/2000/svg" x="0" y="0" viewBox="0 0 1200 675" xml:space="preserve"><style>.st0{fill:none}.st1{fill:#0080c5}</style><path id="Bounding_BOX" class="st0" d="M250.5 141.1h699v392.8h-699z"/><path class="st1" d="M737.1 174.8V194c0 2.9-2.3 5.2-5.2 5.2s-5.2-2.3-5.2-5.2 2.3-5.2 5.2-5.2c.6 0 1.2.2 1.7.4v-10.8h-12.1v15.8c0 2.9-2.3 5.2-5.2 5.2s-5.2-2.3-5.2-5.2 2.3-5.2 5.2-5.2c.6 0 1.2.2 1.7.4v-14.2h15.8l3.3-.4zm-69.9 0v17.5c-.6-.2-1.3-.4-2.1-.4-3.5 0-6.4 2.9-6.4 6.4 0 3.5 2.9 6.4 6.4 6.4s6.4-2.9 6.4-6.4V179h6.4v-4.2h-10.7zm61.2 36.4v14.4c-.6-.2-1.2-.4-1.7-.4-2.9 0-5.4 2.3-5.4 5.4s2.3 5.4 5.4 5.4c2.9 0 5.4-2.3 5.4-5.4v-19.4h-3.7z"/><path class="st1" d="M787.7 520.8H412.3c-1.5 0-2.9-1.3-2.9-2.9V157.1c0-1.5 1.3-2.9 2.9-2.9h375.5c1.5 0 2.9 1.3 2.9 2.9v360.7c-.1 1.7-1.4 3-3 3zM415.1 515h369.5V160H415.1v355z"/><path class="st1" d="M412.4 330.6h376.3v2.9H412.4zm0 13.4h376.3v2.9H412.4zm283.9-108.8h-4.6v-4.6H687v4.6h-27.7V226h36.8v9.2h.2zm-29.9 18.5c-3.9 0-6.9-3.1-6.9-6.9 0-3.9 3.1-6.9 6.9-6.9 3.9 0 6.9 3.1 6.9 6.9.1 3.9-3 6.9-6.9 6.9m-8.6-31.9c-1.7.6-2.9 2.3-2.9 4.2v27.7c0 2.5 2.1 4.6 4.6 4.6h36.8c2.5 0 4.6-2.1 4.6-4.6V226c0-2.5-2.1-4.6-4.6-4.6h-27l19.1-7.7-1.5-3.9-29.1 12zM511 232.7c0-2.1-.8-4-2.3-5.8-1.5-1.7-3.5-2.5-5.6-2.5-2.1 0-4 .8-5.8 2.5-1.7 1.7-2.5 3.5-2.5 5.8s.8 4 2.5 5.6c1.7 1.5 3.5 2.3 5.8 2.3 2.1 0 4-.8 5.6-2.3 1.6-1.5 2.3-3.4 2.3-5.6m-23.1 22l-7.1 3.1v13.5h-7.9v-19.1l21.2-8.7c1-.4 1.9-.6 3.1-.6 3.1 0 5.4 1.3 6.7 3.9l3.9 6.5c1.9 3.1 4.4 5.4 7.5 7.3 3.1 1.9 6.5 2.7 10.2 2.7v7.9c-9.1 0-16.4-3.5-22-10.4L501 273l8.3 8.3v30.6h-8.1v-24.5l-8.7-8.1-6.9 32.5h-8.5l10.8-57.1zm63.6-14.1c0-2.1.8-4 2.3-5.8 1.5-1.7 3.5-2.5 5.6-2.5 2.1 0 4 .8 5.8 2.5 1.7 1.7 2.5 3.5 2.5 5.8s-.8 4-2.5 5.6c-1.7 1.5-3.5 2.3-5.8 2.3-2.1 0-4-.8-5.6-2.3-1.6-1.5-2.3-3.4-2.3-5.6m23.1 21.8l7.1 3.1V279h7.9v-19.1l-21.2-8.7c-1-.4-1.9-.6-3.1-.6-3.1 0-5.4 1.3-6.7 3.9l-3.9 6.5c-1.9 3.1-4.4 5.4-7.5 7.3s-6.5 2.7-10.2 2.7v7.9c9.1 0 16.4-3.5 22-10.4l2.5 12.1-8.3 8.3v30.6h8.1v-18.1H573l4 18.1h8.5l-10.9-57.1z"/><path class="st1" d="M678 361.6c-.8 0-1.5-.6-1.5-1.5v-86.7c0-.8.6-1.5 1.5-1.5s1.5.6 1.5 1.5v86.8c-.2.8-.7 1.4-1.5 1.4zM568.2 367c-.8 0-1.5-.6-1.5-1.5v-37.7c0-.8.6-1.5 1.5-1.5 1 0 1.5.6 1.5 1.5v37.9c-.1.7-.7 1.3-1.5 1.3zm-76 0c-.8 0-1.5-.6-1.5-1.5v-42.9c0-.8.6-1.5 1.5-1.5 1 0 1.5.6 1.5 1.5v43.1c-.2.7-.8 1.3-1.5 1.3z"/><path class="st1" d="M677.6 367.5l-9.4-11.3H687zm-109.8 5.4l-9.4-11.3h18.9zm-76 0l-9.5-11.3h18.9zM600 431.7c16 0 29.1-13.1 29.1-29.1S616 373.5 600 373.5s-29.1 13.1-29.1 29.1 13.1 29.1 29.1 29.1"/><path d="M590.9 417l9.1-9.1 9.1 9.1h-18.2zm22.8-28.7c.8 0 1.5.4 2.1 1s1 1.3 1 2.1v18.3c0 .8-.4 1.5-1 2.1-.6.6-1.3 1-2.1 1h-6v-3.1h6v-18.3h-27.3v18.3h6v3.1h-6c-.8 0-1.5-.4-2.1-1-.6-.6-1-1.3-1-2.1v-18.3c0-.8.4-1.5 1-2.1s1.3-1 2.1-1h27.3z" fill="#fff"/><path class="st1" d="M536.5 419c-.2 0-.4 0-.6-.2l-6.2-5.2c-.4-.4-.4-1-.2-1.3.4-.4 1-.4 1.3-.2l6.2 5.2c.4.4.4 1 .2 1.3-.2.2-.6.4-.7.4zm11.1-.2h-.4c-.4-.2-.8-.8-.4-1.3l3.3-7.1c.2-.4.8-.8 1.3-.4.4.2.8.8.4 1.3l-3.3 7.1c-.3.2-.5.4-.9.4zm2.5 2.8c-.4 0-.8-.2-1-.6-.2-.6 0-1 .6-1.2l7.5-2.7c.6-.2 1 0 1.2.6s0 1-.6 1.2l-7.5 2.7h-.2zm-7.7-4.6c-.4 0-.8-.4-1-.8l-1.7-7.7c-.2-.6.2-1 .8-1.2.6-.2 1 .2 1.2.8l1.7 7.7c.2.6-.2 1-.8 1.2h-.2zm107.1 4.1h-.4l-9.1-4c-.6-.2-.8-.8-.6-1.3s.8-.8 1.3-.6l9.1 4c.6.2.8.8.6 1.3-.3.4-.5.6-.9.6zm1.1-3.1c-.2 0-.6 0-.8-.2l-6.4-6.4c-.4-.4-.4-1 0-1.3.4-.4 1-.4 1.3 0l6.4 6.4c.4.4.4 1 0 1.3-.1 0-.3.2-.5.2zm-11.1 7.7c-.4 0-.8-.4-1-.8-.2-.6.2-1 .8-1.2l9.6-1.9c.6-.2 1 .2 1.2.8s-.2 1-.8 1.2l-9.6 1.9h-.2zm-139.6 46.6c-2.9 0-5.4-1.7-6.4-4.6l-5.8-17.9c-.6-1.7-.4-3.5.4-5s2.1-2.7 3.9-3.3c3.5-1.2 7.1.8 8.3 4.2l5.8 17.9c.6 1.7.4 3.5-.4 5s-2.1 2.7-3.9 3.3c-.6.4-1.4.4-1.9.4zm-5.8-27.9c-.4 0-.8 0-1.2.2-1 .4-1.7 1-2.1 1.9-.4.8-.6 1.7-.2 2.7l5.8 17.9c.6 1.9 2.7 2.9 4.8 2.3 1-.4 1.7-1 2.1-1.9.4-.8.6-1.7.2-2.7l-5.8-17.9c-.5-1.6-2.1-2.5-3.6-2.5zm32.5 38.3h-19.1c-3.7 0-6.7-2.1-6.7-5v-1.3c0-2.7 2.9-5 6.7-5h19.1c3.7 0 6.7 2.1 6.7 5v1.3c.1 2.7-2.8 5-6.7 5zm-19-8.3c-2.1 0-3.9 1.2-3.9 2.1v1.3c0 1 1.5 2.1 3.9 2.1h19.1c2.1 0 3.9-1.2 3.9-2.1v-1.3c0-1-1.5-2.1-3.9-2.1h-19.1z"/><path class="st1" d="M549.9 427.8c0-2.1-.8-4-2.5-5.8-1.5-1.7-3.5-2.5-5.8-2.5-2.1 0-4 .8-5.8 2.5-1.7 1.7-2.5 3.7-2.5 5.8s.8 4 2.5 5.8c1.7 1.5 3.7 2.5 5.8 2.5 2.1 0 4-.8 5.8-2.5 1.8-1.7 2.5-3.7 2.5-5.8M522 440.9c1.5-5.4 6.7-8.3 6.7-8.3 1-.4 1.9-.6 3.1-.6 3.3 0 4.8 2.1 6.4 4.6 0 0 2.7 8.1 0 13.5l-2.5 12.3 8.5 8.5v31h-8.3v-24.6s-14.1-4-16.2-7.1c-1.9-2.7.8-23.7 2.3-29.3"/><path class="st1" d="M533.8 435.5c3.7 0 7.1-1 10.2-2.7 3.3-1.7 5.8-4.2 7.7-7.5l6.9 4.2C554 437.4 547 442 538 443.4"/><path class="st1" d="M536.5 441.1c3.5.8 7.1.8 10.6-.2s6.5-2.7 9.2-5.4l5.8 5.8c-6.5 6.5-14.8 10.2-24.1 9.2m-25 32.8h4v7.7h-4z"/><path class="st1" d="M519.9 496.4l-4.8-4.8-4.8 4.8h-5.6l9.1-9.1c.8-.8 2.1-.8 2.9 0l9.1 9.1h-5.9z"/><path class="st1" d="M525.7 496.2c0-1.9-1.5-3.5-3.5-3.5-1.9 0-3.5 1.5-3.5 3.5 0 1.9 1.5 3.5 3.5 3.5 1.9-.1 3.5-1.6 3.5-3.5m-14.9 0c0-1.9-1.5-3.5-3.5-3.5-1.9 0-3.5 1.5-3.5 3.5 0 1.9 1.5 3.5 3.5 3.5 2-.1 3.5-1.6 3.5-3.5m189.3-23.9c-.6 0-1.3-.2-1.9-.4-1.7-.6-3.1-1.7-3.9-3.3-.8-1.5-1-3.3-.4-5l5.8-17.9c1.2-3.5 4.8-5.4 8.3-4.2 1.7.6 3.1 1.7 3.9 3.3.8 1.5 1 3.3.4 5l-5.8 17.9c-1 2.9-3.5 4.6-6.4 4.6zm5.8-27.9c-1.5 0-3.1 1-3.7 2.5l-5.8 17.9c-.4 1-.2 1.9.2 2.7.4 1 1.2 1.5 2.1 1.9 1.9.6 4-.4 4.8-2.3l5.8-17.9c.4-1 .2-1.9-.2-2.7-.4-1-1.2-1.5-2.1-1.9-.3-.2-.7-.2-1.1-.2zm-13.5 38.3h-19.1c-3.7 0-6.7-2.1-6.7-5v-1.3c0-2.7 2.9-5 6.7-5h19.1c3.7 0 6.7 2.1 6.7 5v1.3c-.1 2.7-3 5-6.7 5zm-19-8.3c-2.1 0-3.9 1.2-3.9 2.1v1.3c0 1 1.5 2.1 3.9 2.1h19.1c2.1 0 3.9-1.2 3.9-2.1v-1.3c0-1-1.5-2.1-3.9-2.1h-19.1zm9.6 8.9h4v7.7h-4z"/><path class="st1" d="M680.1 496.4l4.8-4.8 4.8 4.8h5.6l-9.1-9.1c-.8-.8-2.1-.8-2.9 0l-9.1 9.1h5.9z"/><path class="st1" d="M674.3 496.2c0-1.9 1.5-3.5 3.5-3.5 1.9 0 3.5 1.5 3.5 3.5 0 1.9-1.5 3.5-3.5 3.5-2.1-.3-3.5-1.6-3.5-3.5m14.9 0c0-1.9 1.5-3.5 3.5-3.5 1.9 0 3.5 1.5 3.5 3.5 0 1.9-1.5 3.5-3.5 3.5-2-.3-3.5-1.6-3.5-3.5m-10.6-57c-1.5-5.4-6.7-8.3-6.7-8.3-1-.4-1.9-.6-3.1-.6-3.3 0-4.8 2.1-6.4 4.6 0 0-2.7 8.1 0 13.5l2.5 12.3-8.5 8.5v31h8.3v-24.6s14.1-4 16.2-7.1c1.9-2.9-.8-23.9-2.3-29.3m-24.1-19.1c0-2.1.8-4 2.5-5.8 1.5-1.7 3.5-2.5 5.8-2.5 2.1 0 4 .8 5.8 2.5s2.5 3.7 2.5 5.8-.8 4-2.5 5.8c-1.7 1.5-3.7 2.5-5.8 2.5-2.1 0-4-.8-5.8-2.5-1.7-1.7-2.5-3.7-2.5-5.8"/><path class="st1" d="M666.8 435.5c-3.7 0-7.1-1-10.2-2.7-3.3-1.7-5.8-4.2-7.7-7.5l-6.9 4.2c4.6 7.9 11.6 12.5 20.6 13.7"/><path class="st1" d="M663.9 438c-3.5 1.2-6.9 1.3-10.6.8-3.7-.6-6.9-2.1-9.6-4.6l-5.2 6.2c6.9 6 15.6 8.9 24.6 7.3"/><path class="st1" d="M679 464.6H532.8c-.6 0-1.2-.4-1.3-1-.2-.6 0-1.2.4-1.5l23.3-20.6c.2-.2.6-.4 1-.4h94c.4 0 .6 0 .8.2l29.1 20.6c.6.4.8 1 .6 1.5-.6.8-1 1.2-1.7 1.2zm-142.4-2.9h137.9l-25-17.7h-92.8l-20.1 17.7z"/><path class="st1" d="M640.6 499.4c-.8 0-1.5-.6-1.5-1.5v-34.7c0-.8.6-1.5 1.5-1.5 1 0 1.5.6 1.5 1.5v34.7c.1 1-.7 1.5-1.5 1.5zm-72.2 0c-.8 0-1.5-.6-1.5-1.5v-34.7c0-.8.6-1.5 1.5-1.5 1 0 1.5.6 1.5 1.5v34.7c-.1 1-.7 1.5-1.5 1.5z"/><path class="st0" d="M0 0h1200v679.5H0z"/></svg>