<svg version="1.1" id="Layer_1" xmlns="http://www.w3.org/2000/svg" x="0" y="0" viewBox="0 0 1200 675" xml:space="preserve"><style>.st0{fill:none}.st3,.st4{stroke-width:2.6344}.st3,.st4,.st6,.st7{fill:none;stroke:#0080c5}.st4{stroke-linecap:round;stroke-linejoin:round}.st6,.st7{stroke-width:2.3899}.st7{stroke-linecap:round;stroke-linejoin:round}.st8{fill:#0080c5}.st9{fill:#fff}</style><path id="Bounding_BOX" class="st0" d="M250.5 141.1h699v392.8h-699z"/><path d="M883.1 219.3l-22.9 22.9m0-22.9l22.9 22.9" stroke="#ef4931" stroke-width="2.913" stroke-linecap="round" stroke-linejoin="round" fill="none"/><path fill="none" stroke="#00ad57" stroke-width="2.888" stroke-linecap="round" stroke-linejoin="round" d="M869.6 426.3l8.1 7.9 18.8-18.9"/><path class="st3" d="M597.3 154.2h7.5V336h-7.5z"/><path class="st4" d="M402 517.4c0-16.6-9.6-27-30-26.6"/><path d="M359.5 153.4h483.3v181.8H359.5zm0 195.8h483.3v170.6H359.5z" stroke-linecap="round" stroke-linejoin="round" stroke-width="5.269" fill="none" stroke="#0080c5"/><path class="st4" d="M402 332.9c0-16.6-9.6-27-30-26.6m-.6 27.3v-27.3"/><path class="st3" d="M597.3 349.6h7.5v169.1h-7.5z"/><path class="st4" d="M371.4 518.3v-27.5"/><path class="st6" d="M466.9 406.2c-.6 0-1.7-.2-1.7-1.7v-16.2c0-.6.2-1.7 1.7-1.7h15.6c.6 0 1.7.2 1.7 1.7v16.2c0 .6-.2 1.7-1.7 1.7h-15.6z"/><path class="st6" d="M463.3 386.8c-.4 0-.4-.2-.4-.4v-4c0-.4.2-.4.4-.4H486c.4 0 .4.2.4.4v4c0 .4-.2.4-.4.4h-22.7zm-40.5 19.4c-.6 0-1.7-.2-1.7-1.7v-16.2c0-.6.2-1.7 1.7-1.7h15.6c.6 0 1.7.2 1.7 1.7v16.2c0 .6-.2 1.7-1.7 1.7h-15.6z"/><path class="st6" d="M419.4 386.8c-.4 0-.4-.2-.4-.4v-4c0-.4.2-.4.4-.4h22.7c.4 0 .4.2.4.4v4c0 .4-.2.4-.4.4h-22.7zm91.4 19.4c-.6 0-1.7-.2-1.7-1.7v-16.2c0-.6.2-1.7 1.7-1.7h15.6c.6 0 1.7.2 1.7 1.7v16.2c0 .6-.2 1.7-1.7 1.7h-15.6z"/><path class="st6" d="M507.2 386.8c-.4 0-.4-.2-.4-.4v-4c0-.4.2-.4.4-.4h22.7c.4 0 .4.2.4.4v4c0 .4-.2.4-.4.4h-22.7zm-24.9 76.3c.6 0 1.7.2 1.7 1.7V481c0 .6-.2 1.7-1.7 1.7h-15.6c-.6 0-1.7-.2-1.7-1.7v-16.4c0-.6.2-1.7 1.7-1.7h15.6v.2z"/><path class="st6" d="M486 482.5c.4 0 .4.2.4.4v4c0 .4-.2.4-.4.4h-22.7c-.4 0-.4-.2-.4-.4v-4c0-.4.2-.4.4-.4H486zm40.2-19.4c.6 0 1.7.2 1.7 1.7V481c0 .6-.2 1.7-1.7 1.7h-15.6c-.6 0-1.7-.2-1.7-1.7v-16.4c0-.6.2-1.7 1.7-1.7h15.6v.2z"/><path class="st6" d="M529.9 482.5c.4 0 .4.2.4.4v4c0 .4-.2.4-.4.4h-22.7c-.4 0-.4-.2-.4-.4v-4c0-.4.2-.4.4-.4h22.7zm-91.5-19.4c.6 0 1.7.2 1.7 1.7V481c0 .6-.2 1.7-1.7 1.7h-15.6c-.6 0-1.7-.2-1.7-1.7v-16.4c0-.6.2-1.7 1.7-1.7h15.6v.2z"/><path class="st6" d="M442.1 482.5c.4 0 .4.2.4.4v4c0 .4-.2.4-.4.4h-22.7c-.4 0-.4-.2-.4-.4v-4c0-.4.2-.4.4-.4h22.7z"/><path class="st7" d="M413 411.4h126.5v47.2H413z"/><path class="st6" d="M706.3 405.9c-.6 0-1.7-.2-1.7-1.7V388c0-.6.2-1.7 1.7-1.7h15.6c.6 0 1.7.2 1.7 1.7v16.2c0 .6-.2 1.7-1.7 1.7h-15.6z"/><path class="st6" d="M702.6 386.4c-.4 0-.4-.2-.4-.4v-4c0-.4.2-.4.4-.4h22.7c.4 0 .4.2.4.4v4c0 .4-.2.4-.4.4h-22.7zm-40.4 19.5c-.6 0-1.7-.2-1.7-1.7V388c0-.6.2-1.7 1.7-1.7h15.6c.6 0 1.7.2 1.7 1.7v16.2c0 .6-.2 1.7-1.7 1.7h-15.6z"/><path class="st6" d="M658.7 386.4c-.4 0-.4-.2-.4-.4v-4c0-.4.2-.4.4-.4h22.7c.4 0 .4.2.4.4v4c0 .4-.2.4-.4.4h-22.7zm91.5 19.5c-.6 0-1.7-.2-1.7-1.7V388c0-.6.2-1.7 1.7-1.7h15.6c.6 0 1.7.2 1.7 1.7v16.2c0 .6-.2 1.7-1.7 1.7h-15.6z"/><path class="st6" d="M746.5 386.4c-.4 0-.4-.2-.4-.4v-4c0-.4.2-.4.4-.4h22.7c.4 0 .4.2.4.4v4c0 .4-.2.4-.4.4h-22.7zm-24.8 76.3c.6 0 1.7.2 1.7 1.7v16.2c0 .6-.2 1.7-1.7 1.7h-15.6c-.6 0-1.7-.2-1.7-1.7v-16.2c0-.6.2-1.7 1.7-1.7h15.6z"/><path class="st6" d="M725.4 482.1c.4 0 .4.2.4.4v4c0 .4-.2.4-.4.4h-22.7c-.4 0-.4-.2-.4-.4v-4c0-.4.2-.4.4-.4h22.7zm40.2-19.4c.6 0 1.7.2 1.7 1.7v16.2c0 .6-.2 1.7-1.7 1.7H750c-.6 0-1.7-.2-1.7-1.7v-16.2c0-.6.2-1.7 1.7-1.7h15.6z"/><path class="st6" d="M769.3 482.1c.4 0 .4.2.4.4v4c0 .4-.2.4-.4.4h-22.7c-.4 0-.4-.2-.4-.4v-4c0-.4.2-.4.4-.4h22.7zm-91.5-19.4c.6 0 1.7.2 1.7 1.7v16.2c0 .6-.2 1.7-1.7 1.7h-15.6c-.6 0-1.7-.2-1.7-1.7v-16.2c0-.6.2-1.7 1.7-1.7h15.6z"/><path class="st6" d="M681.5 482.1c.4 0 .4.2.4.4v4c0 .4-.2.4-.4.4h-22.7c-.4 0-.4-.2-.4-.4v-4c0-.4.2-.4.4-.4h22.7z"/><path class="st7" d="M652.4 411.1h126.5v47.2H652.4z"/><path class="st6" d="M466.9 216.8c-.6 0-1.7-.2-1.7-1.7v-16.2c0-.6.2-1.7 1.7-1.7h15.6c.6 0 1.7.2 1.7 1.7V215c0 .6-.2 1.7-1.7 1.7 0 .1-15.6.1-15.6.1zm-3.6-19.7c-.4 0-.4-.2-.4-.4v-4c0-.4.2-.4.4-.4H486c.4 0 .4.2.4.4v4c0 .4-.2.4-.4.4h-22.7zm-40.5 19.7c-.6 0-1.7-.2-1.7-1.7v-16.2c0-.6.2-1.7 1.7-1.7h15.6c.6 0 1.7.2 1.7 1.7V215c0 .6-.2 1.7-1.7 1.7 0 .1-15.6.1-15.6.1zm-3.4-19.7c-.4 0-.4-.2-.4-.4v-4c0-.4.2-.4.4-.4h22.7c.4 0 .4.2.4.4v4c0 .4-.2.4-.4.4h-22.7zm91.4 19.7c-.6 0-1.7-.2-1.7-1.7v-16.2c0-.6.2-1.7 1.7-1.7h15.6c.6 0 1.7.2 1.7 1.7V215c0 .6-.2 1.7-1.7 1.7 0 .1-15.6.1-15.6.1zm-3.6-19.7c-.4 0-.4-.2-.4-.4v-4c0-.4.2-.4.4-.4h22.7c.4 0 .4.2.4.4v4c0 .4-.2.4-.4.4h-22.7zm-24.9 76.3c.6 0 1.7.2 1.7 1.7v16.2c0 .6-.2 1.7-1.7 1.7h-15.6c-.6 0-1.7-.2-1.7-1.7v-16.2c0-.6.2-1.7 1.7-1.7h15.6z"/><path class="st6" d="M486 292.8c.4 0 .4.2.4.4v4c0 .4-.2.4-.4.4h-22.7c-.4 0-.4-.2-.4-.4v-4c0-.4.2-.4.4-.4H486zm40.2-19.4c.6 0 1.7.2 1.7 1.7v16.2c0 .6-.2 1.7-1.7 1.7h-15.6c-.6 0-1.7-.2-1.7-1.7v-16.2c0-.6.2-1.7 1.7-1.7h15.6z"/><path class="st6" d="M529.9 292.8c.4 0 .4.2.4.4v4c0 .4-.2.4-.4.4h-22.7c-.4 0-.4-.2-.4-.4v-4c0-.4.2-.4.4-.4h22.7zm-91.5-19.4c.6 0 1.7.2 1.7 1.7v16.2c0 .6-.2 1.7-1.7 1.7h-15.6c-.6 0-1.7-.2-1.7-1.7v-16.2c0-.6.2-1.7 1.7-1.7h15.6z"/><path class="st6" d="M442.1 292.8c.4 0 .4.2.4.4v4c0 .4-.2.4-.4.4h-22.7c-.4 0-.4-.2-.4-.4v-4c0-.4.2-.4.4-.4h22.7z"/><path class="st7" d="M413 221.8h126.5V269H413z"/><path class="st6" d="M735.2 216.8c-.6 0-1.7-.2-1.7-1.7v-16.2c0-.6.2-1.7 1.7-1.7h15.6c.6 0 1.7.2 1.7 1.7V215c0 .6-.2 1.7-1.7 1.7 0 .1-15.6.1-15.6.1zm-3.7-19.7c-.4 0-.4-.2-.4-.4v-4c0-.4.2-.4.4-.4h22.7c.4 0 .4.2.4.4v4c0 .4-.2.4-.4.4h-22.7zm-40.2 19.7c-.6 0-1.7-.2-1.7-1.7v-16.2c0-.6.2-1.7 1.7-1.7h15.6c.6 0 1.7.2 1.7 1.7V215c0 .6-.2 1.7-1.7 1.7 0 .1-15.6.1-15.6.1zm-3.7-19.7c-.4 0-.4-.2-.4-.4v-4c0-.4.2-.4.4-.4h22.7c.4 0 .4.2.4.4v4c0 .4-.2.4-.4.4h-22.7zm91.5 19.7c-.6 0-1.7-.2-1.7-1.7v-16.2c0-.6.2-1.7 1.7-1.7h15.6c.6 0 1.7.2 1.7 1.7V215c0 .6-.2 1.7-1.7 1.7 0 .1-15.6.1-15.6.1zm-3.7-19.7c-.4 0-.4-.2-.4-.4v-4c0-.4.2-.4.4-.4h22.7c.4 0 .4.2.4.4v4c0 .4-.2.4-.4.4h-22.7zm-24.8 76.3c.6 0 1.7.2 1.7 1.7v16.2c0 .6-.2 1.7-1.7 1.7H735c-.6 0-1.7-.2-1.7-1.7v-16.2c0-.6.2-1.7 1.7-1.7h15.6z"/><path class="st6" d="M754.2 292.8c.4 0 .4.2.4.4v4c0 .4-.2.4-.4.4h-22.7c-.4 0-.4-.2-.4-.4v-4c0-.4.2-.4.4-.4h22.7zm40.3-19.4c.6 0 1.7.2 1.7 1.7v16.2c0 .6-.2 1.7-1.7 1.7h-15.6c-.6 0-1.7-.2-1.7-1.7v-16.2c0-.6.2-1.7 1.7-1.7h15.6z"/><path class="st6" d="M798.1 292.8c.4 0 .4.2.4.4v4c0 .4-.2.4-.4.4h-22.7c-.4 0-.4-.2-.4-.4v-4c0-.4.2-.4.4-.4h22.7zm-91.4-19.4c.6 0 1.7.2 1.7 1.7v16.2c0 .6-.2 1.7-1.7 1.7h-15.6c-.6 0-1.7-.2-1.7-1.7v-16.2c0-.6.2-1.7 1.7-1.7h15.6z"/><path class="st6" d="M710.3 292.8c.4 0 .4.2.4.4v4c0 .4-.2.4-.4.4h-22.7c-.4 0-.4-.2-.4-.4v-4c0-.4.2-.4.4-.4h22.7z"/><path class="st7" d="M681.3 221.8h126.5V269H681.3z"/><path class="st4" d="M644.9 518.7c0-16.6-9.6-27-30-26.6m-.5 27.6v-27.6"/><path class="st8" d="M569.4 264.9c11 0 19.8-8.9 19.8-19.8 0-11-8.9-19.8-19.8-19.8-11 0-19.8 8.9-19.8 19.8-.1 10.9 8.8 19.8 19.8 19.8"/><path class="st9" d="M563.2 254.9l6.2-6.2 6.2 6.2h-12.4zm15.6-19.7c.6 0 1 .2 1.5.6.4.4.6 1 .6 1.5v12.5c0 .6-.2 1-.6 1.3-.4.4-1 .6-1.5.6h-4.2v-2.1h4.2v-12.5h-18.7v12.5h4v2.1h-4c-.6 0-1-.2-1.5-.6-.4-.4-.6-1-.6-1.3v-12.5c0-.6.2-1 .6-1.5.4-.4 1-.6 1.5-.6h18.7z"/><path class="st4" d="M644.9 335c0-16.6-9.6-27-30-26.6m-.5 27.6v-27.4"/><path class="st8" d="M635.2 264.9c11 0 19.8-8.9 19.8-19.8 0-11-8.9-19.8-19.8-19.8-11 0-19.8 8.9-19.8 19.8s8.9 19.8 19.8 19.8"/><path class="st9" d="M629.1 254.9l6.2-6.2 6.2 6.2h-12.4zm15.6-19.7c.6 0 1 .2 1.5.6.4.4.6 1 .6 1.5v12.5c0 .6-.2 1-.6 1.3-.4.4-1 .6-1.5.6h-4.2v-2.1h4.2v-12.5H626v12.5h4.2v2.1H626c-.6 0-1-.2-1.5-.6-.4-.4-.6-1-.6-1.3v-12.5c0-.6.2-1 .6-1.5.4-.4 1-.6 1.5-.6h18.7z"/><path class="st8" d="M569.4 454.2c11 0 19.8-8.9 19.8-19.8 0-11-8.9-19.8-19.8-19.8-11 0-19.8 8.9-19.8 19.8-.1 10.7 8.8 19.8 19.8 19.8"/><path class="st9" d="M563.2 444.2l6.2-6.2 6.2 6.2h-12.4zm15.6-19.9c.6 0 1 .2 1.5.6.4.4.6 1 .6 1.5V439c0 .6-.2 1-.6 1.3-.4.4-1 .6-1.5.6h-4.2v-2.1h4.2v-12.5h-18.7v12.5h4v2.1h-4c-.6 0-1-.2-1.5-.6-.4-.4-.6-1-.6-1.3v-12.5c0-.6.2-1 .6-1.5.4-.4 1-.6 1.5-.6h18.7z"/><path class="st8" d="M812.2 454.2c11 0 19.8-8.9 19.8-19.8 0-11-8.9-19.8-19.8-19.8-11 0-19.8 8.9-19.8 19.8-.2 10.7 8.8 19.8 19.8 19.8"/><path class="st9" d="M805.8 444.2l6.2-6.2 6.2 6.2h-12.4zm15.6-19.9c.6 0 1 .2 1.5.6.4.4.6 1 .6 1.5V439c0 .6-.2 1-.6 1.3-.4.4-1 .6-1.5.6h-4.2v-2.1h4.2v-12.5h-18.7v12.5h4.2v2.1h-4.2c-.6 0-1-.2-1.5-.6-.4-.4-.6-1-.6-1.3v-12.5c0-.6.2-1 .6-1.5.4-.4 1-.6 1.5-.6h18.7z"/><path class="st0" d="M0 0h1200v675H0z"/></svg>