<svg version="1.1" id="Layer_2" xmlns="http://www.w3.org/2000/svg" x="0" y="0" viewBox="0 0 1200 674.4" xml:space="preserve"><style>.st1{fill:#0080c5}</style><path id="Bounding_BOX_5_" fill="none" d="M-.5 0h1198.9v674.4H-.5z"/><path class="st1" d="M529.9 308.1v142.7c0 1.4-1.2 2.7-2.7 2.7-1.4 0-2.7-1.2-2.7-2.7V309.2l-89.9-83H316.1V239h23.2c.4 0 .5 0 .9.2 1.4 0 2.5 1.2 2.5 2.7 0 13.7-10.5 24.8-23.8 24.8-1.4 0-2.7-1.2-2.7-2.7s1.2-2.7 2.7-2.7c9.3 0 17.1-7.4 18.3-16.9h-22.9c-.2 0-.5 0-.7-.2-1.4 0-2.7-1.2-2.7-2.7v-18.1c0-1.4 1.2-2.7 2.7-2.7H436c.7 0 1.2.2 1.8.7l91.5 84.6c.5.6.6 1.3.6 2.1z"/><path class="st1" d="M527.3 453.5H316.7c-1.4 0-2.8-.5-3.7-1.6-1.1-1.1-1.6-2.3-1.6-3.7l.2-179c0-1.4 1.2-2.7 2.7-2.7 1.4 0 2.7 1.2 2.7 2.7l-.2 179h210.7c1.4 0 2.7 1.2 2.7 2.7s-1.5 2.6-2.9 2.6z"/><path class="st1" d="M394.3 340.3H379v-.9c0-1.1-.7-1.4-1.4-1.4h-3.9c-1.1 0-1.4.7-1.4 1.4v20.9c0 1.1.7 1.4 1.4 1.4h3.9c.9 0 1.4-.5 1.4-1.4v-.9h15.3c1.6 0 2.5-1.1 2.5-2.5v-14.3c.2-1.5-1.1-2.4-2.5-2.3zm-17.4 19.4h-2.5v-19.6h2.5v19.6zm18-2.6c0 .5-.2.5-.4.5h-14.6c-.5 0-.5-.2-.5-.4V343c0-.5.2-.5.4-.5h14.6c.5 0 .5.2.5.4v14.2zm-.6 23.4H379v-.7c0-1.1-.7-1.4-1.4-1.4h-3.9c-1.1 0-1.4.7-1.4 1.4v20.9c0 1.1.7 1.4 1.4 1.4h3.9c.9 0 1.4-.5 1.4-1.4v-.9h15.3c1.6 0 2.5-1.1 2.5-2.5V383c.2-1.6-1.1-2.5-2.5-2.5zm-17.4 19.6l-2.5-.2v-19.6h2.5v19.8zm18-2.7c0 .4-.2.4-.4.4h-14.6c-.5 0-.5-.2-.5-.4v-14.1c0-.5.2-.5.4-.5h14.6c.5 0 .5.2.5.4v14.2zm-.6-97.4H379v-1.1c0-1.1-.7-1.2-1.4-1.4h-3.9c-1.1 0-1.4.7-1.4 1.4v20.9c0 1.1.7 1.4 1.4 1.4h3.9c.9 0 1.4-.5 1.4-1.4v-.7h15.3c1.6 0 2.5-1.1 2.5-2.5v-14.3c.2-1.5-1.1-2.5-2.5-2.3zm-17.4 19.4h-2.5v-19.6h2.5v19.6zm18-2.7c0 .4-.2.4-.4.5h-14.6c-.5 0-.5-.2-.5-.4v-14.3c0-.5.2-.5.4-.5h14.6c.5 0 .5.2.5.4v14.3zm75.2 21.4h-3.9c-.9 0-1.4.5-1.4 1.4v.9c-.2 0-.4-.2-.5-.2h-14.8c-1.6 0-2.5 1.1-2.5 2.5V357c0 1.6 1.1 2.5 2.5 2.5h15.3v.9c0 1.1.7 1.4 1.4 1.4h3.9c1.1 0 1.4-.7 1.4-1.4v-20.9c0-1.1-.8-1.4-1.4-1.4zm-5.3 18.8c0 .5-.2.5-.4.5h-14.8c-.5 0-.5-.2-.5-.4l.2-14.3c0-.5.2-.5.4-.5h14.6c.5 0 .5.2.5.4v14.3zm4.6 2.8h-2.5v-19.6h2.5v19.6zm.7-62h-3.9c-.9 0-1.4.5-1.4 1.4v.9c-.2 0-.4-.2-.5-.2h-14.8c-1.6 0-2.5 1.1-2.5 2.5v14.3c0 1.8 1.2 2.5 2.5 2.5h15.3v1.1c0 1.1.7 1.4 1.4 1.4h3.9c1.1 0 1.4-.7 1.4-1.4V299c0-.9-.8-1.3-1.4-1.3zm-5.3 18.9c0 .5-.2.5-.4.5h-14.8c-.5 0-.5-.2-.5-.4l.2-14.3c0-.5.2-.5.4-.5h14.6c.5 0 .5.2.5.4v14.3zm4.6 2.8h-2.5v-19.6h2.5v19.6zm.7 59h-3.9c-.9 0-1.4.5-1.4 1.4v.9c-.2 0-.4-.2-.5-.2h-14.8c-1.6 0-2.5 1.1-2.5 2.5v14.3c0 1.8 1.2 2.5 2.5 2.5h15.3v.9c0 1.1.7 1.4 1.4 1.4h3.9c1.1 0 1.4-.7 1.4-1.4v-20.9c0-1-.8-1.4-1.4-1.4zm-5.3 18.8c0 .5-.2.5-.4.5h-14.8c-.5 0-.5-.2-.5-.4l.2-14.3c0-.5.2-.5.4-.5h14.6c.5 0 .5.2.5.4v14.3zm4.6 2.9h-2.5v-19.6h2.5v19.6zM444 289.3h-43.3c-.7 0-1.1.5-1.1 1.1v116.1c0 .7.5 1.1 1.1 1.1h43.2c.7 0 1.1-.5 1.1-1.1V290.2c.1-.6-.5-.9-1-.9zm-1.1 116h-41.4v-114h41.2v114h.2zM881.5 452.7H633.9c-.7 0-1.4-.4-1.9-.9s-.7-1.2-.7-1.9l10.5-160c.2-1.4 1.2-2.5 2.7-2.5h223.4c1.4 0 2.5 1.1 2.7 2.5l13.7 160c0 .7-.2 1.4-.7 1.9-.6.5-1.2.9-2.1.9zm-244.8-5.3h242.1l-13.4-154.6H646.9l-10.2 154.6z"/><path class="st1" d="M751.5 359.2l7.2-7.2 7.2 7.2h-14.4zm18.4-22.9c.7 0 1.2.2 1.8.7.5.5.7 1.1.7 1.8v14.6c0 .7-.2 1.2-.7 1.8-.5.5-1.1.7-1.8.7h-4.7v-2.5h4.7v-14.6H748v14.6h4.7v2.5H748c-.7 0-1.2-.2-1.8-.7-.5-.5-.7-1.1-.7-1.8v-14.6c0-.7.2-1.2.7-1.8.5-.5 1.1-.7 1.8-.7h21.9zm-59.6 29.4c0-1.8-.5-3.2-1.9-4.6-1.1-1.1-2.8-1.9-4.6-1.9s-3.2.5-4.6 1.9c-1.1 1.1-1.9 2.8-1.9 4.6s.5 3.2 1.9 4.6 2.8 1.9 4.6 1.9 3.2-.5 4.6-1.9c1.4-1.4 1.9-2.8 1.9-4.6m-18.5 14.7c1.1-4.2 5.3-6.2 5.3-6.2.5-.4 1.4-.4 2.3-.4 2.5 0 4.2 1.1 5.3 2.8l2.8 5.1c1.4 2.3 3.4 4.2 5.8 5.6 2.5 1.4 5.1 1.9 7.9 1.9v6.2c-7 0-12.8-2.8-17.1-8.1l-1.9 9.5 6.5 6.5v24h-6.2v-19s-10.9-3.2-12.3-5.3c-1.7-2 .6-18.4 1.6-22.6m116.1-14.7c0-1.8.5-3.2 1.9-4.6 1.1-1.1 2.8-1.9 4.6-1.9s3.2.5 4.6 1.9c1.1 1.1 1.9 2.8 1.9 4.6s-.5 3.2-1.9 4.6c-1.1 1.1-2.8 1.9-4.6 1.9s-3.2-.5-4.6-1.9c-1-1.4-1.9-2.8-1.9-4.6m18.5 14.7c-1.1-4.2-5.3-6.2-5.3-6.2-.5-.4-1.4-.4-2.3-.4-2.5 0-4.2 1.1-5.3 2.8l-2.8 5.1c-1.4 2.3-3.4 4.2-5.8 5.6-2.5 1.4-5.1 1.9-7.9 1.9v6.2c7 0 12.8-2.8 17.1-8.1l1.9 9.5-6.6 6.5v24h6.2v-19s10.9-3.2 12.3-5.3c1.9-2-.1-18.4-1.5-22.6m-145.8 25.3c-2.3 0-4.6-1.4-5.3-3.7l-4.6-14.1c-.4-1.4-.4-2.8.4-4.2.5-1.1 1.9-2.3 3.4-2.8 2.8-.9 6.2.5 7 3.7l4.6 14.1c.4 1.4.4 2.8-.4 4.2-.5 1.1-1.9 2.3-3.4 2.8h-1.7zm-4.8-22c-.4 0-.4 0-.9.4s-1.1.5-1.4 1.1c-.4.5-.4 1.1-.4 1.9l4.6 14.1c.4 1.1 1.9 1.9 3.2 1.4.5-.4 1.1-.5 1.4-1.1.4-.5.4-1.1.4-1.9l-4.6-14.1c0-.9-1.1-1.8-2.3-1.8z"/><path class="st1" d="M701.7 413.8h-15c-3.2 0-5.6-1.9-5.6-4.6v-1.1c0-2.5 2.5-4.6 5.6-4.6h15c3.2 0 5.6 1.9 5.6 4.6v1.1c0 2.9-2.4 4.6-5.6 4.6zm-15.2-6.5c-1.4 0-2.5.9-2.5 1.1v1.1c0 .4 1.1 1.1 2.5 1.1h15c1.4 0 2.5-.9 2.5-1.1v-1.1c0-.4-1.1-1.1-2.5-1.1h-15zm133.2-5.8h-112c-.5 0-1.1-.4-1.4-1.1-.4-.5 0-1.1.4-1.8l17.1-15.1c.4-.4.5-.4 1.1-.4h73.3c.4 0 .5 0 .9.4l21.3 15.1c.5.4.9 1.1.5 1.8.2.6-.3 1.1-1.2 1.1zm-108-3.3h103l-17-12.2h-72.6l-13.4 12.2zm-15.3 26l-3.7-3.7-3.7 3.7h-4.6l7-7c.5-.5 1.8-.5 1.9 0l7 7h-3.9z"/><path class="st1" d="M700.8 423.8c0-1.4-1.1-2.8-2.8-2.8-1.4 0-2.8 1.1-2.8 2.8s1.1 2.8 2.8 2.8c1.8.1 2.8-1 2.8-2.8m-11.8 0c0-1.4-1.1-2.8-2.8-2.8-1.4 0-2.8 1.1-2.8 2.8s1.1 2.8 2.8 2.8c1.9.1 2.8-1 2.8-2.8m1.8-10h3.2v6.2h-3.2zm100 15.5c-.9 0-1.8-.5-1.8-1.8v-27.3c0-.9.5-1.8 1.8-1.8 1.2 0 1.8.5 1.8 1.8v27.3c-.4.9-.9 1.8-1.8 1.8zm-56.9 0c-.9 0-1.8-.5-1.8-1.8v-27.3c0-.9.5-1.8 1.8-1.8 1.2 0 1.8.5 1.8 1.8v27.3c-.4.9-.9 1.8-1.8 1.8zM838 405.7c-.5 0-1.1 0-1.8-.4-1.4-.4-2.8-1.4-3.4-2.8-.5-1.1-.9-2.8-.4-4.2l4.6-14.1c1.1-2.8 4.2-4.6 7-3.7 1.4.4 2.8 1.4 3.4 2.8.5 1.1.9 2.8.4 4.2l-4.6 14.1c-.8 2.7-3 4.1-5.2 4.1zm4.2-22c-1.1 0-1.9.5-2.3 1.8l-4.6 14.1c-.4.5-.4 1.1.4 1.9.4.5.9 1.1 1.4 1.1 1.1.4 2.8-.4 3.2-1.4l4.6-14.1c.4-.5.4-1.1-.4-1.9-.4-.5-.9-1.1-1.4-1.1-.1-.4-.3-.4-.9-.4z"/><path class="st1" d="M831.8 413.8h-15c-3.2 0-5.6-1.9-5.6-4.6v-1.1c0-2.5 2.5-4.6 5.6-4.6h15c3.2 0 5.6 1.9 5.6 4.6v1.1c.1 2.9-2.6 4.6-5.6 4.6zm-15.2-6.5c-1.4 0-2.5.9-2.5 1.1v1.1c0 .4 1.1 1.1 2.5 1.1h15c1.4 0 2.5-.9 2.5-1.1v-1.1c0-.4-1.1-1.1-2.5-1.1h-15zm7.8 6.5h3.2v6.2h-3.2z"/><path class="st1" d="M822.1 424.2l3.7-3.7 3.7 3.7h4.6l-7-7c-.5-.5-1.8-.5-1.9 0l-7 7h3.9z"/><path class="st1" d="M817.4 423.8c0-1.4 1.1-2.8 2.8-2.8 1.4 0 2.8 1.1 2.8 2.8s-1.1 2.8-2.8 2.8c-1.4.1-2.8-1-2.8-2.8m11.6 0c0-1.4 1.1-2.8 2.8-2.8 1.4 0 2.8 1.1 2.8 2.8s-1.1 2.8-2.8 2.8c-1.3.1-2.8-1-2.8-2.8M759 371c12.8 0 23.2-10.4 23.2-23.2s-10.4-23.2-23.2-23.2c-12.8 0-23.2 10.4-23.2 23.2-.1 12.8 10.3 23.2 23.2 23.2"/><path d="M751.5 359.2l7.2-7.2 7.2 7.2h-14.4zm18.4-22.9c.7 0 1.2.2 1.8.7.5.5.7 1.1.7 1.8v14.6c0 .7-.2 1.2-.7 1.8-.5.5-1.1.7-1.8.7h-4.7v-2.5h4.7v-14.6H748v14.6h4.7v2.5H748c-.7 0-1.2-.2-1.8-.7-.5-.5-.7-1.1-.7-1.8v-14.6c0-.7.2-1.2.7-1.8.5-.5 1.1-.7 1.8-.7h21.9z" fill="#fff"/></svg>