<svg version="1.1" id="Layer_1" xmlns="http://www.w3.org/2000/svg" x="0" y="0" viewBox="0 0 1200 675" xml:space="preserve"><style>.st0{fill:none}.st3{fill:#0080c5}</style><path id="Bounding_BOX" class="st0" d="M250.5 141.1h699v392.8h-699z"/><path d="M809.3 251.2c-.4 0-.8-.2-1-.4l-8.7-8.7c-.6-.6-.6-1.7 0-2.3.6-.6 1.7-.6 2.3 0l7.7 7.7 19.6-19.4c.6-.6 1.7-.6 2.3 0 .6.6.6 1.7 0 2.3L810.9 251c-.6 0-1.2.2-1.6.2z" fill="#00ad57"/><path d="M818 435.7l11.4-11.4c.6-.6.6-1.7 0-2.3-.6-.6-1.7-.6-2.3 0l-11.4 11.4-11.4-11.4c-.6-.6-1.7-.6-2.3 0-.6.6-.6 1.7 0 2.3l11.4 11.4-11.4 11.4c-.6.6-.6 1.7 0 2.3.2.2.6.4 1 .4s.6-.2 1.3-.4l11.4-11.4 11.4 11.4c.2.2.6.4 1 .4s.8-.2 1.3-.4c.6-.6.6-1.7 0-2.3L818 435.7z" fill="#ef4931"/><path class="st3" d="M762.7 154.2H437.3c-1.2 0-2.1 1-2.1 2.1v166c0 1.2 1 2.1 2.1 2.1h325.4c1.2 0 2.1-1 2.1-2.1v-166c0-1.3-.9-2.1-2.1-2.1zm-2.3 166H439.6V158.4h321l-.2 161.8z"/><path class="st3" d="M761 196.5H438.4v-7.1H761v7.1zm-320.4-2.1h318.3v-2.7H440.6v2.7zm80.1-20.8h-13.9v-5.9h-9.4v5.9h-13.9l.2-5.9h-9.4v5.9h-13.9v-5.9H451v5.9h-13.9v-7.1h2.1v5h9.6v-6h13.7v6h9.6v-6h13.7l-.2 6h9.6v-6h13.9v6h9.4v-5h2.2z"/><path class="st3" d="M590.4 173.6h-13.9v-5.9h-9.4v5.9h-13.9v-5.9H544v5.9h-13.9v-5.9h-9.6v5.9h-13.7v-7.1h2.1v5h9.5v-6h13.8v6h9.5v-6h13.8l-.2 6h9.7v-6h13.6v6h9.7v-5h2.1z"/><path class="st3" d="M659.5 173.6h-13.9v-5.9h-9.2v5.9h-14.1l.2-5.9h-9.4v5.9h-13.9v-5.9h-9.4v5.9h-13.9v-7.1h2.1v5h9.7v-6h13.6v6h9.7v-6h13.6l-.1 6h9.6v-6h13.8v6h9.5v-5h2.1z"/><path class="st3" d="M728.8 173.6H715v-5.9h-9.5v5.9h-14l.2-5.9h-9.3v5.9h-13.8v-5.9h-9.7v5.9h-13.8v-7.1h2.3v5h9.4v-6h13.9v6h9.4v-6h13.7v6h9.6v-6h13.7v6h9.4v-5h2.3z"/><path class="st3" d="M751.5 173.6h-13.8v-5.9h-9.5v5.9h-13.8v-7.1h2.1v5h9.4v-6h13.9v6h9.6v-6h12.5v2.2h-10.4zm-284.9-1.5h2.1v18.7h-2.1zm46.4 0h2.1v18.7H513zm68.5 0h2.1v18.7h-2.1zm70.1 0h2.1v18.7h-2.1z"/><path class="st3" d="M720.9 172.1h2.1v18.7h-2.1zM560.7 278.8h-76.8c-.4 0-.8-.2-1-.8-.2-.4 0-.8.2-1.2l11.7-10.4c.2-.2.4-.2.8-.2h50.3c.2 0 .4 0 .6.2l14.6 10.4c.4.2.6.8.4 1.2.2.4-.2.8-.8.8zm-73.9-2.1h70.7l-11.7-8.3h-49.5l-9.5 8.3zm228.2-7.6l-3.9-2.7c-.2-.2-.4-.2-.6-.2h-50.3c-.2 0-.6.2-.8.2l-4.8 4.2-3.6 3.4c.8.2 1.3.6 2.3.8l4.2-3.7 3.1-2.5h49.7l2.7 1.9 4.2 2.9c.8-.4 1.3-.8 1.9-1.3l-4.1-3zm-9.9 7.9c-.6 0-1.2.4-1.2 1.2v.8h2.1v-.8c.3-.6-.1-1.2-.9-1.2zm-38.9 0c-.6 0-1.2.4-1.2 1.2v.8h2.1v-.8c.3-.6-.3-1.2-.9-1.2z"/><path class="st3" d="M726.1 278c-.2.4-.6.8-1 .8h-18.9v-.8c0-.6-.4-1.2-1.2-1.2-.6 0-1.2.4-1.2 1.2v.8H667v-.8c0-.6-.4-1.2-1.2-1.2-.6 0-1.2.4-1.2 1.2v.8h-16.9c-.4 0-.8-.2-1-.8s0-.8.2-1.2l3.5-3.1c.8.2 1.3.6 2.3.8l-2.1 1.9h70.7l-4.8-3.5c.8-.4 1.3-.8 1.9-1.3l3.5 2.5 3.7 2.5c.5.6.7 1 .5 1.4zm-260.7 3.8c-1.5 0-3.1-1-3.7-2.5l-3.1-9.6c-.2-1-.2-1.9.2-2.9.4-.8 1.3-1.5 2.3-1.9 1.9-.6 4.2.4 4.8 2.5l3.1 9.6c.2 1 .2 1.9-.2 2.9-.4.8-1.3 1.5-2.3 1.9h-1.1zm-3.3-15c-.2 0-.2 0-.6.2-.4.2-.8.4-1 .8-.2.4-.2.8-.2 1.3l3.1 9.6c.2.8 1.3 1.3 2.1 1 .4-.2.8-.4 1-.8.2-.4.2-.8.2-1.3l-3.1-9.6c.1-.8-.7-1.2-1.5-1.2z"/><path class="st3" d="M479.8 287.4h-10.2c-2.1 0-3.9-1.3-3.9-3.1v-.8c0-1.7 1.7-3.1 3.9-3.1h10.2c2.1 0 3.9 1.3 3.9 3.1v.8c0 1.8-1.7 3.1-3.9 3.1zm-10.4-4.4c-1 0-1.7.6-1.7.8v.8c0 .2.8.8 1.7.8h10.2c1 0 1.7-.6 1.7-.8v-.8c0-.2-.8-.8-1.7-.8h-10.2zm2.9 4.4h2.1v4.2h-2.1z"/><path class="st3" d="M476.2 294.4l-2.5-2.5-2.5 2.5h-3.1l4.8-4.8c.4-.4 1.2-.4 1.3 0l4.8 4.8h-2.8z"/><path class="st3" d="M479.3 294.4c0-1-.8-1.9-1.9-1.9-1 0-1.9.8-1.9 1.9 0 1 .8 1.9 1.9 1.9 1.1-.2 1.9-1 1.9-1.9zm-8.1 0c0-1-.8-1.9-1.9-1.9-1 0-1.9.8-1.9 1.9 0 1 .8 1.9 1.9 1.9 1.3-.2 1.9-1 1.9-1.9z"/><path class="st3" d="M485.8 254.3c0-1.2-.4-2.1-1.3-3.1-.8-.8-1.9-1.3-3.1-1.3-1.2 0-2.1.4-3.1 1.3-.8.8-1.3 1.9-1.3 3.1 0 1.2.4 2.1 1.3 3.1.8.8 1.9 1.3 3.1 1.3 1.2 0 2.1-.4 3.1-1.3.9-.8 1.3-1.9 1.3-3.1zm-12.7 10.2c.8-2.9 3.7-4.2 3.7-4.2.4-.2 1-.2 1.5-.2 1.7 0 2.9.8 3.7 1.9l1.9 3.5c1 1.5 2.3 2.9 4 3.9 1.7 1 3.5 1.3 5.4 1.3v4.2c-4.8 0-8.9-1.9-11.7-5.6l-1.3 6.5 4.4 4.4v16.4h-4.2v-13.1s-7.5-2.1-8.5-3.7c-1.2-1.4.3-12.4 1.1-15.3zm67.8 33.3c-.6 0-1.2-.4-1.2-1.2V278c0-.6.4-1.2 1.2-1.2.8 0 1.2.4 1.2 1.2v18.7c-.3.6-.6 1.1-1.2 1.1zm-38.9 0c-.6 0-1.2-.4-1.2-1.2V278c0-.6.4-1.2 1.2-1.2.8 0 1.2.4 1.2 1.2v18.7c-.3.6-.6 1.1-1.2 1.1zm50.6-43.5c0-1.2.4-2.1 1.3-3.1.8-.8 1.9-1.3 3.1-1.3s2.1.4 3.1 1.3c.8.8 1.3 1.9 1.3 3.1 0 1.2-.4 2.1-1.3 3.1-.8.8-1.9 1.3-3.1 1.3s-2.1-.4-3.1-1.3c-.7-.8-1.3-1.9-1.3-3.1zm12.7 10.2c-.8-2.9-3.7-4.2-3.7-4.2-.4-.2-1-.2-1.5-.2-1.7 0-2.9.8-3.7 1.9l-1.9 3.5c-1 1.5-2.3 2.9-4 3.9-1.7 1-3.5 1.3-5.4 1.3v4.2c4.8 0 8.9-1.9 11.7-5.6l1.3 6.5-4.4 4.4v16.4h4.2v-13.1s7.5-2.1 8.5-3.7c1.2-1.4-.1-12.4-1.1-15.3zm-1.3 22.9h2.1v4.2H564z"/><path class="st3" d="M562.5 294.4l2.5-2.5 2.5 2.5h3.1l-4.8-4.8c-.4-.4-1.2-.4-1.3 0l-4.8 4.8h2.8z"/><path class="st3" d="M559.2 294.4c0-1 .8-1.9 1.9-1.9 1 0 1.9.8 1.9 1.9 0 1-.8 1.9-1.9 1.9-1-.2-1.9-1-1.9-1.9zm7.9 0c0-1 .8-1.9 1.9-1.9 1 0 1.9.8 1.9 1.9 0 1-.8 1.9-1.9 1.9-1-.2-1.9-1-1.9-1.9zm6.1-12.6c-.4 0-.8 0-1.2-.2-1-.2-1.9-1-2.3-1.9-.4-.8-.6-1.9-.2-2.9l3.1-9.6c.8-1.9 2.9-3.1 4.8-2.5 1 .2 1.9 1 2.3 1.9.4.8.6 1.9.2 2.9l-3.1 9.6c-.5 1.6-2 2.7-3.6 2.7zm-.5-2.3c.8.2 1.9-.2 2.1-1l3.1-9.6c.2-.4.2-.8-.2-1.3-.2-.4-.6-.8-1-.8-.8-.2-1.9.2-2.1 1l-3.1 9.6c-.2.4-.2.8.2 1.3.2.5.4.8 1 .8z"/><path class="st3" d="M569 287.4h-10.2c-2.1 0-3.9-1.3-3.9-3.1v-.8c0-1.7 1.7-3.1 3.9-3.1H569c2.1 0 3.9 1.3 3.9 3.1v.8c-.1 1.8-1.8 3.1-3.9 3.1zm-10.4-4.4c-1 0-1.7.6-1.7.8v.8c0 .2.8.8 1.7.8h10.2c1 0 1.7-.6 1.7-.8v-.8c0-.2-.8-.8-1.7-.8h-10.2zm98.8-97.2l-10.2 1.5 5.8-10.8z"/><path class="st3" d="M643.9 244.5c-.2 0-.8-.2-.8-.4l-37.5-53.9c-.2-.2-.2-.6-.2-.8 0-.2.2-.6.6-.8l28.9-16.2c.2-.2.8-.2 1 0l16.2 8.9c.6.2.8 1 .4 1.3-.2.6-1 .8-1.3.4l-15.8-8.3-27.5 15.3 37 53c.2.4.2 1.2-.2 1.3-.4 0-.6.2-.8.2zm-47.2-88.8h6.5v164.4h-6.5zm69.2 104.2c-.2.2-.2.2-.4.2h-.2c-.2 0-.2 0-.6-.2-.2-.2-.2-.2-.2-.6 0-.2 0-.4.2-.8 3.1-4.4 4-10 2.3-15.4-1.9-6.4-7.3-10.8-14.1-11.7-.2 0-.4-.2-.6-.2-.2-.2-.2-.4-.2-.8 0-.2.2-.4.2-.6.2-.2.4-.2.8-.2 7.1 1 13.1 6 15.4 12.9 1.8 6.2 1 12.4-2.6 17.4z"/><path class="st3" d="M662.6 257.2c-.2.2-.2.2-.4.2h-.2s-.2 0-.6-.2c-.2-.2-.2-.2-.2-.6 0-.2 0-.4.2-.8 2.3-3.5 3.1-7.7 1.7-11.6-1.5-4.8-5.6-8.3-10.6-8.9-.4 0-.8-.6-.8-1 0-.2.2-.4.2-.6.2-.2.4-.2.8-.2 5.6.8 10.2 4.8 11.9 10.2 1.4 4.8.7 9.7-2 13.5z"/><path class="st3" d="M659.3 254.5c-.2.2-.2.2-.4.2h-.2c-.2 0-.2 0-.4-.2-.4-.2-.6-.8-.2-1.3 1.5-2.3 1.9-5 1-7.7-1-3.3-3.9-5.6-7.1-6-.2 0-.4-.2-.6-.2-.2-.2-.2-.4-.2-.8.2-.4.6-.8 1-.8 4 .6 7.3 3.5 8.7 7.3.7 3.3.1 6.8-1.6 9.5zm-10.8-2.9c-.8-.8-1.9-1.3-3.1-1.3-1.2 0-2.1.4-3.1 1.3-.8.8-1.3 1.9-1.3 3.1s.4 2.1 1.3 3.1c.8.8 1.9 1.3 3.1 1.3 1.2 0 2.1-.4 3.1-1.3.8-.8 1.3-1.9 1.3-3.1s-.3-2.1-1.3-3.1zm9.1 19.3c-1 0-1.9-.2-2.9-.4l-3.7 3.3c.8.2 1.3.6 2.3.8 1.3.4 2.7.6 4.2.6v-4.3h.1zM644.1 283h-3.3c1.9.8 3.7 1.2 3.7 1.2v1.2c.8 0 1.3-.6 1.3-.8v-.8c0-.4-.5-.8-1.7-.8z"/><path class="st3" d="M652 269.5c.8.4 1.7.8 2.5 1.2l-3.7 3.3c-1.9-.8-3.7-2.3-5.4-4.2l-1.3 6.5 4.4 4.4v16.4h-4.2v-9.6c1.9-.2 3.7-1.3 3.7-2.9v-.8c0-1.7-1.7-2.9-3.9-2.9h-7.7l-.4-.4c-1-1.5.4-12.7 1.2-15.6s3.7-4.2 3.7-4.2c.4-.2 1-.2 1.5-.2 1.7 0 2.9.8 3.7 1.9l.8 1.3c1.2 0 2.3 0 3.7-.2 1.9-.4 3.5-1.3 4.8-2.9l3.1 3.1c-2.5 2.5-5.4 3.9-8.5 4.2.5.7 1.2 1.2 2 1.6z"/><path class="st3" d="M644.1 280.7h-10.2c-.8 0-1.3.2-1.9.2.4-.2.8-.8 1.2-1.3.4-.8.6-1.9.2-2.9l-3.1-9.6c-.8-1.9-2.9-3.1-4.8-2.5-1 .2-1.9 1-2.3 1.9-.4.8-.6 1.9-.2 2.9l3.1 9.6c.6 1.5 1.9 2.5 3.7 2.5.4 0 .8 0 1.2-.2.2 0 .2-.2.2-.2-.8.6-1.2 1.3-1.2 2.1v.8c0 1.7 1.7 3.1 3.9 3.1h10.4c1.9-.2 3.7-1.3 3.7-2.9v-.8c-.1-1.4-1.8-2.7-3.9-2.7zm-12.9-1.9c-.2.4-.6.8-1 .8-.8.2-1.9-.2-2.1-1L625 269c-.2-.4-.2-.8.2-1.3.2-.4.6-.8 1-.8.2 0 .2-.2.6-.2.8 0 1.3.4 1.5 1.2l3.1 9.6c0 .3 0 .9-.2 1.3zm12.9 6.5h-10.2c-1.2 0-1.7-.6-1.7-.8v-1c0-.2.6-.8 1.7-.8h10.2c1 0 1.7.4 1.7.8v.8c0 .2-.6.8-1.3.8 0 .2-.2.2-.4.2zm-7.3 2.1h2.1v4.2h-2.1z"/><path class="st3" d="M640.4 294.4l-2.5-2.5-2.5 2.5h-3.1l4.8-4.8c.4-.4 1.2-.4 1.3 0l4.8 4.8h-2.8z"/><path class="st3" d="M643.7 294.4c0-1-.8-1.9-1.9-1.9s-1.9.8-1.9 1.9c0 1 .8 1.9 1.9 1.9.9-.2 1.9-1 1.9-1.9zm-8.1 0c0-1-.8-1.9-1.9-1.9s-1.9.8-1.9 1.9c0 1 .8 1.9 1.9 1.9s1.9-1 1.9-1.9zm70.7-16.2v18.7c0 .6-.4 1.2-1.2 1.2-.6 0-1.2-.4-1.2-1.2v-18.7c0-.6.4-1.2 1.2-1.2.8 0 1.2.6 1.2 1.2zm-38.9 0v18.7c0 .6-.4 1.2-1.2 1.2-.6 0-1.2-.4-1.2-1.2v-18.7c0-.6.4-1.2 1.2-1.2s1.2.6 1.2 1.2zm63.5 1.9c-.2.2-.2.4-.8.6-.6.2-1.3.8-1.9 1.2-.8.4-1.9.8-2.7 1.2-1.5.6-3.1 1-3.1 1v13.1h-4.2v-16.6l1.7-1.7h5.4c.4 0 .8-.2 1-.8.2-.4 0-.8-.4-1.2l-3.7-2.5-1-4.8c-.8.8-1.5 1.7-2.5 2.5-.6.4-1.3.8-1.9 1.3-2.1 1.3-4.8 1.9-7.5 1.9v-4.2c1.2 0 2.3-.2 3.3-.6.8-.2 1.3-.6 2.1-1 0 0 .2 0 .2-.2 1.5-1 2.9-2.3 3.9-3.9l1.9-3.5c.8-1.3 1.9-1.9 3.7-1.9.6 0 1.2.2 1.5.2 0 0 2.7 1.3 3.7 4.2s2.5 14 1.3 15.7zm-13.8-25.8c0-1.2.4-2.1 1.3-3.1.8-.8 1.9-1.3 3.1-1.3 1.2 0 2.1.4 3.1 1.3.8.8 1.3 1.9 1.3 3.1 0 1.2-.4 2.1-1.3 3.1-.8.8-1.9 1.3-3.1 1.3-1.2 0-2.1-.4-3.1-1.3-.9-.8-1.3-1.9-1.3-3.1zm20.4 27.5c-.4 0-.8 0-1.2-.2-1-.2-1.9-1-2.3-1.9-.4-.8-.6-1.9-.2-2.9l3.1-9.6c.8-1.9 2.9-3.1 4.8-2.5 1 .2 1.9 1 2.3 1.9.4.8.6 1.9.2 2.9l-3.1 9.6c-.5 1.6-1.9 2.7-3.6 2.7zm3.1-15c-.8 0-1.3.4-1.5 1.2l-3.1 9.6c-.2.4-.2.8.2 1.3.2.4.6.8 1 .8.8.2 1.9-.2 2.1-1l3.1-9.6c.2-.4.2-.8-.2-1.3-.2-.4-.6-.8-1-1h-.6z"/><path class="st3" d="M733.3 287.4H723c-2.1 0-3.9-1.3-3.9-3.1v-.8c0-1.7 1.7-3.1 3.9-3.1h10.2c2.1 0 3.9 1.3 3.9 3.1v.8c0 1.8-1.7 3.1-3.8 3.1zM723 283c-1 0-1.7.6-1.7.8v.8c0 .2.8.8 1.7.8h10.2c1 0 1.7-.6 1.7-.8v-.8c-.2-.4-.8-.8-1.7-.8H723zm5.2 4.4h2.1v4.2h-2.1z"/><path class="st3" d="M726.7 294.4l2.5-2.5 2.5 2.5h3.1l-4.8-4.8c-.4-.4-1.2-.4-1.3 0l-4.8 4.8h2.8z"/><path class="st3" d="M723.6 294.4c0-1 .8-1.9 1.9-1.9s1.9.8 1.9 1.9c0 1-.8 1.9-1.9 1.9-1.3-.2-1.9-1-1.9-1.9zm7.9 0c0-1 .8-1.9 1.9-1.9 1.2 0 1.9.8 1.9 1.9 0 1-.8 1.9-1.9 1.9-1.1-.2-1.9-1-1.9-1.9zm31.2 226.4H437.3c-1.2 0-2.1-1-2.1-2.1v-166c0-1.2 1-2.1 2.1-2.1h325.4c1.2 0 2.1 1 2.1 2.1v166c0 1.3-.9 2.1-2.1 2.1zm-323.1-4.2h321V354.8h-321v161.8z"/><path class="st3" d="M466.6 368.5h2.1v18.7h-2.1zm46.4 0h2.1v18.7H513zm68.5 0h2.1v18.7h-2.1z"/><path class="st3" d="M520.7 370.2h-13.9v-6.1h-9.4v6.1h-13.9l.2-6.1h-9.4v6.1h-13.9v-6.1H451v6.1h-13.9v-7.1h2.1v4.8h9.6V362h13.7v5.9h9.6V362h13.7l-.2 5.9h9.6V362h13.9v5.9h9.4v-4.8h2.2z"/><path class="st3" d="M590.4 370.2h-13.9v-6.1h-9.4v6.1h-13.9v-6.1H544v6.1h-13.9v-6.1h-9.6v6.1h-13.7v-7.1h2.1v4.8h9.5V362h13.8v5.9h9.5V362h13.8l-.2 5.9h9.7V362h13.6v5.9h9.7v-4.8h2.1z"/><path class="st3" d="M659.5 370.2h-13.9v-6.1h-9.2v6.1h-14.1l.2-6.1h-9.4v6.1h-13.9v-6.1h-9.4v6.1h-13.9v-7.1h2.1v4.8h9.7V362h13.6v5.9h9.7V362h13.6l-.1 5.9h9.6V362h13.8v5.9h9.5v-4.8h2.1z"/><path class="st3" d="M728.8 370.2H715v-6.1h-9.5v6.1h-14l.2-6.1h-9.3v6.1h-13.8v-6.1h-9.7v6.1h-13.8v-7.1h2.3v4.8h9.4V362h13.9v5.9h9.4V362h13.7v5.9h9.6V362h13.7v5.9h9.4v-4.8h2.3z"/><path class="st3" d="M751.5 370.2h-13.8v-6.1h-9.5v6.1h-13.8v-7.1h2.1v4.8h9.4V362h13.9v5.9h9.6V362h12.5v2.1h-10.4zm-99.9-1.7h2.1v18.7h-2.1z"/><path class="st3" d="M720.9 368.5h2.1v18.7h-2.1zm-70.8 43.7c-.2 0-.6-.2-.8-.2l-43.9-40.6-44.5 32.7c-.4.2-1.2.2-1.3-.2-.2-.6-.2-1.2.2-1.3l45.1-33.3c.4-.2 1-.2 1.3.2l44.5 41.2c.4.4.4 1.2 0 1.5-.1-.2-.4 0-.6 0z"/><path class="st3" d="M555.3 408.7l1-11.1 10.2 10zM761 393H438.4v-7.1H761v7.1zm-320.4-2.2h318.3v-2.7H440.6v2.7z"/><path class="st3" d="M596.7 391.6h6.5v125.6h-6.5zm-110.9 51.8c0-1.2-.4-2.1-1.3-3.1-.8-.8-1.9-1.3-3.1-1.3-1.2 0-2.1.4-3.1 1.3-.8.8-1.3 1.9-1.3 3.1s.4 2.1 1.3 3.1c1 1 1.9 1.3 3.1 1.3 1.2 0 2.1-.4 3.1-1.3.9-1 1.3-1.9 1.3-3.1m-12.7 10c.8-2.9 3.7-4.2 3.7-4.2.4-.2 1-.2 1.5-.2 1.7 0 2.9.8 3.7 1.9l1.9 3.5c1 1.5 2.3 2.9 4 3.9s3.5 1.3 5.4 1.3v4.2c-4.8 0-8.9-1.9-11.7-5.6l-1.3 6.5 4.4 4.4v16.4h-4.2v-13.1s-7.5-2.1-8.5-3.7c-1.2-1.2.3-12.4 1.1-15.3m79.5-10c0-1.2.4-2.1 1.3-3.1.8-.8 1.9-1.3 3.1-1.3s2.1.4 3.1 1.3c.8.8 1.3 1.9 1.3 3.1s-.4 2.1-1.3 3.1c-.8.8-1.9 1.3-3.1 1.3s-2.1-.4-3.1-1.3c-.7-1-1.3-1.9-1.3-3.1m12.7 10c-.8-2.9-3.7-4.2-3.7-4.2-.4-.2-1-.2-1.5-.2-1.7 0-2.9.8-3.7 1.9l-1.9 3.5c-1 1.5-2.3 2.9-4 3.9-1.7 1-3.5 1.3-5.4 1.3v4.2c4.8 0 8.9-1.9 11.7-5.6l1.3 6.5-4.4 4.4v16.4h4.2v-13.1s7.5-2.1 8.5-3.7c1.2-1.2-.1-12.4-1.1-15.3m151.8-10c0-1.2.4-2.1 1.3-3.1.8-.8 1.9-1.3 3.1-1.3 1.2 0 2.1.4 3.1 1.3 1 1 1.3 1.9 1.3 3.1s-.4 2.1-1.3 3.1c-.8.8-1.9 1.3-3.1 1.3-1.2 0-2.1-.4-3.1-1.3-.9-1-1.3-1.9-1.3-3.1m12.7 10c-.8-2.9-3.7-4.2-3.7-4.2-.4-.2-1-.2-1.5-.2-1.7 0-2.9.8-3.7 1.9l-1.9 3.5c-1 1.5-2.3 2.9-4 3.9-1.7 1-3.5 1.3-5.4 1.3v4.2c4.8 0 8.9-1.9 11.7-5.6l1.3 6.5-4.4 4.4v16.4h4.2v-13.1s7.5-2.1 8.5-3.7c1.2-1.2-.3-12.4-1.1-15.3m-92.8.4c.8-2.9 3.7-4.2 3.7-4.2.4-.2 1-.2 1.5-.2 1.7 0 2.9.8 3.7 1.9l1.9 3.5c1 1.5 2.3 2.9 4 3.9 1.7 1 3.5 1.3 5.4 1.3v4.2c-4.8 0-8.9-1.9-11.7-5.6l-1.3 6.5 4.4 4.4V486h-4.2v-12.9s-7.5-2.1-8.5-3.7c-1-1.5.5-12.7 1.1-15.6m12.9-10.2c0-1.2-.4-2.1-1.3-3.1-.8-.8-1.9-1.3-3.1-1.3-1.2 0-2.1.4-3.1 1.3-.8.8-1.3 1.9-1.3 3.1 0 1.2.4 2.1 1.3 3.1.8.8 1.9 1.3 3.1 1.3 1.2 0 2.1-.4 3.1-1.3.9-.8 1.3-1.9 1.3-3.1"/><path class="st3" d="M644.7 452.3c1.9.4 3.7.4 5.6-.2 1.9-.4 3.5-1.3 4.8-2.9l3.1 3.1c-3.5 3.5-7.5 4.8-12.3 4.4m-180.5 14.1c-1.5 0-3.1-1-3.7-2.5l-3.1-9.6c-.2-1-.2-1.9.2-2.9.4-.8 1.3-1.5 2.3-1.9 1.9-.6 4.2.4 4.8 2.5l3.1 9.6c.2 1 .2 1.9-.2 2.9-.4.8-1.3 1.5-2.3 1.9h-1.1zm-3.3-15.1c-.2 0-.2 0-.6.2-.4.2-.8.4-1 .8-.2.4-.2.8-.2 1.3l3.1 9.6c.2.8 1.3 1.3 2.1 1 .4-.2.8-.4 1-.8.2-.4.2-.8.2-1.3l-3.1-9.6c.1-.6-.7-1.2-1.5-1.2z"/><path class="st3" d="M479.8 476.3h-10.2c-2.1 0-3.9-1.3-3.9-3.1v-.8c0-1.7 1.7-3.1 3.9-3.1h10.2c2.1 0 3.9 1.3 3.9 3.1v.8c0 2-1.7 3.1-3.9 3.1zm-10.4-4.4c-1 0-1.7.6-1.7.8v.8c0 .2.8.8 1.7.8h10.2c1 0 1.7-.6 1.7-.8v-.8c0-.2-.8-.8-1.7-.8h-10.2zm91.3-4h-76.8c-.4 0-.8-.2-1-.8-.2-.4 0-.8.2-1.2l11.7-10.4c.2-.2.4-.2.8-.2h50.3c.2 0 .4 0 .6.2l14.6 10.4c.4.2.6.8.4 1.2.2.4-.2.8-.8.8zm-73.9-2.3h70.7l-11.7-8.3H496l-9.2 8.3zm-10.6 17.9l-2.5-2.5-2.5 2.5h-3.1l4.8-4.8c.4-.4 1.2-.4 1.3 0l4.8 4.8h-2.8z"/><path class="st3" d="M479.3 483.3c0-1-.8-1.9-1.9-1.9-1 0-1.9.8-1.9 1.9 0 1.2.8 1.9 1.9 1.9s1.9-.8 1.9-1.9m-8.1 0c0-1-.8-1.9-1.9-1.9-1 0-1.9.8-1.9 1.9 0 1.2.8 1.9 1.9 1.9 1.3 0 1.9-.8 1.9-1.9m1.1-7h2.1v4.2h-2.1zm68.6 10.6c-.6 0-1.2-.4-1.2-1.2V467c0-.6.4-1.2 1.2-1.2.8 0 1.2.4 1.2 1.2v18.7c-.3.7-.6 1.2-1.2 1.2zm-38.9 0c-.6 0-1.2-.4-1.2-1.2V467c0-.6.4-1.2 1.2-1.2.8 0 1.2.4 1.2 1.2v18.7c-.3.7-.6 1.2-1.2 1.2zm71.2-16.1c-.4 0-.8 0-1.2-.2-1-.2-1.9-1-2.3-1.9-.4-.8-.6-1.9-.2-2.9l3.1-9.6c.8-1.9 2.9-3.1 4.8-2.5 1 .2 1.9 1 2.3 1.9.4.8.6 1.9.2 2.9l-3.1 9.6c-.5 1.7-2 2.7-3.6 2.7zm2.9-15.1c-.8 0-1.3.4-1.5 1.2l-3.1 9.6c-.2.4-.2.8.2 1.3.2.4.6.8 1 .8.8.2 1.9-.2 2.1-1l3.1-9.6c.2-.4.2-.8-.2-1.3-.2-.4-.6-.8-1-.8 0-.2-.2-.2-.6-.2z"/><path class="st3" d="M569 476.3h-10.2c-2.1 0-3.9-1.3-3.9-3.1v-.8c0-1.7 1.7-3.1 3.9-3.1H569c2.1 0 3.9 1.3 3.9 3.1v.8c-.1 2-1.8 3.1-3.9 3.1zm-10.4-4.4c-1 0-1.7.6-1.7.8v.8c0 .2.8.8 1.7.8h10.2c1 0 1.7-.6 1.7-.8v-.8c0-.2-.8-.8-1.7-.8h-10.2zm5.4 4.4h2.1v4.2H564z"/><path class="st3" d="M562.5 483.5l2.5-2.5 2.5 2.5h3.1l-4.8-4.8c-.4-.4-1.2-.4-1.3 0l-4.8 4.8h2.8z"/><path class="st3" d="M559.2 483.3c0-1 .8-1.9 1.9-1.9 1 0 1.9.8 1.9 1.9 0 1.2-.8 1.9-1.9 1.9-1 0-1.9-.8-1.9-1.9m7.9 0c0-1 .8-1.9 1.9-1.9 1 0 1.9.8 1.9 1.9 0 1.2-.8 1.9-1.9 1.9-1 0-1.9-.8-1.9-1.9m62.6-12.5c-1.5 0-3.1-1-3.7-2.5l-3.1-9.6c-.2-1-.2-1.9.2-2.9.4-.8 1.3-1.5 2.3-1.9 1.9-.6 4.2.4 4.8 2.5l3.1 9.6c.2 1 .2 1.9-.2 2.9-.4.8-1.3 1.5-2.3 1.9h-1.1zm-3.1-15.1c-.2 0-.2 0-.6.2-.4.2-.8.4-1 .8-.2.4-.2.8-.2 1.3l3.1 9.6c.2.8 1.3 1.3 2.1 1 .4-.2.8-.4 1-.8.2-.4.2-.8.2-1.3l-3.1-9.6c-.2-.6-.8-1.2-1.5-1.2z"/><path class="st3" d="M644.1 476.3h-10.2c-2.1 0-3.9-1.3-3.9-3.1v-.8c0-1.7 1.7-3.1 3.9-3.1h10.2c2.1 0 3.9 1.3 3.9 3.1v.8c-.1 2-1.8 3.1-3.9 3.1zm-10.2-4.4c-1 0-1.7.6-1.7.8v.8c0 .2.8.8 1.7.8h10.2c1 0 1.7-.6 1.7-.8v-.8c0-.2-.8-.8-1.7-.8h-10.2zm2.9 4.4h2.1v4.2h-2.1z"/><path class="st3" d="M640.4 483.5l-2.5-2.5-2.5 2.5h-3.1l4.8-4.8c.4-.4 1.2-.4 1.3 0l4.8 4.8h-2.8z"/><path class="st3" d="M643.7 483.3c0-1-.8-1.9-1.9-1.9s-1.9.8-1.9 1.9c0 1.2.8 1.9 1.9 1.9.9 0 1.9-.8 1.9-1.9m-8.1 0c0-1-.8-1.9-1.9-1.9s-1.9.8-1.9 1.9c0 1.2.8 1.9 1.9 1.9 1 0 1.9-.8 1.9-1.9m89.6-15.4h-77c-.4 0-.8-.2-1-.8-.2-.4 0-.8.2-1.2l11.7-10.4c.2-.2.4-.2.8-.2h50.5c.2 0 .4 0 .6.2l14.6 10.4c.4.2.6.8.4 1.2-.1.4-.4.8-.8.8zm-74.2-2.3h70.7l-11.7-8.3h-49.7l-9.3 8.3z"/><path class="st3" d="M705.1 486.9c-.6 0-1.2-.4-1.2-1.2V467c0-.6.4-1.2 1.2-1.2s1.2.4 1.2 1.2v18.7c0 .7-.6 1.2-1.2 1.2zm-38.9 0c-.6 0-1.2-.4-1.2-1.2V467c0-.6.4-1.2 1.2-1.2s1.2.4 1.2 1.2v18.7c0 .7-.6 1.2-1.2 1.2zm-.7-38.1c-.2 0-.2 0-.6-.2-.2-.2-.2-.6-.2-.8 3.3-4.6 4.2-10.2 2.5-15.6-1.9-6.4-7.5-11-14.1-11.9-.2 0-.6-.2-.4-.8 0-.2.2-.6.8-.4 7.1 1 12.9 6 15.2 12.9 1.9 5.6.8 11.7-2.5 16.8h-.7"/><path class="st3" d="M665.9 448.8c-.2.2-.2.2-.4.2h-.2c-.2 0-.4 0-.6-.2-.2-.2-.2-.2-.2-.6 0-.2 0-.4.2-.8 3.1-4.4 4-10 2.3-15.4-1.9-6.4-7.3-10.8-14.1-11.7-.2 0-.4-.2-.6-.2-.2-.2-.2-.4-.2-.8 0-.2.2-.4.2-.6.2-.2.4-.2.8-.2 7.1 1 13.1 6 15.4 12.9 1.8 6.4 1 12.4-2.6 17.4z"/><path class="st3" d="M664.5 433c-1.7-5.4-6.4-9.4-11.9-10.2-.2 0-.4 0-.8.2-.2.2-.2.2-.2.6 0 .4.2 1 .8 1 5 .8 9.1 4.2 10.6 8.9 1.3 3.9.8 8.3-1.7 11.6-.2.2-.2.4-.2.8 0 .2.2.4.4.6.2.2.2.2.6.2h.2s.2-.2.4-.2c2.6-4.1 3.3-9.1 1.8-13.5z"/><path class="st3" d="M660.5 434.2c-1.3-3.9-4.6-6.7-8.7-7.3-.4 0-1 .2-1 .8 0 .2 0 .4.2.8.2.2.2.2.6.2 3.5.4 6.2 2.9 7.1 6 .8 2.5.4 5.4-1 7.7-.2.4-.2 1 .2 1.3.2.2.2.2.4.2h.2c.2 0 .2-.2.4-.2 2.1-2.8 2.7-6.3 1.6-9.5zm77 36.6c-.4 0-.8 0-1.2-.2-1-.2-1.9-1-2.3-1.9-.4-.8-.6-1.9-.2-2.9l3.1-9.6c.8-1.9 2.9-3.1 4.8-2.5 1 .2 1.9 1 2.3 1.9.4.8.6 1.9.2 2.9l-3.1 9.6c-.5 1.7-1.9 2.7-3.6 2.7zm3.1-15.1c-.8 0-1.3.4-1.5 1.2l-3.1 9.6c-.2.4-.2.8.2 1.3.2.4.6.8 1 .8.8.2 1.9-.2 2.1-1l3.1-9.6c.2-.4.2-.8-.2-1.3-.2-.4-.6-.8-1-.8-.2-.2-.4-.2-.6-.2z"/><path class="st3" d="M733.3 476.3H723c-2.1 0-3.9-1.3-3.9-3.1v-.8c0-1.7 1.7-3.1 3.9-3.1h10.2c2.1 0 3.9 1.3 3.9 3.1v.8c0 2-1.7 3.1-3.8 3.1zm-10.3-4.4c-1 0-1.7.6-1.7.8v.8c0 .2.8.8 1.7.8h10.2c1 0 1.7-.6 1.7-.8v-.8c0-.2-.8-.8-1.7-.8H723zm5.2 4.4h2.1v4.2h-2.1z"/><path class="st3" d="M726.7 483.5l2.5-2.5 2.5 2.5h3.1l-4.8-4.8c-.4-.4-1.2-.4-1.3 0l-4.8 4.8h2.8z"/><path class="st3" d="M723.6 483.3c0-1 .8-1.9 1.9-1.9s1.9.8 1.9 1.9c0 1.2-.8 1.9-1.9 1.9-1.3 0-1.9-.8-1.9-1.9m7.9 0c0-1 .8-1.9 1.9-1.9 1.2 0 1.9.8 1.9 1.9 0 1.2-.8 1.9-1.9 1.9-1.1 0-1.9-.8-1.9-1.9"/><path class="st0" d="M0 0h1200v675H0z"/></svg>