<?xml version="1.0" encoding="utf-8"?>
<!-- Generator: Adobe Illustrator 22.0.1, SVG Export Plug-In . SVG Version: 6.00 Build 0)  -->
<!DOCTYPE svg PUBLIC "-//W3C//DTD SVG 1.1//EN" "http://www.w3.org/Graphics/SVG/1.1/DTD/svg11.dtd">
<svg version="1.1" id="Layer_1" xmlns="http://www.w3.org/2000/svg" xmlns:xlink="http://www.w3.org/1999/xlink" x="0px" y="0px"
	 viewBox="0 0 185.4 81.1" style="enable-background:new 0 0 185.4 81.1;" xml:space="preserve">
<style type="text/css">
	.st0{clip-path:url(#SVGID_2_);}
	.st1{fill:#005F30;}
	.st2{fill:#89CB9C;}
	.st3{clip-path:url(#SVGID_4_);}
	
		.st4{clip-path:url(#SVGID_4_);fill:none;stroke:#005F30;stroke-width:3.814;stroke-linecap:round;stroke-linejoin:round;stroke-miterlimit:10;}
	
		.st5{clip-path:url(#SVGID_4_);fill:none;stroke:#89CB9C;stroke-width:3.814;stroke-linecap:round;stroke-linejoin:round;stroke-miterlimit:10;}
</style>
<g>
	<defs>
		<rect id="SVGID_1_" width="185.4" height="81.1"/>
	</defs>
	<clipPath id="SVGID_2_">
		<use xlink:href="#SVGID_1_"  style="overflow:visible;"/>
	</clipPath>
	<g class="st0">
		<path class="st1" d="M65.2,22.9l0-13.3l2.7,0l0,5.3l5.3,0l0-5.3l2.7,0l0,13.3l-2.7,0l0-5.8l-5.3,0l0,5.8L65.2,22.9z"/>
		<path class="st1" d="M84.1,22.9l0-1.4c-0.4,0.5-0.8,0.9-1.4,1.2c-0.6,0.3-1.2,0.4-1.8,0.4c-0.6,0-1.2-0.1-1.7-0.4
			c-0.5-0.3-0.9-0.7-1.1-1.2c-0.2-0.5-0.3-1.2-0.3-2.1l0-6.1l2.6,0l0,4.4c0,1.4,0,2.2,0.1,2.5c0.1,0.3,0.3,0.5,0.5,0.7
			c0.2,0.2,0.6,0.3,0.9,0.3c0.4,0,0.8-0.1,1.2-0.4c0.3-0.2,0.6-0.5,0.7-0.9c0.1-0.4,0.2-1.2,0.2-2.6l0-4.1l2.6,0l0,9.7L84.1,22.9z"
			/>
		<path class="st1" d="M96.9,22.9l-2.6,0l0-4.9c0-1-0.1-1.7-0.2-2c-0.1-0.3-0.3-0.5-0.5-0.7c-0.2-0.2-0.5-0.3-0.9-0.3
			c-0.4,0-0.8,0.1-1.2,0.4c-0.4,0.2-0.6,0.6-0.7,1s-0.2,1.1-0.2,2.2l0,4.4l-2.6,0l0-9.7l2.4,0l0,1.4c0.8-1.1,1.9-1.6,3.2-1.6
			c0.6,0,1.1,0.1,1.5,0.3c0.5,0.2,0.8,0.5,1.1,0.8c0.2,0.3,0.4,0.7,0.5,1.1c0.1,0.4,0.1,1,0.1,1.7L96.9,22.9z"/>
		<path class="st1" d="M100.4,16.2l-2.3-0.4c0.3-0.9,0.7-1.6,1.3-2.1c0.6-0.4,1.6-0.7,2.8-0.7c1.1,0,2,0.1,2.5,0.4s1,0.6,1.2,1
			c0.2,0.4,0.3,1.2,0.3,2.3l0,3c0,0.8,0,1.5,0.1,1.9c0.1,0.4,0.2,0.8,0.5,1.3l-2.5,0c-0.1-0.2-0.1-0.4-0.2-0.8
			c0-0.2-0.1-0.3-0.1-0.3c-0.4,0.4-0.9,0.7-1.4,1c-0.5,0.2-1,0.3-1.6,0.3c-1,0-1.8-0.3-2.4-0.8c-0.6-0.5-0.9-1.2-0.9-2
			c0-0.5,0.1-1,0.4-1.5c0.3-0.4,0.6-0.8,1.1-1c0.5-0.2,1.1-0.4,2-0.6c1.2-0.2,2-0.4,2.5-0.6v-0.3c0-0.5-0.1-0.8-0.4-1.1
			c-0.2-0.2-0.7-0.3-1.4-0.3c-0.5,0-0.8,0.1-1.1,0.3C100.8,15.4,100.6,15.7,100.4,16.2z M103.9,18.3c-0.3,0.1-0.8,0.2-1.6,0.4
			c-0.7,0.2-1.2,0.3-1.4,0.4c-0.3,0.2-0.5,0.5-0.5,0.9c0,0.4,0.1,0.7,0.4,0.9c0.3,0.3,0.6,0.4,1,0.4c0.5,0,0.9-0.2,1.3-0.5
			c0.3-0.2,0.5-0.5,0.6-0.8c0.1-0.2,0.1-0.6,0.1-1.2L103.9,18.3z"/>
		<path class="st1" d="M116.7,22.9l-2.6,0l0-4.9c0-1-0.1-1.7-0.2-2s-0.3-0.5-0.5-0.7s-0.5-0.3-0.9-0.3c-0.4,0-0.8,0.1-1.2,0.4
			c-0.4,0.2-0.6,0.6-0.7,1c-0.1,0.4-0.2,1.1-0.2,2.2l0,4.4l-2.6,0l0-9.7l2.4,0l0,1.4c0.8-1.1,1.9-1.6,3.2-1.6c0.6,0,1.1,0.1,1.5,0.3
			c0.5,0.2,0.8,0.5,1.1,0.8c0.2,0.3,0.4,0.7,0.5,1.1c0.1,0.4,0.1,1,0.1,1.7L116.7,22.9z"/>
		<path class="st1" d="M120.3,16.2l-2.3-0.4c0.3-0.9,0.7-1.6,1.3-2.1c0.6-0.4,1.6-0.7,2.8-0.7c1.1,0,2,0.1,2.5,0.4s1,0.6,1.2,1
			c0.2,0.4,0.3,1.2,0.3,2.3l0,3c0,0.8,0,1.5,0.1,1.9c0.1,0.4,0.2,0.8,0.5,1.3l-2.5,0c-0.1-0.2-0.1-0.4-0.2-0.8
			c0-0.2-0.1-0.3-0.1-0.3c-0.4,0.4-0.9,0.7-1.4,1c-0.5,0.2-1,0.3-1.6,0.3c-1,0-1.8-0.3-2.4-0.8c-0.6-0.5-0.9-1.2-0.9-2
			c0-0.5,0.1-1,0.4-1.5c0.3-0.4,0.6-0.8,1.1-1c0.5-0.2,1.1-0.4,2-0.6c1.2-0.2,2-0.4,2.5-0.6v-0.3c0-0.5-0.1-0.8-0.4-1.1
			c-0.2-0.2-0.7-0.3-1.4-0.3c-0.5,0-0.8,0.1-1.1,0.3S120.5,15.7,120.3,16.2z M123.7,18.3c-0.3,0.1-0.8,0.2-1.6,0.4
			c-0.7,0.2-1.2,0.3-1.4,0.4c-0.3,0.2-0.5,0.5-0.5,0.9c0,0.4,0.1,0.7,0.4,0.9c0.3,0.3,0.6,0.4,1,0.4c0.5,0,0.9-0.2,1.3-0.5
			c0.3-0.2,0.5-0.5,0.6-0.8c0.1-0.2,0.1-0.6,0.1-1.2V18.3z"/>
		<path class="st1" d="M136.7,22.9l-2.4,0l0-1.4c-0.4,0.6-0.9,1-1.4,1.2c-0.5,0.3-1.1,0.4-1.6,0.4c-1.1,0-2.1-0.4-2.9-1.3
			c-0.8-0.9-1.2-2.1-1.2-3.7c0-1.6,0.4-2.9,1.2-3.7c0.8-0.9,1.7-1.3,2.9-1.3c1.1,0,2,0.5,2.8,1.3l0-4.8l2.6,0L136.7,22.9z
			 M129.9,17.9c0,1,0.1,1.8,0.4,2.2c0.4,0.7,1,1,1.7,1c0.6,0,1.1-0.3,1.5-0.8c0.4-0.5,0.6-1.2,0.6-2.2c0-1.1-0.2-1.9-0.6-2.4
			c-0.4-0.5-0.9-0.7-1.5-0.7c-0.6,0-1.1,0.2-1.5,0.7C130.1,16.2,129.9,16.9,129.9,17.9z"/>
		<path class="st1" d="M144,19.8l2.5,0.4c-0.3,0.9-0.8,1.6-1.6,2.1c-0.7,0.5-1.6,0.7-2.7,0.7c-1.7,0-2.9-0.6-3.7-1.6
			c-0.6-0.9-1-2-1-3.3c0-1.6,0.4-2.9,1.3-3.8c0.8-0.9,1.9-1.4,3.2-1.4c1.4,0,2.6,0.5,3.4,1.4s1.2,2.4,1.2,4.4l-6.4,0
			c0,0.8,0.2,1.3,0.6,1.8c0.4,0.4,0.9,0.6,1.5,0.6c0.4,0,0.7-0.1,1-0.3C143.7,20.7,143.9,20.3,144,19.8z M144.2,17.3
			c0-0.7-0.2-1.3-0.6-1.7c-0.4-0.4-0.8-0.6-1.3-0.6c-0.6,0-1,0.2-1.4,0.6c-0.4,0.4-0.5,1-0.5,1.7L144.2,17.3z"/>
		<path class="st1" d="M147.8,22.9l0-9.7l2.6,0l0,9.7L147.8,22.9z M147.8,11.9l0-2.4l2.6,0l0,2.4L147.8,11.9z"/>
		<path class="st1" d="M152,22.9l0-13.3l2.6,0l0,13.3L152,22.9z"/>
		<path class="st1" d="M158.2,16.2l-2.3-0.4c0.3-0.9,0.7-1.6,1.3-2.1s1.6-0.7,2.8-0.7c1.1,0,2,0.1,2.5,0.4c0.6,0.3,1,0.6,1.2,1
			c0.2,0.4,0.3,1.2,0.3,2.3l0,3c0,0.8,0,1.5,0.1,1.9c0.1,0.4,0.2,0.8,0.5,1.3l-2.5,0c-0.1-0.2-0.1-0.4-0.2-0.8
			c0-0.2-0.1-0.3-0.1-0.3c-0.4,0.4-0.9,0.7-1.4,1s-1,0.3-1.6,0.3c-1,0-1.8-0.3-2.4-0.8c-0.6-0.5-0.9-1.2-0.9-2c0-0.5,0.1-1,0.4-1.5
			c0.3-0.4,0.6-0.8,1.1-1c0.5-0.2,1.1-0.4,2-0.6c1.2-0.2,2-0.4,2.5-0.6v-0.3c0-0.5-0.1-0.8-0.4-1.1c-0.2-0.2-0.7-0.3-1.4-0.3
			c-0.5,0-0.8,0.1-1.1,0.3C158.5,15.5,158.3,15.8,158.2,16.2z M161.6,18.3c-0.3,0.1-0.8,0.2-1.6,0.4c-0.7,0.2-1.2,0.3-1.4,0.4
			c-0.3,0.2-0.5,0.5-0.5,0.9c0,0.4,0.1,0.7,0.4,0.9c0.3,0.3,0.6,0.4,1,0.4c0.5,0,0.9-0.2,1.3-0.5c0.3-0.2,0.5-0.5,0.6-0.8
			c0.1-0.2,0.1-0.6,0.1-1.2L161.6,18.3z"/>
		<path class="st1" d="M174.5,22.9l-2.4,0l0-1.4c-0.4,0.6-0.9,1-1.4,1.2c-0.5,0.3-1.1,0.4-1.6,0.4c-1.1,0-2.1-0.4-2.9-1.3
			s-1.2-2.1-1.2-3.7c0-1.6,0.4-2.9,1.2-3.7c0.8-0.9,1.7-1.3,2.9-1.3c1.1,0,2,0.5,2.8,1.3l0-4.8l2.6,0L174.5,22.9z M167.7,17.9
			c0,1,0.1,1.8,0.4,2.2c0.4,0.7,1,1,1.7,1c0.6,0,1.1-0.3,1.5-0.8c0.4-0.5,0.6-1.2,0.6-2.2c0-1.1-0.2-1.9-0.6-2.4
			c-0.4-0.5-0.9-0.7-1.5-0.7c-0.6,0-1.1,0.2-1.5,0.7C167.9,16.2,167.7,16.9,167.7,17.9z"/>
		<path class="st1" d="M182.5,22.9l0-1.4c-0.4,0.5-0.8,0.9-1.4,1.2c-0.6,0.3-1.2,0.4-1.8,0.4c-0.6,0-1.2-0.1-1.7-0.4
			s-0.9-0.7-1.1-1.2c-0.2-0.5-0.3-1.2-0.3-2.1l0-6.1l2.6,0l0,4.4c0,1.4,0,2.2,0.1,2.5c0.1,0.3,0.3,0.5,0.5,0.7
			c0.2,0.2,0.6,0.3,0.9,0.3c0.4,0,0.8-0.1,1.2-0.4c0.3-0.2,0.6-0.5,0.7-0.9c0.1-0.4,0.2-1.2,0.2-2.6l0-4.1l2.6,0l0,9.7L182.5,22.9z"
			/>
	</g>
</g>
<g>
	<path class="st2" d="M74.9,36.9l1.8,0.4c-0.4,1.5-1,2.6-2,3.3c-1,0.8-2.1,1.1-3.5,1.1c-1.4,0-2.6-0.3-3.5-0.9
		c-0.9-0.6-1.6-1.4-2.1-2.6s-0.7-2.3-0.7-3.6c0-1.4,0.3-2.6,0.8-3.7c0.5-1,1.3-1.8,2.3-2.4c1-0.5,2.1-0.8,3.3-0.8
		c1.3,0,2.5,0.3,3.4,1c0.9,0.7,1.6,1.6,1.9,2.9l-1.7,0.4c-0.3-1-0.8-1.7-1.4-2.1s-1.3-0.7-2.2-0.7c-1,0-1.9,0.2-2.6,0.7
		c-0.7,0.5-1.2,1.2-1.5,2c-0.3,0.8-0.4,1.7-0.4,2.6c0,1.1,0.2,2.1,0.5,3c0.3,0.9,0.8,1.5,1.5,1.9c0.7,0.4,1.5,0.6,2.3,0.6
		c1,0,1.8-0.3,2.5-0.9S74.6,38,74.9,36.9z"/>
	<path class="st2" d="M77.7,45.4l-0.2-1.5c0.4,0.1,0.7,0.1,0.9,0.1c0.4,0,0.7-0.1,0.9-0.2c0.2-0.1,0.4-0.3,0.5-0.5
		c0.1-0.2,0.3-0.6,0.5-1.2c0-0.1,0.1-0.2,0.1-0.4l-3.7-9.7l1.8,0l2,5.6c0.3,0.7,0.5,1.5,0.7,2.3c0.2-0.8,0.4-1.5,0.7-2.2l2.1-5.7
		l1.6,0l-3.7,9.9c-0.4,1.1-0.7,1.8-0.9,2.2c-0.3,0.5-0.6,0.9-1,1.2c-0.4,0.3-0.8,0.4-1.4,0.4C78.5,45.6,78.1,45.5,77.7,45.4z"/>
	<path class="st2" d="M86.2,41.6l0-9.7l1.5,0l0,1.4c0.3-0.5,0.7-0.9,1.2-1.1c0.5-0.3,1.1-0.4,1.7-0.4c0.7,0,1.3,0.1,1.8,0.4
		c0.5,0.3,0.8,0.7,1,1.3c0.8-1.1,1.8-1.7,3-1.7c1,0,1.7,0.3,2.2,0.8c0.5,0.5,0.8,1.4,0.8,2.5l0,6.7l-1.6,0l0-6.1
		c0-0.7-0.1-1.1-0.2-1.4c-0.1-0.3-0.3-0.5-0.6-0.7c-0.3-0.2-0.6-0.3-1-0.3c-0.7,0-1.3,0.2-1.7,0.7c-0.5,0.5-0.7,1.2-0.7,2.2l0,5.6
		l-1.6,0l0-6.3c0-0.7-0.1-1.3-0.4-1.6c-0.3-0.4-0.7-0.5-1.3-0.5c-0.5,0-0.9,0.1-1.3,0.4c-0.4,0.2-0.7,0.6-0.9,1.1
		c-0.2,0.5-0.3,1.1-0.3,2l0,5L86.2,41.6z"/>
	<path class="st2" d="M100.7,41.6l0-9.7l1.5,0l0,1.5c0.4-0.7,0.7-1.1,1-1.4c0.3-0.2,0.7-0.3,1.1-0.3c0.6,0,1.1,0.2,1.7,0.5l-0.6,1.5
		c-0.4-0.2-0.8-0.4-1.2-0.4c-0.4,0-0.7,0.1-1,0.3s-0.5,0.5-0.6,0.9c-0.2,0.6-0.3,1.2-0.3,1.9l0,5.1L100.7,41.6z"/>
	<path class="st2" d="M112.6,41.6v-1.4c-0.8,1.1-1.8,1.6-3.1,1.6c-0.6,0-1.1-0.1-1.6-0.3c-0.5-0.2-0.9-0.5-1.1-0.8
		c-0.2-0.3-0.4-0.7-0.5-1.2c-0.1-0.3-0.1-0.8-0.1-1.5l0-6l1.6,0l0,5.4c0,0.9,0,1.4,0.1,1.7c0.1,0.4,0.3,0.8,0.7,1
		c0.3,0.2,0.8,0.4,1.2,0.4c0.5,0,1-0.1,1.4-0.4c0.4-0.3,0.7-0.6,0.9-1c0.2-0.4,0.3-1.1,0.3-1.9l0-5.2l1.6,0l0,9.7L112.6,41.6z"/>
</g>
<g>
	<path class="st1" d="M64.5,57.7l2.6-0.3c0.2,0.9,0.5,1.5,1,1.9c0.5,0.4,1.1,0.6,2,0.6c0.9,0,1.5-0.2,2-0.6c0.4-0.4,0.7-0.8,0.7-1.3
		c0-0.3-0.1-0.6-0.3-0.8c-0.2-0.2-0.5-0.4-1-0.6c-0.3-0.1-1-0.3-2.2-0.6c-1.5-0.4-2.5-0.8-3.1-1.3c-0.8-0.7-1.2-1.6-1.2-2.7
		c0-0.7,0.2-1.3,0.6-1.9c0.4-0.6,0.9-1,1.7-1.4c0.7-0.3,1.6-0.5,2.6-0.5c1.7,0,2.9,0.4,3.8,1.1c0.9,0.7,1.3,1.7,1.3,3l-2.7,0.1
		c-0.1-0.7-0.4-1.2-0.7-1.5c-0.4-0.3-1-0.5-1.7-0.5c-0.8,0-1.4,0.2-1.8,0.5c-0.3,0.2-0.4,0.5-0.4,0.8c0,0.3,0.1,0.6,0.4,0.8
		c0.3,0.3,1.2,0.6,2.5,0.9c1.3,0.3,2.3,0.6,2.9,1c0.6,0.3,1.1,0.8,1.5,1.4c0.4,0.6,0.5,1.3,0.5,2.1c0,0.8-0.2,1.5-0.6,2.2
		c-0.4,0.7-1,1.2-1.8,1.5c-0.8,0.3-1.8,0.5-2.9,0.5c-1.7,0-3-0.4-3.9-1.2C65.3,60.4,64.7,59.2,64.5,57.7z"/>
	<path class="st1" d="M82.4,59l2.6,0.4c-0.3,0.9-0.9,1.7-1.6,2.1c-0.7,0.5-1.6,0.7-2.7,0.7c-1.7,0-2.9-0.6-3.7-1.7
		c-0.6-0.9-1-2-1-3.3c0-1.6,0.4-2.9,1.3-3.8c0.8-0.9,1.9-1.4,3.2-1.4c1.4,0,2.6,0.5,3.4,1.4c0.8,1,1.2,2.4,1.2,4.4l-6.4,0
		c0,0.8,0.2,1.4,0.6,1.8s0.9,0.6,1.5,0.6c0.4,0,0.7-0.1,1-0.3C82.1,59.8,82.3,59.5,82.4,59z M82.6,56.4c0-0.7-0.2-1.3-0.6-1.7
		c-0.4-0.4-0.8-0.6-1.3-0.6c-0.6,0-1,0.2-1.4,0.6c-0.4,0.4-0.5,1-0.5,1.7L82.6,56.4z"/>
	<path class="st1" d="M86.3,62.1l0-13.4l2.6,0l0,13.4L86.3,62.1z"/>
</g>
<g>
	<path class="st1" d="M89.4,52.4l1.4,0v-0.7c0-0.8,0.1-1.4,0.3-1.8c0.2-0.4,0.5-0.7,1-1c0.5-0.3,1.1-0.4,1.8-0.4
		c0.7,0,1.4,0.1,2.1,0.3l-0.3,1.8c-0.4-0.1-0.8-0.1-1.2-0.1c-0.4,0-0.6,0.1-0.8,0.3s-0.2,0.5-0.2,1v0.7l1.9,0l0,2l-1.9,0l0,7.7
		l-2.6,0l0-7.7l-1.4,0L89.4,52.4z"/>
	<path class="st1" d="M100.6,48.7l5.4,0c1.1,0,1.9,0,2.4,0.1c0.5,0.1,1,0.3,1.4,0.6c0.4,0.3,0.8,0.7,1,1.1c0.3,0.5,0.4,1,0.4,1.6
		c0,0.6-0.2,1.2-0.5,1.7c-0.3,0.5-0.8,0.9-1.4,1.2c0.8,0.2,1.4,0.6,1.9,1.2c0.4,0.6,0.7,1.2,0.7,2c0,0.6-0.1,1.2-0.4,1.8
		c-0.3,0.6-0.7,1-1.2,1.4c-0.5,0.3-1.1,0.6-1.8,0.6c-0.5,0-1.5,0.1-3.3,0.1l-4.6,0L100.6,48.7z M103.3,56.2l0,3.6l2.5,0
		c1,0,1.6,0,1.9-0.1c0.4-0.1,0.7-0.3,1-0.5s0.4-0.7,0.4-1.1c0-0.4-0.1-0.7-0.3-1c-0.2-0.3-0.5-0.5-0.8-0.6c-0.4-0.1-1.2-0.2-2.4-0.2
		L103.3,56.2z M103.3,50.9l0,3.1l1.8,0c1.1,0,1.7,0,2,0c0.5-0.1,0.8-0.2,1.1-0.5c0.3-0.3,0.4-0.6,0.4-1c0-0.4-0.1-0.8-0.3-1
		c-0.2-0.3-0.6-0.4-1-0.5c-0.3,0-1,0-2.3,0L103.3,50.9z"/>
	<path class="st1" d="M119.4,62.1v-1.5c-0.4,0.5-0.8,0.9-1.4,1.2c-0.6,0.3-1.2,0.4-1.8,0.4c-0.7,0-1.2-0.1-1.8-0.4
		c-0.5-0.3-0.9-0.7-1.1-1.2s-0.3-1.2-0.3-2.1l0-6.1l2.6,0l0,4.5c0,1.4,0,2.2,0.1,2.5c0.1,0.3,0.3,0.6,0.5,0.7s0.6,0.3,1,0.3
		c0.4,0,0.8-0.1,1.2-0.4c0.3-0.2,0.6-0.5,0.7-0.9c0.1-0.4,0.2-1.2,0.2-2.6l0-4.1l2.6,0l0,9.7L119.4,62.1z"/>
	<path class="st1" d="M123.4,62.1l0-9.7l2.6,0l0,9.7L123.4,62.1z M123.4,51.1l0-2.4l2.6,0l0,2.4L123.4,51.1z"/>
	<path class="st1" d="M127.6,62.1l0-13.4l2.6,0l0,13.4L127.6,62.1z"/>
</g>
<g>
	<path class="st1" d="M140.7,62.1l-2.4,0v-1.4c-0.4,0.6-0.9,1-1.4,1.2c-0.5,0.3-1.1,0.4-1.6,0.4c-1.1,0-2.1-0.5-2.9-1.4
		c-0.8-0.9-1.2-2.2-1.2-3.8c0-1.6,0.4-2.9,1.2-3.8c0.8-0.9,1.8-1.3,2.9-1.3c1.1,0,2,0.5,2.8,1.4l0-4.8l2.6,0L140.7,62.1z M133.9,57
		c0,1,0.1,1.8,0.4,2.3c0.4,0.7,1,1,1.7,1c0.6,0,1.1-0.3,1.5-0.8c0.4-0.5,0.6-1.3,0.6-2.3c0-1.1-0.2-1.9-0.6-2.4s-0.9-0.7-1.5-0.7
		c-0.6,0-1.1,0.2-1.5,0.7C134.1,55.4,133.9,56.1,133.9,57z"/>
</g>
<g>
	<defs>
		<rect id="SVGID_3_" width="185.4" height="81.1"/>
	</defs>
	<clipPath id="SVGID_4_">
		<use xlink:href="#SVGID_3_"  style="overflow:visible;"/>
	</clipPath>
	<g class="st3">
		<path class="st2" d="M67.6,80.8l-3.6-13.4l1.8,0l2,8.8c0.2,0.9,0.4,1.8,0.6,2.7c0.3-1.4,0.5-2.3,0.6-2.5l2.6-9.1l2.1,0l1.9,6.8
			c0.5,1.7,0.8,3.3,1,4.7c0.2-0.8,0.4-1.8,0.7-2.9l2.1-8.6l1.8,0l-3.7,13.4l-1.7,0l-2.8-10.2c-0.2-0.9-0.4-1.4-0.4-1.6
			c-0.1,0.6-0.3,1.1-0.4,1.6l-2.9,10.2L67.6,80.8z"/>
		<path class="st2" d="M87.6,79.6c-0.6,0.5-1.2,0.9-1.8,1.1C85.3,80.9,84.7,81,84,81c-1.1,0-1.9-0.3-2.5-0.8c-0.6-0.5-0.9-1.2-0.9-2
			c0-0.5,0.1-0.9,0.3-1.3c0.2-0.4,0.5-0.7,0.9-0.9c0.4-0.2,0.7-0.4,1.2-0.5c0.3-0.1,0.8-0.2,1.5-0.2c1.3-0.2,2.3-0.3,2.9-0.6
			c0-0.2,0-0.4,0-0.4c0-0.7-0.2-1.1-0.5-1.4c-0.4-0.4-1-0.6-1.9-0.6c-0.8,0-1.3,0.1-1.7,0.4c-0.4,0.3-0.6,0.8-0.8,1.4L81,73.9
			c0.1-0.7,0.4-1.2,0.7-1.7c0.3-0.4,0.8-0.8,1.5-1s1.4-0.3,2.2-0.3c0.8,0,1.5,0.1,2,0.3c0.5,0.2,0.9,0.4,1.1,0.7
			c0.2,0.3,0.4,0.7,0.5,1.1c0.1,0.3,0.1,0.8,0.1,1.5l0,2.2c0,1.5,0,2.5,0.1,2.9c0.1,0.4,0.2,0.8,0.4,1.2l-1.7,0
			C87.8,80.5,87.6,80.1,87.6,79.6z M87.5,75.9c-0.6,0.2-1.5,0.5-2.7,0.6c-0.7,0.1-1.2,0.2-1.4,0.3c-0.3,0.1-0.5,0.3-0.6,0.5
			c-0.2,0.2-0.2,0.5-0.2,0.8c0,0.4,0.2,0.8,0.5,1.1c0.3,0.3,0.8,0.4,1.5,0.4c0.6,0,1.2-0.1,1.7-0.4c0.5-0.3,0.9-0.7,1.1-1.1
			c0.2-0.4,0.3-0.9,0.3-1.6V75.9z"/>
		<path class="st2" d="M90.6,80.8l0-13.4l1.6,0l0,13.4L90.6,80.8z"/>
		<path class="st2" d="M100.4,77.7l1.7,0.2c-0.3,1-0.8,1.8-1.5,2.3c-0.7,0.5-1.7,0.8-2.8,0.8c-1.4,0-2.5-0.4-3.4-1.3
			c-0.8-0.9-1.2-2.1-1.2-3.7c0-1.6,0.4-2.9,1.3-3.8c0.8-0.9,1.9-1.4,3.3-1.4c1.3,0,2.4,0.4,3.2,1.3c0.8,0.9,1.2,2.1,1.2,3.7
			c0,0.1,0,0.2,0,0.4l-7.2,0c0.1,1.1,0.4,1.9,0.9,2.5c0.5,0.6,1.2,0.9,2,0.9c0.6,0,1.1-0.2,1.5-0.5C99.8,78.9,100.1,78.4,100.4,77.7
			z M95,75l5.4,0c-0.1-0.8-0.3-1.4-0.6-1.8c-0.5-0.6-1.2-1-2-1c-0.8,0-1.4,0.3-1.9,0.8C95.3,73.5,95,74.2,95,75z"/>
		<path class="st2" d="M102.5,77.9l1.6-0.3c0.1,0.7,0.3,1.2,0.8,1.5c0.4,0.3,1,0.5,1.8,0.5c0.8,0,1.3-0.2,1.7-0.5
			c0.4-0.3,0.5-0.7,0.5-1.1c0-0.4-0.2-0.7-0.5-0.9c-0.2-0.1-0.8-0.3-1.7-0.6c-1.2-0.3-2-0.6-2.5-0.8c-0.5-0.2-0.8-0.5-1.1-0.9
			c-0.2-0.4-0.4-0.8-0.4-1.3c0-0.4,0.1-0.8,0.3-1.2s0.5-0.7,0.8-0.9c0.3-0.2,0.6-0.3,1-0.5c0.4-0.1,0.9-0.2,1.4-0.2
			c0.8,0,1.4,0.1,2,0.3s1,0.5,1.3,0.9c0.3,0.4,0.5,0.9,0.6,1.5l-1.6,0.2c-0.1-0.5-0.3-0.9-0.6-1.2c-0.4-0.3-0.8-0.4-1.5-0.4
			c-0.8,0-1.3,0.1-1.6,0.4c-0.3,0.3-0.5,0.5-0.5,0.9c0,0.2,0.1,0.4,0.2,0.6c0.1,0.2,0.3,0.3,0.6,0.4c0.2,0.1,0.6,0.2,1.5,0.4
			c1.2,0.3,2,0.6,2.4,0.8c0.5,0.2,0.8,0.5,1.1,0.9s0.4,0.8,0.4,1.4c0,0.5-0.2,1.1-0.5,1.6c-0.3,0.5-0.8,0.9-1.4,1.1
			c-0.6,0.3-1.3,0.4-2,0.4c-1.3,0-2.2-0.3-2.9-0.8C103.1,79.7,102.7,79,102.5,77.9z"/>
	</g>
	<path class="st4" d="M6.7,71.2l38.2,0c0.8,0,4.9,0.6,4.9-4.1l0-25.2c2.2-0.1,4-1.9,4.1-4.1c0-0.1,0-0.2,0-0.2
		c0.1-1.2-0.3-2.4-1.2-3.3l-5.3-5.3c0,0-0.1-5.8-0.1-6.6c0-0.8-0.3-1.9-1.5-1.9l-6.8,0l-9.8-9.9c-0.4-0.4-1-0.4-1.4,0L3.9,34.4
		c-1.6,1.7-1.6,4.4,0,6.1h0c0.8,0.8,1.8,1.3,2.9,1.4l0,11.6"/>
	<line class="st5" x1="6.7" y1="78.9" x2="49.6" y2="78.9"/>
</g>
</svg>
