<svg version="1.1" id="Layer_1" xmlns="http://www.w3.org/2000/svg" x="0" y="0" viewBox="0 0 363 204" xml:space="preserve"><style>.st2{fill:#00ae57}</style><path id="Bounding_BOX" fill="none" d="M0 0h363v204H0z"/><path d="M187.3 105.5c0-1.4-.5-2.7-1.6-3.7s-2.3-1.6-3.7-1.6c-1.4 0-2.7.5-3.7 1.6s-1.6 2.3-1.6 3.7.5 2.6 1.6 3.7c1.1 1 2.3 1.6 3.7 1.6 1.4 0 2.6-.5 3.7-1.6 1.1-1 1.6-2.2 1.6-3.7m-15.2 14.4l-4.7 2v8.9h-5.2v-12.5l14-5.7c.6-.2 1.2-.4 2-.4 2.1 0 3.6.8 4.5 2.5l2.5 4.2c1.2 2 2.9 3.6 4.9 4.8 2 1.2 4.3 1.8 6.7 1.8v5.2c-5.9 0-10.7-2.3-14.5-6.9l-1.6 8 5.5 5.5v20.1h-5.4v-16l-5.7-5.4-4.6 21.4h-5.6l7.2-37.5z" opacity=".2" fill="#00ae57"/><path class="st2" d="M218.9 178.4h-74.8c-1.1 0-2-.9-2-2V27.6c0-1.1.9-2 2-2h74.7c1.1 0 2 .9 2 2v148.7c.1 1.2-.8 2.1-1.9 2.1zm-72.8-4h70.7V29.6h-70.7v144.8z"/><path class="st2" d="M142.1 73.4h78.7v59.7h-78.7z"/><path d="M211.9 107.1h-1.3V95.4h1.1c.4 0 .8-.3.8-.8s-.3-.8-.8-.8h-1.1c-.8 0-1.5.7-1.5 1.5V107c0 .8.7 1.5 1.5 1.5h1.3c.4 0 .8-.3.8-.8s-.4-.6-.8-.6z" fill="#f7f8f9"/></svg>