<svg version="1.1" id="Layer_1" xmlns="http://www.w3.org/2000/svg" x="0" y="0" viewBox="0 0 363 204" xml:space="preserve"><style>.st1{fill:#00ae57}</style><g id="Layer_1_1_"><path id="Bounding_BOX" fill="none" d="M0 0h363v204H0z"/></g><path class="st1" d="M284 180.5H53.2c-.8 0-1.5-.7-1.5-1.5s.7-1.5 1.5-1.5h230.9c0-.8.7-1.5 1.5-1.5s1.5.7 1.5 1.5c0 1.7-1.4 3-3.1 3zM285.5 64c-.8 0-1.5-.7-1.5-1.5v-36H53.1c-.8 0-1.5-.7-1.5-1.5s.7-1.5 1.5-1.5h232.4c.8 0 1.5.7 1.5 1.5v37.5c0 .8-.7 1.5-1.5 1.5z"/><path opacity=".2" fill="#00ae57" d="M212 28.8v147l77.5-67.7z"/><path class="st1" d="M285.6 179c-.8 0-1.5-.7-1.5-1.5v-35.6c0-.8.7-1.5 1.5-1.5s1.5.7 1.5 1.5v35.6c0 .8-.7 1.5-1.5 1.5zm-73.2-26.5h-18.5c-1.2 0-1.8-.9-1.8-1.8v-2.2c0-1.1.7-1.8 1.8-1.8h.7c-.3-.5-.4-1-.4-1.5V133c0-2.2 1.6-3 3-3h11.9c2.2 0 3 1.6 3 3v12.3c0 .6-.1 1.1-.4 1.5h.7c1.2 0 1.8.9 1.8 1.8v2.2c-.1 1.2-1 1.7-1.8 1.7zm-18.7-4.1v2.4c0 .2.1.2.2.2h18.5c.2 0 .2-.1.2-.2v-2.2c0-.2-.1-.2-.2-.2h-18.5c-.1-.1-.2 0-.2 0zm3.5-16.9c-1 0-1.5.5-1.5 1.5v12.3c0 1 .5 1.5 1.5 1.5h11.9c1 0 1.5-.5 1.5-1.5V133c0-1-.5-1.5-1.5-1.5h-11.9zm-17.6 21h-18.5c-1.2 0-1.8-.9-1.8-1.8v-2.2c0-1.1.7-1.8 1.8-1.8h.7c-.3-.5-.4-1-.4-1.5V133c0-2.2 1.6-3 2.9-3h11.9c2.2 0 3 1.6 3 3v12.3c0 .6-.1 1.1-.4 1.5h.7c1.2 0 1.8.9 1.8 1.8v2.2c.1 1.2-.9 1.7-1.7 1.7zm-18.7-4.1v2.4c0 .2.1.2.2.2h18.5c.2 0 .2-.1.2-.2v-2.2c0-.2-.1-.2-.2-.2h-18.5c-.1-.1-.2 0-.2 0zm3.5-16.9c-1 0-1.4.5-1.4 1.5v12.3c0 1 .5 1.5 1.4 1.5h11.9c1 0 1.5-.5 1.5-1.5V133c0-1-.5-1.5-1.5-1.5h-11.9zm-17.7 21h-18.4c-1.2 0-1.8-.9-1.8-1.8v-2.2c0-1.1.7-1.8 1.8-1.8h.7c-.3-.5-.4-1-.4-1.5V133c0-2.2 1.6-3 3-3h11.9c2.2 0 3 1.6 3 3v12.3c0 .6-.1 1.1-.4 1.5h.6c1.2 0 1.8.9 1.8 1.8v2.2c0 1.2-1 1.7-1.8 1.7zm-18.6-4.1v2.4c0 .2.1.2.2.2h18.4c.2 0 .2-.1.2-.2v-2.2c0-.2-.1-.2-.2-.2h-18.4c-.1-.1-.2 0-.2 0zm3.5-16.9c-1 0-1.5.5-1.5 1.5v12.3c0 1 .5 1.5 1.5 1.5h11.9c1 0 1.5-.5 1.5-1.5V133c0-1-.5-1.5-1.5-1.5h-11.9zm77.5-48.6h-11.9c-2.2 0-3-1.6-3-3V67.6c0-.6.1-1.1.4-1.6h-.7c-1.2 0-1.8-.9-1.8-1.8V62c0-1.2.9-1.8 1.8-1.8h18.5c1.1 0 1.8.7 1.8 1.8v2.2c0 1.1-.7 1.8-1.8 1.8h-.7c.3.5.4 1 .4 1.6v12.3c0 2.2-1.6 3-3 3zm-11.9-16.8c-1 0-1.5.5-1.5 1.5v12.3c0 1 .5 1.5 1.5 1.5h11.9c1 0 1.5-.5 1.5-1.5V67.6c0-1-.5-1.5-1.5-1.5h-11.9zm-3.3-4.2c-.2 0-.2.1-.2.2v2.2c0 .2.1.2.2.2h18.7v-2.6h-18.7zm-17.6 21h-11.9c-2.2 0-2.9-1.6-2.9-3V67.6c0-.6.1-1.1.4-1.6h-.7c-1.2 0-1.8-.9-1.8-1.8V62c0-1.2.9-1.8 1.8-1.8h18.5c1.1 0 1.8.7 1.8 1.8v2.2c0 1.1-.7 1.8-1.8 1.8h-.7c.3.5.4 1 .4 1.6v12.3c-.2 2.2-1.7 3-3.1 3zm-11.9-16.8c-1 0-1.4.5-1.4 1.5v12.3c0 1 .5 1.5 1.4 1.5h11.9c1 0 1.5-.5 1.5-1.5V67.6c0-1-.5-1.5-1.5-1.5h-11.9zm-3.3-4.2c-.2 0-.2.1-.2.2v2.2c0 .2.1.2.2.2h18.7v-2.6h-18.7zm-17.6 21h-11.9c-2.2 0-3-1.6-3-3V67.6c0-.6.1-1.1.4-1.6h-.6c-1.2 0-1.8-.9-1.8-1.8V62c0-1.2.9-1.8 1.8-1.8h18.4c1.1 0 1.8.7 1.8 1.8v2.2c0 1.1-.7 1.8-1.8 1.8h-.7c.3.5.4 1 .4 1.6v12.3c0 2.2-1.6 3-3 3zm-11.9-16.8c-1 0-1.5.5-1.5 1.5v12.3c0 1 .5 1.5 1.5 1.5h11.9c1 0 1.5-.5 1.5-1.5V67.6c0-1-.5-1.5-1.5-1.5h-11.9zm-3.2-4.2c-.2 0-.2.1-.2.2v2.2c0 .2.1.2.2.2H147v-2.6h-18.6zm91.4 64.9H111.9c-.4 0-.8-.3-.8-.8V86.3c0-.4.3-.8.8-.8h107.9c.4 0 .8.3.8.8V126c0 .4-.4.8-.8.8zm-107.2-1.6H219V87H112.6v38.2zm173.6-42.3c-13.9 0-25.2 11.3-25.2 25.2s11.2 25.2 25.2 25.2 25.2-11.3 25.2-25.2-11.3-25.2-25.2-25.2"/><path d="M278.5 110.4l-6.1 6.1V99.7l6.1 6.1v-5.4c0-.4.2-.8.5-1.1.3-.2.7-.4 1.1-.4h18.3c.4 0 .8.2 1.1.4.2.2.4.7.4 1.1v15.4c0 .4-.2.8-.4 1.1-.2.2-.7.4-1.1.4H280c-.4 0-.8-.2-1.1-.4-.3-.2-.5-.7-.5-1.1.1 0 .1-5.4.1-5.4z" fill="#fff"/></svg>