<svg version="1.1" id="Layer_1" xmlns="http://www.w3.org/2000/svg" x="0" y="0" viewBox="0 0 363 204" xml:space="preserve"><style>.st1{fill:#00ae57}.st3{fill:#fff}</style><g id="Layer_1_1_"><path id="Bounding_BOX" fill="none" d="M0 0h363v204H0z"/></g><path class="st1" d="M272.5 180.5H41.7c-.8 0-1.5-.7-1.5-1.5s.7-1.5 1.5-1.5h230.9c0-.8.7-1.5 1.5-1.5s1.5.7 1.5 1.5c0 1.7-1.4 3-3.1 3zm1.5-40.4c-.8 0-1.5-.7-1.5-1.5V26.5H41.6c-.8 0-1.5-.7-1.5-1.5s.7-1.5 1.5-1.5H274c.8 0 1.5.7 1.5 1.5v113.6c0 .8-.7 1.5-1.5 1.5z"/><path opacity=".2" fill="#00ae57" d="M220.2 93.3l.1 78.6h52.4l.1-78.6z"/><path class="st1" d="M238.8 171.3c-.8 0-1.5-.7-1.5-1.5 0-16.9 13.7-30.6 30.6-30.6.8 0 1.5.7 1.5 1.5s-.7 1.5-1.5 1.5c-15.2 0-27.6 12.4-27.6 27.6 0 .8-.7 1.5-1.5 1.5zm35.3 7.7c-.8 0-1.5-.7-1.5-1.5v-6.6c0-.8.7-1.5 1.5-1.5s1.5.7 1.5 1.5v6.6c0 .8-.7 1.5-1.5 1.5z"/><path class="st1" d="M273.4 172H239c-.8 0-1.5-.7-1.5-1.5s.7-1.5 1.5-1.5h34.4c.8 0 1.5.7 1.5 1.5s-.7 1.5-1.5 1.5zm-72.5-19.5h-18.5c-1.2 0-1.8-.9-1.8-1.8v-2.2c0-1.1.7-1.8 1.8-1.8h.7c-.3-.5-.4-1-.4-1.5V133c0-2.2 1.6-3 3-3h11.9c2.2 0 3 1.6 3 3v12.3c0 .6-.1 1.1-.4 1.5h.7c1.2 0 1.8.9 1.8 1.8v2.2c-.1 1.2-1 1.7-1.8 1.7zm-18.7-4.1v2.4c0 .2.1.2.2.2h18.5c.2 0 .2-.1.2-.2v-2.2c0-.2-.1-.2-.2-.2h-18.5c-.1-.1-.2 0-.2 0zm3.5-16.9c-1 0-1.5.5-1.5 1.5v12.3c0 1 .5 1.5 1.5 1.5h11.9c1 0 1.5-.5 1.5-1.5V133c0-1-.5-1.5-1.5-1.5h-11.9zm-17.6 21h-18.5c-1.2 0-1.8-.9-1.8-1.8v-2.2c0-1.1.7-1.8 1.8-1.8h.7c-.3-.5-.4-1-.4-1.5V133c0-2.2 1.6-3 2.9-3h11.9c2.2 0 3 1.6 3 3v12.3c0 .6-.1 1.1-.4 1.5h.7c1.2 0 1.8.9 1.8 1.8v2.2c.1 1.2-.9 1.7-1.7 1.7zm-18.7-4.1v2.4c0 .2.1.2.2.2h18.5c.2 0 .2-.1.2-.2v-2.2c0-.2-.1-.2-.2-.2h-18.5c-.1-.1-.2 0-.2 0zm3.5-16.9c-1 0-1.4.5-1.4 1.5v12.3c0 1 .5 1.5 1.4 1.5h11.9c1 0 1.5-.5 1.5-1.5V133c0-1-.5-1.5-1.5-1.5h-11.9zm-17.7 21h-18.4c-1.2 0-1.8-.9-1.8-1.8v-2.2c0-1.1.7-1.8 1.8-1.8h.7c-.3-.5-.4-1-.4-1.5V133c0-2.2 1.6-3 3-3H132c2.2 0 3 1.6 3 3v12.3c0 .6-.1 1.1-.4 1.5h.6c1.2 0 1.8.9 1.8 1.8v2.2c0 1.2-1 1.7-1.8 1.7zm-18.6-4.1v2.4c0 .2.1.2.2.2h18.4c.2 0 .2-.1.2-.2v-2.2c0-.2-.1-.2-.2-.2h-18.4c-.1-.1-.2 0-.2 0zm3.5-16.9c-1 0-1.5.5-1.5 1.5v12.3c0 1 .5 1.5 1.5 1.5H132c1 0 1.5-.5 1.5-1.5V133c0-1-.5-1.5-1.5-1.5h-11.9zm77.5-48.6h-11.9c-2.2 0-3-1.6-3-3V67.6c0-.6.1-1.1.4-1.6h-.7c-1.2 0-1.8-.9-1.8-1.8V62c0-1.2.9-1.8 1.8-1.8h18.5c1.1 0 1.8.7 1.8 1.8v2.2c0 1.1-.7 1.8-1.8 1.8h-.7c.3.5.4 1 .4 1.6v12.3c0 2.2-1.6 3-3 3zm-11.9-16.8c-1 0-1.5.5-1.5 1.5v12.3c0 1 .5 1.5 1.5 1.5h11.9c1 0 1.5-.5 1.5-1.5V67.6c0-1-.5-1.5-1.5-1.5h-11.9zm-3.3-4.2c-.2 0-.2.1-.2.2v2.2c0 .2.1.2.2.2h18.7v-2.6h-18.7zm-17.6 21h-11.9c-2.2 0-2.9-1.6-2.9-3V67.6c0-.6.1-1.1.4-1.6h-.7c-1.2 0-1.8-.9-1.8-1.8V62c0-1.2.9-1.8 1.8-1.8h18.5c1.1 0 1.8.7 1.8 1.8v2.2c0 1.1-.7 1.8-1.8 1.8h-.7c.3.5.4 1 .4 1.6v12.3c-.2 2.2-1.7 3-3.1 3zm-11.9-16.8c-1 0-1.4.5-1.4 1.5v12.3c0 1 .5 1.5 1.4 1.5h11.9c1 0 1.5-.5 1.5-1.5V67.6c0-1-.5-1.5-1.5-1.5h-11.9zm-3.3-4.2c-.2 0-.2.1-.2.2v2.2c0 .2.1.2.2.2h18.7v-2.6h-18.7zm-17.6 21h-11.9c-2.2 0-3-1.6-3-3V67.6c0-.6.1-1.1.4-1.6h-.6c-1.2 0-1.8-.9-1.8-1.8V62c0-1.2.9-1.8 1.8-1.8h18.4c1.1 0 1.8.7 1.8 1.8v2.2c0 1.1-.7 1.8-1.8 1.8h-.7c.3.5.4 1 .4 1.6v12.3c0 2.2-1.6 3-3 3zm-11.9-16.8c-1 0-1.5.5-1.5 1.5v12.3c0 1 .5 1.5 1.5 1.5H132c1 0 1.5-.5 1.5-1.5V67.6c0-1-.5-1.5-1.5-1.5h-11.9zm-3.2-4.2c-.2 0-.2.1-.2.2v2.2c0 .2.1.2.2.2h18.6v-2.6h-18.6zm91.4 64.9H101.2c-.4 0-.8-.3-.8-.8V86.3c0-.4.3-.8.8-.8h107.1c.4 0 .8.3.8.8V126c0 .4-.4.8-.8.8zm-106.4-1.6h105.6V87H101.9v38.2zm202.3 49.5c-10.3 0-18.7-8.4-18.7-18.7s8.4-18.7 18.7-18.7 18.7 8.4 18.7 18.7c-.1 10.3-8.4 18.7-18.7 18.7"/><path class="st3" d="M300.5 164.1v1.6h-5.9v1.9l-2.7-2.7 2.7-2.7v1.9h5.9zm-2.7-6.5l2.7 2.7-2.7 2.7v-1.9h-5.9v-1.6h5.9v-1.9zm5.4-11c0-.6.2-1.1.6-1.5s.9-.7 1.5-.7 1.1.2 1.5.7c.4.4.7.9.7 1.5s-.2 1.1-.7 1.5c-.4.4-.9.6-1.5.6s-1.1-.2-1.5-.6c-.4-.5-.6-1-.6-1.5m6.2 5.8l1.9.8v3.6h2.1v-5.1l-5.7-2.3c-.2-.1-.5-.2-.8-.2-.8 0-1.5.3-1.8 1l-1 1.7c-.5.8-1.2 1.5-2 2s-1.7.7-2.7.7v2.1c2.4 0 4.4-.9 5.9-2.8l.7 3.3-2.2 2.2v8.2h2.2v-6.5l2.3-2.2 1.9 8.7h2.3l-3.1-15.2z"/><path class="st1" d="M71.1 125.6c10.7 0 19.5-8.7 19.5-19.4S82 86.7 71.1 86.7s-19.5 8.7-19.5 19.5 8.7 19.4 19.5 19.4"/><path class="st3" d="M77 104.4l4.7-4.7v13L77 108v4.2c0 .3-.2.6-.4.8-.2.2-.5.3-.8.3H61.6c-.3 0-.6-.2-.8-.3-.2-.2-.3-.5-.3-.8v-11.9c0-.3.2-.6.3-.8.2-.2.5-.3.8-.3h14.2c.3 0 .6.2.8.3.2.2.4.5.4.8v4.1z"/></svg>