<svg version="1.1" id="Layer_1" xmlns="http://www.w3.org/2000/svg" x="0" y="0" viewBox="0 0 363 204" xml:space="preserve"><style>.st2{fill:#00ae57}</style><g id="Layer_1_1_"><path id="Bounding_BOX" fill="none" d="M0 0h363v204H0z"/></g><path d="M53.1 21.7c-9.5 52.5-9.2 106.1 0 160.6l173.2-41.1.1-85L53.1 21.7z" opacity=".2" fill="#00ae57"/><path class="st2" d="M204.1 165.1h-25.3c-1.6 0-2.5-1.2-2.5-2.5v-3c0-1.5 1-2.5 2.5-2.5h1c-.4-.7-.5-1.4-.5-2.1v-16.7c0-3 2.2-4.1 4.1-4.1h16.3c3 0 4.1 2.2 4.1 4.1v16.8c0 .8-.1 1.5-.5 2.1h1c1.6 0 2.5 1.2 2.5 2.5v3c-.4 1.7-1.6 2.4-2.7 2.4zm-25.6-5.6v3.3c0 .3.1.3.3.3h25.3c.3 0 .3-.1.3-.3v-3c0-.3-.1-.3-.3-.3h-25.3c-.1-.1-.3 0-.3 0zm4.8-23.1c-1.4 0-2.1.7-2.1 2.1v16.8c0 1.4.7 2.1 2.1 2.1h16.3c1.4 0 2.1-.7 2.1-2.1v-16.8c0-1.4-.7-2.1-2.1-2.1h-16.3zm-24 28.7H134c-1.6 0-2.5-1.2-2.5-2.5v-3c0-1.5 1-2.5 2.5-2.5h1c-.4-.7-.5-1.4-.5-2.1v-16.7c0-3 2.2-4.1 4-4.1h16.3c3 0 4.1 2.2 4.1 4.1v16.8c0 .8-.1 1.5-.5 2.1h1c1.6 0 2.5 1.2 2.5 2.5v3c-.2 1.7-1.6 2.4-2.6 2.4zm-25.6-5.6v3.3c0 .3.1.3.3.3h25.3c.3 0 .3-.1.3-.3v-3c0-.3-.1-.3-.3-.3H134c-.2-.1-.3 0-.3 0zm4.8-23.1c-1.4 0-1.9.7-1.9 2.1v16.8c0 1.4.7 2.1 1.9 2.1h16.3c1.4 0 2.1-.7 2.1-2.1v-16.8c0-1.4-.7-2.1-2.1-2.1h-16.3zm-24.2 28.7H89.1c-1.6 0-2.5-1.2-2.5-2.5v-3c0-1.5 1-2.5 2.5-2.5h1c-.4-.7-.5-1.4-.5-2.1v-16.7c0-3 2.2-4.1 4.1-4.1H110c3 0 4.1 2.2 4.1 4.1v16.8c0 .8-.1 1.5-.5 2.1h.8c1.6 0 2.5 1.2 2.5 2.5v3c-.2 1.7-1.5 2.4-2.6 2.4zm-25.5-5.6v3.3c0 .3.1.3.3.3h25.2c.3 0 .3-.1.3-.3v-3c0-.3-.1-.3-.3-.3H89.1c-.1-.1-.3 0-.3 0zm4.8-23.1c-1.4 0-2.1.7-2.1 2.1v16.8c0 1.4.7 2.1 2.1 2.1h16.3c1.4 0 2.1-.7 2.1-2.1v-16.8c0-1.4-.7-2.1-2.1-2.1H93.6zm106-66.5h-16.3c-3 0-4.1-2.2-4.1-4.1V49c0-.8.1-1.5.5-2.2h-1c-1.6 0-2.5-1.2-2.5-2.5v-3c0-1.6 1.2-2.5 2.5-2.5H204c1.5 0 2.5 1 2.5 2.5v3c0 1.5-1 2.5-2.5 2.5h-1c.4.7.5 1.4.5 2.2v16.8c.2 3-2 4.1-3.9 4.1zM183.3 47c-1.4 0-2.1.7-2.1 2.1v16.8c0 1.4.7 2.1 2.1 2.1h16.3c1.4 0 2.1-.7 2.1-2.1V49c0-1.4-.7-2.1-2.1-2.1h-16.3zm-4.5-5.8c-.3 0-.3.1-.3.3v3c0 .3.1.3.3.3h25.6V41.2h-25.6zm-24.1 28.7h-16.3c-3 0-4-2.2-4-4.1V49c0-.8.1-1.5.5-2.2h-1c-1.6 0-2.5-1.2-2.5-2.5v-3c0-1.6 1.2-2.5 2.5-2.5h25.3c1.5 0 2.5 1 2.5 2.5v3c0 1.5-1 2.5-2.5 2.5h-1c.4.7.5 1.4.5 2.2v16.8c0 3-2 4.1-4 4.1zM138.5 47c-1.4 0-1.9.7-1.9 2.1v16.8c0 1.4.7 2.1 1.9 2.1h16.3c1.4 0 2.1-.7 2.1-2.1V49c0-1.4-.7-2.1-2.1-2.1h-16.3zm-4.5-5.8c-.3 0-.3.1-.3.3v3c0 .3.1.3.3.3h25.6V41.2H134zm-24.1 28.7H93.6c-3 0-4.1-2.2-4.1-4.1V49c0-.8.1-1.5.5-2.2h-.8c-1.6 0-2.5-1.2-2.5-2.5v-3c0-1.6 1.2-2.5 2.5-2.5h25.2c1.5 0 2.5 1 2.5 2.5v3c0 1.5-1 2.5-2.5 2.5h-1c.4.7.5 1.4.5 2.2v16.8c.1 3-2.1 4.1-4 4.1zM93.6 47c-1.4 0-2.1.7-2.1 2.1v16.8c0 1.4.7 2.1 2.1 2.1h16.3c1.4 0 2.1-.7 2.1-2.1V49c0-1.4-.7-2.1-2.1-2.1H93.6zm-4.4-5.8c-.3 0-.3.1-.3.3v3c0 .3.1.3.3.3h25.5V41.2H89.2zm125 88.8H66.7c-.5 0-1.1-.4-1.1-1.1V74.6c0-.5.4-1.1 1.1-1.1h147.5c.5 0 1.1.4 1.1 1.1v54.3c0 .5-.5 1.1-1.1 1.1zm-146.6-2.2h145.5V75.5H67.6v52.3z"/><path d="M241 112.8c-.4 0-.8-.1-1-.4l-7.9-7.9c-.5-.5-.5-1.5 0-2.2.5-.5 1.5-.5 2.2 0l6.9 6.9L259 91.5c.5-.5 1.5-.5 2.2 0 .5.5.5 1.5 0 2.2l-18.9 18.8c-.8.1-1.1.3-1.3.3z" fill="#00ad57"/><path class="st2" d="M291.8 76.8c-13.9 0-25.2 11.3-25.2 25.2s11.2 25.2 25.2 25.2S317 115.9 317 102s-11.3-25.2-25.2-25.2"/><path d="M284.1 104.3l-6.1 6.1V93.6l6.1 6.1v-5.4c0-.4.2-.8.5-1.1.3-.2.7-.4 1.1-.4H304c.4 0 .8.2 1.1.4.2.2.4.7.4 1.1v15.4c0 .4-.2.8-.4 1.1-.2.2-.7.4-1.1.4h-18.4c-.4 0-.8-.2-1.1-.4-.3-.2-.5-.7-.5-1.1.1 0 .1-5.4.1-5.4z" fill="#fff"/></svg>