<svg version="1.1" id="Layer_1" xmlns="http://www.w3.org/2000/svg" x="0" y="0" viewBox="0 0 363 204" xml:space="preserve"><style>.st1{fill:#00ae57}.st2{font-family:&apos;Roboto-Italic&apos;}.st3{font-size:12px}</style><path id="Bounding_BOX" fill="none" d="M0 0h363v204H0z"/><path class="st1" d="M157.8 82.3l16-16 16 16h-32zm39.9-50.5c1.4 0 2.7.5 3.7 1.6 1.1 1.1 1.6 2.3 1.6 3.7V69c0 1.4-.5 2.6-1.6 3.7-1.1 1-2.3 1.6-3.7 1.6h-10.6V69h10.6V37.1h-47.9V69h10.6v5.2h-10.6c-1.4 0-2.7-.5-3.7-1.6-1.1-1-1.6-2.3-1.6-3.7V37c0-1.4.5-2.7 1.6-3.7 1.1-1.1 2.3-1.6 3.7-1.6 0 0 47.9 0 47.9.1z"/><text transform="translate(110.102 148.305)" class="st1 st2 st3">4</text><text transform="translate(116.402 148.305)" class="st1 st2 st3">5</text><text transform="translate(122.202 148.305)" class="st1 st2 st3">째</text><text transform="translate(89.214 70.567)" class="st1 st2 st3">+</text><text transform="translate(95.414 70.567)" class="st1 st2 st3">4</text><text transform="translate(101.714 70.567)" class="st1 st2 st3">5</text><text transform="translate(107.514 70.567)" class="st1 st2 st3">째</text><text transform="translate(249.462 70.567)" class="st1 st2 st3">+</text><text transform="translate(255.662 70.567)" class="st1 st2 st3">4</text><text transform="translate(261.962 70.567)" class="st1 st2 st3">5</text><text transform="translate(267.762 70.567)" class="st1 st2 st3">째</text><text transform="translate(223.766 148.305)" class="st1 st2 st3">4</text><text transform="translate(230.066 148.305)" class="st1 st2 st3">5</text><text transform="translate(235.866 148.305)" class="st1 st2 st3">째</text><path class="st1" d="M143.2 167.4c0-.4.3-.8.8-.8.4 0 .8.3.8.8 0 .4-.3.8-.8.8-.5-.1-.8-.4-.8-.8zm0-3c0-.4.3-.8.8-.8.4 0 .8.3.8.8 0 .4-.3.8-.8.8-.5-.2-.8-.4-.8-.8zm0-3c0-.4.3-.8.8-.8.4 0 .8.3.8.8 0 .4-.3.8-.8.8-.5-.2-.8-.4-.8-.8zm0-3.2c0-.4.3-.8.8-.8.4 0 .8.3.8.8 0 .4-.3.8-.8.8s-.8-.4-.8-.8zm0-3c0-.4.3-.8.8-.8.4 0 .8.3.8.8 0 .4-.3.8-.8.8s-.8-.4-.8-.8zm0-3c0-.4.3-.8.8-.8.4 0 .8.3.8.8 0 .4-.3.8-.8.8s-.8-.4-.8-.8zm0-3.1c0-.4.3-.8.8-.8.4 0 .8.3.8.8 0 .4-.3.8-.8.8-.5.1-.8-.3-.8-.8zm0-3c0-.4.3-.8.8-.8.4 0 .8.3.8.8 0 .4-.3.8-.8.8-.5.1-.8-.4-.8-.8zm0-3c0-.4.3-.8.8-.8.4 0 .8.3.8.8 0 .4-.3.8-.8.8s-.8-.4-.8-.8zm0-3c0-.4.3-.8.8-.8.4 0 .8.3.8.8 0 .4-.3.8-.8.8s-.8-.4-.8-.8zm0-3.1c0-.4.3-.8.8-.8.4 0 .8.3.8.8 0 .4-.3.8-.8.8-.5.1-.8-.3-.8-.8zm0-3c0-.4.3-.8.8-.8.4 0 .8.3.8.8 0 .4-.3.8-.8.8-.5.1-.8-.3-.8-.8zm0-3c0-.4.3-.8.8-.8.4 0 .8.3.8.8 0 .4-.3.8-.8.8s-.8-.3-.8-.8zm0-3c0-.4.3-.8.8-.8.4 0 .8.3.8.8 0 .4-.3.8-.8.8s-.8-.3-.8-.8zm0-3c0-.4.3-.8.8-.8.4 0 .8.3.8.8 0 .4-.3.8-.8.8s-.8-.5-.8-.8zm0-3c0-.4.3-.8.8-.8.4 0 .8.3.8.8 0 .4-.3.8-.8.8-.5-.1-.8-.5-.8-.8zm0-3c0-.4.3-.8.8-.8.4 0 .8.3.8.8 0 .4-.3.8-.8.8-.5-.1-.8-.5-.8-.8zm0-3.2c0-.4.3-.8.8-.8.4 0 .8.3.8.8 0 .4-.3.7-.8.7-.5.2-.8-.2-.8-.7zm0-3c0-.4.3-.8.8-.8.4 0 .8.3.8.8 0 .4-.3.8-.8.8-.5.1-.8-.3-.8-.8zm0-3c0-.4.3-.8.8-.8.4 0 .8.3.8.8 0 .4-.3.8-.8.8-.5-.1-.8-.3-.8-.8zm0-3c0-.4.3-.8.8-.8.4 0 .8.3.8.8 0 .4-.3.8-.8.8-.5-.1-.8-.3-.8-.8zm0-3c0-.4.3-.8.8-.8.4 0 .8.3.8.8 0 .4-.3.8-.8.8-.5-.1-.8-.4-.8-.8zm0-3c0-.4.3-.8.8-.8.4 0 .8.3.8.8 0 .4-.3.7-.8.7s-.8-.3-.8-.7zm0-3c0-.4.3-.8.8-.8.4 0 .8.3.8.8 0 .4-.3.8-.8.8-.5-.1-.8-.4-.8-.8zm0-3.1c0-.4.3-.8.8-.8.4 0 .8.3.8.8 0 .4-.3.8-.8.8s-.8-.3-.8-.8zm0-3c0-.4.3-.8.8-.8.4 0 .8.3.8.8 0 .4-.3.8-.8.8s-.8-.5-.8-.8zm0-3c0-.4.3-.8.8-.8.4 0 .8.3.8.8 0 .4-.3.8-.8.8-.5-.2-.8-.5-.8-.8zm0-3c0-.4.3-.8.8-.8.4 0 .8.3.8.8 0 .4-.3.8-.8.8-.5-.2-.8-.5-.8-.8zm0-3.2c0-.4.3-.8.8-.8.4 0 .8.3.8.8 0 .4-.3.8-.8.8s-.8-.3-.8-.8zm0-3c0-.4.3-.8.8-.8.4 0 .8.3.8.8 0 .4-.3.8-.8.8s-.8-.3-.8-.8zm-63.9 61.3c-.3-.3-.3-.8 0-1.1.3-.3.8-.3 1.1 0 .3.3.3.8 0 1.1-.1.1-.3.2-.5.2s-.4-.1-.6-.2zm2.2-2.3c-.3-.3-.3-.8 0-1.1.3-.3.8-.3 1.1 0 .3.3.3.8 0 1.1-.1.1-.3.2-.5.2-.3.1-.5.1-.6-.2zm2.1-2c-.3-.3-.3-.8 0-1.1.3-.3.8-.3 1.1 0 .3.3.3.8 0 1.1-.1.1-.3.2-.5.2-.3-.1-.5-.2-.6-.2zm2.1-2.3c-.3-.3-.3-.8 0-1.1.3-.3.8-.3 1.1 0 .3.3.3.8 0 1.1-.2.1-.3.2-.5.2-.2.1-.4.1-.6-.2zm2.2-2.1c-.3-.3-.3-.8 0-1.1.3-.3.8-.3 1.1 0 .3.3.3.8 0 1.1-.1.1-.3.2-.5.2-.3.1-.5-.1-.6-.2zM90 130c-.3-.3-.3-.8 0-1.1.3-.3.8-.3 1.1 0 .3.3.3.8 0 1.1-.1.2-.3.2-.5.2s-.4-.1-.6-.2zm2.2-2.2c-.3-.3-.3-.8 0-1.1.3-.3.8-.3 1.1 0 .3.3.3.8 0 1.1-.1.1-.3.2-.5.2-.3 0-.5 0-.6-.2zm2.1-2c-.3-.3-.3-.8 0-1.1.3-.3.8-.3 1.1 0 .3.3.3.8 0 1.1-.2.1-.3.2-.5.2-.3 0-.4-.2-.6-.2zm2.1-2.3c-.3-.3-.3-.8 0-1.1.3-.3.8-.3 1.1 0 .3.3.3.8 0 1.1-.1.1-.3.2-.5.2-.2.1-.4.1-.6-.2zm2.2-2c-.3-.3-.3-.8 0-1.1.3-.3.8-.3 1.1 0 .3.3.3.8 0 1.1-.1.1-.3.2-.5.2-.3 0-.5-.2-.6-.2zm2.1-2.2c-.3-.3-.3-.8 0-1.1.3-.3.8-.3 1.1 0 .3.3.3.8 0 1.1-.1.2-.3.2-.5.2s-.4 0-.6-.2zm2.2-2.1c-.3-.3-.3-.8 0-1.1.3-.3.8-.3 1.1 0 .3.3.3.8 0 1.1-.1.1-.3.2-.5.2-.3-.1-.5-.1-.6-.2zm2.1-2.2c-.3-.3-.3-.8 0-1.1.3-.3.8-.3 1.1 0 .3.3.3.8 0 1.1-.2.1-.3.2-.5.2-.2.1-.4 0-.6-.2zm2.2-2.2c-.3-.3-.3-.8 0-1.1.3-.3.8-.3 1.1 0 .3.3.3.8 0 1.1-.1.1-.3.2-.5.2-.3 0-.5 0-.6-.2zm2.1-2c-.3-.3-.3-.8 0-1.1.3-.3.8-.3 1.1 0 .3.3.3.8 0 1.1-.1.1-.3.2-.5.2-.3 0-.5-.2-.6-.2zm2.1-2.3c-.3-.3-.3-.8 0-1.1.3-.3.8-.3 1.1 0 .3.3.3.8 0 1.1-.1.1-.3.2-.5.2-.2.1-.4.1-.6-.2zm2.2-2c-.3-.3-.3-.8 0-1.1.3-.3.8-.3 1.1 0 .3.3.3.8 0 1.1-.2.1-.3.2-.5.2-.3 0-.5-.2-.6-.2zm2.1-2.2c-.3-.3-.3-.8 0-1.1.3-.3.8-.3 1.1 0 .3.3.3.8 0 1.1-.1.1-.3.2-.5.2s-.4 0-.6-.2zm2.2-2.1c-.3-.3-.3-.8 0-1.1.3-.3.8-.3 1.1 0 .3.3.3.8 0 1.1-.1.1-.3.2-.5.2-.3-.1-.5-.1-.6-.2zm2.1-2.2c-.3-.3-.3-.8 0-1.1.3-.3.8-.3 1.1 0 .3.3.3.8 0 1.1-.1.2-.3.2-.5.2-.3.1-.5 0-.6-.2zm2.1-2.2c-.3-.3-.3-.8 0-1.1.3-.3.8-.3 1.1 0 .3.3.3.8 0 1.1-.1.1-.3.2-.5.2s-.4 0-.6-.2zm2.2-2c-.3-.3-.3-.8 0-1.1.3-.3.8-.3 1.1 0 .3.3.3.8 0 1.1-.2.1-.3.2-.5.2-.3 0-.5-.2-.6-.2zm2.1-2.3c-.3-.3-.3-.8 0-1.1.3-.3.8-.3 1.1 0 .3.3.3.8 0 1.1-.1.1-.3.2-.5.2-.2.1-.4.1-.6-.2zm2.2-2c-.3-.3-.3-.8 0-1.1.3-.3.8-.3 1.1 0 .3.3.3.8 0 1.1-.1.1-.3.2-.5.2-.3 0-.5 0-.6-.2zm2.1-2.2c-.3-.3-.3-.8 0-1.1.3-.3.8-.3 1.1 0 .3.3.3.8 0 1.1-.1.1-.3.2-.5.2-.3 0-.4 0-.6-.2zm2.2-2.1c-.3-.3-.3-.8 0-1.1.3-.3.8-.3 1.1 0 .3.3.3.8 0 1.1-.1.1-.3.2-.5.2-.3.1-.5-.1-.6-.2zM135 85c-.3-.3-.3-.8 0-1.1.3-.3.8-.3 1.1 0 .3.3.3.8 0 1.1-.1.1-.3.2-.5.2-.3.1-.5 0-.6-.2zm2.1-2.2c-.3-.3-.3-.8 0-1.1.3-.3.8-.3 1.1 0 .3.3.3.8 0 1.1-.1.1-.3.2-.5.2-.2.2-.4 0-.6-.2zm2.2-2c-.3-.3-.3-.8 0-1.1.3-.3.8-.3 1.1 0 .3.3.3.8 0 1.1-.1.2-.3.2-.5.2-.3 0-.5-.2-.6-.2zm2.1-2.1c-.3-.3-.3-.8 0-1.1.3-.3.8-.3 1.1 0 .3.3.3.8 0 1.1-.1.1-.3.2-.5.2-.3-.1-.4-.1-.6-.2zm62 88.7c0-.4.3-.8.8-.8.4 0 .8.3.8.8 0 .4-.3.8-.8.8-.4-.1-.8-.4-.8-.8zm0-3c0-.4.3-.8.8-.8.4 0 .8.3.8.8 0 .4-.3.8-.8.8-.4-.2-.8-.4-.8-.8zm0-3c0-.4.3-.8.8-.8.4 0 .8.3.8.8 0 .4-.3.8-.8.8-.4-.2-.8-.4-.8-.8zm0-3.2c0-.4.3-.8.8-.8.4 0 .8.3.8.8 0 .4-.3.8-.8.8-.4 0-.8-.4-.8-.8zm0-3c0-.4.3-.8.8-.8.4 0 .8.3.8.8 0 .4-.3.8-.8.8-.4 0-.8-.4-.8-.8zm0-3c0-.4.3-.8.8-.8.4 0 .8.3.8.8 0 .4-.3.8-.8.8-.4 0-.8-.4-.8-.8zm0-3.1c0-.4.3-.8.8-.8.4 0 .8.3.8.8 0 .4-.3.8-.8.8-.4.1-.8-.3-.8-.8zm0-3c0-.4.3-.8.8-.8.4 0 .8.3.8.8 0 .4-.3.8-.8.8-.4.1-.8-.4-.8-.8zm0-3c0-.4.3-.8.8-.8.4 0 .8.3.8.8 0 .4-.3.8-.8.8-.4 0-.8-.4-.8-.8zm0-3c0-.4.3-.8.8-.8.4 0 .8.3.8.8 0 .4-.3.8-.8.8-.4 0-.8-.4-.8-.8zm0-3.1c0-.4.3-.8.8-.8.4 0 .8.3.8.8 0 .4-.3.8-.8.8-.4.1-.8-.3-.8-.8zm0-3c0-.4.3-.8.8-.8.4 0 .8.3.8.8 0 .4-.3.8-.8.8-.4.1-.8-.3-.8-.8zm0-3c0-.4.3-.8.8-.8.4 0 .8.3.8.8 0 .4-.3.8-.8.8-.4 0-.8-.3-.8-.8zm0-3c0-.4.3-.8.8-.8.4 0 .8.3.8.8 0 .4-.3.8-.8.8-.4 0-.8-.3-.8-.8zm0-3c0-.4.3-.8.8-.8.4 0 .8.3.8.8 0 .4-.3.8-.8.8-.4 0-.8-.5-.8-.8zm0-3c0-.4.3-.8.8-.8.4 0 .8.3.8.8 0 .4-.3.8-.8.8-.4-.1-.8-.5-.8-.8zm0-3c0-.4.3-.8.8-.8.4 0 .8.3.8.8 0 .4-.3.8-.8.8-.4-.1-.8-.5-.8-.8zm0-3.2c0-.4.3-.8.8-.8.4 0 .8.3.8.8 0 .4-.3.8-.8.8-.4.1-.8-.3-.8-.8zm0-3c0-.4.3-.8.8-.8.4 0 .8.3.8.8 0 .4-.3.8-.8.8-.4.1-.8-.3-.8-.8zm0-3c0-.4.3-.8.8-.8.4 0 .8.3.8.8 0 .4-.3.8-.8.8-.4-.1-.8-.3-.8-.8zm0-3c0-.4.3-.8.8-.8.4 0 .8.3.8.8 0 .4-.3.8-.8.8-.4-.1-.8-.3-.8-.8zm0-3c0-.4.3-.8.8-.8.4 0 .8.3.8.8 0 .4-.3.8-.8.8-.4-.1-.8-.4-.8-.8zm0-3c0-.4.3-.8.8-.8.4 0 .8.3.8.8 0 .4-.3.8-.8.8-.4-.1-.8-.4-.8-.8zm0-3c0-.4.3-.8.8-.8.4 0 .8.3.8.8 0 .4-.3.8-.8.8-.4-.1-.8-.4-.8-.8zm0-3.1c0-.4.3-.8.8-.8.4 0 .8.3.8.8 0 .4-.3.8-.8.8-.4 0-.8-.3-.8-.8zm0-3c0-.4.3-.8.8-.8.4 0 .8.3.8.8 0 .4-.3.8-.8.8-.4 0-.8-.5-.8-.8zm0-3c0-.4.3-.8.8-.8.4 0 .8.3.8.8 0 .4-.3.8-.8.8-.4-.2-.8-.5-.8-.8zm0-3c0-.4.3-.8.8-.8.4 0 .8.3.8.8 0 .4-.3.8-.8.8-.4-.2-.8-.5-.8-.8zm0-3.2c0-.4.3-.8.8-.8.4 0 .8.3.8.8 0 .4-.3.8-.8.8-.4 0-.8-.3-.8-.8zm0-3c0-.4.3-.8.8-.8.4 0 .8.3.8.8 0 .4-.3.8-.8.8-.4 0-.8-.3-.8-.8zm64.4 61.3c-.3-.3-.3-.8 0-1.1.3-.3.8-.3 1.1 0 .3.3.3.8 0 1.1-.1.1-.3.2-.5.2-.3 0-.5-.1-.6-.2zm-2.2-2.3c-.3-.3-.3-.8 0-1.1.3-.3.8-.3 1.1 0 .3.3.3.8 0 1.1-.1.1-.3.2-.5.2-.2.1-.4.1-.6-.2zm-2.1-2c-.3-.3-.3-.8 0-1.1.3-.3.8-.3 1.1 0 .3.3.3.8 0 1.1-.2.1-.3.2-.5.2-.3-.1-.5-.2-.6-.2zm-2.2-2.3c-.3-.3-.3-.8 0-1.1.3-.3.8-.3 1.1 0 .3.3.3.8 0 1.1-.1.1-.3.2-.5.2-.2.1-.4.1-.6-.2zm-2.1-2.1c-.3-.3-.3-.8 0-1.1.3-.3.8-.3 1.1 0 .3.3.3.8 0 1.1-.1.1-.3.2-.5.2-.3.1-.5-.1-.6-.2zm-2.1-2.1c-.3-.3-.3-.8 0-1.1.3-.3.8-.3 1.1 0 .3.3.3.8 0 1.1-.2.2-.3.2-.5.2-.3 0-.5-.1-.6-.2zm-2.2-2.2c-.3-.3-.3-.8 0-1.1.3-.3.8-.3 1.1 0 .3.3.3.8 0 1.1-.1.1-.3.2-.5.2s-.4 0-.6-.2zm-2.1-2c-.3-.3-.3-.8 0-1.1.3-.3.8-.3 1.1 0 .3.3.3.8 0 1.1-.1.1-.3.2-.5.2-.3 0-.5-.2-.6-.2zm-2.2-2.3c-.3-.3-.3-.8 0-1.1.3-.3.8-.3 1.1 0 .3.3.3.8 0 1.1-.1.1-.3.2-.5.2-.2.1-.4.1-.6-.2zm-2.1-2c-.3-.3-.3-.8 0-1.1.3-.3.8-.3 1.1 0 .3.3.3.8 0 1.1-.1.1-.3.2-.5.2-.3 0-.5-.2-.6-.2zm-2.1-2.2c-.3-.3-.3-.8 0-1.1.3-.3.8-.3 1.1 0 .3.3.3.8 0 1.1-.1.2-.3.2-.5.2-.3 0-.5 0-.6-.2zm-2.2-2.1c-.3-.3-.3-.8 0-1.1.3-.3.8-.3 1.1 0 .3.3.3.8 0 1.1-.1.1-.3.2-.5.2-.3-.1-.4-.1-.6-.2zm-2.1-2.2c-.3-.3-.3-.8 0-1.1.3-.3.8-.3 1.1 0 .3.3.3.8 0 1.1-.1.1-.3.2-.5.2-.3.1-.5 0-.6-.2zm-2.2-2.2c-.3-.3-.3-.8 0-1.1.3-.3.8-.3 1.1 0 .3.3.3.8 0 1.1-.1.1-.3.2-.5.2s-.4 0-.6-.2zm-2.1-2c-.3-.3-.3-.8 0-1.1.3-.3.8-.3 1.1 0 .3.3.3.8 0 1.1-.2.1-.3.2-.5.2-.3 0-.5-.2-.6-.2zm-2.2-2.3c-.3-.3-.3-.8 0-1.1.3-.3.8-.3 1.1 0 .3.3.3.8 0 1.1-.1.1-.3.2-.5.2-.2.1-.4.1-.6-.2zm-2.1-2c-.3-.3-.3-.8 0-1.1.3-.3.8-.3 1.1 0 .3.3.3.8 0 1.1-.1.1-.3.2-.5.2-.3 0-.5-.2-.6-.2zm-2.1-2.2c-.3-.3-.3-.8 0-1.1.3-.3.8-.3 1.1 0 .3.3.3.8 0 1.1-.1.1-.3.2-.5.2-.3 0-.5 0-.6-.2zm-2.2-2.1c-.3-.3-.3-.8 0-1.1.3-.3.8-.3 1.1 0 .3.3.3.8 0 1.1-.1.1-.3.2-.5.2-.2-.1-.4-.1-.6-.2zm-2.1-2.2c-.3-.3-.3-.8 0-1.1.3-.3.8-.3 1.1 0 .3.3.3.8 0 1.1-.1.2-.3.2-.5.2-.3.1-.5 0-.6-.2zm-2.2-2.2c-.3-.3-.3-.8 0-1.1.3-.3.8-.3 1.1 0 .3.3.3.8 0 1.1-.1.1-.3.2-.5.2s-.4 0-.6-.2zm-2.1-2c-.3-.3-.3-.8 0-1.1.3-.3.8-.3 1.1 0 .3.3.3.8 0 1.1-.1.1-.3.2-.5.2-.3 0-.5-.2-.6-.2zm-2.1-2.3c-.3-.3-.3-.8 0-1.1.3-.3.8-.3 1.1 0 .3.3.3.8 0 1.1-.1.1-.3.2-.5.2-.3.1-.5.1-.6-.2zm-2.2-2c-.3-.3-.3-.8 0-1.1.3-.3.8-.3 1.1 0 .3.3.3.8 0 1.1-.2.1-.3.2-.5.2s-.4 0-.6-.2zm-2.1-2.2c-.3-.3-.3-.8 0-1.1.3-.3.8-.3 1.1 0 .3.3.3.8 0 1.1-.1.1-.3.2-.5.2-.3 0-.5 0-.6-.2zm-2.2-2.1c-.3-.3-.3-.8 0-1.1.3-.3.8-.3 1.1 0 .3.3.3.8 0 1.1-.1.1-.3.2-.5.2-.2.1-.4-.1-.6-.2zm-2.1-2.2c-.3-.3-.3-.8 0-1.1.3-.3.8-.3 1.1 0 .3.3.3.8 0 1.1-.1.1-.3.2-.5.2-.3.1-.5 0-.6-.2zm-2.2-2.2c-.3-.3-.3-.8 0-1.1.3-.3.8-.3 1.1 0 .3.3.3.8 0 1.1-.1.1-.3.2-.5.2-.2.2-.4 0-.6-.2zm-2.1-2c-.3-.3-.3-.8 0-1.1.3-.3.8-.3 1.1 0 .3.3.3.8 0 1.1-.2.2-.3.2-.5.2-.3 0-.4-.2-.6-.2zm-2.1-2.1c-.3-.3-.3-.8 0-1.1.3-.3.8-.3 1.1 0 .3.3.3.8 0 1.1-.1.1-.3.2-.5.2-.3-.1-.5-.1-.6-.2zm-72.8 93.5c-45.3 0-53.4-28.5-53.4-28.8-.1-.4.2-.8.6-.9.4-.1.8.2.9.6.1.5 9.2 32.5 64 27 .4 0 .8.3.8.7s-.3.8-.7.8c-4.3.4-8.3.6-12.2.6zm82.5 0c-3.9 0-8-.2-12.5-.7-.4 0-.7-.4-.7-.8s.4-.7.8-.7c54.1 5.7 64-26.7 64-27 .1-.4.5-.6.9-.5s.6.5.5.9c.1.5-8.3 28.8-53 28.8z"/><path d="M65.4 67.3l5.9-5.9c.3-.3.3-.9 0-1.2s-.9-.3-1.2 0l-5.9 5.9-5.9-5.9c-.3-.3-.9-.3-1.2 0-.3.3-.3.9 0 1.2l5.9 5.9-5.9 5.9c-.3.3-.3.9 0 1.2.1.1.3.2.5.2s.3-.1.7-.2l5.9-5.9 5.9 5.9c.1.1.3.2.5.2s.4-.1.7-.2c.3-.3.3-.9 0-1.2l-5.9-5.9zm234.8 0l5.9-5.9c.3-.3.3-.9 0-1.2s-.9-.3-1.2 0l-5.9 5.9-5.9-5.9c-.3-.3-.9-.3-1.2 0-.3.3-.3.9 0 1.2l5.9 5.9-5.9 5.9c-.3.3-.3.9 0 1.2.1.1.3.2.5.2s.3-.1.7-.2l5.9-5.9 5.9 5.9c.1.1.3.2.5.2s.4-.1.7-.2c.3-.3.3-.9 0-1.2l-5.9-5.9z" fill="#ef4931"/></svg>