<svg version="1.1" id="Layer_1" xmlns="http://www.w3.org/2000/svg" x="0" y="0" viewBox="0 0 363 204" xml:space="preserve"><style>.st1{fill:none;stroke:#00ae57;stroke-width:3;stroke-linecap:round;stroke-linejoin:round}.st2{fill:#00ae57}.st3{fill:none;stroke:#00ae57;stroke-width:1.5}.st4{font-family:&apos;Helvetica&apos;}.st5{font-size:12px}</style><path id="Bounding_BOX" fill="none" d="M0 0h363v204H0z"/><path id="Shape" class="st1" d="M262.8 131.4c-16.1 0-29.1 13-29.1 29.1m34.5.7h-34.4"/><path id="Shape_1_" class="st2" d="M130.1 56.7h-18.5c-1 0-1.7-.7-1.8-1.7v-2.3c0-1 .7-1.7 1.7-1.7H130c1 0 1.7.7 1.8 1.7V55c0 1-.6 1.7-1.7 1.7zm-18.5-4.2c-.2 0-.2 0-.2.2V55c0 .2 0 .2.2.2H130c.3 0 .3 0 .3-.2v-2.2c0-.2 0-.2-.2-.2l-18.5-.1z"/><path id="Shape_2_" class="st2" d="M126.8 73.5h-11.9c-2 0-3-1.5-3-3V58.2c0-2 1.5-3 3-3h11.9c2 0 3 1.5 3 3v12.3c0 2-1.5 3-3 3zm-11.9-16.7c-.6 0-1.5.2-1.5 1.5v12.3c0 .6.2 1.5 1.5 1.5h11.9c.6 0 1.5-.2 1.5-1.5V58.2c0-.5-.2-1.5-1.5-1.5l-11.9.1z"/><path id="Shape_3_" class="st2" d="M162.9 56.7h-18.5c-1 0-1.7-.7-1.8-1.7v-2.3c0-1 .7-1.7 1.7-1.7h18.5c1 0 1.7.7 1.8 1.7V55c0 1-.6 1.7-1.7 1.7zm-18.5-4.2c-.2 0-.2 0-.2.2V55c0 .2 0 .2.2.2h18.4c.3 0 .3 0 .3-.2v-2.2c0-.2 0-.2-.2-.2l-18.5-.1z"/><path id="Shape_4_" class="st2" d="M159.6 73.5h-11.9c-2 0-3-1.5-3-3V58.2c0-2 1.5-3 3-3h11.9c2 0 3 1.5 3 3v12.3c0 2-1.5 3-3 3zm-11.9-16.7c-.6 0-1.5.2-1.5 1.5v12.3c0 .5.2 1.5 1.5 1.5h11.9c.6 0 1.5-.2 1.5-1.5V58.2c0-.6-.2-1.5-1.5-1.5l-11.9.1z"/><path id="Shape_5_" class="st2" d="M195.7 56.7h-18.5c-1 0-1.7-.7-1.8-1.7v-2.3c0-1 .7-1.7 1.7-1.7h18.5c1 0 1.7.7 1.8 1.7V55c0 1-.6 1.7-1.7 1.7zm-18.5-4.2c-.2 0-.2 0-.2.2V55c0 .2 0 .2.2.2h18.4c.3 0 .3 0 .3-.2v-2.2c0-.2 0-.2-.2-.2l-18.5-.1z"/><path id="Shape_6_" class="st2" d="M192.4 73.5h-11.9c-2 0-3-1.5-3-3V58.2c0-2 1.5-3 3-3h11.9c2 0 3 1.5 3 3v12.3c0 2-1.5 3-3 3zm-11.9-16.7c-.5 0-1.5.2-1.5 1.4v12.3c0 .6.2 1.5 1.5 1.5h11.9c.6 0 1.5-.2 1.5-1.5V58.2c0-.6-.2-1.5-1.5-1.5l-11.9.1z"/><path id="Path" class="st3" d="M111.6 138.3c-.5 0-1 .2-1 1v2.2c0 .5.2 1 1 1H130c.5 0 1-.2 1-1v-2.2c0-.4-.2-1-1-1h-18.4z"/><path id="Shape_7_" class="st2" d="M114.9 139c-2 0-3-1.5-3-3v-12.3c0-2 1.5-3 3-3h11.9c2 0 3 1.5 3 3V136c0 2-1.5 3-3 3h-11.9zm0-16.8c-.6 0-1.5.2-1.5 1.5V136c0 .6.2 1.5 1.5 1.5h11.9c.5 0 1.5-.2 1.5-1.5v-12.3c0-.5-.2-1.5-1.5-1.5h-11.9z"/><path id="Path_1_" class="st3" d="M144.4 138.3c-.5 0-1 .2-1 1v2.2c0 .5.2 1 1 1h18.5c.4 0 1-.2 1-1v-2.2c0-.4-.2-1-1-1h-18.5z"/><path id="Shape_8_" class="st2" d="M147.7 139c-2 0-3-1.5-3-3v-12.3c0-2 1.5-3 3-3h11.9c2 0 3 1.5 3 3V136c0 2-1.5 3-3 3h-11.9zm0-16.8c-.6 0-1.5.2-1.5 1.5V136c0 .5.2 1.5 1.5 1.5h11.9c.5 0 1.5-.2 1.5-1.5v-12.3c0-.6-.2-1.5-1.5-1.5h-11.9z"/><path id="Shape_9_" class="st2" d="M177.2 143.3c-1 0-1.7-.7-1.8-1.7v-2.3c0-1 .7-1.7 1.7-1.7h18.4c1 0 1.7.7 1.8 1.7v2.3c0 1-.7 1.7-1.7 1.7h-18.4zm0-4.3c-.3 0-.3 0-.3.2v2.2c0 .2 0 .2.2.2h18.5c.2 0 .2 0 .2-.2v-2.2c0-.2 0-.2-.2-.2h-18.4z"/><path id="Shape_10_" class="st2" d="M180.5 139c-2 0-3-1.5-3-3v-12.3c0-2 1.5-3 3-3h11.9c2 0 3 1.5 3 3V136c0 2-1.5 3-3 3h-11.9zm0-16.8c-.6 0-1.5.2-1.5 1.5V136c0 .6.2 1.5 1.5 1.5h11.9c.5 0 1.5-.2 1.5-1.5v-12.3c0-.6-.2-1.5-1.5-1.5h-11.9z"/><path id="Shape_11_" class="st2" d="M203.1 117.4H95.2c-.4 0-.8-.3-.8-.8V77c0-.4.3-.8.8-.8h107.9c.4 0 .8.3.8.8v39.7c-.1.3-.4.7-.8.7zm-107.2-1.5h106.4V77.7H95.9v38.2z"/><text transform="rotate(-90 190.16 -24.859)" class="st2 st4 st5">1</text><text transform="rotate(-90 187.41 -27.609)" class="st2 st4 st5">2</text><text transform="rotate(-90 184.31 -30.709)" class="st2 st4 st5">00</text><text transform="rotate(-90 177.81 -37.209)" class="st2 st4 st5">m</text><text transform="rotate(-90 172.91 -42.109)" class="st2 st4 st5">m</text><path id="Path_5_" class="st2" d="M201.7 167.8c-.4 0-.8-.3-.8-.8v-49c0-.4.3-.8.8-.8s.8.3.8.8v49.1c-.1.4-.4.7-.8.7z"/><path id="Path_6_" class="st2" d="M205.1 167.8h-6.8c-.4 0-.8-.3-.8-.8s.3-.8.8-.8h6.8c.4 0 .8.3.8.8s-.4.8-.8.8z"/><path id="Path_7_" class="st2" d="M205.1 118.7h-6.8c-.4 0-.8-.3-.8-.8s.3-.8.8-.8h6.8c.4 0 .8.3.8.8s-.4.8-.8.8z"/><path id="Shape_12_" class="st1" d="M96.6 169.7h170.7c.9 0 1.6-.7 1.6-1.5v-6.6m-.1-126v93.6"/></svg>