<svg width="30" height="30" xmlns="http://www.w3.org/2000/svg"><g fill="none" fill-rule="evenodd"><path d="M15 30c8.3 0 15-6.7 15-15S23.3 0 15 0 0 6.7 0 15s6.7 15 15 15" fill="#34A853" fill-rule="nonzero"/><path d="M21 6a3 3 0 1 1-1.523 5.585L18 13.06v3.879l1.477 1.476a3 3 0 1 1-1.062 1.062L16.939 18H13.06l-1.475 1.477a3 3 0 1 1-1.062-1.062L12 16.938v-3.877l-1.477-1.476a3 3 0 1 1 1.062-1.062L13.061 12h3.877l1.477-1.477A3 3 0 0 1 21 6zM9 19.5a1.5 1.5 0 1 0 0 3 1.5 1.5 0 0 0 0-3zm12 0a1.5 1.5 0 1 0 0 3 1.5 1.5 0 0 0 0-3zm-6-6a1.5 1.5 0 1 0 0 3 1.5 1.5 0 0 0 0-3zm-6-6a1.5 1.5 0 1 0 0 3 1.5 1.5 0 0 0 0-3zm12 0a1.5 1.5 0 1 0 0 3 1.5 1.5 0 0 0 0-3z" fill="#FFF"/></g></svg>