<svg width="30" height="30" xmlns="http://www.w3.org/2000/svg"><g fill="none"><path d="M15 30c8.3 0 15-6.7 15-15S23.3 0 15 0 0 6.7 0 15s6.7 15 15 15" fill="#34A853"/><path d="M21.706 10c3.069 3 3.069 7.882-.06 11l-5.597-5.47zm-8.966 2.353c.12 0 .3.059.36.118.121.117.181.235.181.353v1.822l2.046-1.999v5.588l-2.106-2.059v1.765c0 .118-.06.235-.18.353s-.241.118-.362.118H6.481c-.12 0-.24-.06-.36-.118a.381.381 0 0 1-.12-.282L6 12.824c0-.118.06-.236.12-.353.12-.118.241-.118.361-.118h6.259z" fill="#FFF"/></g></svg>