<svg width="32" height="32" xmlns="http://www.w3.org/2000/svg"><g fill="none" fill-rule="evenodd"><path d="M0 0h32v32H0z"/><path d="M23.222 21.5c1.43 0 2.788.315 4.016.87 1.069.48 1.762 1.56 1.762 2.775V26H17.444v-.855c0-1.215.694-2.295 1.763-2.775a9.723 9.723 0 0 1 4.015-.87zm-14.444 0c1.43 0 2.788.315 4.015.87 1.07.48 1.763 1.56 1.763 2.775V26H3v-.855c0-1.215.693-2.295 1.762-2.775a9.723 9.723 0 0 1 4.016-.87zM23.222 14c1.59 0 2.89 1.35 2.89 3s-1.3 3-2.89 3c-1.589 0-2.889-1.35-2.889-3s1.3-3 2.89-3zM8.778 14c1.589 0 2.889 1.35 2.889 3s-1.3 3-2.89 3C7.19 20 5.89 18.65 5.89 17s1.3-3 2.889-3z" fill="#34A853" fill-rule="nonzero"/></g></svg>