<svg width="24" height="24" xmlns="http://www.w3.org/2000/svg"><g fill="none" fill-rule="evenodd"><path d="M-4-4h32v32H-4z"/><path d="M20 0a4 4 0 1 1-2.032 7.446L16 9.413v5.173l1.968 1.968a4 4 0 1 1-1.414 1.414L14.586 16H9.413l-1.967 1.968a4 4 0 1 1-1.414-1.414L8 14.585V9.414L6.032 7.446a4 4 0 1 1 1.414-1.414L9.414 8h5.171l1.969-1.968A4 4 0 0 1 20 0zM4 18a2 2 0 1 0 0 4 2 2 0 0 0 0-4zm16 0a2 2 0 1 0 0 4 2 2 0 0 0 0-4zm-8-8a2 2 0 1 0 0 4 2 2 0 0 0 0-4zM4 2a2 2 0 1 0 0 4 2 2 0 0 0 0-4zm16 0a2 2 0 1 0 0 4 2 2 0 0 0 0-4z" fill="#FFF"/></g></svg>