<svg width="32" height="32" xmlns="http://www.w3.org/2000/svg"><g fill="none" fill-rule="evenodd"><path d="M0 0h32v32H0z"/><path d="M18.8 26.7v2.1h7.7v2.5l3.5-3.5-3.5-3.5v2.4h-7.7zm3.5-8.4l-3.5 3.5 3.5 3.5v-2.4H30v-2.1h-7.7v-2.5zm-7-14.4c0-.7-.3-1.4-.8-2-.5-.6-1.2-.9-1.9-.9s-1.4.3-2 .9c-.6.6-.9 1.2-.9 2 0 .7.3 1.4.9 1.9.6.5 1.2.8 2 .8.7 0 1.4-.3 1.9-.8s.8-1.1.8-1.9m-8 7.6l-2.5 1.1v4.6H2v-6.6l7.4-3c.3-.1.7-.2 1.1-.2 1.1 0 1.9.4 2.4 1.3l1.3 2.2c.7 1.1 1.5 1.9 2.6 2.5 1.1.6 2.2 1 3.5 1v2.8c-3.1 0-5.7-1.2-7.6-3.6l-.9 4.2 2.9 2.9v10.6h-2.8v-8.4l-3-2.8-2.4 11.2h-3l3.8-19.8z" fill="#00AE57" fill-rule="nonzero"/></g></svg>