<svg width="32" height="32" xmlns="http://www.w3.org/2000/svg"><g fill="none" fill-rule="evenodd"><path d="M0 0h32v32H0z"/><path d="M27.5 5c1.4 0 2.5 1.1 2.4 2.5v17.8c0 1.4-1.1 2.5-2.5 2.5H4.5c-1.4 0-2.5-1.1-2.5-2.5V7.5C2 6.1 3.1 5 4.5 5zm-.1 2.5H4.5v17.8h23l-.1-17.8zM13 10.4c.4 0 .7.3.7.7 0 .8.1 1.7.4 2.4.1.2 0 .5-.2.7l-1.6 1.4c1 1.9 2.5 3.5 4.5 4.5l1.5-1.5c.2-.2.5-.2.7-.2.8.3 1.6.4 2.4.4.4 0 .7.3.7.7v2.4c0 .4-.3.7-.7.7-6.4 0-11.5-5.1-11.5-11.5 0-.4.3-.7.7-.7H13z" fill="#FFF" fill-rule="nonzero"/></g></svg>