<svg width="32" height="32" xmlns="http://www.w3.org/2000/svg"><g fill="none" fill-rule="evenodd"><path d="M0 0h32v32H0z"/><path d="M25.6 21.125c1.584 0 3.088.341 4.448.942A3.27 3.27 0 0 1 32 25.075V26h-8v-.926c0-1.349-.544-2.6-1.472-3.494.976-.292 2-.455 3.072-.455zm-19.2 0c1.072 0 2.096.163 3.072.455A4.836 4.836 0 0 0 8 25.074V26H0v-.926a3.27 3.27 0 0 1 1.952-3.007 10.975 10.975 0 0 1 4.448-.942zm9.6 0c1.584 0 3.088.341 4.448.942a3.27 3.27 0 0 1 1.952 3.007V26H9.6v-.926a3.27 3.27 0 0 1 1.952-3.007A10.975 10.975 0 0 1 16 21.125zM25.6 13c1.76 0 3.2 1.463 3.2 3.25 0 1.788-1.44 3.25-3.2 3.25-1.76 0-3.2-1.462-3.2-3.25 0-1.787 1.44-3.25 3.2-3.25zM6.4 13c1.76 0 3.2 1.463 3.2 3.25 0 1.788-1.44 3.25-3.2 3.25-1.76 0-3.2-1.462-3.2-3.25C3.2 14.463 4.64 13 6.4 13zm9.6 0c1.76 0 3.2 1.463 3.2 3.25 0 1.788-1.44 3.25-3.2 3.25-1.76 0-3.2-1.462-3.2-3.25 0-1.787 1.44-3.25 3.2-3.25zm-4.8-8c1.76 0 3.2 1.463 3.2 3.25s-1.44 3.25-3.2 3.25C9.44 11.5 8 10.037 8 8.25S9.44 5 11.2 5zm9.6 0C22.56 5 24 6.463 24 8.25s-1.44 3.25-3.2 3.25c-1.76 0-3.2-1.463-3.2-3.25S19.04 5 20.8 5z" fill="#FFF" fill-rule="nonzero"/></g></svg>