<svg width="30" height="30" xmlns="http://www.w3.org/2000/svg"><g fill="none"><path d="M15 30c8.3 0 15-6.7 15-15S23.3 0 15 0 0 6.7 0 15s6.7 15 15 15" fill="#34A853"/><path d="M21 18.982c.99 0 1.93.211 2.78.584a2.023 2.023 0 0 1 1.22 1.86V22h-5v-.573c0-.835-.34-1.61-.92-2.163a6.716 6.716 0 0 1 1.92-.282zm-12 0c.67 0 1.31.1 1.92.282a2.98 2.98 0 0 0-.92 2.163V22H5v-.573c0-.815.48-1.54 1.22-1.861A6.915 6.915 0 0 1 9 18.982zm6 0c.99 0 1.93.211 2.78.584a2.023 2.023 0 0 1 1.22 1.86V22h-8v-.573c0-.815.48-1.54 1.22-1.861a6.915 6.915 0 0 1 2.78-.584zm6-5.03a2.012 2.012 0 0 1 0 4.024 2.012 2.012 0 0 1 0-4.024zm-12 0a2.012 2.012 0 0 1 0 4.024 2.012 2.012 0 0 1 0-4.024zm6 0a2.012 2.012 0 0 1 0 4.024 2.012 2.012 0 0 1 0-4.024zM12 9a2.012 2.012 0 0 1 0 4.024A2.012 2.012 0 0 1 12 9zm6 0a2.012 2.012 0 0 1 0 4.024A2.012 2.012 0 0 1 18 9z" fill="#FFF"/></g></svg>