<svg width="30" height="30" xmlns="http://www.w3.org/2000/svg"><g fill="none"><path d="M15 30c8.3 0 15-6.7 15-15S23.3 0 15 0 0 6.7 0 15s6.7 15 15 15" fill="#34A853"/><path d="M20 16c.99 0 1.93.21 2.78.58A2.01 2.01 0 0 1 24 18.43V19h-8v-.57c0-.81.48-1.53 1.22-1.85A6.95 6.95 0 0 1 20 16zm-10 0c.99 0 1.93.21 2.78.58A2.01 2.01 0 0 1 14 18.43V19H6v-.57c0-.81.48-1.53 1.22-1.85A6.95 6.95 0 0 1 10 16zm10-5c1.1 0 2 .9 2 2s-.9 2-2 2-2-.9-2-2 .9-2 2-2zm-10 0c1.1 0 2 .9 2 2s-.9 2-2 2-2-.9-2-2 .9-2 2-2z" fill="#FFF"/></g></svg>