<svg width="24" height="24" xmlns="http://www.w3.org/2000/svg"><g stroke="#00AE58" stroke-width="1.33" fill="none" fill-rule="evenodd" stroke-linecap="round"><path d="M5.337 17.976l3.112-3.112-3.112 3.112zm12.826-12.78L14.9 8.46l3.263-3.264zM5.309 5.32l3.14 3.14-3.14-3.14zM18.136 18.1L14.9 14.864l3.236 3.236zM8.31 15.043h6.732V8.311H8.31v6.732z" stroke-linejoin="round"/><path d="M19.947.665a2.663 2.663 0 0 1 2.66 2.66 2.663 2.663 0 0 1-2.66 2.659 2.663 2.663 0 0 1-2.66-2.66 2.663 2.663 0 0 1 2.66-2.66zM3.325 5.984a2.663 2.663 0 0 1-2.66-2.66 2.663 2.663 0 0 1 2.66-2.66 2.662 2.662 0 0 1 2.659 2.66 2.662 2.662 0 0 1-2.66 2.66zM.665 19.947a2.664 2.664 0 0 1 2.66-2.66 2.663 2.663 0 0 1 2.659 2.66 2.662 2.662 0 0 1-2.66 2.659 2.663 2.663 0 0 1-2.66-2.66zm19.282 2.659a2.663 2.663 0 0 1-2.66-2.66 2.664 2.664 0 0 1 2.66-2.66 2.664 2.664 0 0 1 2.66 2.66 2.663 2.663 0 0 1-2.66 2.66zm-8.27-9.754a1.175 1.175 0 1 0 0-2.35 1.175 1.175 0 0 0 0 2.35z"/></g></svg>