<svg width="32" height="32" xmlns="http://www.w3.org/2000/svg"><g fill="none" fill-rule="evenodd"><path d="M0 0h32v32H0z"/><path d="M17.5 16.2c.1 0 .2.2.1.3 0 0-.2.4-.3.9 0 .4-.1.8.1 1.3.1.3.8 1 .8 1.6 0 .9-.2 1.5-.3 1.8-.08.24-.224.608-.278.746l-.05.124c-.045.153.053.23.228.23h1.1c.2 0 .3.1.3.2l-2.8 3.5c-.1.1-.3.1-.4 0l-2.9-3.5c-.1-.1-.1-.2.1-.2h1.3c.1 0 .3-.1.3-.3 0 0 0-.016.013-.086l.017-.09c.027-.13.077-.35.17-.724.2-.7.2-.5.3-1 .1-.6-.1-1.1-.2-1.4-.2-.4-.7-1.1-.5-1.9.2-.8.4-1.2.4-1.2.1-.2.3-.3.5-.3zm-7.8-3.8c.1 0 .2.2.1.3 0 0-.2.4-.3.9 0 .4-.1.8.1 1.3.1.3.8 1 .8 1.6 0 .9-.2 1.5-.3 1.8-.1.3-.3.8-.3.8-.1.2 0 .3.2.3h1.1c.2 0 .2.1.1.3l-2.8 3.5c-.1.1-.3.1-.4 0l-2.7-3.6c-.1-.1-.1-.2.1-.2h1.3c.1 0 .3-.1.3-.3 0 0 0-.016.013-.086l.017-.09c.027-.13.077-.35.17-.724.2-.7.2-.5.3-1 .1-.6-.1-1.1-.2-1.4-.2-.4-.7-1.1-.5-1.9.2-.8.4-1.2.4-1.2.1-.2.3-.3.5-.3zm15.7 0c.1 0 .2.2.1.3 0 0-.2.4-.3.9 0 .4-.1.8.1 1.3.1.3.8 1 .8 1.6 0 .9-.2 1.5-.3 1.8-.1.3-.3.8-.3.8-.1.2 0 .3.2.3h1.1c.1 0 .2.1.1.2l-2.8 3.5c-.1.1-.3.1-.4 0l-2.9-3.5c-.1-.1-.1-.2.1-.2h1.3c.1 0 .3-.1.3-.3a.908.908 0 0 1 .013-.086l.017-.09c.027-.13.077-.35.17-.724.2-.7.2-.5.3-1 .1-.6 0-1 0-1.4-.2-.4-.7-1.1-.5-1.9.2-.8.4-1.2.4-1.2.1-.2.3-.3.5-.3zM29.7 5c.2 0 .3.2.3.3v4.2c0 .2-.1.3-.3.3H2.3c-.2 0-.3-.1-.3-.3V5.3c0-.2.1-.3.3-.3z" fill="#754E9F" fill-rule="nonzero"/></g></svg>