<svg width="26" height="26" xmlns="http://www.w3.org/2000/svg"><g fill="none" fill-rule="evenodd"><path d="M-3-3h32v32H-3z"/><path d="M22.52 14.248c.048-.4.08-.816.08-1.248 0-.432-.032-.848-.096-1.248l2.704-2.112a.661.661 0 0 0 .16-.816l-2.56-4.432a.65.65 0 0 0-.784-.288l-3.184 1.28a9.374 9.374 0 0 0-2.16-1.248L16.2.744A.639.639 0 0 0 15.56.2h-5.12a.623.623 0 0 0-.624.544l-.48 3.392a9.625 9.625 0 0 0-2.16 1.248l-3.184-1.28a.633.633 0 0 0-.784.288L.648 8.824a.62.62 0 0 0 .16.816l2.704 2.112c-.064.4-.112.832-.112 1.248 0 .416.032.848.096 1.248L.792 16.36a.661.661 0 0 0-.16.816l2.56 4.432a.65.65 0 0 0 .784.288l3.184-1.28a9.374 9.374 0 0 0 2.16 1.248l.48 3.392a.65.65 0 0 0 .64.544h5.12c.32 0 .592-.224.624-.544l.48-3.392a9.625 9.625 0 0 0 2.16-1.248l3.184 1.28c.288.112.624 0 .784-.288l2.56-4.432a.62.62 0 0 0-.16-.816l-2.672-2.112zM13 17.8c-2.64 0-4.8-2.16-4.8-4.8 0-2.64 2.16-4.8 4.8-4.8 2.64 0 4.8 2.16 4.8 4.8 0 2.64-2.16 4.8-4.8 4.8z" fill="#681DA8" fill-rule="nonzero"/></g></svg>