<svg width="30" height="30" xmlns="http://www.w3.org/2000/svg"><g fill="none"><path d="M15 30c8.3 0 15-6.7 15-15S23.3 0 15 0 0 6.7 0 15s6.7 15 15 15" fill="#681DA8"/><path d="M21.885 15.426a7.95 7.95 0 0 0 .058-.926c0-.32-.023-.63-.07-.926l1.956-1.568a.5.5 0 0 0 .116-.605l-1.852-3.29c-.115-.214-.358-.285-.567-.214l-2.302.95a6.74 6.74 0 0 0-1.563-.926l-.347-2.517A.466.466 0 0 0 16.851 5H13.15a.454.454 0 0 0-.452.404L12.35 7.92a6.92 6.92 0 0 0-1.562.926l-2.303-.95a.452.452 0 0 0-.567.214L6.067 11.4a.468.468 0 0 0 .115.605l1.956 1.568a6.12 6.12 0 0 0-.081.926c0 .309.023.63.07.926L6.17 16.994a.5.5 0 0 0-.116.605l1.852 3.29c.115.213.358.285.567.213l2.302-.95c.486.38.995.69 1.563.927l.347 2.517c.046.238.231.404.463.404h3.702a.446.446 0 0 0 .452-.404l.347-2.517a6.92 6.92 0 0 0 1.562-.927l2.303.95c.208.084.451 0 .567-.213l1.851-3.29a.468.468 0 0 0-.115-.605l-1.933-1.568zM15 18.062c-1.91 0-3.472-1.603-3.472-3.562 0-1.96 1.563-3.563 3.472-3.563 1.91 0 3.472 1.604 3.472 3.563 0 1.96-1.563 3.563-3.472 3.563z" fill="#FFF"/></g></svg>