{
    "accessors": [
        {
            "bufferView": 0,
            "componentType": 5123,
            "count": 588,
            "max": [
                587
            ],
            "min": [
                0
            ],
            "name": "buffer-0-accessor-indices-buffer-0-mesh-0",
            "type": "SCALAR"
        },
        {
            "bufferView": 2,
            "componentType": 5126,
            "count": 588,
            "max": [
                14.1820125579834,
                68.25780487060547,
                43.01705932617188
            ],
            "min": [
                -18.40653038024902,
                0,
                -43.01705932617188
            ],
            "name": "buffer-0-accessor-position-buffer-0-mesh-0",
            "type": "VEC3"
        },
        {
            "bufferView": 2,
            "byteOffset": 7056,
            "componentType": 5126,
            "count": 588,
            "max": [
                0.9867293238639832,
                1,
                1
            ],
            "min": [
                -1,
                -1,
                -1
            ],
            "name": "buffer-0-accessor-normal-buffer-0-mesh-0",
            "type": "VEC3"
        },
        {
            "bufferView": 1,
            "componentType": 5126,
            "count": 588,
            "max": [
                0.7307639718055725,
                0
            ],
            "min": [
                0,
                -0.6998059749603271
            ],
            "name": "buffer-0-accessor-texcoord-buffer-0-mesh-0",
            "type": "VEC2"
        },
        {
            "bufferView": 3,
            "componentType": 5126,
            "count": 0,
            "max": [
                0,
                0,
                0,
                0
            ],
            "min": [
                0,
                0,
                0,
                0
            ],
            "name": "buffer-0-accessor-color-buffer-0-mesh-0",
            "type": "VEC4"
        }
    ],
    "asset": {
        "generator": "Obj2GltfConverter",
        "version": "2.0"
    },
    "bufferViews": [
        {
            "buffer": 0,
            "byteLength": 1176,
            "byteStride": 0,
            "name": "buffer-0-bufferview-ushort",
            "target": 34963
        },
        {
            "buffer": 0,
            "byteLength": 4704,
            "byteOffset": 1176,
            "byteStride": 8,
            "name": "buffer-0-bufferview-vec2",
            "target": 34962
        },
        {
            "buffer": 0,
            "byteLength": 14112,
            "byteOffset": 5880,
            "byteStride": 12,
            "name": "buffer-0-bufferview-vec3",
            "target": 34962
        },
        {
            "buffer": 0,
            "byteLength": 1,
            "name": "buffer-0-bufferview-vec4"
        }
    ],
    "buffers": [
        {
            "byteLength": 20000,
            "name": "buffer-0",
            "uri": "data:application/octet-stream;base64,"
        }
    ],
    "images": [
        {
            "mimeType": "image/png",
            "name": "Mat-image",
            "uri": "data:image/png;base64,"
        }
    ],
    "materials": [
        {
            "doubleSided": true,
            "name": "Mat",
            "pbrMetallicRoughness": {
                "baseColorTexture": {
                    "index": 0
                },
                "metallicFactor": 0,
                "roughnessFactor": 0.9699476628648295
            }
        }
    ],
    "meshes": [
        {
            "name": "buffer-0-mesh-0",
            "primitives": [
                {
                    "attributes": {
                        "NORMAL": 2,
                        "POSITION": 1,
                        "TEXCOORD_0": 3
                    },
                    "indices": 0,
                    "material": 0
                }
            ]
        }
    ],
    "nodes": [
        {
            "mesh": 0,
            "name": "node-0"
        }
    ],
    "samplers": [
        {
            "name": "Mat-sampler",
            "wrapS": 10497,
            "wrapT": 10497
        }
    ],
    "scenes": [
        {
            "name": "scene-0",
            "nodes": [
                0
            ]
        }
    ],
    "textures": [
        {
            "name": "Mat-texture",
            "sampler": 0,
            "source": 0
        }
    ]
}