{"asset":{"version":"2.0","generator":"babylon.js glTF exporter for 3dsmax 2020 v20191009.6"},"scene":0,"scenes":[{"nodes":[0,1,2,3,4,5,6,7,8,9,10,11,12,13,14,15,16,17,18,19,20,21],"extensions":{}}],"nodes":[{"mesh":0,"translation":[0.0,5E-05,0.0],"rotation":[0.0,0.0,0.0,1.0],"scale":[2.3,1.0,2.3],"name":"floor"},{"mesh":1,"translation":[0.0,299.999939,-7.54979E-12],"rotation":[-1.0,0.0,0.0,7.54979E-08],"scale":[2.3,1.0,2.3],"name":"ceiling"},{"mesh":2,"translation":[0.0,150.0,-114.999939],"rotation":[0.7071068,0.0,0.0,0.7071067],"scale":[2.3,1.0,3.0],"name":"1mPlane02"},{"mesh":3,"translation":[0.0,150.0,114.999985],"rotation":[-0.7071068,0.0,0.0,0.7071067],"scale":[2.3,1.0,3.0],"name":"1mPlane00"},{"mesh":4,"translation":[-114.999962,150.0,0.0],"rotation":[0.0,0.0,-0.7071068,0.7071068],"scale":[3.0,1.0,2.3],"name":"1mPlane03"},{"mesh":5,"translation":[115.000061,150.0,0.0],"rotation":[0.0,0.0,0.7071068,0.7071067],"scale":[3.0,1.0,2.3],"name":"1mPlane01"},{"mesh":6,"translation":[75.00012,35.0,-50.0],"rotation":[0.0,0.0,0.0,1.0],"scale":[1.0,1.0,1.0],"name":"onePersonDesk00"},{"mesh":7,"translation":[-2.53281116,41.2166023,-71.33647],"rotation":[0.0,0.5748844,0.0,0.8182347],"scale":[1.0,1.0,1.0],"name":"googleChair"},{"mesh":8,"translation":[0.0,187.5,-113.72998],"rotation":[0.0,0.0,0.0,1.0],"scale":[1.0,1.75,0.0254],"name":"acousticPanel01"},{"mesh":9,"translation":[-113.730019,187.5,-1.90734863E-06],"rotation":[0.0,0.7071068,0.0,0.7071067],"scale":[1.0,1.75,0.0254],"name":"acousticPanel00"},{"mesh":10,"translation":[-3.81469727E-06,7.5,-114.0],"rotation":[0.0,0.0,0.0,1.0],"scale":[2.3,1.0,1.0],"name":"skirtingBoard02"},{"mesh":11,"translation":[-3.814697E-06,7.5,113.999992],"rotation":[0.0,-1.0,0.0,-7.54979E-08],"scale":[2.3,1.0,1.0],"name":"skirtingBoard01"},{"mesh":12,"translation":[-113.999992,7.5,1.90734863E-06],"rotation":[0.0,0.7071067,0.0,0.7071068],"scale":[2.3,1.0,1.0],"name":"skirtingBoard00"},{"mesh":13,"translation":[114.000053,7.5,1.90734863E-06],"rotation":[0.0,-0.707106948,0.0,0.7071066],"scale":[2.3,1.0,1.0],"name":"skirtingBoard03"},{"mesh":14,"translation":[-5.555611,291.859558,4.76837158E-07],"rotation":[0.0,0.7071068,0.0,0.7071067],"scale":[1.0,1.0,1.0],"name":"stripLight"},{"mesh":15,"translation":[17.4192543,0.0,-61.9617271],"rotation":[0.0,0.574884355,0.0,0.8182347],"scale":[1.0,0.975216746,0.9752168],"name":"lowpolyPeopleSittinglMan"},{"mesh":16,"translation":[-8.857839,41.2166023,6.28234243],"rotation":[0.0,0.734508038,0.0,0.6786],"scale":[0.99999994,1.0,0.99999994],"name":"googleChair001"},{"mesh":17,"translation":[13.1846542,0.0,6.597392],"rotation":[0.0,0.734508038,0.0,0.6786],"scale":[0.99999994,0.975216746,0.975216746],"name":"lowpolyPeopleSittinglMan001"},{"mesh":18,"translation":[80.85667,83.346756,-57.05511],"rotation":[0.0,-0.566476643,0.0,0.824077845],"scale":[0.99999994,1.0,0.99999994],"name":"New_Chromebase_Normal_noStand"},{"translation":[0.0,0.0,0.0],"rotation":[0.0,0.0,0.0,1.0],"scale":[1.0,1.0,1.0],"name":"Default light"},{"camera":0,"translation":[-26.653038,160.967,421.896667],"rotation":[-0.0436083972,-0.0224248432,-0.0009790901,0.998796463],"scale":[1.0,1.0,1.0],"name":"roomLayout_phoneBooth_chromeBase"},{"camera":1,"translation":[-405.0433,265.395081,48.4422531],"rotation":[-0.1360966,-0.6669944,-0.104647994,0.725013852],"scale":[0.99999994,0.99999994,0.99999994],"name":"roomLayout_phoneBooth_chromeBaseCam"}],"cameras":[{"perspective":{"yfov":0.8172757,"zfar":10000.0,"znear":0.1},"type":"perspective","name":"roomLayout_phoneBooth_chromeBase"},{"perspective":{"yfov":0.8172757,"zfar":10000.0,"znear":0.1},"type":"perspective","name":"roomLayout_phoneBooth_chromeBaseCam"}],"meshes":[{"primitives":[{"attributes":{"POSITION":1,"NORMAL":2,"TEXCOORD_0":3},"indices":0,"mode":4,"material":0}],"name":"floor"},{"primitives":[{"attributes":{"POSITION":5,"NORMAL":6,"TEXCOORD_0":7},"indices":4,"mode":4,"material":1}],"name":"ceiling"},{"primitives":[{"attributes":{"POSITION":9,"NORMAL":10,"TEXCOORD_0":11},"indices":8,"mode":4,"material":1}],"name":"1mPlane02"},{"primitives":[{"attributes":{"POSITION":13,"NORMAL":14,"TEXCOORD_0":15},"indices":12,"mode":4,"material":1}],"name":"1mPlane00"},{"primitives":[{"attributes":{"POSITION":17,"NORMAL":18,"TEXCOORD_0":19},"indices":16,"mode":4,"material":1}],"name":"1mPlane03"},{"primitives":[{"attributes":{"POSITION":21,"NORMAL":22,"TEXCOORD_0":23},"indices":20,"mode":4,"material":1}],"name":"1mPlane01"},{"primitives":[{"attributes":{"POSITION":25,"NORMAL":26,"TEXCOORD_0":27},"indices":24,"mode":4,"material":2}],"name":"onePersonDesk00"},{"primitives":[{"attributes":{"POSITION":29,"NORMAL":30,"TEXCOORD_0":31,"TEXCOORD_1":32},"indices":28,"mode":4,"material":3},{"attributes":{"POSITION":34,"NORMAL":35,"TEXCOORD_0":36,"TEXCOORD_1":37},"indices":33,"mode":4,"material":4},{"attributes":{"POSITION":39,"NORMAL":40,"TEXCOORD_0":41,"TEXCOORD_1":42},"indices":38,"mode":4,"material":4}],"name":"googleChair"},{"primitives":[{"attributes":{"POSITION":44,"NORMAL":45,"TEXCOORD_0":46},"indices":43,"mode":4,"material":5}],"name":"acousticPanel01"},{"primitives":[{"attributes":{"POSITION":48,"NORMAL":49,"TEXCOORD_0":50},"indices":47,"mode":4,"material":5}],"name":"acousticPanel00"},{"primitives":[{"attributes":{"POSITION":52,"NORMAL":53},"indices":51,"mode":4,"material":6}],"name":"skirtingBoard02"},{"primitives":[{"attributes":{"POSITION":55,"NORMAL":56},"indices":54,"mode":4,"material":6}],"name":"skirtingBoard01"},{"primitives":[{"attributes":{"POSITION":58,"NORMAL":59},"indices":57,"mode":4,"material":6}],"name":"skirtingBoard00"},{"primitives":[{"attributes":{"POSITION":61,"NORMAL":62},"indices":60,"mode":4,"material":6}],"name":"skirtingBoard03"},{"primitives":[{"attributes":{"POSITION":64,"NORMAL":65,"TEXCOORD_0":66},"indices":63,"mode":4,"material":7}],"name":"stripLight"},{"primitives":[{"attributes":{"POSITION":68,"NORMAL":69},"indices":67,"mode":4,"material":1}],"name":"lowpolyPeopleSittinglMan"},{"primitives":[{"attributes":{"POSITION":71,"NORMAL":72,"TEXCOORD_0":73,"TEXCOORD_1":74},"indices":70,"mode":4,"material":3},{"attributes":{"POSITION":76,"NORMAL":77,"TEXCOORD_0":78,"TEXCOORD_1":79},"indices":75,"mode":4,"material":4},{"attributes":{"POSITION":81,"NORMAL":82,"TEXCOORD_0":83,"TEXCOORD_1":84},"indices":80,"mode":4,"material":4}],"name":"googleChair001"},{"primitives":[{"attributes":{"POSITION":86,"NORMAL":87},"indices":85,"mode":4,"material":1}],"name":"lowpolyPeopleSittinglMan001"},{"primitives":[{"attributes":{"POSITION":89,"NORMAL":90,"TEXCOORD_0":91},"indices":88,"mode":4,"material":8}],"name":"New_Chromebase_Normal_noStand"}],"accessors":[{"bufferView":0,"componentType":5123,"count":6,"type":"SCALAR","name":"accessorIndices"},{"bufferView":1,"componentType":5126,"count":6,"max":[50.0,-5E-05,50.0],"min":[-50.0,-5E-05,-50.0],"type":"VEC3","name":"accessorPositions"},{"bufferView":1,"byteOffset":72,"componentType":5126,"count":6,"type":"VEC3","name":"accessorNormals"},{"bufferView":2,"componentType":5126,"count":6,"type":"VEC2","name":"accessorUVs"},{"bufferView":0,"byteOffset":12,"componentType":5123,"count":6,"type":"SCALAR","name":"accessorIndices"},{"bufferView":1,"byteOffset":144,"componentType":5126,"count":6,"max":[50.0,-6.10351563E-05,50.0],"min":[-50.0,-6.10351563E-05,-50.0],"type":"VEC3","name":"accessorPositions"},{"bufferView":1,"byteOffset":216,"componentType":5126,"count":6,"type":"VEC3","name":"accessorNormals"},{"bufferView":2,"byteOffset":48,"componentType":5126,"count":6,"type":"VEC2","name":"accessorUVs"},{"bufferView":0,"byteOffset":24,"componentType":5123,"count":6,"type":"SCALAR","name":"accessorIndices"},{"bufferView":1,"byteOffset":288,"componentType":5126,"count":6,"max":[50.0,-5.340576E-05,50.0],"min":[-50.0,-5.340576E-05,-50.0],"type":"VEC3","name":"accessorPositions"},{"bufferView":1,"byteOffset":360,"componentType":5126,"count":6,"type":"VEC3","name":"accessorNormals"},{"bufferView":2,"byteOffset":96,"componentType":5126,"count":6,"type":"VEC2","name":"accessorUVs"},{"bufferView":0,"byteOffset":36,"componentType":5123,"count":6,"type":"SCALAR","name":"accessorIndices"},{"bufferView":1,"byteOffset":432,"componentType":5126,"count":6,"max":[50.0,-5.340576E-05,50.0],"min":[-50.0,-5.340576E-05,-50.0],"type":"VEC3","name":"accessorPositions"},{"bufferView":1,"byteOffset":504,"componentType":5126,"count":6,"type":"VEC3","name":"accessorNormals"},{"bufferView":2,"byteOffset":144,"componentType":5126,"count":6,"type":"VEC2","name":"accessorUVs"},{"bufferView":0,"byteOffset":48,"componentType":5123,"count":6,"type":"SCALAR","name":"accessorIndices"},{"bufferView":1,"byteOffset":576,"componentType":5126,"count":6,"max":[50.0,-4.57763672E-05,50.0],"min":[-50.0,-4.57763672E-05,-50.0],"type":"VEC3","name":"accessorPositions"},{"bufferView":1,"byteOffset":648,"componentType":5126,"count":6,"type":"VEC3","name":"accessorNormals"},{"bufferView":2,"byteOffset":192,"componentType":5126,"count":6,"type":"VEC2","name":"accessorUVs"},{"bufferView":0,"byteOffset":60,"componentType":5123,"count":6,"type":"SCALAR","name":"accessorIndices"},{"bufferView":1,"byteOffset":720,"componentType":5126,"count":6,"max":[50.0,-4.57763672E-05,50.0],"min":[-50.0,-4.57763672E-05,-50.0],"type":"VEC3","name":"accessorPositions"},{"bufferView":1,"byteOffset":792,"componentType":5126,"count":6,"type":"VEC3","name":"accessorNormals"},{"bufferView":2,"byteOffset":240,"componentType":5126,"count":6,"type":"VEC2","name":"accessorUVs"},{"bufferView":0,"byteOffset":72,"componentType":5123,"count":3684,"type":"SCALAR","name":"accessorIndices"},{"bufferView":1,"byteOffset":864,"componentType":5126,"count":3684,"max":[40.0,35.0,92.38583],"min":[-40.0,-35.0,-65.0],"type":"VEC3","name":"accessorPositions"},{"bufferView":1,"byteOffset":45072,"componentType":5126,"count":3684,"type":"VEC3","name":"accessorNormals"},{"bufferView":2,"byteOffset":288,"componentType":5126,"count":3684,"type":"VEC2","name":"accessorUVs"},{"bufferView":0,"byteOffset":7440,"componentType":5123,"count":6333,"type":"SCALAR","name":"accessorIndices"},{"bufferView":1,"byteOffset":89280,"componentType":5126,"count":6333,"max":[22.9213619,40.6171036,26.3581638],"min":[-22.9213638,-0.8798828,-26.3581638],"type":"VEC3","name":"accessorPositions"},{"bufferView":1,"byteOffset":165276,"componentType":5126,"count":6333,"type":"VEC3","name":"accessorNormals"},{"bufferView":2,"byteOffset":29760,"componentType":5126,"count":6333,"type":"VEC2","name":"accessorUVs"},{"bufferView":2,"byteOffset":80424,"componentType":5126,"count":6333,"type":"VEC2","name":"accessorUV2s"},{"bufferView":0,"byteOffset":20108,"componentType":5123,"count":978,"type":"SCALAR","name":"accessorIndices"},{"bufferView":1,"byteOffset":241272,"componentType":5126,"count":978,"max":[20.1816616,-39.8043022,20.245676],"min":[-20.18166,-40.6171036,-20.2192421],"type":"VEC3","name":"accessorPositions"},{"bufferView":1,"byteOffset":253008,"componentType":5126,"count":978,"type":"VEC3","name":"accessorNormals"},{"bufferView":2,"byteOffset":131088,"componentType":5126,"count":978,"type":"VEC2","name":"accessorUVs"},{"bufferView":2,"byteOffset":138912,"componentType":5126,"count":978,"type":"VEC2","name":"accessorUV2s"},{"bufferView":0,"byteOffset":22064,"componentType":5123,"count":2244,"type":"SCALAR","name":"accessorIndices"},{"bufferView":1,"byteOffset":264744,"componentType":5126,"count":2244,"max":[19.61651,1.07748413,19.6297245],"min":[-19.61651,-39.9821053,-19.6032867],"type":"VEC3","name":"accessorPositions"},{"bufferView":1,"byteOffset":291672,"componentType":5126,"count":2244,"type":"VEC3","name":"accessorNormals"},{"bufferView":2,"byteOffset":146736,"componentType":5126,"count":2244,"type":"VEC2","name":"accessorUVs"},{"bufferView":2,"byteOffset":164688,"componentType":5126,"count":2244,"type":"VEC2","name":"accessorUV2s"},{"bufferView":0,"byteOffset":26552,"componentType":5123,"count":30,"type":"SCALAR","name":"accessorIndices"},{"bufferView":1,"byteOffset":318600,"componentType":5126,"count":30,"max":[50.0,50.0,50.0],"min":[-50.0,-50.0,-50.0],"type":"VEC3","name":"accessorPositions"},{"bufferView":1,"byteOffset":318960,"componentType":5126,"count":30,"type":"VEC3","name":"accessorNormals"},{"bufferView":2,"byteOffset":182640,"componentType":5126,"count":30,"type":"VEC2","name":"accessorUVs"},{"bufferView":0,"byteOffset":26612,"componentType":5123,"count":30,"type":"SCALAR","name":"accessorIndices"},{"bufferView":1,"byteOffset":319320,"componentType":5126,"count":30,"max":[50.0,50.0,50.0],"min":[-50.0,-50.0,-50.0],"type":"VEC3","name":"accessorPositions"},{"bufferView":1,"byteOffset":319680,"componentType":5126,"count":30,"type":"VEC3","name":"accessorNormals"},{"bufferView":2,"byteOffset":182880,"componentType":5126,"count":30,"type":"VEC2","name":"accessorUVs"},{"bufferView":0,"byteOffset":26672,"componentType":5123,"count":288,"type":"SCALAR","name":"accessorIndices"},{"bufferView":1,"byteOffset":320040,"componentType":5126,"count":288,"max":[50.0,7.5,1.0],"min":[-50.0,-7.5,-1.0],"type":"VEC3","name":"accessorPositions"},{"bufferView":1,"byteOffset":323496,"componentType":5126,"count":288,"type":"VEC3","name":"accessorNormals"},{"bufferView":0,"byteOffset":27248,"componentType":5123,"count":288,"type":"SCALAR","name":"accessorIndices"},{"bufferView":1,"byteOffset":326952,"componentType":5126,"count":288,"max":[50.0,7.5,1.0],"min":[-50.0,-7.5,-1.0],"type":"VEC3","name":"accessorPositions"},{"bufferView":1,"byteOffset":330408,"componentType":5126,"count":288,"type":"VEC3","name":"accessorNormals"},{"bufferView":0,"byteOffset":27824,"componentType":5123,"count":288,"type":"SCALAR","name":"accessorIndices"},{"bufferView":1,"byteOffset":333864,"componentType":5126,"count":288,"max":[50.0,7.5,1.0],"min":[-50.0,-7.5,-1.0],"type":"VEC3","name":"accessorPositions"},{"bufferView":1,"byteOffset":337320,"componentType":5126,"count":288,"type":"VEC3","name":"accessorNormals"},{"bufferView":0,"byteOffset":28400,"componentType":5123,"count":288,"type":"SCALAR","name":"accessorIndices"},{"bufferView":1,"byteOffset":340776,"componentType":5126,"count":288,"max":[50.0,7.5,1.0],"min":[-50.0,-7.5,-1.0],"type":"VEC3","name":"accessorPositions"},{"bufferView":1,"byteOffset":344232,"componentType":5126,"count":288,"type":"VEC3","name":"accessorNormals"},{"bufferView":0,"byteOffset":28976,"componentType":5123,"count":420,"type":"SCALAR","name":"accessorIndices"},{"bufferView":1,"byteOffset":347688,"componentType":5126,"count":420,"max":[5.444389,8.0,50.0],"min":[-5.444389,-8.0,-50.0],"type":"VEC3","name":"accessorPositions"},{"bufferView":1,"byteOffset":352728,"componentType":5126,"count":420,"type":"VEC3","name":"accessorNormals"},{"bufferView":2,"byteOffset":183120,"componentType":5126,"count":420,"type":"VEC2","name":"accessorUVs"},{"bufferView":0,"byteOffset":29816,"componentType":5123,"count":4476,"type":"SCALAR","name":"accessorIndices"},{"bufferView":1,"byteOffset":357768,"componentType":5126,"count":4476,"max":[27.342268,127.859917,39.8767776],"min":[-27.34225,-0.6061477,-39.87678],"type":"VEC3","name":"accessorPositions"},{"bufferView":1,"byteOffset":411480,"componentType":5126,"count":4476,"type":"VEC3","name":"accessorNormals"},{"bufferView":0,"byteOffset":38768,"componentType":5123,"count":6333,"type":"SCALAR","name":"accessorIndices"},{"bufferView":1,"byteOffset":465192,"componentType":5126,"count":6333,"max":[22.9213619,40.6171036,26.3581638],"min":[-22.9213638,-0.8798828,-26.3581638],"type":"VEC3","name":"accessorPositions"},{"bufferView":1,"byteOffset":541188,"componentType":5126,"count":6333,"type":"VEC3","name":"accessorNormals"},{"bufferView":2,"byteOffset":186480,"componentType":5126,"count":6333,"type":"VEC2","name":"accessorUVs"},{"bufferView":2,"byteOffset":237144,"componentType":5126,"count":6333,"type":"VEC2","name":"accessorUV2s"},{"bufferView":0,"byteOffset":51436,"componentType":5123,"count":978,"type":"SCALAR","name":"accessorIndices"},{"bufferView":1,"byteOffset":617184,"componentType":5126,"count":978,"max":[20.1816616,-39.8043022,20.245676],"min":[-20.18166,-40.6171036,-20.2192421],"type":"VEC3","name":"accessorPositions"},{"bufferView":1,"byteOffset":628920,"componentType":5126,"count":978,"type":"VEC3","name":"accessorNormals"},{"bufferView":2,"byteOffset":287808,"componentType":5126,"count":978,"type":"VEC2","name":"accessorUVs"},{"bufferView":2,"byteOffset":295632,"componentType":5126,"count":978,"type":"VEC2","name":"accessorUV2s"},{"bufferView":0,"byteOffset":53392,"componentType":5123,"count":2244,"type":"SCALAR","name":"accessorIndices"},{"bufferView":1,"byteOffset":640656,"componentType":5126,"count":2244,"max":[19.61651,1.07748413,19.6297245],"min":[-19.61651,-39.9821053,-19.6032867],"type":"VEC3","name":"accessorPositions"},{"bufferView":1,"byteOffset":667584,"componentType":5126,"count":2244,"type":"VEC3","name":"accessorNormals"},{"bufferView":2,"byteOffset":303456,"componentType":5126,"count":2244,"type":"VEC2","name":"accessorUVs"},{"bufferView":2,"byteOffset":321408,"componentType":5126,"count":2244,"type":"VEC2","name":"accessorUV2s"},{"bufferView":0,"byteOffset":57880,"componentType":5123,"count":4476,"type":"SCALAR","name":"accessorIndices"},{"bufferView":1,"byteOffset":694512,"componentType":5126,"count":4476,"max":[27.342268,127.859917,39.8767776],"min":[-27.34225,-0.6061477,-39.87678],"type":"VEC3","name":"accessorPositions"},{"bufferView":1,"byteOffset":748224,"componentType":5126,"count":4476,"type":"VEC3","name":"accessorNormals"},{"bufferView":0,"byteOffset":66832,"componentType":5123,"count":22446,"type":"SCALAR","name":"accessorIndices"},{"bufferView":1,"byteOffset":801936,"componentType":5126,"count":22446,"max":[27.00311,32.9473267,4.32781935],"min":[-26.97294,-13.3622427,-39.3603363],"type":"VEC3","name":"accessorPositions"},{"bufferView":1,"byteOffset":1071288,"componentType":5126,"count":22446,"type":"VEC3","name":"accessorNormals"},{"bufferView":2,"byteOffset":339360,"componentType":5126,"count":22446,"type":"VEC2","name":"accessorUVs"}],"bufferViews":[{"buffer":0,"byteLength":111724,"name":"bufferViewScalar"},{"buffer":0,"byteOffset":111724,"byteLength":1340640,"byteStride":12,"name":"bufferViewFloatVec3"},{"buffer":0,"byteOffset":1452364,"byteLength":518928,"byteStride":8,"name":"bufferViewFloatVec2"}],"buffers":[{"uri":"20191010_Equipment_Chromebase.bin","byteLength":1971292}],"materials":[{"pbrMetallicRoughness":{"baseColorFactor":[0.388071924,0.404411823,0.424836665,1.0],"metallicFactor":0.0,"roughnessFactor":0.9},"emissiveFactor":[0.0,0.0,0.0],"alphaMode":"OPAQUE","name":"Google 700 #1"},{"pbrMetallicRoughness":{"baseColorFactor":[0.9844773,0.9926472,0.9967322,1.0],"metallicFactor":0.0,"roughnessFactor":0.9},"emissiveFactor":[0.0,0.0,0.0],"alphaMode":"OPAQUE","name":"Google 100"},{"pbrMetallicRoughness":{"baseColorFactor":[0.9844773,0.9926472,0.9967322,1.0],"metallicFactor":0.0,"roughnessFactor":0.9},"emissiveFactor":[0.0,0.0,0.0],"alphaMode":"OPAQUE","name":"Google 100 #1"},{"pbrMetallicRoughness":{"baseColorFactor":[0.9558825,0.273692846,0.2165033,1.0],"metallicFactor":0.0,"roughnessFactor":0.9},"emissiveFactor":[0.0,0.0,0.0],"alphaMode":"OPAQUE","name":"Google 500 Red"},{"pbrMetallicRoughness":{"baseColorFactor":[0.386274546,0.388235331,0.3921569,1.0],"metallicFactor":0.0,"roughnessFactor":0.20984228},"emissiveFactor":[0.0,0.0,0.0],"alphaMode":"OPAQUE","name":"Silver Metal"},{"pbrMetallicRoughness":{"baseColorFactor":[0.629085064,0.653594851,0.678104639,1.0],"metallicFactor":0.0,"roughnessFactor":0.9},"emissiveFactor":[0.0,0.0,0.0],"alphaMode":"OPAQUE","name":"Google 500"},{"pbrMetallicRoughness":{"baseColorFactor":[1.0,1.0,1.0,1.0],"metallicFactor":0.0,"roughnessFactor":0.9},"emissiveFactor":[0.0,0.0,0.0],"alphaMode":"OPAQUE","name":"Google 50 #1"},{"pbrMetallicRoughness":{"baseColorFactor":[0.5,0.5,0.5,1.0],"baseColorTexture":{"index":0,"texCoord":0},"metallicFactor":0.0,"roughnessFactor":0.8},"emissiveFactor":[0.0,0.0,0.0],"alphaMode":"BLEND","name":"StipLight"},{"pbrMetallicRoughness":{"baseColorFactor":[0.9558825,0.273692846,0.2165033,1.0],"metallicFactor":0.0,"roughnessFactor":0.9},"emissiveFactor":[0.0,0.0,0.0],"alphaMode":"OPAQUE","name":"Google 500 Red #1"}],"textures":[{"sampler":0,"source":0,"name":"LightAlbedoi.png"}],"images":[{"uri":"LightAlbedoi.png"}],"samplers":[{"magFilter":9729,"minFilter":9987,"wrapS":10497,"wrapT":10497}]}