<svg width="30" height="30" xmlns="http://www.w3.org/2000/svg"><g fill="none"><path d="M15 30c8.3 0 15-6.7 15-15S23.3 0 15 0 0 6.7 0 15s6.7 15 15 15" fill="#129EAF"/><path d="M24 6v12.512L18.538 24l-.017-.019v.005H6V11.474L11.478 6H24zM8.301 22.422h8.656l-.001-3.91h-4.32L8.3 22.422zm13.459-3.91h-3.239v3.306l3.239-3.306zm-10.282-5.474H7.565v7.952l3.913-3.581v-4.371zm5.479 0h-3.914v3.91h3.913v-3.91zm5.477-4.395l-3.913 3.847v4.458h3.914l-.001-8.305zm-1.159-1.079h-8.232v3.91h4.315l3.917-3.91zm-9.797.678l-3.283 3.232h3.283V8.242z" fill="#FFF"/></g></svg>