<svg xmlns="http://www.w3.org/2000/svg" viewBox="0 0 50 50"><path d="M25 40c8.3 0 15-6.7 15-15s-6.7-15-15-15-15 6.7-15 15 6.7 15 15 15" fill="#3d3f42"/><path d="M34 28.1V16c0-.1-.1-.1-.1-.2-.1 0-.1-.1-.2-.1H21.3s-.1 0-.1.1l-5.1 5.8V34l.1.1c.1 0 .1 0 .2.1h12.4s.1 0 .1-.1l5.1-5.8v-.2c0 .1 0 .1 0 0zm-.9-.4h-4.2V22l4.2-4.8v10.5zm-11.4.9h6.4v4.9H17.4l4.3-4.9zm7.2 0h3.6l-3.6 4.2v-4.2zm-7-.9v-5.4H28v5.4h-6.1zm0-11.2h10.6l-4.3 4.9h-6.4v-4.9zm-.8 4.9h-3.6l3.6-4.2v4.2zm0 .9V28l-4.2 4.8V22.3h4.2z" fill="#fff"/></svg>