<svg xmlns="http://www.w3.org/2000/svg" width="24" height="24"><g fill="none" fill-rule="evenodd"><path d="M0 0h24v24H0z"/><path fill="#666" fill-rule="nonzero" d="M16.988 7.636a.988.988 0 0 1 1.447 0c.345.42.414 1.12.069 1.47L6.58 21.22c-.206.21-.482.28-.758.28-.275 0-.55-.07-.758-.28a1.027 1.027 0 0 1 0-1.47zm5.306-.56a.99.99 0 0 1 1.448 0c.344.42.344 1.05 0 1.47L11.888 20.59c-.207.21-.482.28-.758.28s-.551-.07-.758-.28a1.025 1.025 0 0 1 0-1.47zm-10.061-4.2a.988.988 0 0 1 1.447 0c.413.42.413 1.12.069 1.47L1.826 16.459c-.206.21-.482.28-.758.28-.275 0-.551-.07-.758-.28a1.027 1.027 0 0 1 0-1.47zm5.375-.56a.987.987 0 0 1 1.447 0c.414.42.414 1.05 0 1.47L7.133 15.898c-.207.21-.483.28-.758.28-.276 0-.552-.07-.758-.28-.345-.42-.345-1.12 0-1.54z"/></g></svg>