<svg xmlns="http://www.w3.org/2000/svg" width="24" height="24"><g fill="none" fill-rule="evenodd"><path d="M0 0h24v24H0z"/><path fill="#666" fill-rule="nonzero" d="M6.029 22L12 16.033 17.971 22H6.03zM20.957 3c.55 0 1.022.236 1.414.628.393.393.629.864.629 1.413v12.013c0 .55-.236 1.02-.629 1.413-.392.393-.864.55-1.414.55H16.95v-1.963h4.007V5.04H3.043v12.013H7.05v1.963H3.043c-.55 0-1.022-.157-1.414-.55-.393-.471-.629-.942-.629-1.413V5.04c0-.55.236-1.02.629-1.413C2.02 3.236 2.493 3 3.043 3h17.914z"/></g></svg>