<svg width="18" height="24" xmlns="http://www.w3.org/2000/svg" xmlns:xlink="http://www.w3.org/1999/xlink"><defs><path id="a" d="M.051.034h17.607V24H.051z"/></defs><g fill="none" fill-rule="evenodd"><mask id="b" fill="#fff"><use xlink:href="#a"/></mask><path d="M15.525 11.377h2.133c0 2.133-.74 4-2.222 5.6-1.482 1.599-3.269 2.559-5.362 2.875V24h-2.49v-4.148c-2.093-.316-3.88-1.276-5.362-2.875C.742 15.377 0 13.51 0 11.377h2.133c0 1.856.662 3.388 1.985 4.592 1.324 1.206 2.893 1.807 4.71 1.807 1.818 0 3.389-.601 4.712-1.807 1.323-1.204 1.985-2.736 1.985-4.592m-4.029 2.667c-.75.751-1.64 1.125-2.667 1.125s-1.916-.374-2.666-1.125c-.751-.75-1.126-1.64-1.126-2.667V3.792c0-1.027.375-1.917 1.126-2.667C6.913.375 7.802 0 8.829 0c1.026 0 1.916.375 2.667 1.125.75.75 1.125 1.64 1.125 2.667v7.585c0 1.028-.375 1.916-1.125 2.667" fill="#129EAF" mask="url(#b)"/></g></svg>