<svg xmlns="http://www.w3.org/2000/svg" width="24" height="24"><g fill="none" fill-rule="evenodd"><path d="M0 0h24v24H0z"/><path fill="#666" fill-rule="nonzero" d="M21.675 14.396L10.104 2.826a1.83 1.83 0 0 0-2.582.01L2.336 8.022a1.83 1.83 0 0 0-.01 2.582l11.57 11.57a1.83 1.83 0 0 0 2.582-.01l5.186-5.186a1.83 1.83 0 0 0 .01-2.582zm-6.482 6.483L3.62 9.307l5.186-5.186 1.286 1.286L7.5 8l1.286 1.286 2.593-2.593 1.286 1.286-2.593 2.593 1.285 1.285 2.593-2.593 1.286 1.286-2.593 2.593 1.285 1.285 2.593-2.593 1.286 1.286-2.593 2.593L16.5 17l2.593-2.593 1.286 1.286-5.186 5.186z"/></g></svg>