<svg xmlns="http://www.w3.org/2000/svg" viewBox="0 0 50 50"><path d="M27.4 12.3c-.6-.6-1.5-.6-2.1 0L8 29.6c-.6.6-.6 1.5 0 2.1.3.3.7.4 1.1.4.4 0 .8-.1 1.1-.4l17.3-17.3c.5-.5.5-1.5-.1-2.1zM15.7 30.9c.3.3.7.4 1.1.4s.8-.1 1.1-.4l17.3-17.3c.6-.6.6-1.5 0-2.1s-1.5-.6-2.1 0L15.7 28.7c-.5.6-.5 1.6 0 2.2zm18.6-11.8c-.6-.6-1.5-.6-2.1 0L14.9 36.4c-.6.6-.6 1.5 0 2.1.3.3.7.4 1.1.4.4 0 .8-.1 1.1-.4l17.3-17.3c.5-.5.4-1.5-.1-2.1zm7.7-.8c-.6-.6-1.5-.6-2.1 0L22.6 35.5c-.6.6-.6 1.5 0 2.1.3.3.7.4 1.1.4s.8-.1 1.1-.4L42 20.4c.5-.6.5-1.5 0-2.1z" fill="#13a3af"/></svg>