<svg width="30" height="30" xmlns="http://www.w3.org/2000/svg"><g fill="none"><path d="M15 30c8.3 0 15-6.7 15-15S23.3 0 15 0 0 6.7 0 15s6.7 15 15 15" fill="#EA4335"/><path d="M19.264 11.667c.243 0 .486.06.668.242.182.182.304.424.304.667v3.333L24 12.152v10.363l-3.764-3.757v3.333c0 .242-.122.485-.304.667-.182.181-.425.242-.668.242H7.911c-.243 0-.486-.06-.668-.242C7.06 22.576 7 22.333 7 22.09v-9.515c0-.243.06-.485.243-.667.182-.182.425-.242.668-.242h11.353zm-5.889-3.549c1.284 0 2.387.708 2.917 1.735h-5.841c.537-1.027 1.64-1.735 2.924-1.735zm0-3.122c3.106 0 5.703 2.074 6.364 4.857h-1.495c-.624-2.005-2.569-3.47-4.869-3.47S9.13 7.848 8.506 9.853H7.011c.66-2.783 3.258-4.857 6.364-4.857z" fill="#FFF"/></g></svg>