<svg width="30" height="30" xmlns="http://www.w3.org/2000/svg"><g fill="none"><path d="M15 30c8.3 0 15-6.7 15-15S23.3 0 15 0 0 6.7 0 15s6.7 15 15 15" fill="#EA4335"/><path d="M23.323 9c3.58 3.545 3.58 9.316-.07 13l-6.529-6.465zm-10.46 2.78c.14 0 .35.07.421.14.14.139.21.278.21.417v2.155l2.388-2.364v6.605l-2.457-2.434v2.086c0 .14-.07.278-.211.417-.14.14-.28.14-.421.14H5.562c-.14 0-.281-.07-.422-.14a.46.46 0 0 1-.14-.347v-6.118c0-.14.07-.278.14-.417.14-.14.281-.14.422-.14h7.3z" fill="#FFF"/></g></svg>