<svg viewBox="0 0 32 32" xmlns="http://www.w3.org/2000/svg"><g fill="none" fill-rule="evenodd"><path d="M0 0h32v32H0z"/><path d="M27.921 6c5.456 5.455 5.456 14.332-.107 20l-9.949-9.947zm-15.94 4.278c.215 0 .535.107.642.214.214.214.321.428.321.642v3.315l3.638-3.636v10.16l-3.745-3.743v3.209c0 .213-.107.427-.32.641-.214.214-.428.214-.642.214H.855c-.213 0-.427-.107-.641-.214-.183-.183-.21-.366-.213-.55L0 11.134c0-.214.107-.428.214-.642.183-.183.367-.21.55-.213h11.218z" fill="#EA4335" fill-rule="nonzero"/></g></svg>