<svg width="32" height="32" xmlns="http://www.w3.org/2000/svg"><g fill="none" fill-rule="evenodd"><path d="M0 0h32v32H0z"/><path d="M30 16a2 2 0 0 1 2 2v4a2 2 0 0 1-2 2H2a2 2 0 0 1-2-2v-4a2 2 0 0 1 2-2zM15.667 3.027c5.603 0 10.306 3.843 11.623 9.043l.07.29h-2.747c-1.146-3.853-4.72-6.667-8.946-6.667-4.133 0-7.641 2.69-8.867 6.412l-.08.255H3.973C5.187 7.013 9.96 3.027 15.667 3.027zm0 6a5.963 5.963 0 0 1 5.251 3.124l.109.209H10.293a6 6 0 0 1 5.374-3.333z" fill="#FFF" fill-rule="nonzero"/></g></svg>