<svg width="30" height="30" xmlns="http://www.w3.org/2000/svg"><g fill="none"><path d="M15 30c8.3 0 15-6.7 15-15S23.3 0 15 0 0 6.7 0 15s6.7 15 15 15" fill="#EA4335"/><path d="M23.75 15.023c.69 0 1.25.56 1.25 1.25v2.477c0 .69-.56 1.25-1.25 1.25H6.25C5.56 20 5 19.44 5 18.75v-2.477c0-.69.56-1.25 1.25-1.25zm-8.958-8.085c3.464 0 6.375 2.371 7.216 5.59l.059.243h-1.709c-.713-2.408-2.937-4.167-5.566-4.167-2.548 0-4.714 1.65-5.495 3.943l-.072.224H7.516c.755-3.342 3.725-5.833 7.276-5.833zm0 3.75c1.395 0 2.602.767 3.239 1.901l.096.182h-6.678a3.732 3.732 0 0 1 3.343-2.083z" fill="#FFF"/></g></svg>