<svg width="32" height="32" xmlns="http://www.w3.org/2000/svg"><g fill="none" fill-rule="evenodd"><path d="M0 0h32v32H0z"/><path d="M18.5 18.3c-.9.9-1.9 1.3-3.1 1.3-1.2 0-2.2-.4-3.1-1.3-.9-.9-1.3-1.9-1.3-3.1V6.4c0-1.2.4-2.2 1.3-3.1.9-.9 1.9-1.3 3.1-1.3 1.2 0 2.2.4 3.1 1.3.9.9 1.3 1.9 1.3 3.1v8.8c0 1.2-.4 2.2-1.3 3.1m4.7-3.1h2.5c0 2.5-.9 4.7-2.6 6.5-1.7 1.9-3.8 3-6.3 3.4v4.8h-2.9v-4.8c-2.4-.4-4.5-1.5-6.3-3.4-1.7-1.9-2.6-4-2.6-6.5h2.5c0 2.2.8 4 2.3 5.4 1.5 1.4 3.4 2.1 5.5 2.1s4-.7 5.5-2.1c1.6-1.5 2.4-3.3 2.4-5.4" fill="#F04931" fill-rule="nonzero"/></g></svg>