<svg width="30" height="30" xmlns="http://www.w3.org/2000/svg"><g fill="none"><path d="M15 30c8.3 0 15-6.7 15-15S23.3 0 15 0 0 6.7 0 15s6.7 15 15 15" fill="#EA4335"/><path d="M18 11.889h-1.5v2.333h-2.25v1.556h2.25v2.333H18v-2.333h2.25v-1.556H18V11.89zM7.5 15c0-2.17 1.23-4.044 3.008-4.916v-1.68C7.89 9.37 6 11.96 6 15s1.89 5.631 4.508 6.596v-1.68C8.73 19.044 7.5 17.17 7.5 15zm9.75-7c-3.72 0-6.75 3.142-6.75 7s3.03 7 6.75 7S24 18.858 24 15s-3.03-7-6.75-7zm0 12.444C14.355 20.444 12 18.002 12 15s2.355-5.444 5.25-5.444S22.5 11.998 22.5 15s-2.355 5.444-5.25 5.444z" fill="#FFF"/></g></svg>