<svg width="32" height="32" xmlns="http://www.w3.org/2000/svg"><g fill="none" fill-rule="evenodd"><path d="M0 0h32v32H0z"/><path d="M20.667 11.833h-2.334v3.5h-3.5v2.334h3.5v3.5h2.334v-3.5h3.5v-2.334h-3.5v-3.5zM4.333 16.5a8.156 8.156 0 0 1 4.679-7.373v-2.52C4.94 8.053 2 11.938 2 16.5s2.94 8.447 7.012 9.893v-2.52A8.156 8.156 0 0 1 4.333 16.5zM19.5 6C13.713 6 9 10.713 9 16.5S13.713 27 19.5 27 30 22.287 30 16.5 25.287 6 19.5 6zm0 18.667c-4.503 0-8.167-3.664-8.167-8.167s3.664-8.167 8.167-8.167 8.167 3.664 8.167 8.167-3.664 8.167-8.167 8.167z" fill="#FFF" fill-rule="nonzero"/></g></svg>