<svg width="28" height="30" xmlns="http://www.w3.org/2000/svg"><g fill="none" fill-rule="evenodd"><path d="M-2-2h32v32H-2z"/><path d="M21.8 18l6.2-6.2v17.1l-6.2-6.2v5.5c0 .4-.2.8-.5 1.1-.3.3-.7.4-1.1.4H1.5c-.4 0-.8-.1-1.1-.4-.3-.3-.4-.7-.4-1.1V12.5c0-.4.1-.8.4-1.1.3-.3.7-.4 1.1-.4h18.7c.4 0 .8.1 1.1.4.3.3.5.7.5 1.1V18z" fill="#F04931" fill-rule="nonzero"/><path d="M10.5 5.143C8.38 5.143 6.561 6.309 5.675 8h9.638c-.874-1.691-2.694-2.857-4.813-2.857zM0 8h2.466c1.03-3.303 4.239-5.714 8.034-5.714 3.795 0 7.004 2.411 8.034 5.714H21c-1.09-4.583-5.376-8-10.5-8S1.09 3.417 0 8z" fill="#EA4335" fill-rule="nonzero"/></g></svg>