<svg width="30" height="30" xmlns="http://www.w3.org/2000/svg"><g fill="none"><path d="M15 30c8.3 0 15-6.7 15-15S23.3 0 15 0 0 6.7 0 15s6.7 15 15 15" fill="#EA4335"/><path d="M17.478 16.516c-.565.58-1.193.839-1.947.839-.753 0-1.381-.258-1.946-.839-.566-.58-.817-1.226-.817-2V8.84c0-.774.251-1.42.817-2C14.15 6.259 14.778 6 15.53 6c.754 0 1.382.258 1.947.839.565.58.817 1.226.817 2v5.677c0 .774-.252 1.42-.817 2m2.952-2H22a6.043 6.043 0 0 1-1.633 4.194c-1.067 1.225-2.386 1.935-3.956 2.193V24h-1.822v-3.097c-1.507-.258-2.826-.968-3.956-2.193C9.565 17.484 9 16.129 9 14.516h1.57c0 1.42.502 2.58 1.444 3.484.943.903 2.136 1.355 3.455 1.355 1.318 0 2.512-.452 3.454-1.355 1.005-.968 1.507-2.129 1.507-3.484" fill="#FFF"/></g></svg>