<svg width="28" height="30" xmlns="http://www.w3.org/2000/svg"><g fill="none" fill-rule="evenodd"><path d="M-2-2h32v32H-2z"/><path d="M20.2 11c.4 0 .8.1 1.1.4.3.3.5.7.5 1.1V18l6.2-6.2v17.1l-6.2-6.2v5.5c0 .4-.2.8-.5 1.1-.3.3-.7.4-1.1.4H1.5c-.4 0-.8-.1-1.1-.4-.3-.3-.4-.7-.4-1.1V12.5c0-.4.1-.8.4-1.1.3-.3.7-.4 1.1-.4h18.7zM10.5 0c5.124 0 9.41 3.417 10.5 8h-2.466c-1.03-3.303-4.239-5.714-8.034-5.714-3.795 0-7.004 2.411-8.034 5.714H0c1.09-4.583 5.376-8 10.5-8zm0 5.143c2.12 0 3.939 1.166 4.813 2.857H5.675c.886-1.691 2.706-2.857 4.825-2.857z" fill="#FFF" fill-rule="nonzero"/></g></svg>