<svg id="Art" xmlns="http://www.w3.org/2000/svg" xmlns:xlink="http://www.w3.org/1999/xlink" viewBox="0 0 614.07 108.72"><defs><style>.cls-1{fill:none;}.cls-2{clip-path:url(#clip-path);}.cls-3{fill:#777a7b;}.cls-4{fill:#4285f4;}.cls-5{fill:#ea4335;}.cls-6{fill:#fbbc04;}.cls-7{fill:#34a853;}</style><clipPath id="clip-path" transform="translate(-82.18 -83.96)"><rect class="cls-1" width="778.44" height="256"/></clipPath></defs><title>cloud_wordmark_color</title><g class="cls-2"><path class="cls-3" d="M525.2,166.66h-9.46V93h9.46Z" transform="translate(-82.18 -83.96)"/><path class="cls-3" d="M540.63,122.28q7.3-7.66,18.62-7.67t18.61,7.67q7.3,7.66,7.31,19.18t-7.31,19.18q-7.3,7.67-18.61,7.67t-18.62-7.67q-7.3-7.66-7.3-19.18T540.63,122.28Zm7,32.4a15.94,15.94,0,0,0,23.15,0q4.88-5,4.88-13.22t-4.88-13.22a15.92,15.92,0,0,0-23.15,0q-4.87,5-4.88,13.22T547.67,154.68Z" transform="translate(-82.18 -83.96)"/><path class="cls-3" d="M637.52,166.66h-9v-7h-.41a17.47,17.47,0,0,1-6.58,6.12,18.64,18.64,0,0,1-9.36,2.53q-9.47,0-14.35-5.77t-4.89-15.42V116.26h9.46v29.31q0,14.1,12.45,14.09a11.59,11.59,0,0,0,9.57-4.73,17.18,17.18,0,0,0,3.7-10.9V116.26h9.46Z" transform="translate(-82.18 -83.96)"/><path class="cls-3" d="M669.61,168.31q-9.76,0-16.86-7.72t-7.1-19.13q0-11.42,7.1-19.13t16.86-7.72A21.39,21.39,0,0,1,680,117.08a17.51,17.51,0,0,1,6.84,6.17h.41l-.41-7V93h9.47v73.65H687.2v-7h-.41a17.53,17.53,0,0,1-6.84,6.18A21.5,21.5,0,0,1,669.61,168.31Zm1.55-8.65a15.07,15.07,0,0,0,11.36-4.93q4.68-4.93,4.68-13.27t-4.68-13.27a15.43,15.43,0,0,0-22.68.05q-4.73,5-4.73,13.22t4.73,13.22A15.09,15.09,0,0,0,671.16,159.66Z" transform="translate(-82.18 -83.96)"/><path class="cls-3" d="M478.09,168.31q-16.24,0-27.26-11t-11-27.47q0-16.44,11-27.46t27.26-11q16.67,0,27.05,12l-6.58,6.38q-7.51-9.36-20.47-9.36a27.89,27.89,0,0,0-20.31,8.12q-8.28,8.13-8.28,21.29t8.28,21.3a27.85,27.85,0,0,0,20.31,8.12q13.28,0,22.63-10.69l6.58,6.58a35.92,35.92,0,0,1-12.65,9.62A38.76,38.76,0,0,1,478.09,168.31Z" transform="translate(-82.18 -83.96)"/><path class="cls-4" d="M125,168.31a41.58,41.58,0,0,1-30.13-12.4,41.34,41.34,0,0,1,0-59.55A41.54,41.54,0,0,1,125,84a40.39,40.39,0,0,1,28.91,11.62l-8.13,8.13A29.26,29.26,0,0,0,125,95.48a28.9,28.9,0,0,0-21.44,9,31.17,31.17,0,0,0,0,43.41A28.94,28.94,0,0,0,125,156.79q12.87,0,21.3-8.44,5-5,6.27-14.5H125V122.33h38.78a37.14,37.14,0,0,1,.62,7.2q0,17-10,26.95Q143.08,168.3,125,168.31Z" transform="translate(-82.18 -83.96)"/><path class="cls-5" d="M215.08,121.76a28,28,0,0,0-38.68,0,27.7,27.7,0,0,0,0,38.78,28,28,0,0,0,38.68,0,27.7,27.7,0,0,0,0-38.78Zm-8.54,31.17a14.8,14.8,0,0,1-21.6,0,17.75,17.75,0,0,1-.05-23.61,15,15,0,0,1,21.7,0,17.72,17.72,0,0,1-.05,23.61Z" transform="translate(-82.18 -83.96)"/><path class="cls-6" d="M274.53,121.76a28,28,0,0,0-38.67,0,27.7,27.7,0,0,0,0,38.78,27.94,27.94,0,0,0,38.67,0,27.7,27.7,0,0,0,0-38.78ZM266,152.93a14.81,14.81,0,0,1-21.61,0,17.75,17.75,0,0,1,0-23.61,15,15,0,0,1,21.71,0,17.75,17.75,0,0,1-.05,23.61Z" transform="translate(-82.18 -83.96)"/><path class="cls-4" d="M328.12,115.64v4.42h-.41a17,17,0,0,0-5.91-4.32,19.74,19.74,0,0,0-8.39-1.74q-10.38,0-18.2,8a26.49,26.49,0,0,0-7.82,19.28,26.18,26.18,0,0,0,7.82,19.13q7.82,7.94,18.2,7.93,9.25,0,14.3-6.18h.41V166q0,7.72-3.86,11.83T313.62,182a13,13,0,0,1-8.54-2.88,17.54,17.54,0,0,1-5.14-6.79l-10.39,4.32a28,28,0,0,0,8.85,11.21q6.17,4.83,15.22,4.83,11.31,0,18.56-7t7.26-21.24V115.64Zm-3.34,37.29a13.28,13.28,0,0,1-10.34,4.68,14.19,14.19,0,0,1-10.7-4.68,16.33,16.33,0,0,1-4.42-11.68,16.66,16.66,0,0,1,4.42-11.83,14.14,14.14,0,0,1,10.7-4.73,13.24,13.24,0,0,1,10.34,4.73,17.25,17.25,0,0,1,4.16,11.83A16.9,16.9,0,0,1,324.78,152.93Z" transform="translate(-82.18 -83.96)"/><rect class="cls-7" x="265.48" y="2.88" width="11.93" height="79.82"/><path class="cls-5" d="M392.31,157.61q-9,0-13.17-8.23l36.31-15-1.23-3.08a30.88,30.88,0,0,0-7.1-10.86,21.56,21.56,0,0,0-7-4.62A23.05,23.05,0,0,0,391,114a24.46,24.46,0,0,0-18.16,7.61q-7.46,7.61-7.45,19.54a26.46,26.46,0,0,0,7.71,19.34,25.94,25.94,0,0,0,19.24,7.82,24.8,24.8,0,0,0,13.88-3.71,30.11,30.11,0,0,0,8.75-8.33l-9.26-6.17Q400.54,157.62,392.31,157.61Zm-10.75-28.8q4.57-4.32,9.82-4.32a12.38,12.38,0,0,1,6.27,1.59,8.4,8.4,0,0,1,3.81,4.17l-24.27,10.08Q377,133.13,381.56,128.81Z" transform="translate(-82.18 -83.96)"/></g></svg>