<?xml version="1.0" encoding="utf-8"?>
<!-- Generator: Adobe Illustrator 23.0.1, SVG Export Plug-In . SVG Version: 6.00 Build 0)  -->
<svg version="1.1" id="Art" xmlns="http://www.w3.org/2000/svg" xmlns:xlink="http://www.w3.org/1999/xlink" x="0px" y="0px"
	 viewBox="0 0 110 19" style="enable-background:new 0 0 110 19;" xml:space="preserve">
<style type="text/css">
	.st0{fill:#777A7B;}
	.st1{fill:#4285F4;}
	.st2{fill:#EA4335;}
	.st3{fill:#FBBC04;}
	.st4{fill:#34A853;}
</style>
<g>
	<g>
		<path class="st0" d="M75.3,14.3h-1.6V1.8h1.6V14.3z"/>
		<path class="st0" d="M77.9,6.8c0.8-0.9,1.9-1.3,3.2-1.3c1.3,0,2.3,0.4,3.2,1.3c0.8,0.9,1.2,1.9,1.2,3.2c0,1.3-0.4,2.4-1.2,3.2
			c-0.8,0.9-1.9,1.3-3.2,1.3s-2.3-0.4-3.2-1.3c-0.8-0.9-1.2-1.9-1.2-3.2S77.1,7.6,77.9,6.8z M79.1,12.3c1,1.1,2.7,1.1,3.8,0.1
			c0,0,0.1-0.1,0.1-0.1c0.6-0.6,0.8-1.3,0.8-2.2c0-0.9-0.3-1.7-0.8-2.2c-1-1.1-2.7-1.1-3.8-0.1c0,0-0.1,0.1-0.1,0.1
			c-0.6,0.6-0.8,1.3-0.8,2.2C78.3,11,78.5,11.7,79.1,12.3L79.1,12.3z"/>
		<path class="st0" d="M94.3,14.3h-1.5v-1.2h-0.1c-0.3,0.4-0.7,0.8-1.1,1c-0.5,0.3-1,0.4-1.6,0.4c-1.1,0-1.9-0.3-2.4-1
			c-0.6-0.7-0.8-1.5-0.8-2.6V5.8h1.6v5c0,1.6,0.7,2.4,2.1,2.4c0.6,0,1.2-0.3,1.6-0.8c0.4-0.5,0.6-1.2,0.6-1.8V5.8h1.6L94.3,14.3z"/>
		<path class="st0" d="M99.8,14.6c-1.1,0-2.1-0.4-2.9-1.3c-0.8-0.9-1.2-2-1.2-3.2c0-1.3,0.4-2.4,1.2-3.2c0.8-0.9,1.8-1.3,2.9-1.3
			c0.6,0,1.2,0.1,1.8,0.4c0.5,0.2,0.9,0.6,1.2,1h0.1l-0.1-1.2V1.8h1.6v12.5h-1.5v-1.2h-0.1c-0.3,0.4-0.7,0.8-1.2,1
			C101,14.4,100.4,14.6,99.8,14.6z M100,13.1c0.7,0,1.4-0.3,1.9-0.8c0.5-0.6,0.8-1.3,0.8-2.2c0-0.9-0.3-1.7-0.8-2.2
			c-1-1.1-2.6-1.1-3.7-0.1c-0.1,0-0.1,0.1-0.1,0.1c-0.5,0.6-0.8,1.3-0.8,2.2c0,0.9,0.3,1.7,0.8,2.2C98.6,12.8,99.3,13.1,100,13.1z"
			/>
		<path class="st0" d="M67.3,14.6c-1.8,0-3.4-0.6-4.6-1.9s-1.9-2.8-1.9-4.7c0-1.9,0.6-3.4,1.9-4.7c1.2-1.2,2.8-1.9,4.6-1.9
			c1.9,0,3.4,0.7,4.6,2l-1.1,1.1c-0.8-1.1-2-1.6-3.5-1.6c-1.3,0-2.5,0.5-3.4,1.4c-0.9,0.9-1.4,2.1-1.4,3.6s0.5,2.7,1.4,3.6
			c0.9,0.9,2.2,1.4,3.4,1.4c1.5,0,2.8-0.6,3.8-1.8l1.1,1.1c-0.6,0.7-1.3,1.3-2.1,1.6C69.2,14.4,68.3,14.6,67.3,14.6z"/>
		<path class="st1" d="M7.5,14.6c-1.9,0-3.8-0.7-5.1-2.1c-2.8-2.7-2.9-7.1-0.2-9.9c0.1-0.1,0.1-0.1,0.2-0.2C3.7,1,5.6,0.3,7.5,0.3
			c1.8,0,3.6,0.7,4.9,2L11,3.6c-0.9-0.9-2.2-1.4-3.5-1.4c-1.4,0-2.7,0.5-3.6,1.5c-2,2-2,5.3,0,7.4c0.9,1,2.3,1.5,3.6,1.5
			c1.5,0,2.7-0.5,3.6-1.4c0.6-0.6,0.9-1.4,1.1-2.5H7.5v-2h6.6c0.1,0.4,0.1,0.8,0.1,1.2c0,1.9-0.6,3.4-1.7,4.6
			C11.2,13.9,9.5,14.6,7.5,14.6z"/>
		<path class="st2" d="M22.8,6.7c-1.8-1.8-4.7-1.8-6.6,0c-1.8,1.8-1.8,4.7,0,6.6c1.8,1.8,4.7,1.8,6.6,0C24.5,11.4,24.5,8.5,22.8,6.7
			L22.8,6.7z M21.3,12c-0.9,1-2.5,1.1-3.5,0.1c0,0-0.1-0.1-0.1-0.1c-1-1.1-1-2.9,0-4c1-1,2.6-1.1,3.6-0.1c0,0,0.1,0.1,0.1,0.1
			C22.3,9.1,22.3,10.8,21.3,12L21.3,12z"/>
		<path class="st3" d="M32.8,6.7c-1.8-1.8-4.7-1.8-6.6,0c-1.8,1.8-1.8,4.7,0,6.6c1.8,1.8,4.7,1.8,6.6,0C34.6,11.4,34.6,8.5,32.8,6.7
			z M31.4,12c-0.9,1-2.5,1.1-3.5,0.1c0,0-0.1-0.1-0.1-0.1c-1-1.1-1-2.9,0-4c1-1,2.6-1.1,3.6-0.1c0,0,0.1,0.1,0.1,0.1
			C32.4,9.1,32.4,10.8,31.4,12L31.4,12z"/>
		<path class="st1" d="M41.9,5.7v0.7h-0.1c-0.3-0.3-0.6-0.6-1-0.7c-0.4-0.2-0.9-0.3-1.4-0.3c-1.2,0-2.2,0.5-3.1,1.4
			C35.5,7.6,35,8.8,35,10c0,1.2,0.5,2.4,1.3,3.2c0.9,0.9,1.9,1.3,3.1,1.3c1,0,1.9-0.3,2.4-1h0.1v0.7c0,0.9-0.2,1.5-0.7,2
			c-0.4,0.5-1,0.7-1.8,0.7c-0.5,0-1-0.2-1.4-0.5c-0.4-0.3-0.7-0.7-0.9-1.2L35.4,16c0.3,0.8,0.8,1.4,1.5,1.9c0.7,0.5,1.6,0.8,2.6,0.8
			c1.3,0,2.3-0.4,3.1-1.2c0.8-0.8,1.2-2,1.2-3.6V5.7H41.9z M41.3,12c-0.4,0.5-1.1,0.8-1.8,0.8c-0.7,0-1.4-0.3-1.8-0.8
			c-0.5-0.5-0.8-1.2-0.7-2c0-0.7,0.2-1.5,0.7-2c0.5-0.5,1.1-0.8,1.8-0.8c0.7,0,1.3,0.3,1.8,0.8c0.5,0.6,0.7,1.3,0.7,2
			C42.1,10.7,41.8,11.4,41.3,12z"/>
		<rect x="45.2" y="0.8" class="st4" width="2" height="13.5"/>
		<path class="st2" d="M52.8,12.8c-1,0-1.8-0.5-2.2-1.4l6.2-2.5l-0.2-0.5c-0.3-0.7-0.7-1.3-1.2-1.8c-0.3-0.3-0.7-0.6-1.2-0.8
			c-0.5-0.2-1-0.3-1.5-0.3c-1.2,0-2.3,0.4-3.1,1.3c-0.8,0.9-1.3,2-1.3,3.3c0,1.2,0.4,2.4,1.3,3.3c0.9,0.9,2,1.4,3.3,1.3
			c0.8,0,1.6-0.2,2.4-0.6c0.6-0.4,1.1-0.8,1.5-1.4l-1.6-1C54.5,12.3,53.7,12.8,52.8,12.8z M51,7.9c0.5-0.5,1.1-0.7,1.7-0.7
			c0.4,0,0.7,0.1,1.1,0.3c0.3,0.2,0.5,0.4,0.6,0.7l-4.1,1.7C50.2,9,50.4,8.4,51,7.9z"/>
	</g>
</g>
</svg>
