<svg xmlns="http://www.w3.org/2000/svg" width="1000" height="156.662"><path fill="#EA4335" d="M117.624 41.093h.586l-.353-.293 22.271-22.273.046-.402C121.422 1.572 95.416-4.138 71.452 3.051c-23.969 7.213-42.524 26.261-49.088 50.404a9.395 9.395 0 0 1 1.193-.391 52.368 52.368 0 0 1 28.491-8.646 52.28 52.28 0 0 1 10.213.971c.171-.103.333-.149.472-.122 14.342-15.752 38.455-17.578 55.005-4.175h-.114v.001z"/><path fill="#4285F4" d="M162.348 53.455a72.72 72.72 0 0 0-21.878-35.27L117.857 40.8a40.19 40.19 0 0 1 14.751 31.885v4.004c26.829 0 26.829 40.253 0 40.253H92.355l-.063.065v31.944h-.168l.23.233h40.253c23.087.179 43.549-14.784 50.415-36.833 6.832-22.031-1.566-45.965-20.674-58.896z"/><path fill="#34A853" d="M52.048 148.952h40.245v-32.211H52.048c-2.843 0-5.68-.612-8.263-1.812l-23.277 23.27-.06.244c9.101 6.858 20.204 10.569 31.6 10.509z"/><path fill="#FBBC05" d="M52.048 44.419C29.698 44.568 9.882 58.877 2.75 80.05c-7.159 21.197-.024 44.58 17.698 58.209l23.356-23.346c-12.842-5.805-15.907-22.612-5.949-32.573 9.95-9.948 26.76-6.885 32.565 5.946l23.351-23.343a52.307 52.307 0 0 0-41.723-20.524z"/><path fill="#5F6368" d="M292.562 126.453a51.656 51.656 0 0 1-37.337-15.305c-10.132-9.576-15.817-22.938-15.642-36.871a49.782 49.782 0 0 1 15.642-36.871c9.801-10.069 23.286-15.723 37.337-15.603a49.893 49.893 0 0 1 35.775 14.429l-10.069 10.221a36.194 36.194 0 0 0-25.706-10.162c-10.072-.152-19.705 3.971-26.595 11.306-7.124 7.064-11.065 16.781-10.892 26.853a36.871 36.871 0 0 0 10.892 26.503c14.581 14.518 38.045 14.778 52.916.618a29.995 29.995 0 0 0 7.745-17.578h-33.922V69.506h48.025c.475 2.916.648 5.887.567 8.83a45.333 45.333 0 0 1-12.4 33.365c-9.454 9.863-22.678 15.219-36.336 14.752zm111.594-9.602c-13.39 12.814-34.508 12.814-47.874 0a32.25 32.25 0 0 1-9.806-24.023 32.294 32.294 0 0 1 9.806-24.029c13.366-12.807 34.484-12.807 47.874 0 6.483 6.272 10.018 14.99 9.776 24.029.242 9.011-3.326 17.725-9.831 24.023h.055zm-37.307-9.452c7.218 7.72 19.499 7.72 26.738 0a20.168 20.168 0 0 0 5.653-14.572c.152-5.453-1.882-10.748-5.653-14.66-7.329-7.631-19.55-7.631-26.85 0a20.102 20.102 0 0 0-5.653 14.66 20.09 20.09 0 0 0 5.708 14.572h.057zm110.929 9.452c-13.398 12.814-34.513 12.814-47.909 0a32.284 32.284 0 0 1-9.776-24.023c-.241-9.039 3.293-17.757 9.776-24.029 13.396-12.836 34.511-12.836 47.909 0 6.475 6.272 10.01 14.99 9.774 24.029a32.335 32.335 0 0 1-9.774 24.023zm-37.34-9.452c7.243 7.72 19.526 7.72 26.771 0a20.23 20.23 0 0 0 5.653-14.572c.141-5.453-1.885-10.748-5.653-14.66-7.338-7.631-19.558-7.631-26.863 0-3.798 3.912-5.824 9.207-5.653 14.66a20.194 20.194 0 0 0 5.686 14.572h.059zm85.717 49.241a29.462 29.462 0 0 1-18.814-5.979c-4.802-3.63-8.603-8.42-10.984-13.933l12.899-5.36a21.509 21.509 0 0 0 6.391 8.42 15.982 15.982 0 0 0 10.568 3.57 16.95 16.95 0 0 0 13.162-5.1c3.418-4.091 5.095-9.359 4.715-14.687v-4.866h-.531a21.526 21.526 0 0 1-17.671 7.633 30.623 30.623 0 0 1-22.612-9.842 32.5 32.5 0 0 1-9.685-23.67c-.149-8.958 3.323-17.579 9.685-23.88 5.799-6.302 14.014-9.899 22.612-9.899 3.592 0 7.129.8 10.4 2.331 2.794 1.237 5.322 3.06 7.324 5.36h.537v-5.36h14.009v60.213a35.181 35.181 0 0 1-8.974 26.302c-6.19 5.887-14.491 9.072-23.031 8.747zm1.032-43.409a16.555 16.555 0 0 0 12.782-5.653c3.472-3.998 5.327-9.185 5.127-14.485a21.46 21.46 0 0 0-5.127-14.757 16.374 16.374 0 0 0-12.782-5.651c-5.035-.089-9.836 1.945-13.249 5.651a20.61 20.61 0 0 0-5.653 14.632c-.124 5.393 1.942 10.612 5.653 14.491a17.566 17.566 0 0 0 13.249 5.772zm55.918 11.188h-14.778V25.601h14.778v98.818zm40.458 2.034a32.09 32.09 0 0 1-23.79-9.657 32.897 32.897 0 0 1-9.57-23.969 33.2 33.2 0 0 1 9.218-24.203c5.886-6.183 14.1-9.627 22.612-9.454 3.885-.03 7.742.711 11.312 2.208a26.12 26.12 0 0 1 8.648 5.653 39.1 39.1 0 0 1 5.653 6.831 38.917 38.917 0 0 1 3.337 6.627l1.529 3.857-45.23 18.582c2.794 6.445 9.271 10.477 16.281 10.184a19.37 19.37 0 0 0 16.58-9.332l11.306 7.628a37.878 37.878 0 0 1-10.861 10.303 30.778 30.778 0 0 1-17.025 4.742zm-18.875-34.657l30.062-12.483a10.235 10.235 0 0 0-4.677-5.154c-2.354-1.324-5.04-2.026-7.747-1.969-4.595.111-8.984 2.029-12.158 5.357a17.957 17.957 0 0 0-5.48 14.249zM729.807 126.453c-12.695.206-24.913-4.742-33.838-13.748a46.49 46.49 0 0 1-13.536-33.919c-.304-12.666 4.59-24.916 13.536-33.925a46.517 46.517 0 0 1 33.838-13.726c12.869-.407 25.201 5.097 33.534 14.936l-8.154 7.891a30.793 30.793 0 0 0-25.325-11.578 34.565 34.565 0 0 0-25.174 10.069 35.254 35.254 0 0 0-10.216 26.332 35.321 35.321 0 0 0 10.216 26.351 34.56 34.56 0 0 0 25.174 10.069c10.959.114 21.354-4.736 28.266-13.222l8.133 8.128a44.043 44.043 0 0 1-15.642 11.925c-6.533 3.001-13.629 4.531-20.812 4.417zM776.443 124.419h11.692V33.11h-11.692v91.309zM807.248 69.473c12.777-12.684 33.394-12.684 46.143 0a32.987 32.987 0 0 1 9.033 23.739 32.963 32.963 0 0 1-9.033 23.73c-12.749 12.695-33.365 12.695-46.143 0a33.127 33.127 0 0 1-9.038-23.73 33.151 33.151 0 0 1 9.038-23.739zm8.713 40.134c7.78 8.214 20.883 8.214 28.651 0a22.543 22.543 0 0 0 6.071-16.396 22.549 22.549 0 0 0-6.071-16.403c-7.769-8.214-20.871-8.214-28.651 0a22.607 22.607 0 0 0-6.032 16.403 22.528 22.528 0 0 0 6.093 16.341l-.061.055zM927.301 124.419h-11.307v-8.654h-.353a21.736 21.736 0 0 1-8.252 7.808 23.255 23.255 0 0 1-11.6 3.119 22.127 22.127 0 0 1-17.752-7.123 28.32 28.32 0 0 1-6.038-19.113V61.997h11.691v36.304c0 11.632 5.148 17.464 15.43 17.464a14.466 14.466 0 0 0 11.897-5.652 21.46 21.46 0 0 0 4.563-13.515V61.997h11.719v62.422h.002zM967.02 126.453a27.42 27.42 0 0 1-20.904-9.57 33.958 33.958 0 0 1-8.778-23.671 34.024 34.024 0 0 1 8.778-23.706 27.516 27.516 0 0 1 20.904-9.543c4.448-.052 8.865.971 12.782 3.068a21.412 21.412 0 0 1 8.485 7.623h.493l-.493-8.656V33.11H1000v91.309h-11.307v-8.654h-.526a21.415 21.415 0 0 1-8.485 7.629 26.277 26.277 0 0 1-12.662 3.059zm1.942-10.688c5.333.087 10.454-2.148 14.078-6.098a22.911 22.911 0 0 0 5.653-16.455 22.935 22.935 0 0 0-5.653-16.46c-7.595-8.331-20.703-8.331-28.271 0a22.505 22.505 0 0 0-5.653 16.395 22.53 22.53 0 0 0 5.653 16.406 18.598 18.598 0 0 0 14.193 6.212z"/></svg>