<svg width="494" height="96" viewBox="0 0 494 96" fill="none" xmlns="http://www.w3.org/2000/svg">
<g clip-path="url(#clip0)">
<path d="M69 60.9759V58.6468V55.4303V40.2907V37.0742L71.4783 31.9167L83.8696 22.1009C85.5217 20.7145 88 21.8791 88 24.0419V70.9581C88 73.1209 85.4667 74.2855 83.8145 72.8991L69 60.9759Z" fill="#00AC47"/>
<path d="M28 15L8 35H28V15Z" fill="#EA4335"/>
<path d="M28 35H8V61H28V35Z" fill="#2684FC"/>
<path d="M8 61V74.3333C8 78 11 81 14.6667 81H28V61H8Z" fill="#0066DA"/>
<path d="M71.5 21.5902C71.5 17.9656 68.5638 15 64.975 15H51.925H28V35H52.5V48L71.5 47.4016V21.5902Z" fill="#FFBA00"/>
<path d="M52.5 61H28V81H51.925H64.975C68.5638 81 71.5 78.0387 71.5 74.4194V48H52.5V61Z" fill="#00AC47"/>
<path d="M71.5 32V63L52.5 48L71.5 32Z" fill="#00832D"/>
<path d="M352.098 72.204H346.21V26.38H352.098L368.034 54.284H368.29L384.226 26.38H390.114V72.204H384.226V45.004L384.482 37.324H384.226L369.89 62.476H366.434L352.098 37.324H351.842L352.098 45.004V72.204Z" fill="#5F6368"/>
<path d="M412.391 73.228C407.783 73.228 403.986 71.6493 400.999 68.492C398.012 65.3347 396.519 61.3453 396.519 56.524C396.519 51.7453 397.97 47.7773 400.871 44.62C403.772 41.42 407.484 39.82 412.007 39.82C416.658 39.82 420.348 41.3347 423.079 44.364C425.852 47.3507 427.239 51.5533 427.239 56.972L427.175 57.612H402.535C402.62 60.684 403.644 63.1587 405.607 65.036C407.57 66.9133 409.916 67.852 412.647 67.852C416.402 67.852 419.346 65.9747 421.479 62.22L426.727 64.78C425.319 67.4253 423.356 69.4947 420.839 70.988C418.364 72.4813 415.548 73.228 412.391 73.228ZM402.983 52.748H420.967C420.796 50.572 419.9 48.78 418.279 47.372C416.7 45.9213 414.567 45.196 411.879 45.196C409.66 45.196 407.74 45.8787 406.119 47.244C404.54 48.6093 403.495 50.444 402.983 52.748Z" fill="#5F6368"/>
<path d="M447.016 73.228C442.408 73.228 438.611 71.6493 435.624 68.492C432.637 65.3347 431.144 61.3453 431.144 56.524C431.144 51.7453 432.595 47.7773 435.496 44.62C438.397 41.42 442.109 39.82 446.632 39.82C451.283 39.82 454.973 41.3347 457.704 44.364C460.477 47.3507 461.864 51.5533 461.864 56.972L461.8 57.612H437.16C437.245 60.684 438.269 63.1587 440.232 65.036C442.195 66.9133 444.541 67.852 447.272 67.852C451.027 67.852 453.971 65.9747 456.104 62.22L461.352 64.78C459.944 67.4253 457.981 69.4947 455.464 70.988C452.989 72.4813 450.173 73.228 447.016 73.228ZM437.608 52.748H455.592C455.421 50.572 454.525 48.78 452.904 47.372C451.325 45.9213 449.192 45.196 446.504 45.196C444.285 45.196 442.365 45.8787 440.744 47.244C439.165 48.6093 438.12 50.444 437.608 52.748Z" fill="#5F6368"/>
<path d="M478.727 72.716C476.167 72.716 474.034 71.9267 472.327 70.348C470.663 68.7693 469.81 66.572 469.767 63.756V46.22H464.263V40.844H469.767V31.244H475.655V40.844H483.335V46.22H475.655V61.836C475.655 63.9267 476.06 65.356 476.871 66.124C477.682 66.8493 478.599 67.212 479.623 67.212C480.092 67.212 480.54 67.1693 480.967 67.084C481.436 66.956 481.863 66.8067 482.247 66.636L484.103 71.884C482.567 72.4387 480.775 72.716 478.727 72.716Z" fill="#5F6368"/>
<path d="M152.078 52.7876V45.7921H175.493C175.732 47.0249 175.873 48.4923 175.873 50.0809C175.873 55.3278 174.436 61.823 169.816 66.4457C165.319 71.1304 159.575 73.6281 151.957 73.6281C137.844 73.6281 125.98 62.135 125.98 48.0191C125.98 33.9031 137.844 22.41 151.957 22.41C159.762 22.41 165.319 25.4712 169.504 29.4686L164.57 34.4035C161.572 31.5924 157.514 29.4067 151.957 29.4067C141.654 29.4067 133.598 37.7136 133.598 48.0204C133.598 58.3272 141.654 66.634 151.957 66.634C158.639 66.634 162.448 63.948 164.882 61.5122C166.867 59.5277 168.173 56.6805 168.681 52.7889L152.078 52.7876Z" fill="#5F6368"/>
<path d="M211.554 57.1396C211.554 66.634 204.123 73.6295 195.006 73.6295C185.889 73.6295 178.458 66.634 178.458 57.1396C178.458 47.5833 185.889 40.6497 195.006 40.6497C204.124 40.6497 211.554 47.582 211.554 57.1396ZM204.311 57.1396C204.311 51.2054 200.003 47.1461 195.007 47.1461C190.012 47.1461 185.702 51.2054 185.702 57.1396C185.702 63.0106 190.01 67.1331 195.007 67.1331C200.003 67.1331 204.311 63.0106 204.311 57.1396Z" fill="#5F6368"/>
<path d="M247.653 57.1396C247.653 66.634 240.222 73.6295 231.105 73.6295C221.988 73.6295 214.557 66.634 214.557 57.1396C214.557 47.5833 221.988 40.6497 231.105 40.6497C240.223 40.6497 247.653 47.582 247.653 57.1396ZM240.41 57.1396C240.41 51.2054 236.102 47.1461 231.106 47.1461C226.111 47.1461 221.801 51.2054 221.801 57.1396C221.801 63.0106 226.11 67.1331 231.106 67.1331C236.102 67.1331 240.41 63.0106 240.41 57.1396Z" fill="#5F6368"/>
<path d="M282.255 41.6478V71.2542C282.255 83.4346 275.074 88.4314 266.581 88.4314C258.588 88.4314 253.781 83.0594 251.969 78.688L258.276 76.064C259.4 78.7499 262.147 81.935 266.581 81.935C272.014 81.935 275.386 78.5617 275.386 72.2535V69.8796H275.136C273.512 71.8783 270.39 73.6268 266.456 73.6268C258.213 73.6268 250.657 66.4444 250.657 57.2002C250.657 47.8927 258.213 40.6484 266.456 40.6484C270.39 40.6484 273.512 42.3969 275.136 44.3337H275.386V41.6478H282.255ZM275.885 57.2015C275.885 51.3923 272.013 47.1448 267.08 47.1448C262.085 47.1448 257.9 51.3923 257.9 57.2015C257.9 62.9474 262.084 67.133 267.08 67.133C272.014 67.133 275.885 62.9474 275.885 57.2015Z" fill="#5F6368"/>
<path d="M294.523 24.3223V72.6301H287.28V24.3223H294.523Z" fill="#5F6368"/>
<path d="M322.495 62.5722L328.115 66.3194C326.303 69.0054 321.933 73.6269 314.377 73.6269C305.01 73.6269 298.016 66.3813 298.016 57.137C298.016 47.3305 305.072 40.6471 313.564 40.6471C322.12 40.6471 326.303 47.4556 327.678 51.1409L328.427 53.0145L306.383 62.1337C308.07 65.4438 310.693 67.1305 314.377 67.1305C318.061 67.1331 320.622 65.3213 322.495 62.5722ZM305.197 56.6393L319.933 50.5181C319.121 48.4575 316.686 47.021 313.813 47.021C310.131 47.0197 305.01 50.2679 305.197 56.6393Z" fill="#5F6368"/>
</g>
<defs>
<clipPath id="clip0">
<rect width="494" height="96" fill="white"/>
</clipPath>
</defs>
</svg>
