<?xml version="1.0" standalone="no"?>
<!DOCTYPE svg PUBLIC "-//W3C//DTD SVG 20010904//EN"
 "http://www.w3.org/TR/2001/REC-SVG-20010904/DTD/svg10.dtd">
<svg version="1.0" xmlns="http://www.w3.org/2000/svg"
 width="700.000000pt" height="700.000000pt" viewBox="0 0 700.000000 700.000000"
 preserveAspectRatio="xMidYMid meet">
<metadata>
Created by potrace 1.11, written by Peter Selinger 2001-2013
</metadata>
<g transform="translate(0.000000,700.000000) scale(0.100000,-0.100000)"
fill="#000000" stroke="none">
<path d="M685 6983 c-311 -66 -564 -307 -661 -628 -18 -57 -19 -186 -22 -2815
-2 -1970 0 -2773 8 -2820 59 -347 336 -631 686 -705 104 -22 5504 -22 5608 0
314 67 557 288 663 605 l28 85 0 2795 0 2795 -29 85 c-82 247 -231 422 -450
529 -193 95 144 85 -2991 88 -2428 1 -2779 0 -2840 -14z m2019 -1327 c23 -13
51 -42 64 -64 22 -40 22 -41 22 -531 l0 -491 310 0 310 0 0 109 c0 103 1 111
26 140 37 44 91 44 128 0 25 -29 26 -37 26 -140 l0 -109 310 0 310 0 0 491 c0
490 0 491 22 531 59 104 215 119 291 29 14 -17 31 -48 37 -69 6 -23 10 -215
10 -509 l0 -472 493 -3 c446 -3 495 -5 524 -20 87 -48 120 -166 70 -250 -14
-25 -42 -53 -65 -66 l-40 -22 -2052 0 -2052 0 -40 22 c-104 59 -119 215 -29
291 17 14 48 31 69 37 23 6 215 10 510 10 l472 0 0 473 c0 294 4 486 10 509
13 47 55 97 95 114 49 22 122 17 169 -10z m857 -95 l29 -29 0 -180 c0 -180 0
-181 -26 -211 -20 -25 -34 -31 -64 -31 -30 0 -44 6 -64 31 -26 30 -26 31 -26
211 l0 180 29 29 c20 20 39 29 61 29 22 0 41 -9 61 -29z m-1680 -2000 c20 -20
29 -39 29 -61 0 -22 -9 -41 -29 -61 l-29 -29 -192 0 -192 0 -29 29 c-20 20
-29 39 -29 61 0 22 9 41 29 61 l29 29 192 0 192 0 29 -29z m718 14 c40 -20 57
-66 41 -105 -22 -54 -48 -60 -264 -60 -107 0 -206 4 -220 10 -15 5 -34 25 -43
45 -16 33 -16 37 0 70 9 20 27 40 39 45 13 5 112 9 221 9 155 1 204 -2 226
-14z m750 -11 c25 -20 31 -34 31 -64 0 -30 -6 -44 -31 -64 l-31 -26 -210 0
-210 0 -29 29 c-20 20 -29 39 -29 61 0 22 9 41 29 61 l29 29 210 0 210 0 31
-26z m747 -7 c31 -36 31 -78 0 -114 l-24 -28 -203 -3 c-220 -3 -240 -1 -269
28 -23 23 -27 87 -7 112 28 35 49 38 265 35 l214 -2 24 -28z m713 18 c67 -34
52 -142 -22 -160 -13 -4 -114 -5 -224 -3 -179 3 -203 5 -221 22 -44 39 -34
117 18 143 38 19 411 18 449 -2z m752 -14 c20 -20 29 -39 29 -61 0 -22 -9 -41
-29 -61 l-29 -29 -210 0 -210 0 -31 26 c-25 20 -31 34 -31 64 0 30 6 44 31 64
l31 26 210 0 210 0 29 -29z m31 -793 c23 -13 51 -41 65 -66 50 -84 17 -202
-70 -250 -29 -15 -78 -17 -524 -20 l-492 -3 -3 -492 c-3 -549 -1 -527 -74
-583 -27 -21 -50 -29 -94 -32 -74 -5 -131 23 -166 84 l-24 41 0 491 0 492
-310 0 -310 0 0 -109 c0 -103 -1 -111 -26 -140 -37 -44 -91 -44 -128 0 -25 29
-26 37 -26 140 l0 109 -310 0 -310 0 0 -491 c0 -490 0 -491 -22 -531 -13 -23
-41 -51 -66 -65 -84 -50 -202 -17 -250 70 -15 29 -17 78 -20 524 l-3 492 -492
3 c-549 3 -527 1 -583 74 -21 27 -29 50 -32 94 -5 73 23 130 83 166 l40 24
2054 0 2053 0 40 -22z m-2041 -891 c34 -26 39 -54 39 -232 l0 -177 -29 -29
c-20 -20 -39 -29 -61 -29 -22 0 -41 9 -61 29 l-29 29 0 177 c0 178 5 206 39
232 21 16 81 16 102 0z"/>
</g>
</svg>
