<svg width="30" height="30" xmlns="http://www.w3.org/2000/svg"><g fill="none"><path d="M15 30c8.3 0 15-6.7 15-15S23.3 0 15 0 0 6.7 0 15s6.7 15 15 15" fill="#129EAF"/><path d="M22.448 8c.903 0 1.612.724 1.548 1.645v11.71c0 .921-.71 1.645-1.613 1.645H7.613C6.71 23 6 22.276 6 21.355V9.645C6 8.724 6.71 8 7.613 8zm-.065 1.645H7.613v11.71h14.835l-.065-11.71zm-9.288 1.908c.258 0 .452.197.452.46 0 .526.064 1.119.258 1.58.064.13 0 .328-.13.46l-1.031.92c.645 1.25 1.612 2.303 2.902 2.961l.968-.987c.129-.131.322-.131.451-.131a4.26 4.26 0 0 0 1.548.263c.258 0 .452.197.452.46v1.58c0 .263-.194.46-.452.46-4.128 0-7.417-3.355-7.417-7.566 0-.263.193-.46.451-.46h1.548z" fill="#FFF"/></g></svg>