<svg width="30" height="30" xmlns="http://www.w3.org/2000/svg"><g fill="none"><path d="M15 30c8.3 0 15-6.7 15-15S23.3 0 15 0 0 6.7 0 15s6.7 15 15 15" fill="#129EAF"/><path d="M23.182 8c.95 0 1.736.722 1.812 1.633l.006.145-.01 10.449c0 .929-.73 1.693-1.66 1.767l-.148.006h-4.546v2h-7.272v-2H6.818c-.95 0-1.736-.718-1.812-1.628L5 20.227V9.777c0-.928.738-1.697 1.67-1.771L6.818 8h16.364zm.149 1.664H6.668v10.672h16.663V9.664zm-7.664 2.67v2h2v1.333h-2v2h-1.334v-2h-2v-1.334h2v-2h1.334z" fill="#FFF"/></g></svg>