<svg width="24" height="26" xmlns="http://www.w3.org/2000/svg"><g fill="none" fill-rule="evenodd"><path d="M0 0h24v24H0z"/><path d="M8.1 10.81V6.357c0-1.643 1.344-2.976 3-2.976s3 1.333 3 2.976v4.453a5.33 5.33 0 0 0 2.4-4.453C16.5 3.393 14.088 1 11.1 1 8.112 1 5.7 3.393 5.7 6.357a5.33 5.33 0 0 0 2.4 4.453zm11.808 5.511l-5.448-2.69a1.702 1.702 0 0 0-.648-.131H12.9V6.357a1.79 1.79 0 0 0-1.8-1.786c-.996 0-1.8.798-1.8 1.786v12.786c-4.32-.905-4.248-.893-4.404-.893-.372 0-.708.155-.948.393L3 19.595l5.928 5.881c.324.322.78.524 1.272.524h8.148c.9 0 1.596-.655 1.728-1.524l.9-6.274a1.76 1.76 0 0 0 .024-.238c0-.738-.456-1.38-1.092-1.643z" fill="#FFF" fill-rule="nonzero"/></g></svg>