<svg width="30" height="30" xmlns="http://www.w3.org/2000/svg"><g fill="none"><path d="M15 30c8.3 0 15-6.7 15-15S23.3 0 15 0 0 6.7 0 15s6.7 15 15 15" fill="#129EAF"/><path d="M10.114 23L15 17.975 19.886 23h-9.772zM22.33 7c.45 0 .835.198 1.157.529.321.33.514.727.514 1.19v10.116c0 .463-.193.86-.514 1.19-.322.33-.707.463-1.157.463h-3.28v-1.653h3.279V8.719H7.67v10.116h3.279v1.653H7.671c-.45 0-.835-.133-1.157-.463-.321-.397-.514-.794-.514-1.19V8.719c0-.463.193-.86.514-1.19.322-.33.707-.529 1.157-.529H22.33z" fill="#FFF"/></g></svg>