<svg width="30" height="30" xmlns="http://www.w3.org/2000/svg"><g fill="none"><path d="M15 30c8.3 0 15-6.7 15-15S23.3 0 15 0 0 6.7 0 15s6.7 15 15 15" fill="#129EAF"/><path d="M12.683 13.063V9.857c0-1.183.971-2.143 2.167-2.143 1.196 0 2.167.96 2.167 2.143v3.206a3.834 3.834 0 0 0 1.733-3.206C18.75 7.723 17.008 6 14.85 6s-3.9 1.723-3.9 3.857c0 1.337.685 2.512 1.733 3.206zm8.528 3.968l-3.934-1.937a1.232 1.232 0 0 0-.468-.094h-.659V9.857c0-.711-.58-1.286-1.3-1.286-.72 0-1.3.575-1.3 1.286v9.206c-3.12-.652-3.068-.643-3.18-.643a.975.975 0 0 0-.685.283L9 19.389l4.281 4.234c.234.231.564.377.919.377h5.885c.65 0 1.152-.471 1.248-1.097l.65-4.517c.008-.06.017-.12.017-.172 0-.531-.33-.994-.789-1.183z" fill="#FFF"/></g></svg>