<svg version="1.1" id="Layer_1" xmlns="http://www.w3.org/2000/svg" x="0" y="0" viewBox="0 0 363 204" xml:space="preserve"><style>.st1{fill:#fbab18}.st5{fill:#fbab1a}</style><path id="Bounding_BOX" fill="none" d="M0 0h363v204H0z"/><path class="st1" d="M279.1 61.1v42.4H83.8V61.1h-2.3v43.5c0 .8.6 1.2 1.2 1.2h197.6c.6 0 1.1-.6 1.2-1.1V61.1h-2.4z"/><text transform="translate(216.788 43.88)" font-size="18" font-family="Roboto-Italic" fill="#faab18">700mm</text><path class="st1" d="M279.7 52.3v2.3h-66.4c-.6 0-1.2-.5-1.2-1.2s.5-1.2 1.2-1.2h65.9c.2 0 .3 0 .5.1z"/><path class="st1" d="M213.3 60c-.6 0-1.2-.5-1.2-1.2V48.1c0-.6.5-1.2 1.2-1.2s1.2.5 1.2 1.2v10.6c-.1.6-.5 1.3-1.2 1.3z"/><path class="st1" d="M214.3 52.3v2.3h-66.4c-.6 0-1.2-.5-1.2-1.2s.5-1.2 1.2-1.2h65.9c.2 0 .3 0 .5.1z"/><path class="st1" d="M147.9 60c-.6 0-1.2-.5-1.2-1.2V48.1c0-.6.5-1.2 1.2-1.2s1.2.5 1.2 1.2v10.6c-.1.6-.5 1.3-1.2 1.3z"/><path class="st1" d="M149.2 52.3v2.3H82.8c-.6 0-1.2-.5-1.2-1.2s.5-1.2 1.2-1.2h65.9c.2 0 .3 0 .5.1z"/><path class="st1" d="M82.8 60c-.6 0-1.2-.5-1.2-1.2V48.1c0-.6.5-1.2 1.2-1.2s1.2.5 1.2 1.2v10.6c-.1.6-.5 1.3-1.2 1.3zm196.9-11.9v10.6c0 .6-.5 1.2-1.2 1.2-.6 0-1.2-.5-1.2-1.2V48.1c0-.6.5-1.2 1.2-1.2s1.2.4 1.2 1.2zm-65.1 0v10.6c0 .6-.5 1.2-1.2 1.2-.6 0-1.2-.5-1.2-1.2V48.1c0-.6.5-1.2 1.2-1.2s1.2.4 1.2 1.2zm-65.4 0v10.6c0 .6-.5 1.2-1.2 1.2-.6 0-1.2-.5-1.2-1.2V48.1c0-.6.5-1.2 1.2-1.2s1.2.4 1.2 1.2z"/><path class="st5" d="M218.8 64c.6 0 1.2.5 1.2 1.2 0 .6-.5 1.2-1.2 1.2-.6 0-1.2-.5-1.2-1.2-.2-.7.4-1.2 1.2-1.2zm4.8 0c.6 0 1.2.5 1.2 1.2 0 .6-.5 1.2-1.2 1.2-.6 0-1.1-.5-1.1-1.2-.1-.7.5-1.2 1.1-1.2zm5 0c.6 0 1.2.5 1.2 1.2 0 .6-.5 1.2-1.2 1.2-.6 0-1.2-.5-1.2-1.2s.6-1.2 1.2-1.2zm5 0c.6 0 1.2.5 1.2 1.2 0 .6-.5 1.2-1.2 1.2-.6 0-1.1-.5-1.1-1.2s.5-1.2 1.1-1.2zm5 0c.6 0 1.2.5 1.2 1.2 0 .6-.5 1.2-1.2 1.2-.6 0-1.2-.5-1.2-1.2-.1-.7.4-1.2 1.2-1.2zm4.8 0c.6 0 1.2.5 1.2 1.2 0 .6-.5 1.2-1.2 1.2-.6 0-1.2-.5-1.2-1.2.1-.7.6-1.2 1.2-1.2zm5.1 0c.6 0 1.2.5 1.2 1.2 0 .6-.5 1.2-1.2 1.2-.6 0-1.2-.5-1.2-1.2s.5-1.2 1.2-1.2zm5 0c.6 0 1.2.5 1.2 1.2 0 .6-.5 1.2-1.2 1.2-.6 0-1.2-.5-1.2-1.2s.6-1.2 1.2-1.2zm5 0c.6 0 1.2.5 1.2 1.2 0 .6-.5 1.2-1.2 1.2-.6 0-1.2-.5-1.2-1.2-.2-.7.6-1.2 1.2-1.2zm4.8 0c.6 0 1.1.5 1.1 1.2 0 .6-.5 1.2-1.1 1.2-.6 0-1.2-.5-1.2-1.2.1-.7.6-1.2 1.2-1.2zm5 0c.6 0 1.2.5 1.2 1.2 0 .6-.5 1.2-1.2 1.2-.6 0-1.2-.5-1.2-1.2.1-.7.6-1.2 1.2-1.2zm5 0c.6 0 1.1.5 1.1 1.2 0 .6-.5 1.2-1.1 1.2-.6 0-1.2-.5-1.2-1.2.1-.7.6-1.2 1.2-1.2zm-54.5 108.9c.6 0 1.2.5 1.2 1.2 0 .6-.5 1.2-1.2 1.2-.6 0-1.2-.5-1.2-1.2-.2-.6.3-1.2 1.2-1.2zm4.8 0c.6 0 1.2.5 1.2 1.2 0 .6-.5 1.2-1.2 1.2-.6 0-1.2-.5-1.2-1.2 0-.6.6-1.2 1.2-1.2zm5 0c.6 0 1.2.5 1.2 1.2 0 .6-.5 1.2-1.2 1.2-.6 0-1.2-.5-1.2-1.2 0-.6.6-1.2 1.2-1.2zm5 0c.6 0 1.2.5 1.2 1.2 0 .6-.5 1.2-1.2 1.2-.6 0-1.2-.5-1.2-1.2.1-.6.6-1.2 1.2-1.2zm5 0c.6 0 1.2.5 1.2 1.2 0 .6-.5 1.2-1.2 1.2-.6 0-1.2-.5-1.2-1.2-.1-.6.4-1.2 1.2-1.2zm4.8 0c.6 0 1.2.5 1.2 1.2 0 .6-.5 1.2-1.2 1.2-.6 0-1.2-.5-1.2-1.2.1-.6.6-1.2 1.2-1.2zm5.1 0c.6 0 1.2.5 1.2 1.2 0 .6-.5 1.2-1.2 1.2-.6 0-1.2-.5-1.2-1.2 0-.6.5-1.2 1.2-1.2zm5 0c.6 0 1.2.5 1.2 1.2 0 .6-.5 1.2-1.2 1.2-.6 0-1.2-.5-1.2-1.2 0-.6.6-1.2 1.2-1.2zm5 0c.6 0 1.2.5 1.2 1.2 0 .6-.5 1.2-1.2 1.2-.6 0-1.2-.5-1.2-1.2-.2-.6.6-1.2 1.2-1.2zm4.8 0c.6 0 1.2.5 1.2 1.2 0 .6-.5 1.2-1.2 1.2-.6 0-1.2-.5-1.2-1.2 0-.6.6-1.2 1.2-1.2zm5 0c.6 0 1.1.5 1.1 1.2 0 .6-.5 1.2-1.1 1.2-.6 0-1.2-.5-1.2-1.2.1-.6.6-1.2 1.2-1.2zm5 0c.6 0 1.2.5 1.2 1.2 0 .6-.5 1.2-1.2 1.2-.6 0-1.2-.5-1.2-1.2.1-.6.6-1.2 1.2-1.2zm5-89.9c.6 0 1.2.5 1.2 1.2 0 .6-.5 1.2-1.2 1.2-.6 0-1.2-.5-1.2-1.2.1-.7.6-1.2 1.2-1.2zm0-4.8c.6 0 1.2.5 1.2 1.2 0 .6-.5 1.2-1.2 1.2-.6 0-1.2-.5-1.2-1.2.1-.7.6-1.2 1.2-1.2zm0-4.8c.6 0 1.2.5 1.2 1.2 0 .6-.5 1.2-1.2 1.2-.6 0-1.2-.5-1.2-1.2.1-.6.6-1.2 1.2-1.2zm0-4.6c.6 0 1.2.5 1.2 1.1 0 .6-.5 1.2-1.2 1.2-.6 0-1.2-.5-1.2-1.2.1-.6.6-1.1 1.2-1.1zm0-4.8c.6 0 1.2.5 1.2 1.2 0 .6-.5 1.2-1.2 1.2-.6 0-1.2-.5-1.2-1.2.1-.7.6-1.2 1.2-1.2zm0 109c.6 0 1.2.5 1.2 1.2 0 .6-.5 1.2-1.2 1.2-.6 0-1.2-.5-1.2-1.2.1-.5.6-1.2 1.2-1.2zm0-4.6c.6 0 1.2.5 1.2 1.2 0 .6-.5 1.2-1.2 1.2-.6 0-1.2-.5-1.2-1.2.1-.8.6-1.2 1.2-1.2zm0-4.9c.6 0 1.2.5 1.2 1.2 0 .6-.5 1.2-1.2 1.2-.6 0-1.2-.5-1.2-1.2.1-.7.6-1.2 1.2-1.2zm0-4.6c.6 0 1.2.5 1.2 1.2 0 .6-.5 1.2-1.2 1.2-.6 0-1.2-.5-1.2-1.2.1-.6.6-1.2 1.2-1.2zm0-4.7c.6 0 1.2.5 1.2 1.2 0 .6-.5 1.2-1.2 1.2-.6 0-1.2-.5-1.2-1.2.1-.7.6-1.2 1.2-1.2zm0-4.8c.6 0 1.2.5 1.2 1.2 0 .6-.5 1.2-1.2 1.2-.6 0-1.2-.5-1.2-1.2.1-.8.6-1.2 1.2-1.2zm0-4.9c.6 0 1.2.5 1.2 1.2 0 .6-.5 1.2-1.2 1.2-.6 0-1.2-.5-1.2-1.2.1-.4.6-1.2 1.2-1.2zm0-4.5c.6 0 1.2.5 1.2 1.2 0 .6-.5 1.2-1.2 1.2-.6 0-1.2-.5-1.2-1.2.1-.7.6-1.2 1.2-1.2zm0-4.8c.6 0 1.2.5 1.2 1.2 0 .6-.5 1.2-1.2 1.2-.6 0-1.2-.5-1.2-1.2.1-.6.6-1.2 1.2-1.2zm0-4.7c.6 0 1.2.5 1.2 1.2 0 .6-.5 1.2-1.2 1.2-.6 0-1.2-.5-1.2-1.2.1-.7.6-1.2 1.2-1.2zm0-4.8c.6 0 1.2.5 1.2 1.2 0 .6-.5 1.2-1.2 1.2-.6 0-1.2-.5-1.2-1.2.1-.6.6-1.2 1.2-1.2zm0-4.7c.6 0 1.2.5 1.2 1.2 0 .6-.5 1.2-1.2 1.2-.6 0-1.2-.5-1.2-1.2.1-.6.6-1.2 1.2-1.2zm0-4.7c.6 0 1.2.5 1.2 1.2 0 .6-.5 1.2-1.2 1.2-.6 0-1.2-.5-1.2-1.2.1-.7.6-1.2 1.2-1.2zm0-4.8c.6 0 1.2.5 1.2 1.2 0 .6-.5 1.2-1.2 1.2-.6 0-1.2-.5-1.2-1.2.1-.7.6-1.2 1.2-1.2zm0-4.7c.6 0 1.2.5 1.2 1.2 0 .6-.5 1.2-1.2 1.2-.6 0-1.2-.5-1.2-1.2.1-.5.6-1.2 1.2-1.2zm0-4.6c.6 0 1.2.5 1.2 1.2 0 .6-.5 1.2-1.2 1.2-.6 0-1.2-.5-1.2-1.2.1-.8.6-1.2 1.2-1.2zm0-4.9c.6 0 1.2.5 1.2 1.2 0 .6-.5 1.2-1.2 1.2-.6 0-1.2-.5-1.2-1.2.1-.7.6-1.2 1.2-1.2zm0-4.8c.6 0 1.2.5 1.2 1.2 0 .6-.5 1.2-1.2 1.2-.6 0-1.2-.5-1.2-1.2.1-.6.6-1.2 1.2-1.2zm0-4.5c.6 0 1.2.5 1.2 1.1 0 .6-.5 1.2-1.2 1.2-.6 0-1.2-.5-1.2-1.2.1-.6.6-1.1 1.2-1.1zM154.2 64c.6 0 1.2.5 1.2 1.2 0 .6-.5 1.2-1.2 1.2-.6 0-1.2-.5-1.2-1.2-.1-.7.5-1.2 1.2-1.2zm5 0c.6 0 1.2.5 1.2 1.2 0 .6-.5 1.2-1.2 1.2-.6 0-1.1-.5-1.1-1.2-.2-.7.4-1.2 1.1-1.2zm4.9 0c.6 0 1.2.5 1.2 1.2 0 .6-.5 1.2-1.2 1.2-.6 0-1.2-.5-1.2-1.2-.2-.7.5-1.2 1.2-1.2zm4.9 0c.6 0 1.2.5 1.2 1.2 0 .6-.5 1.2-1.2 1.2-.6 0-1.1-.5-1.1-1.2s.4-1.2 1.1-1.2zm4.9 0c.6 0 1.2.5 1.2 1.2 0 .6-.5 1.2-1.2 1.2-.6 0-1.2-.5-1.2-1.2.2-.7.6-1.2 1.2-1.2zm5 0c.6 0 1.2.5 1.2 1.2 0 .6-.5 1.2-1.2 1.2-.6 0-1.2-.5-1.2-1.2.1-.7.6-1.2 1.2-1.2zm5.2 0c.6 0 1.2.5 1.2 1.2 0 .6-.5 1.2-1.2 1.2-.6 0-1.2-.5-1.2-1.2-.2-.7.4-1.2 1.2-1.2zm4.8 0c.6 0 1.2.5 1.2 1.2 0 .6-.5 1.2-1.2 1.2-.6 0-1.2-.5-1.2-1.2s.6-1.2 1.2-1.2zm5 0c.6 0 1.2.5 1.2 1.2 0 .6-.5 1.2-1.2 1.2-.6 0-1.2-.5-1.2-1.2-.1-.7.6-1.2 1.2-1.2zm5 0c.6 0 1.1.5 1.1 1.2 0 .6-.5 1.2-1.1 1.2-.6 0-1.2-.5-1.2-1.2.1-.7.5-1.2 1.2-1.2zm4.9 0c.6 0 1.2.5 1.2 1.2 0 .6-.5 1.2-1.2 1.2-.6 0-1.2-.5-1.2-1.2.2-.7.6-1.2 1.2-1.2zm4.9 0c.6 0 1.1.5 1.1 1.2 0 .6-.5 1.2-1.1 1.2-.6 0-1.2-.5-1.2-1.2.1-.7.6-1.2 1.2-1.2zM149 153.9c.6 0 1.2.5 1.2 1.2 0 .6-.5 1.2-1.2 1.2-.6 0-1.2-.5-1.2-1.2.1-.6.6-1.2 1.2-1.2zm0-4.7c.6 0 1.2.5 1.2 1.2 0 .6-.5 1.2-1.2 1.2-.6 0-1.2-.5-1.2-1.2.1-.7.6-1.2 1.2-1.2zm0-4.8c.6 0 1.2.5 1.2 1.2 0 .6-.5 1.2-1.2 1.2-.6 0-1.2-.5-1.2-1.2.1-.8.6-1.2 1.2-1.2zm0-4.7c.6 0 1.2.5 1.2 1.2 0 .6-.5 1.2-1.2 1.2-.6 0-1.2-.5-1.2-1.2.1-.6.6-1.2 1.2-1.2zm0-4.7c.6 0 1.2.5 1.2 1.1 0 .6-.5 1.2-1.2 1.2-.6 0-1.2-.5-1.2-1.2.1-.6.6-1.1 1.2-1.1zm0-4.8c.6 0 1.2.5 1.2 1.2 0 .6-.5 1.2-1.2 1.2-.6 0-1.2-.5-1.2-1.2.1-.7.6-1.2 1.2-1.2zm0-4.8c.6 0 1.2.5 1.2 1.2 0 .6-.5 1.2-1.2 1.2-.6 0-1.2-.5-1.2-1.2.1-.4.6-1.2 1.2-1.2zm0-4.5c.6 0 1.2.5 1.2 1.2 0 .6-.5 1.2-1.2 1.2-.6 0-1.2-.5-1.2-1.2.1-.8.6-1.2 1.2-1.2zm0-4.9c.6 0 1.2.5 1.2 1.2 0 .6-.5 1.2-1.2 1.2-.6 0-1.2-.5-1.2-1.2.1-.7.6-1.2 1.2-1.2zm0-4.8c.6 0 1.2.5 1.2 1.2 0 .6-.5 1.2-1.2 1.2-.6 0-1.2-.5-1.2-1.2.1-.6.6-1.2 1.2-1.2zm0-4.5c.6 0 1.2.5 1.2 1.2 0 .6-.5 1.2-1.2 1.2-.6 0-1.2-.5-1.2-1.2.1-.7.6-1.2 1.2-1.2zm0-4.8c.6 0 1.2.5 1.2 1.2 0 .6-.5 1.2-1.2 1.2-.6 0-1.2-.5-1.2-1.2.1-.6.6-1.2 1.2-1.2zm0-4.7c.6 0 1.2.5 1.2 1.2 0 .6-.5 1.2-1.2 1.2-.6 0-1.2-.5-1.2-1.2.1-.7.6-1.2 1.2-1.2zm0-4.8c.6 0 1.2.5 1.2 1.2 0 .6-.5 1.2-1.2 1.2-.6 0-1.2-.5-1.2-1.2.1-.8.6-1.2 1.2-1.2zm0-4.7c.6 0 1.2.5 1.2 1.1 0 .6-.5 1.2-1.2 1.2-.6 0-1.2-.5-1.2-1.2.1-.5.6-1.1 1.2-1.1zm0-4.7c.6 0 1.2.5 1.2 1.2 0 .6-.5 1.2-1.2 1.2-.6 0-1.2-.5-1.2-1.2.1-.7.6-1.2 1.2-1.2zm0-4.8c.6 0 1.2.5 1.2 1.2 0 .6-.5 1.2-1.2 1.2-.6 0-1.2-.5-1.2-1.2.1-.7.6-1.2 1.2-1.2zm0-4.8c.6 0 1.2.5 1.2 1.2 0 .6-.5 1.2-1.2 1.2-.6 0-1.2-.5-1.2-1.2.1-.6.6-1.2 1.2-1.2zm0-4.6c.6 0 1.2.5 1.2 1.2 0 .6-.5 1.2-1.2 1.2-.6 0-1.2-.5-1.2-1.2.1-.7.6-1.2 1.2-1.2zm0-4.8c.6 0 1.2.5 1.2 1.1 0 .6-.5 1.2-1.2 1.2-.6 0-1.2-.5-1.2-1.2.1-.6.6-1.1 1.2-1.1zm5.2 108.9c.6 0 1.2.5 1.2 1.2 0 .6-.5 1.2-1.2 1.2-.6 0-1.2-.5-1.2-1.2-.1-.6.4-1.2 1.2-1.2zm5 0c.6 0 1.2.5 1.2 1.2 0 .6-.5 1.2-1.2 1.2-.6 0-1.2-.5-1.2-1.2-.1-.6.5-1.2 1.2-1.2zm4.9 0c.6 0 1.2.5 1.2 1.2 0 .6-.5 1.2-1.2 1.2-.6 0-1.2-.5-1.2-1.2-.2-.6.5-1.2 1.2-1.2zm4.9 0c.6 0 1.2.5 1.2 1.2 0 .6-.5 1.2-1.2 1.2-.6 0-1.2-.5-1.2-1.2.1-.6.5-1.2 1.2-1.2zm4.9 0c.6 0 1.2.5 1.2 1.2 0 .6-.5 1.2-1.2 1.2-.6 0-1.2-.5-1.2-1.2.2-.6.6-1.2 1.2-1.2zm5 0c.6 0 1.2.5 1.2 1.2 0 .6-.5 1.2-1.2 1.2-.6 0-1.2-.5-1.2-1.2.1-.6.6-1.2 1.2-1.2zm5.2 0c.6 0 1.2.5 1.2 1.2 0 .6-.5 1.2-1.2 1.2-.6 0-1.2-.5-1.2-1.2-.2-.6.4-1.2 1.2-1.2zm4.8 0c.6 0 1.2.5 1.2 1.2 0 .6-.5 1.2-1.2 1.2-.6 0-1.2-.5-1.2-1.2 0-.6.6-1.2 1.2-1.2zm5 0c.6 0 1.2.5 1.2 1.2 0 .6-.5 1.2-1.2 1.2-.6 0-1.2-.5-1.2-1.2-.1-.6.6-1.2 1.2-1.2zm5 0c.6 0 1.2.5 1.2 1.2 0 .6-.5 1.2-1.2 1.2-.6 0-1.2-.5-1.2-1.2-.1-.6.5-1.2 1.2-1.2zm4.9 0c.6 0 1.1.5 1.1 1.2 0 .6-.5 1.2-1.1 1.2-.6 0-1.2-.5-1.2-1.2.2-.6.6-1.2 1.2-1.2zm4.9 0c.6 0 1.2.5 1.2 1.2 0 .6-.5 1.2-1.2 1.2-.6 0-1.2-.5-1.2-1.2.1-.6.6-1.2 1.2-1.2zm5-19c.6 0 1.2.5 1.2 1.2 0 .6-.5 1.2-1.2 1.2-.6 0-1.2-.5-1.2-1.2.1-.6.5-1.2 1.2-1.2zm0-4.7c.6 0 1.2.5 1.2 1.2 0 .6-.5 1.2-1.2 1.2-.6 0-1.2-.5-1.2-1.2.1-.7.5-1.2 1.2-1.2zm0-4.8c.6 0 1.2.5 1.2 1.2 0 .6-.5 1.2-1.2 1.2-.6 0-1.2-.5-1.2-1.2.1-.8.5-1.2 1.2-1.2zm0-4.7c.6 0 1.2.5 1.2 1.2 0 .6-.5 1.2-1.2 1.2-.6 0-1.2-.5-1.2-1.2.1-.6.5-1.2 1.2-1.2zm0-4.7c.6 0 1.2.5 1.2 1.2 0 .6-.5 1.2-1.2 1.2-.6 0-1.2-.5-1.2-1.2.1-.7.5-1.2 1.2-1.2zm0-4.8c.6 0 1.2.5 1.2 1.2 0 .6-.5 1.2-1.2 1.2-.6 0-1.2-.5-1.2-1.2.1-.7.5-1.2 1.2-1.2zm0-4.8c.6 0 1.2.5 1.2 1.2 0 .6-.5 1.2-1.2 1.2-.6 0-1.2-.5-1.2-1.2.1-.4.5-1.2 1.2-1.2zm0-4.5c.6 0 1.2.5 1.2 1.2 0 .6-.5 1.2-1.2 1.2-.6 0-1.2-.5-1.2-1.2.1-.8.5-1.2 1.2-1.2zm0-4.9c.6 0 1.2.5 1.2 1.2 0 .6-.5 1.2-1.2 1.2-.6 0-1.2-.5-1.2-1.2.1-.5.5-1.2 1.2-1.2zm0-4.6c.6 0 1.2.5 1.2 1.2 0 .6-.5 1.2-1.2 1.2-.6 0-1.2-.5-1.2-1.2.1-.8.5-1.2 1.2-1.2zm0-4.7c.6 0 1.2.5 1.2 1.2 0 .6-.5 1.2-1.2 1.2-.6 0-1.2-.5-1.2-1.2.1-.7.5-1.2 1.2-1.2zm0-4.8c.6 0 1.2.5 1.2 1.2 0 .6-.5 1.2-1.2 1.2-.6 0-1.2-.5-1.2-1.2.1-.6.5-1.2 1.2-1.2zm0-4.7c.6 0 1.2.5 1.2 1.2 0 .6-.5 1.2-1.2 1.2-.6 0-1.2-.5-1.2-1.2.1-.7.5-1.2 1.2-1.2zm0-4.8c.6 0 1.2.5 1.2 1.2 0 .6-.5 1.2-1.2 1.2-.6 0-1.2-.5-1.2-1.2.1-.8.5-1.2 1.2-1.2zm0-4.7c.6 0 1.2.5 1.2 1.2 0 .6-.5 1.2-1.2 1.2-.6 0-1.2-.5-1.2-1.2.1-.6.5-1.2 1.2-1.2zm0-4.7c.6 0 1.2.5 1.2 1.2 0 .6-.5 1.2-1.2 1.2-.6 0-1.2-.5-1.2-1.2.1-.7.5-1.2 1.2-1.2zm0-4.8c.6 0 1.2.5 1.2 1.2 0 .6-.5 1.2-1.2 1.2-.6 0-1.2-.5-1.2-1.2.1-.7.5-1.2 1.2-1.2zm0-4.8c.6 0 1.2.5 1.2 1.2 0 .6-.5 1.2-1.2 1.2-.6 0-1.2-.5-1.2-1.2.1-.6.5-1.2 1.2-1.2zm0-4.6c.6 0 1.2.5 1.2 1.1 0 .6-.5 1.2-1.2 1.2-.6 0-1.2-.5-1.2-1.2.1-.6.5-1.1 1.2-1.1zm0-4.8c.6 0 1.2.5 1.2 1.2 0 .6-.5 1.2-1.2 1.2-.6 0-1.2-.5-1.2-1.2.1-.7.5-1.2 1.2-1.2z"/><path class="st5" d="M213.7 173c.6 0 1.2.5 1.2 1.2 0 .6-.5 1.2-1.2 1.2-.6 0-1.2-.5-1.2-1.2.1-.5.5-1.2 1.2-1.2zm0-4.6c.6 0 1.2.5 1.2 1.2 0 .6-.5 1.2-1.2 1.2-.6 0-1.2-.5-1.2-1.2.1-.8.5-1.2 1.2-1.2zm0-4.9c.6 0 1.2.5 1.2 1.2 0 .6-.5 1.2-1.2 1.2-.6 0-1.2-.5-1.2-1.2.1-.7.5-1.2 1.2-1.2zm0-4.6c.6 0 1.2.5 1.2 1.2 0 .6-.5 1.2-1.2 1.2-.6 0-1.2-.5-1.2-1.2.1-.6.5-1.2 1.2-1.2zm0-4.7c.6 0 1.2.5 1.2 1.2 0 .6-.5 1.2-1.2 1.2-.6 0-1.2-.5-1.2-1.2.1-.7.5-1.2 1.2-1.2zm0-4.8c.6 0 1.2.5 1.2 1.2 0 .6-.5 1.2-1.2 1.2-.6 0-1.2-.5-1.2-1.2.1-.8.5-1.2 1.2-1.2zm0-4.9c.6 0 1.2.5 1.2 1.2 0 .6-.5 1.2-1.2 1.2-.6 0-1.2-.5-1.2-1.2.1-.4.5-1.2 1.2-1.2zm0-4.5c.6 0 1.2.5 1.2 1.2 0 .6-.5 1.2-1.2 1.2-.6 0-1.2-.5-1.2-1.2.1-.7.5-1.2 1.2-1.2zm0-4.8c.6 0 1.2.5 1.2 1.2 0 .6-.5 1.2-1.2 1.2-.6 0-1.2-.5-1.2-1.2.1-.6.5-1.2 1.2-1.2zm0-4.7c.6 0 1.2.5 1.2 1.2 0 .6-.5 1.2-1.2 1.2-.6 0-1.2-.5-1.2-1.2.1-.7.5-1.2 1.2-1.2zm0-4.8c.6 0 1.2.5 1.2 1.2 0 .6-.5 1.2-1.2 1.2-.6 0-1.2-.5-1.2-1.2.1-.6.5-1.2 1.2-1.2zm0-4.7c.6 0 1.2.5 1.2 1.2 0 .6-.5 1.2-1.2 1.2-.6 0-1.2-.5-1.2-1.2.1-.6.5-1.2 1.2-1.2zm0-4.7c.6 0 1.2.5 1.2 1.2 0 .6-.5 1.2-1.2 1.2-.6 0-1.2-.5-1.2-1.2.1-.7.5-1.2 1.2-1.2zm0-4.8c.6 0 1.2.5 1.2 1.2 0 .6-.5 1.2-1.2 1.2-.6 0-1.2-.5-1.2-1.2.1-.7.5-1.2 1.2-1.2zm0-4.7c.6 0 1.2.5 1.2 1.2 0 .6-.5 1.2-1.2 1.2-.6 0-1.2-.5-1.2-1.2.1-.5.5-1.2 1.2-1.2zm0-4.6c.6 0 1.2.5 1.2 1.2 0 .6-.5 1.2-1.2 1.2-.6 0-1.2-.5-1.2-1.2.1-.8.5-1.2 1.2-1.2zm0-4.9c.6 0 1.2.5 1.2 1.2 0 .6-.5 1.2-1.2 1.2-.6 0-1.2-.5-1.2-1.2.1-.7.5-1.2 1.2-1.2zm0-4.8c.6 0 1.2.5 1.2 1.2 0 .6-.5 1.2-1.2 1.2-.6 0-1.2-.5-1.2-1.2.1-.6.5-1.2 1.2-1.2zm0-4.5c.6 0 1.2.5 1.2 1.1 0 .6-.5 1.2-1.2 1.2-.6 0-1.2-.5-1.2-1.2.1-.6.5-1.1 1.2-1.1zm0-4.8c.6 0 1.2.5 1.2 1.2 0 .6-.5 1.2-1.2 1.2-.6 0-1.2-.5-1.2-1.2.1-.8.5-1.2 1.2-1.2zM149 173c.6 0 1.2.5 1.2 1.2 0 .6-.5 1.2-1.2 1.2-.6 0-1.2-.5-1.2-1.2.1-.5.6-1.2 1.2-1.2zm0-4.6c.6 0 1.2.5 1.2 1.2 0 .6-.5 1.2-1.2 1.2-.6 0-1.2-.5-1.2-1.2.1-.8.6-1.2 1.2-1.2zm0-4.9c.6 0 1.2.5 1.2 1.2 0 .6-.5 1.2-1.2 1.2-.6 0-1.2-.5-1.2-1.2.1-.7.6-1.2 1.2-1.2zm0-4.6c.6 0 1.2.5 1.2 1.2 0 .6-.5 1.2-1.2 1.2-.6 0-1.2-.5-1.2-1.2.1-.6.6-1.2 1.2-1.2zm0-4.7c.6 0 1.2.5 1.2 1.1 0 .6-.5 1.2-1.2 1.2-.6 0-1.2-.5-1.2-1.2.1-.6.6-1.1 1.2-1.1zm0-4.8c.6 0 1.2.5 1.2 1.2 0 .6-.5 1.2-1.2 1.2-.6 0-1.2-.5-1.2-1.2.1-.8.6-1.2 1.2-1.2zm0-4.9c.6 0 1.2.5 1.2 1.2 0 .6-.5 1.2-1.2 1.2-.6 0-1.2-.5-1.2-1.2.1-.4.6-1.2 1.2-1.2zm0-4.5c.6 0 1.2.5 1.2 1.2 0 .6-.5 1.2-1.2 1.2-.6 0-1.2-.5-1.2-1.2.1-.7.6-1.2 1.2-1.2zm0-4.8c.6 0 1.2.5 1.2 1.2 0 .6-.5 1.2-1.2 1.2-.6 0-1.2-.5-1.2-1.2.1-.7.6-1.2 1.2-1.2zm0-4.8c.6 0 1.2.5 1.2 1.2 0 .6-.5 1.2-1.2 1.2-.6 0-1.2-.5-1.2-1.2.1-.6.6-1.2 1.2-1.2zm0-4.7c.6 0 1.2.5 1.2 1.2 0 .6-.5 1.2-1.2 1.2-.6 0-1.2-.5-1.2-1.2.1-.6.6-1.2 1.2-1.2zm0-4.7c.6 0 1.2.5 1.2 1.2 0 .6-.5 1.2-1.2 1.2-.6 0-1.2-.5-1.2-1.2.1-.6.6-1.2 1.2-1.2zm0-4.7c.6 0 1.2.5 1.2 1.2 0 .6-.5 1.2-1.2 1.2-.6 0-1.2-.5-1.2-1.2.1-.7.6-1.2 1.2-1.2zm0-4.8c.6 0 1.2.5 1.2 1.2 0 .6-.5 1.2-1.2 1.2-.6 0-1.2-.5-1.2-1.2.1-.7.6-1.2 1.2-1.2zm0-4.7c.6 0 1.2.5 1.2 1.1 0 .6-.5 1.2-1.2 1.2-.6 0-1.2-.5-1.2-1.2.1-.4.6-1.1 1.2-1.1zm0-4.6c.6 0 1.2.5 1.2 1.2 0 .6-.5 1.2-1.2 1.2-.6 0-1.2-.5-1.2-1.2.1-.8.6-1.2 1.2-1.2zm0-4.9c.6 0 1.2.5 1.2 1.2 0 .6-.5 1.2-1.2 1.2-.6 0-1.2-.5-1.2-1.2.1-.7.6-1.2 1.2-1.2zm0-4.8c.6 0 1.2.5 1.2 1.2 0 .6-.5 1.2-1.2 1.2-.6 0-1.2-.5-1.2-1.2.1-.6.6-1.2 1.2-1.2zm0-4.5c.6 0 1.2.5 1.2 1.2 0 .6-.5 1.2-1.2 1.2-.6 0-1.2-.5-1.2-1.2.1-.7.6-1.2 1.2-1.2zm0-4.8c.6 0 1.2.5 1.2 1.1 0 .6-.5 1.2-1.2 1.2-.6 0-1.2-.5-1.2-1.2.1-.7.6-1.1 1.2-1.1zM89.5 64c.6 0 1.2.5 1.2 1.2 0 .6-.5 1.2-1.2 1.2-.6 0-1.2-.5-1.2-1.2s.6-1.2 1.2-1.2zm5 0c.6 0 1.2.5 1.2 1.2 0 .6-.5 1.2-1.2 1.2-.6 0-1.1-.5-1.1-1.2-.1-.7.5-1.2 1.1-1.2zm5 0c.6 0 1.2.5 1.2 1.2 0 .6-.5 1.2-1.2 1.2-.6 0-1.2-.5-1.2-1.2-.2-.7.6-1.2 1.2-1.2zm4.8 0c.6 0 1.2.5 1.2 1.2 0 .6-.5 1.2-1.2 1.2-.6 0-1.1-.5-1.1-1.2s.5-1.2 1.1-1.2zm5 0c.6 0 1.2.5 1.2 1.2 0 .6-.5 1.2-1.2 1.2-.6 0-1.2-.5-1.2-1.2.1-.7.6-1.2 1.2-1.2zm5 0c.6 0 1.2.5 1.2 1.2 0 .6-.5 1.2-1.2 1.2-.6 0-1.2-.5-1.2-1.2.1-.7.6-1.2 1.2-1.2zm5.1 0c.6 0 1.2.5 1.2 1.2 0 .6-.5 1.2-1.2 1.2-.6 0-1.2-.5-1.2-1.2s.5-1.2 1.2-1.2zm5 0c.6 0 1.2.5 1.2 1.2 0 .6-.5 1.2-1.2 1.2-.6 0-1.2-.5-1.2-1.2-.2-.7.4-1.2 1.2-1.2zm4.9 0c.6 0 1.2.5 1.2 1.2 0 .6-.5 1.2-1.2 1.2-.6 0-1.2-.5-1.2-1.2-.1-.7.5-1.2 1.2-1.2zm4.9 0c.6 0 1.1.5 1.1 1.2 0 .6-.5 1.2-1.1 1.2-.6 0-1.2-.5-1.2-1.2.1-.7.6-1.2 1.2-1.2zm5 0c.6 0 1.2.5 1.2 1.2 0 .6-.5 1.2-1.2 1.2-.6 0-1.2-.5-1.2-1.2.1-.7.6-1.2 1.2-1.2zm5 0c.6 0 1.1.5 1.1 1.2 0 .6-.5 1.2-1.1 1.2-.6 0-1.2-.5-1.2-1.2s.4-1.2 1.2-1.2zm-59.8 89.9c.6 0 1.2.5 1.2 1.2 0 .6-.5 1.2-1.2 1.2-.6 0-1.2-.5-1.2-1.2.1-.6.6-1.2 1.2-1.2zm0-4.7c.6 0 1.2.5 1.2 1.2 0 .6-.5 1.2-1.2 1.2-.6 0-1.2-.5-1.2-1.2.1-.7.6-1.2 1.2-1.2zm0-4.8c.6 0 1.2.5 1.2 1.2 0 .6-.5 1.2-1.2 1.2-.6 0-1.2-.5-1.2-1.2.1-.8.6-1.2 1.2-1.2zm0-4.7c.6 0 1.2.5 1.2 1.2 0 .6-.5 1.2-1.2 1.2-.6 0-1.2-.5-1.2-1.2.1-.6.6-1.2 1.2-1.2zm0-4.7c.6 0 1.2.5 1.2 1.1 0 .6-.5 1.2-1.2 1.2-.6 0-1.2-.5-1.2-1.2.1-.6.6-1.1 1.2-1.1zm0-4.8c.6 0 1.2.5 1.2 1.2 0 .6-.5 1.2-1.2 1.2-.6 0-1.2-.5-1.2-1.2.1-.7.6-1.2 1.2-1.2zm0-4.8c.6 0 1.2.5 1.2 1.2 0 .6-.5 1.2-1.2 1.2-.6 0-1.2-.5-1.2-1.2.1-.4.6-1.2 1.2-1.2zm0-4.5c.6 0 1.2.5 1.2 1.2 0 .6-.5 1.2-1.2 1.2-.6 0-1.2-.5-1.2-1.2.1-.8.6-1.2 1.2-1.2zm0-4.9c.6 0 1.2.5 1.2 1.2 0 .6-.5 1.2-1.2 1.2-.6 0-1.2-.5-1.2-1.2.1-.7.6-1.2 1.2-1.2zm0-4.8c.6 0 1.2.5 1.2 1.2 0 .6-.5 1.2-1.2 1.2-.6 0-1.2-.5-1.2-1.2.1-.6.6-1.2 1.2-1.2zm0-4.5c.6 0 1.2.5 1.2 1.2 0 .6-.5 1.2-1.2 1.2-.6 0-1.2-.5-1.2-1.2.1-.7.6-1.2 1.2-1.2zm0-4.8c.6 0 1.2.5 1.2 1.2 0 .6-.5 1.2-1.2 1.2-.6 0-1.2-.5-1.2-1.2.1-.6.6-1.2 1.2-1.2zm0-4.7c.6 0 1.2.5 1.2 1.2 0 .6-.5 1.2-1.2 1.2-.6 0-1.2-.5-1.2-1.2.1-.7.6-1.2 1.2-1.2zm0-4.8c.6 0 1.2.5 1.2 1.2 0 .6-.5 1.2-1.2 1.2-.6 0-1.2-.5-1.2-1.2.1-.8.6-1.2 1.2-1.2zm0-4.7c.6 0 1.2.5 1.2 1.1 0 .6-.5 1.2-1.2 1.2-.6 0-1.2-.5-1.2-1.2.1-.5.6-1.1 1.2-1.1zm0-4.7c.6 0 1.2.5 1.2 1.2 0 .6-.5 1.2-1.2 1.2-.6 0-1.2-.5-1.2-1.2.1-.7.6-1.2 1.2-1.2zm0-4.8c.6 0 1.2.5 1.2 1.2 0 .6-.5 1.2-1.2 1.2-.6 0-1.2-.5-1.2-1.2.1-.7.6-1.2 1.2-1.2zm0-4.8c.6 0 1.2.5 1.2 1.2 0 .6-.5 1.2-1.2 1.2-.6 0-1.2-.5-1.2-1.2.1-.6.6-1.2 1.2-1.2zm0-4.6c.6 0 1.2.5 1.2 1.2 0 .6-.5 1.2-1.2 1.2-.6 0-1.2-.5-1.2-1.2.1-.7.6-1.2 1.2-1.2zm0-4.8c.6 0 1.2.5 1.2 1.1 0 .6-.5 1.2-1.2 1.2-.6 0-1.2-.5-1.2-1.2.1-.6.6-1.1 1.2-1.1zm5.1 108.9c.6 0 1.2.5 1.2 1.2 0 .6-.5 1.2-1.2 1.2-.6 0-1.2-.5-1.2-1.2 0-.6.5-1.2 1.2-1.2zm5 0c.6 0 1.2.5 1.2 1.2 0 .6-.5 1.2-1.2 1.2-.6.2-1.2-.3-1.2-1.2 0-.6.6-1.2 1.2-1.2zm5 0c.6 0 1.2.5 1.2 1.2 0 .6-.5 1.2-1.2 1.2-.6 0-1.2-.5-1.2-1.2-.2-.6.6-1.2 1.2-1.2zm4.8 0c.6 0 1.2.5 1.2 1.2 0 .6-.5 1.2-1.2 1.2-.6 0-1.2-.5-1.2-1.2.1-.6.6-1.2 1.2-1.2zm5 0c.6 0 1.2.5 1.2 1.2 0 .6-.5 1.2-1.2 1.2-.6 0-1.2-.5-1.2-1.2.1-.6.6-1.2 1.2-1.2zm5 0c.6 0 1.2.5 1.2 1.2 0 .6-.5 1.2-1.2 1.2-.6 0-1.2-.5-1.2-1.2.1-.6.6-1.2 1.2-1.2zm5.1 0c.6 0 1.2.5 1.2 1.2 0 .6-.5 1.2-1.2 1.2-.6 0-1.2-.5-1.2-1.2 0-.6.5-1.2 1.2-1.2zm5 0c.6 0 1.2.5 1.2 1.2 0 .6-.5 1.2-1.2 1.2-.6 0-1.2-.5-1.2-1.2-.2-.6.4-1.2 1.2-1.2zm4.9 0c.6 0 1.2.5 1.2 1.2 0 .6-.5 1.2-1.2 1.2-.6 0-1.2-.5-1.2-1.2-.1-.6.5-1.2 1.2-1.2zm4.9 0c.6 0 1.2.5 1.2 1.2 0 .6-.5 1.2-1.2 1.2-.6 0-1.2-.5-1.2-1.2 0-.6.6-1.2 1.2-1.2zm5 0c.6 0 1.1.5 1.1 1.2 0 .6-.5 1.2-1.1 1.2-.6 0-1.2-.5-1.2-1.2.1-.6.6-1.2 1.2-1.2zm5 0c.6 0 1.2.5 1.2 1.2 0 .6-.5 1.2-1.2 1.2-.6 0-1.2-.5-1.2-1.2 0-.6.4-1.2 1.2-1.2z"/><path class="st5" d="M84.4 173c.6 0 1.2.5 1.2 1.2 0 .6-.5 1.2-1.2 1.2-.6 0-1.2-.5-1.2-1.2.1-.5.6-1.2 1.2-1.2zm0-4.6c.6 0 1.2.5 1.2 1.2 0 .6-.5 1.2-1.2 1.2-.6 0-1.2-.5-1.2-1.2.1-.8.6-1.2 1.2-1.2zm0-4.9c.6 0 1.2.5 1.2 1.2 0 .6-.5 1.2-1.2 1.2-.6 0-1.2-.5-1.2-1.2.1-.7.6-1.2 1.2-1.2zm0-4.6c.6 0 1.2.5 1.2 1.2 0 .6-.5 1.2-1.2 1.2-.6 0-1.2-.5-1.2-1.2.1-.6.6-1.2 1.2-1.2zm0-4.7c.6 0 1.2.5 1.2 1.1 0 .6-.5 1.2-1.2 1.2-.6 0-1.2-.5-1.2-1.2.1-.6.6-1.1 1.2-1.1zm0-4.8c.6 0 1.2.5 1.2 1.2 0 .6-.5 1.2-1.2 1.2-.6 0-1.2-.5-1.2-1.2.1-.8.6-1.2 1.2-1.2zm0-4.9c.6 0 1.2.5 1.2 1.2 0 .6-.5 1.2-1.2 1.2-.6 0-1.2-.5-1.2-1.2.1-.4.6-1.2 1.2-1.2zm0-4.5c.6 0 1.2.5 1.2 1.2 0 .6-.5 1.2-1.2 1.2-.6 0-1.2-.5-1.2-1.2.1-.7.6-1.2 1.2-1.2zm0-4.8c.6 0 1.2.5 1.2 1.2 0 .6-.5 1.2-1.2 1.2-.6 0-1.2-.5-1.2-1.2.1-.7.6-1.2 1.2-1.2zm0-4.8c.6 0 1.2.5 1.2 1.2 0 .6-.5 1.2-1.2 1.2-.6 0-1.2-.5-1.2-1.2.1-.6.6-1.2 1.2-1.2zm0-4.7c.6 0 1.2.5 1.2 1.2 0 .6-.5 1.2-1.2 1.2-.6 0-1.2-.5-1.2-1.2.1-.6.6-1.2 1.2-1.2zm0-4.7c.6 0 1.2.5 1.2 1.2 0 .6-.5 1.2-1.2 1.2-.6 0-1.2-.5-1.2-1.2.1-.6.6-1.2 1.2-1.2zm0-4.7c.6 0 1.2.5 1.2 1.2 0 .6-.5 1.2-1.2 1.2-.6 0-1.2-.5-1.2-1.2.1-.7.6-1.2 1.2-1.2zm0-4.8c.6 0 1.2.5 1.2 1.2 0 .6-.5 1.2-1.2 1.2-.6 0-1.2-.5-1.2-1.2.1-.7.6-1.2 1.2-1.2zm0-4.7c.6 0 1.2.5 1.2 1.1 0 .6-.5 1.2-1.2 1.2-.6 0-1.2-.5-1.2-1.2.1-.4.6-1.1 1.2-1.1zm0-4.6c.6 0 1.2.5 1.2 1.2 0 .6-.5 1.2-1.2 1.2-.6 0-1.2-.5-1.2-1.2.1-.8.6-1.2 1.2-1.2zm0-4.9c.6 0 1.2.5 1.2 1.2 0 .6-.5 1.2-1.2 1.2-.6 0-1.2-.5-1.2-1.2.1-.7.6-1.2 1.2-1.2zm0-4.8c.6 0 1.2.5 1.2 1.2 0 .6-.5 1.2-1.2 1.2-.6 0-1.2-.5-1.2-1.2.1-.6.6-1.2 1.2-1.2zm0-4.5c.6 0 1.2.5 1.2 1.2 0 .6-.5 1.2-1.2 1.2-.6 0-1.2-.5-1.2-1.2.1-.7.6-1.2 1.2-1.2zm0-4.8c.6 0 1.2.5 1.2 1.1 0 .6-.5 1.2-1.2 1.2-.6 0-1.2-.5-1.2-1.2.1-.7.6-1.1 1.2-1.1z"/><path class="st1" d="M233.1 151.5h28.8c1.6 0 2.6 1.1 2.8 2.6v3.6c0 1.6-1.1 2.6-2.6 2.6h-28.8c-1.6 0-2.6-1.1-2.8-2.6v-3.6c0-1.5.9-2.6 2.6-2.6zm28.8 6.6c.3 0 .3 0 .3-.3v-3.6c0-.3 0-.3-.3-.3h-28.7c-.5 0-.5 0-.5.3v3.4c0 .3 0 .3.3.3l28.9.2z"/><path class="st1" d="M238.3 125.4h18.5c3.1 0 4.7 2.3 4.7 4.7v19.2c0 3.1-2.3 4.7-4.7 4.7h-18.5c-3.1 0-4.7-2.3-4.7-4.7V130c0-3.1 2.3-4.6 4.7-4.6zm18.5 26c.9 0 2.3-.3 2.3-2.3v-19.2c0-.9-.3-2.3-2.3-2.3h-18.5c-.9 0-2.3.3-2.3 2.3v19.3c0 .8.3 2.3 2.3 2.3l18.5-.1z"/><g><path class="st1" d="M166.2 151.5H195c1.6 0 2.6 1.1 2.8 2.6v3.6c0 1.6-1.1 2.6-2.6 2.6h-28.8c-1.6 0-2.6-1.1-2.8-2.6v-3.6c-.1-1.5.8-2.6 2.6-2.6zm28.8 6.6c.3 0 .3 0 .3-.3v-3.6c0-.3 0-.3-.3-.3h-28.7c-.5 0-.5 0-.5.3v3.4c0 .3 0 .3.3.3l28.9.2z"/><path class="st1" d="M171.3 125.4h18.5c3.1 0 4.7 2.3 4.7 4.7v19.2c0 3.1-2.3 4.7-4.7 4.7h-18.5c-3.1 0-4.7-2.3-4.7-4.7V130c0-3.1 2.4-4.6 4.7-4.6zm18.5 26c.9 0 2.3-.3 2.3-2.3v-19.2c0-.9-.3-2.3-2.3-2.3h-18.5c-.9 0-2.3.3-2.3 2.3v19.3c0 .8.3 2.3 2.3 2.3l18.5-.1z"/></g><g><path class="st1" d="M100.9 151.5h28.8c1.6 0 2.6 1.1 2.8 2.6v3.6c0 1.6-1.1 2.6-2.6 2.6h-28.8c-1.6 0-2.6-1.1-2.8-2.6v-3.6c0-1.5.9-2.6 2.6-2.6zm28.8 6.6c.3 0 .3 0 .3-.3v-3.6c0-.3 0-.3-.3-.3H101c-.5 0-.5 0-.5.3v3.4c0 .3 0 .3.3.3l28.9.2z"/><path class="st1" d="M106 125.4h18.5c3.1 0 4.7 2.3 4.7 4.7v19.2c0 3.1-2.3 4.7-4.7 4.7H106c-3.1 0-4.7-2.3-4.7-4.7V130c.1-3.1 2.4-4.6 4.7-4.6zm18.6 26c.9 0 2.3-.3 2.3-2.3v-19.2c0-.9-.3-2.3-2.3-2.3H106c-.9 0-2.3.3-2.3 2.3v19.3c0 .8.3 2.3 2.3 2.3l18.6-.1z"/></g></svg>