<svg version="1.1" id="Layer_1" xmlns="http://www.w3.org/2000/svg" x="0" y="0" viewBox="0 0 363 204" xml:space="preserve"><style>.st3{fill:#faab18}</style><path id="Bounding_BOX" fill="none" d="M0 0h363v204H0z"/><path fill="#fff" d="M159.4 75.3l-11.5 15.4v90.7l53.8-.7 10-7V75.3z"/><path fill="none" stroke="#faab18" stroke-width="4.922" stroke-linecap="round" stroke-linejoin="round" d="M211.4 76.6l-10.2 12.8"/><path class="st3" d="M214.1 75.3c0-1.3-1.1-2.5-2.5-2.5h-49.4c-.7 0-1.3.3-1.8.8l-12.8 14.3c-.3.3-.5.7-.5 1-.5.5-.7 1-.7 1.6v92.7c0 1.3 1.1 2.5 2.5 2.5h51.3c.7 0 1.1-.2 1.5-.5.3-.2.8-.2 1.1-.5l10.3-9.2.2-.2.2-.2.2-.2.2-.2V75.6c.1-.2.2-.2.2-.3zm-16.4 105.6h-46.4V93h46.4v87.9zm1.7-93.2c-.2.2-.2.2-.2.3h-45.1l9.4-10.3h44l-8.1 10zm3.3 90.6v-87l.5-.5 6.1-7.5v89.2l-6.6 5.8z"/><path d="M190.5 139.2h-2.1c-1.3 0-2.5-1.1-2.5-2.5v-7.9c0-1.3 1.1-2.5 2.5-2.5h1.8c.7 0 1.3.5 1.3 1.3s-.5 1.1-1.1 1.1h-1.8v8h2.1c.7 0 1.3.5 1.3 1.3 0 1.1-.8 1.2-1.5 1.2z" fill="#faab18"/><path class="st3" d="M172.8 18.5c-.7 0-1.3.5-1.3 1.3v46.8H84.4c-.7 0-1.3.5-1.3 1.3s.5 1.3 1.3 1.3h88.4c.7 0 1.3-.5 1.3-1.3 0-.2 0-.5-.2-.7.2-.2.2-.3.2-.7V19.6c-.1-.6-.6-1.1-1.3-1.1zm105.8 48.1h-81.4v-47c0-.7-.5-1.3-1.3-1.3s-1.1.7-1.1 1.3v46.9c0 .2 0 .5.2.7-.2.2-.2.3-.2.7 0 .7.5 1.3 1.3 1.3h82.5c.7 0 1.3-.5 1.3-1.3s-.6-1.3-1.3-1.3z"/></svg>