<svg version="1.1" id="Layer_1" xmlns="http://www.w3.org/2000/svg" x="0" y="0" viewBox="0 0 363 204" xml:space="preserve"><style>.st1{fill:#f04931}</style><path id="Bounding_BOX" fill="none" d="M0 0h363v204H0z"/><path class="st1" d="M165.1 70.5c-.5 0-1-.2-1.4-.6l-31.9-32c-.8-.8-.8-2 0-2.8s2-.8 2.8 0l31.9 32c.8.8.8 2 0 2.8-.4.4-.9.6-1.4.6z"/><path class="st1" d="M133.1 70.5c-.5 0-1-.2-1.4-.6-.8-.8-.8-2 0-2.8l31.9-32c.8-.8 2-.8 2.8 0s.8 2 0 2.8l-31.9 32c-.4.4-.9.6-1.4.6z"/><path d="M192.3 69.7h50.1v50.1h-50.1zm-61.5 100.4h50.1v2h-50.1zm0 3.9h50.1v2h-50.1zm0 4h50.1v2h-50.1zm0-47.3h50.1v2h-50.1zm0 3.9h50.1v2h-50.1zm0 4h50.1v2h-50.1zm0 3.9h50.1v2h-50.1zm0 4h50.1v2h-50.1zm0 3.9h50.1v2h-50.1zm0 3.9h50.1v2h-50.1zm0 4h50.1v2h-50.1zm0 3.9h50.1v2h-50.1zm0 3.9h50.1v2h-50.1zm61.5-35.4h50.1v49.2h-50.1z" fill="#fbab18"/><path d="M242.4 139.2v40.7h-50.1c.8-23 19.6-41.3 42.7-41.3 2.6 0 5 .2 7.4.6z" opacity=".5" fill="#fff"/></svg>