<svg version="1.1" id="Layer_1" xmlns="http://www.w3.org/2000/svg" x="0" y="0" viewBox="0 0 363 204" xml:space="preserve"><style>.st1{fill:#fbab18}</style><path id="Bounding_BOX" fill="none" d="M0 0h363v204H0z"/><path class="st1" d="M105.3 172.5c0 3-2.4 5.4-5.4 5.4s-5.4-2.4-5.4-5.4 2.4-5.4 5.4-5.4 5.4 2.4 5.4 5.4"/><path d="M273.4 55.1H89.6c-3.1 0-5.6-2.5-5.6-5.6 0-3.1 2.5-5.6 5.6-5.6h183.8c3.1 0 5.6 2.5 5.6 5.6 0 3.1-2.5 5.6-5.6 5.6m0 19.7H89.6c-3.1 0-5.6-2.5-5.6-5.6s2.5-5.6 5.6-5.6h183.8c3.1 0 5.6 2.5 5.6 5.6 0 3-2.5 5.6-5.6 5.6m0 19.6H89.6c-3.1 0-5.6-2.5-5.6-5.6s2.5-5.6 5.6-5.6h183.8c3.1 0 5.6 2.5 5.6 5.6s-2.5 5.6-5.6 5.6m0 19.6H89.6c-3.1 0-5.6-2.5-5.6-5.6s2.5-5.6 5.6-5.6h183.8c3.1 0 5.6 2.5 5.6 5.6s-2.5 5.6-5.6 5.6m0 19.7H89.6c-3.1 0-5.6-2.5-5.6-5.6 0-3.1 2.5-5.6 5.6-5.6h183.8c3.1 0 5.6 2.5 5.6 5.6 0 3.1-2.5 5.6-5.6 5.6" fill="#fdba4d"/><path class="st1" d="M99.9 163.1c-3.1 0-5.6-2.5-5.6-5.6V31.7c0-3.1 2.5-5.6 5.6-5.6 3.1 0 5.6 2.5 5.6 5.6v125.8c0 3.1-2.5 5.6-5.6 5.6"/></svg>