<svg version="1.1" id="Layer_1" xmlns="http://www.w3.org/2000/svg" x="0" y="0" viewBox="0 0 363 204" xml:space="preserve"><style>.st4{fill:#fbab18}</style><path id="Bounding_BOX" fill="none" d="M0 0h363v204H0z"/><text transform="translate(164.033 53.81)" font-size="18" font-family="Roboto-Italic" fill="#faab18">750mm</text><path class="st4" d="M115.4 53.5v29.6c0 1.6-1.1 2.7-2.7 2.9H109c-1.6 0-2.7-1.1-2.7-2.7V53.7c0-1.6 1.1-2.7 2.7-2.9h3.7c1.5 0 2.7.9 2.7 2.7zm-6.8 29.6c0 .3 0 .3.3.3h3.7c.3 0 .3 0 .3-.3V53.7c0-.5 0-.5-.3-.5h-3.5c-.3 0-.3 0-.3.3l-.2 29.6z"/><path class="st4" d="M142.2 58.8v19c0 3.2-2.4 4.8-4.8 4.8h-19.7c-3.2 0-4.8-2.4-4.8-4.8v-19c0-3.2 2.4-4.8 4.8-4.8h19.7c3.2 0 4.8 2.4 4.8 4.8zm-26.7 19c0 1 .3 2.4 2.4 2.4h19.7c1 0 2.4-.3 2.4-2.4v-19c0-1-.3-2.4-2.4-2.4h-19.8c-.8 0-2.4.3-2.4 2.4l.1 19zm141.1-60.7v-2.6H150.5c-.8 0-1.3.6-1.3 1.3v172.4c0 .8.6 1.3 1.3 1.3h106.3v-2.4H151.6v-170h105z"/><path class="st4" d="M234.5 65.2h-82c-.6 0-1.3-.5-1.3-1.3s.5-1.3 1.3-1.3h82c.6 0 1.3.5 1.3 1.3s-.5 1.3-1.3 1.3z"/><path class="st4" d="M152.6 70.6c-.6 0-1.3-.5-1.3-1.3V58.5c0-.6.5-1.3 1.3-1.3s1.3.5 1.3 1.3v10.9c-.2.6-.7 1.2-1.3 1.2zm82.6 0c-.6 0-1.3-.5-1.3-1.3V58.5c0-.6.5-1.3 1.3-1.3s1.3.5 1.3 1.3v10.9c.1.6-.5 1.2-1.3 1.2zm-119.8 48.7v29.6c0 1.6-1.1 2.7-2.7 2.9H109c-1.6 0-2.7-1.1-2.7-2.7v-29.6c0-1.6 1.1-2.7 2.7-2.9h3.7c1.5 0 2.7 1 2.7 2.7zm-6.8 29.6c0 .3 0 .3.3.3h3.7c.3 0 .3 0 .3-.3v-29.4c0-.5 0-.5-.3-.5h-3.5c-.3 0-.3 0-.3.3l-.2 29.6z"/><path class="st4" d="M142.2 124.6v19c0 3.2-2.4 4.8-4.8 4.8h-19.7c-3.2 0-4.8-2.4-4.8-4.8v-19c0-3.2 2.4-4.8 4.8-4.8h19.7c3.2 0 4.8 2.4 4.8 4.8zm-26.7 19c0 1 .3 2.4 2.4 2.4h19.7c1 0 2.4-.3 2.4-2.4v-19c0-1-.3-2.4-2.4-2.4h-19.8c-.8 0-2.4.3-2.4 2.4l.1 19z"/><path d="M149.2 88.7c0-.6.5-1.3 1.3-1.3.6 0 1.3.5 1.3 1.3 0 .6-.5 1.3-1.3 1.3-1-.2-1.3-.9-1.3-1.3zm0-4.8c0-.6.5-1.3 1.3-1.3.6 0 1.3.5 1.3 1.3 0 .6-.5 1.1-1.3 1.1-1 .1-1.3-.5-1.3-1.1zm0-4.7c0-.6.5-1.3 1.3-1.3.6 0 1.3.5 1.3 1.3 0 .6-.5 1.3-1.3 1.3-1 0-1.3-.6-1.3-1.3zm0-4.6c0-.6.5-1.3 1.3-1.3.6 0 1.3.5 1.3 1.3 0 .6-.5 1.1-1.3 1.1-1-.1-1.3-.5-1.3-1.1zm0-4.6c0-.6.5-1.3 1.3-1.3.6 0 1.3.5 1.3 1.3 0 .6-.5 1.3-1.3 1.3-1-.4-1.3-.9-1.3-1.3zm0-4.8c0-.6.5-1.3 1.3-1.3.6 0 1.3.5 1.3 1.3 0 .6-.5 1.3-1.3 1.3-1-.2-1.3-.7-1.3-1.3zm0-4.8c0-.6.5-1.3 1.3-1.3.6 0 1.3.5 1.3 1.3 0 .6-.5 1.3-1.3 1.3-1 0-1.3-.5-1.3-1.3zm0-4.7c0-.6.5-1.3 1.3-1.3.6 0 1.3.5 1.3 1.3 0 .6-.5 1.3-1.3 1.3-1 0-1.3-.6-1.3-1.3zm0-4.6c0-.6.5-1.3 1.3-1.3.6 0 1.3.5 1.3 1.3 0 .6-.5 1.3-1.3 1.3-1-.2-1.3-.7-1.3-1.3zm0-4.6c0-.6.5-1.1 1.3-1.1.6 0 1.3.5 1.3 1.1 0 .6-.5 1.3-1.3 1.3-1-.4-1.3-.8-1.3-1.3zm0-4.8c0-.6.5-1.3 1.3-1.3.6 0 1.3.5 1.3 1.3 0 .6-.5 1.3-1.3 1.3-1-.2-1.3-.7-1.3-1.3zm0-4.6c0-.6.5-1.1 1.3-1.1.6 0 1.3.5 1.3 1.1 0 .6-.5 1.3-1.3 1.3-1-.2-1.3-.7-1.3-1.3zm84.4 56.4c0-.6.5-1.3 1.3-1.3.6 0 1.3.5 1.3 1.3 0 .6-.5 1.3-1.3 1.3-.7-.4-1.3-.9-1.3-1.3zm-4.3 0c0-.6.5-1.3 1.3-1.3.6 0 1.3.5 1.3 1.3 0 .6-.5 1.3-1.3 1.3-.8-.4-1.3-.9-1.3-1.3zm-4.5 0c0-.6.5-1.3 1.3-1.3.6 0 1.3.5 1.3 1.3 0 .6-.5 1.3-1.3 1.3-.8-.4-1.3-.9-1.3-1.3zm-4.5 0c0-.6.5-1.3 1.3-1.3.6 0 1.3.5 1.3 1.3 0 .6-.5 1.3-1.3 1.3-.8-.4-1.3-.9-1.3-1.3zm-4.4 0c0-.6.5-1.3 1.1-1.3.6 0 1.3.5 1.3 1.3 0 .6-.5 1.3-1.3 1.3-.7-.4-1.1-.9-1.1-1.3zm-4.5 0c0-.6.5-1.3 1.3-1.3.6 0 1.3.5 1.3 1.3 0 .6-.5 1.3-1.3 1.3-.8-.4-1.3-.9-1.3-1.3zm-4.5 0c0-.6.5-1.3 1.3-1.3.6 0 1.3.5 1.3 1.3 0 .6-.5 1.3-1.3 1.3-.7-.4-1.3-.9-1.3-1.3zm-4.3 0c0-.6.5-1.3 1.3-1.3.6 0 1.3.5 1.3 1.3 0 .6-.5 1.3-1.3 1.3-.8-.4-1.3-.9-1.3-1.3zm-4.5 0c0-.6.5-1.3 1.3-1.3.6 0 1.3.5 1.3 1.3 0 .6-.5 1.3-1.3 1.3-.8-.4-1.3-.9-1.3-1.3zm-4.5 0c0-.6.5-1.3 1.3-1.3.6 0 1.3.5 1.3 1.3 0 .6-.5 1.3-1.3 1.3-.8-.4-1.3-.9-1.3-1.3zm-4.4 0c0-.6.5-1.3 1.3-1.3.6 0 1.3.5 1.3 1.3 0 .6-.5 1.3-1.3 1.3-.9-.4-1.3-.9-1.3-1.3zm-4.5 0c0-.6.5-1.3 1.3-1.3.6 0 1.3.5 1.3 1.3 0 .6-.5 1.3-1.3 1.3-.7-.4-1.3-.9-1.3-1.3zm-4.3 0c0-.6.5-1.3 1.3-1.3.6 0 1.3.5 1.3 1.3 0 .6-.5 1.3-1.3 1.3-.8-.4-1.3-.9-1.3-1.3zm-4.5 0c0-.6.5-1.3 1.3-1.3.6 0 1.3.5 1.3 1.3 0 .6-.5 1.3-1.3 1.3-.8-.4-1.3-.9-1.3-1.3zm-4.5 0c0-.6.5-1.3 1.1-1.3.6 0 1.3.5 1.3 1.3 0 .6-.5 1.3-1.3 1.3-.6-.4-1.1-.9-1.1-1.3zm-4.4 0c0-.6.5-1.3 1.3-1.3.6 0 1.3.5 1.3 1.3 0 .6-.5 1.3-1.3 1.3-.9-.4-1.3-.9-1.3-1.3zm-4.5 0c0-.6.5-1.3 1.3-1.3.6 0 1.3.5 1.3 1.3 0 .6-.5 1.3-1.3 1.3-.8-.4-1.3-.9-1.3-1.3zm-4.5 0c0-.6.5-1.3 1.3-1.3.6 0 1.3.5 1.3 1.3 0 .6-.5 1.3-1.3 1.3-.6-.4-1.3-.9-1.3-1.3zm-4.3 0c0-.6.5-1.3 1.3-1.3.6 0 1.3.5 1.3 1.3 0 .6-.5 1.3-1.3 1.3-.8-.4-1.3-.9-1.3-1.3zm-4.5 0c0-.6.5-1.3 1.1-1.3.6 0 1.3.5 1.3 1.3 0 .6-.5 1.3-1.3 1.3-.8-.4-1.1-.9-1.1-1.3zm84.5-4.8c0-.6.5-1.3 1.3-1.3.6 0 1.3.5 1.3 1.3 0 .6-.5 1.3-1.3 1.3-.6-.2-1.3-.7-1.3-1.3zm0-4.8c0-.6.5-1.3 1.3-1.3.6 0 1.3.5 1.3 1.3 0 .6-.5 1.3-1.3 1.3-.6-.1-1.3-.7-1.3-1.3zm0-4.7c0-.6.5-1.3 1.3-1.3.6 0 1.3.5 1.3 1.3 0 .6-.5 1.3-1.3 1.3-.6 0-1.3-.6-1.3-1.3zm0-4.6c0-.6.5-1.3 1.3-1.3.6 0 1.3.5 1.3 1.3 0 .6-.5 1.3-1.3 1.3-.6-.3-1.3-.7-1.3-1.3zm0-4.6c0-.6.5-1.3 1.3-1.3.6 0 1.3.5 1.3 1.3 0 .6-.5 1.3-1.3 1.3-.6-.4-1.3-.9-1.3-1.3zm0-4.8c0-.6.5-1.3 1.3-1.3.6 0 1.3.5 1.3 1.3 0 .6-.5 1.3-1.3 1.3-.6-.2-1.3-.7-1.3-1.3zm0-4.8c0-.6.5-1.3 1.3-1.3.6 0 1.3.5 1.3 1.3 0 .6-.5 1.3-1.3 1.3-.6 0-1.3-.5-1.3-1.3zm0-4.7c0-.6.5-1.3 1.3-1.3.6 0 1.3.5 1.3 1.3 0 .6-.5 1.3-1.3 1.3-.6 0-1.3-.6-1.3-1.3zm0-4.6c0-.6.5-1.3 1.3-1.3.6 0 1.3.5 1.3 1.3 0 .6-.5 1.3-1.3 1.3-.6-.2-1.3-.7-1.3-1.3zm0-4.6c0-.6.5-1.3 1.3-1.3.6 0 1.3.5 1.3 1.3 0 .6-.5 1.3-1.3 1.3-.6-.2-1.3-.8-1.3-1.3zm0-4.8c0-.6.5-1.1 1.3-1.1.6 0 1.3.5 1.3 1.1 0 .6-.5 1.3-1.3 1.3-.6-.2-1.3-.7-1.3-1.3zm0-4.6c0-.6.5-1.3 1.3-1.3.6 0 1.3.5 1.3 1.3 0 .6-.5 1.3-1.3 1.3-.6-.2-1.3-.7-1.3-1.3zm-.1-4.7c0-.6.5-1.3 1.3-1.3.6 0 1.3.5 1.3 1.3 0 .6-.5 1.3-1.3 1.3-.7-.2-1.3-.6-1.3-1.3zm-4.3 0c0-.6.5-1.3 1.3-1.3.6 0 1.3.5 1.3 1.3 0 .6-.5 1.3-1.3 1.3-.8-.2-1.3-.6-1.3-1.3zm-4.5 0c0-.6.5-1.3 1.3-1.3.6 0 1.3.5 1.3 1.3 0 .6-.5 1.3-1.3 1.3-.8-.2-1.3-.6-1.3-1.3zm-4.5 0c0-.6.5-1.3 1.3-1.3.6 0 1.3.5 1.3 1.3 0 .6-.5 1.3-1.3 1.3-.8-.2-1.3-.6-1.3-1.3zm-4.4 0c0-.6.5-1.3 1.3-1.3.6 0 1.3.5 1.3 1.3 0 .6-.5 1.3-1.3 1.3-.9-.2-1.3-.6-1.3-1.3zm-4.5 0c0-.6.5-1.3 1.3-1.3.6 0 1.3.5 1.3 1.3 0 .6-.5 1.3-1.3 1.3-.8-.2-1.3-.6-1.3-1.3zm-4.5 0c0-.6.5-1.3 1.3-1.3.6 0 1.3.5 1.3 1.3 0 .6-.5 1.3-1.3 1.3-.7-.2-1.3-.6-1.3-1.3zm-4.3 0c0-.6.5-1.3 1.3-1.3.6 0 1.3.5 1.3 1.3 0 .6-.5 1.3-1.3 1.3-.8-.2-1.3-.6-1.3-1.3zm-4.5 0c0-.6.5-1.3 1.3-1.3.6 0 1.3.5 1.3 1.3 0 .6-.5 1.3-1.3 1.3-.8-.2-1.3-.6-1.3-1.3zm-4.5 0c0-.6.5-1.3 1.3-1.3.6 0 1.3.5 1.3 1.3 0 .6-.5 1.3-1.3 1.3-.8-.2-1.3-.6-1.3-1.3zm-4.4 0c0-.6.5-1.3 1.3-1.3.6 0 1.3.5 1.3 1.3 0 .6-.5 1.3-1.3 1.3-.9-.2-1.3-.6-1.3-1.3zm-4.5 0c0-.6.5-1.3 1.3-1.3.6 0 1.3.5 1.3 1.3 0 .6-.5 1.3-1.3 1.3-.7-.2-1.3-.6-1.3-1.3zm-4.3 0c0-.6.5-1.3 1.3-1.3.6 0 1.3.5 1.3 1.3 0 .6-.5 1.3-1.3 1.3-.8-.2-1.3-.6-1.3-1.3zm-4.5 0c0-.6.5-1.3 1.3-1.3.6 0 1.3.5 1.3 1.3 0 .6-.5 1.3-1.3 1.3-.8-.2-1.3-.6-1.3-1.3zm-4.5 0c0-.6.5-1.3 1.3-1.3.6 0 1.3.5 1.3 1.3 0 .6-.5 1.3-1.3 1.3-.8-.2-1.3-.6-1.3-1.3zm-4.4 0c0-.6.5-1.3 1.3-1.3.6 0 1.3.5 1.3 1.3 0 .6-.5 1.3-1.3 1.3-.9-.2-1.3-.6-1.3-1.3zm-4.5 0c0-.6.5-1.3 1.3-1.3.6 0 1.3.5 1.3 1.3 0 .6-.5 1.3-1.3 1.3-.8-.2-1.3-.6-1.3-1.3zm-4.5 0c0-.6.5-1.3 1.3-1.3.6 0 1.3.5 1.3 1.3 0 .6-.5 1.3-1.3 1.3-.6-.2-1.3-.6-1.3-1.3zm-4.3 0c0-.6.5-1.3 1.1-1.3.6 0 1.3.5 1.3 1.3 0 .6-.5 1.3-1.3 1.3-.6-.2-1.1-.6-1.1-1.3zm-4.5 0c0-.6.5-1.3 1.3-1.3.6 0 1.3.5 1.3 1.3 0 .6-.5 1.3-1.3 1.3-1-.2-1.3-.6-1.3-1.3z" fill="#fbab1a"/></svg>