<svg version="1.1" id="Layer_1" xmlns="http://www.w3.org/2000/svg" x="0" y="0" viewBox="0 0 363 204" xml:space="preserve"><style>.st1{fill:#faab18}</style><path id="Bounding_BOX" fill="none" d="M0 0h363v204H0z"/><path class="st1" d="M35.2 191c-1.1 0-2-.9-2-2V15c0-1.1.9-2 2-2s2 .9 2 2v174c0 1.1-.9 2-2 2z"/><path class="st1" d="M185.4 56.8H38.2c-.5 0-1.1-.4-1.1-1.1 0-.7.4-1.1 1.1-1.1h147.2c.5 0 1.1.4 1.1 1.1 0 .7-.6 1.1-1.1 1.1z"/><path class="st1" d="M185.4 61.3c-.5 0-1.1-.4-1.1-1.1v-9.1c0-.5.4-1.1 1.1-1.1s1.1.4 1.1 1.1v9.1c-.2.6-.6 1.1-1.1 1.1zm-147.2 0c-.5 0-1.1-.4-1.1-1.1v-9.1c0-.5.4-1.1 1.1-1.1s1.1.4 1.1 1.1v9.1c-.2.6-.6 1.1-1.1 1.1zm65.5 77.2c-5.1 0-9.9-3.1-11.5-7.9L80.9 97.9c-.9-2.8-.8-5.8.7-8.4 1.5-2.8 4.1-5 7.2-5.9 6.3-1.9 13.1 1.5 15.1 7.4l11.4 32.8c.9 2.8.8 5.8-.7 8.4-1.5 2.8-4.1 5-7.2 5.9-1.2.3-2.5.4-3.7.4zM92.4 87c-.8 0-1.7.1-2.5.4-2.1.7-3.9 2-4.8 3.9-.8 1.6-.9 3.5-.4 5.2L96 129.3c1.3 3.9 5.9 6 10.3 4.8 2.1-.7 3.9-2 4.8-3.9.8-1.6.9-3.5.4-5.2l-11.4-32.8C98.9 89 95.8 87 92.4 87z"/><path class="st1" d="M149.6 155.9h-34.9c-6.4 0-11.5-4.3-11.5-9.6v-2.9c0-5.4 5.2-9.6 11.5-9.6h34.9c6.4 0 11.5 4.3 11.5 9.6v2.9c.2 5.2-5 9.6-11.5 9.6zm-34.9-18.3c-4.1 0-7.5 2.5-7.5 5.6v2.9c0 3.1 3.3 5.6 7.5 5.6h34.9c4.1 0 7.5-2.5 7.5-5.6v-2.9c0-3.1-3.3-5.6-7.5-5.6h-34.9z"/><path class="st1" d="M131.3 143.9c-.8 0-1.6-.5-1.9-1.2l-8.2-20.5c-.3-.7-.1-1.3.3-1.9.4-.5.9-.9 1.6-.9h17.7c1.1 0 2 .9 2 2s-.9 2-2 2h-14.7l7.1 17.8c.4 1.1-.1 2.1-1.1 2.5-.3.1-.5.2-.8.2zm-6.1 11.5h6.7v13.1h-6.7z"/><path class="st1" d="M136.8 177.3l-8-8-8 8h-9.5l15.3-15.3c1.3-1.3 3.5-1.3 4.7 0l15.3 15.3h-9.8z"/><path class="st1" d="M146.7 177.1c0-3.2-2.5-5.8-5.8-5.8-3.2 0-5.8 2.5-5.8 5.8 0 3.2 2.5 5.8 5.8 5.8 3.3-.1 5.8-2.6 5.8-5.8m-25 0c0-3.2-2.5-5.8-5.8-5.8-3.2 0-5.8 2.5-5.8 5.8 0 3.2 2.5 5.8 5.8 5.8 3.1-.1 5.8-2.6 5.8-5.8m206.1-47.4H188.3c-1.1 0-2-.9-2-2v-19.1c0-1.1.9-2 2-2h139.5c1.1 0 2 .9 2 2v19.1c0 1.1-.9 2-2 2zm-137.5-4h135.4v-15.1H190.3v15.1z"/><path class="st1" d="M298.1 184.4c-1.1 0-2-.9-2-2v-54.9c0-1.1.9-2 2-2s2 .9 2 2v54.7c0 1.3-1 2.2-2 2.2zm-78.2 0c-1.1 0-2-.9-2-2v-54.9c0-1.1.9-2 2-2s2 .9 2 2v54.7c0 1.3-.9 2.2-2 2.2z"/><text transform="translate(78.04 47.798)" class="st1" font-size="18" font-family="Roboto-Italic">1200mm</text></svg>