<svg version="1.1" id="Layer_1" xmlns="http://www.w3.org/2000/svg" x="0" y="0" viewBox="0 0 363 204" xml:space="preserve"><style>.st1{fill:#f04931}</style><path id="Bounding_BOX" fill="none" d="M0 0h363v204H0z"/><path class="st1" d="M116.2 93.5c16.8 0 30.4-13.6 30.4-30.5s-13.5-30.4-30.4-30.4S85.8 46.2 85.8 63s13.6 30.5 30.4 30.5"/><path d="M125.5 60.3l7.4-7.4v20.3l-7.4-7.4v6.5c0 .5-.2 1-.6 1.3-.4.3-.8.5-1.3.5h-22.2c-.5 0-1-.2-1.3-.5-.3-.3-.5-.8-.5-1.3V53.7c0-.5.2-1 .5-1.3s.8-.5 1.3-.5h22.2c.5 0 1 .2 1.3.5.4.3.6.8.6 1.3v6.6z" fill="#fff"/><path class="st1" d="M296 55.5c.9-.9 2-1.4 3.2-1.4 1.3 0 2.3.5 3.2 1.4.9.9 1.4 2 1.4 3.3s-.5 2.3-1.4 3.2c-.9.9-2 1.4-3.2 1.4-1.3 0-2.3-.5-3.2-1.4-.9-.9-1.4-2-1.4-3.2s.6-2.3 1.4-3.3m-2.1 8.7c1.5 1.5 3.3 2.3 5.5 2.3 2.1 0 3.9-.8 5.5-2.3 1.5-1.5 2.3-3.3 2.3-5.5 0-2.1-.8-3.9-2.3-5.5-1.5-1.5-3.3-2.3-5.5-2.3-2.1 0-3.9.8-5.5 2.3-1.5 1.5-2.3 3.3-2.3 5.5.1 2.2.8 4 2.3 5.5M289 50.4c3.1-2.1 6.5-3.2 10.3-3.2s7.2 1.1 10.3 3.2c3.1 2.1 5.3 4.9 6.6 8.4-1.3 3.5-3.6 6.3-6.6 8.4-3.1 2.1-6.5 3.2-10.3 3.2s-7.2-1.1-10.3-3.2c-3.1-2.1-5.3-4.9-6.6-8.4 1.4-3.5 3.6-6.3 6.6-8.4m-19.8 7.7c0-.4.3-.8.8-.8.4 0 .8.3.8.8 0 .4-.3.8-.8.8-.4 0-.8-.4-.8-.8zm-4.5 0c0-.4.3-.8.8-.8.4 0 .8.3.8.8 0 .4-.3.8-.8.8-.4 0-.8-.4-.8-.8zm-4.5 0c0-.4.3-.8.8-.8.4 0 .8.3.8.8 0 .4-.3.8-.8.8-.4 0-.8-.4-.8-.8zm-4.5 0c0-.4.3-.8.8-.8.4 0 .8.3.8.8 0 .4-.3.8-.8.8-.4 0-.8-.4-.8-.8zm-4.5 0c0-.4.3-.8.8-.8.4 0 .8.3.8.8 0 .4-.3.8-.8.8-.4 0-.8-.4-.8-.8zm-4.5 0c0-.4.3-.8.8-.8.4 0 .8.3.8.8 0 .4-.3.8-.8.8-.4 0-.8-.4-.8-.8zm-4.5 0c0-.4.3-.8.8-.8.4 0 .8.3.8.8 0 .4-.3.8-.8.8-.4 0-.8-.4-.8-.8zm-4.5 0c0-.4.3-.8.8-.8.4 0 .8.3.8.8 0 .4-.3.8-.8.8-.4 0-.8-.4-.8-.8zm-4.5 0c0-.4.3-.8.8-.8.4 0 .8.3.8.8 0 .4-.3.8-.8.8-.4 0-.8-.4-.8-.8zm-4.5 0c0-.4.3-.8.8-.8.4 0 .8.3.8.8 0 .4-.3.8-.8.8-.4 0-.8-.4-.8-.8zm-4.5 0c0-.4.3-.8.8-.8.4 0 .8.3.8.8 0 .4-.3.8-.8.8-.4 0-.8-.4-.8-.8zm-4.5 0c0-.4.3-.8.8-.8.4 0 .8.3.8.8 0 .4-.3.8-.8.8-.4 0-.8-.4-.8-.8zm-4.5 0c0-.4.3-.8.8-.8.4 0 .8.3.8.8 0 .4-.3.8-.8.8-.4 0-.8-.4-.8-.8zm-4.5 0c0-.4.3-.8.8-.8.4 0 .8.3.8.8 0 .4-.3.8-.8.8-.4 0-.8-.4-.8-.8zm-4.5 0c0-.4.3-.8.8-.8.4 0 .8.3.8.8 0 .4-.3.8-.8.8-.4 0-.8-.4-.8-.8zm-4.5 0c0-.4.3-.8.8-.8.4 0 .8.3.8.8 0 .4-.3.8-.8.8-.4 0-.8-.4-.8-.8zm-4.5 0c0-.4.3-.8.8-.8.4 0 .8.3.8.8 0 .4-.3.8-.8.8-.4 0-.8-.4-.8-.8zm-4.5 0c0-.4.3-.8.8-.8.4 0 .8.3.8.8 0 .4-.3.8-.8.8-.4 0-.8-.4-.8-.8zm-4.5 0c0-.4.3-.8.8-.8.4 0 .8.3.8.8 0 .4-.3.8-.8.8-.4 0-.8-.4-.8-.8zm-4.5 0c0-.4.3-.8.8-.8.4 0 .8.3.8.8 0 .4-.3.8-.8.8-.4 0-.8-.4-.8-.8zm-4.5 0c0-.4.3-.8.8-.8.4 0 .8.3.8.8 0 .4-.3.8-.8.8-.4 0-.8-.4-.8-.8zm-4.5 0c0-.4.3-.8.8-.8.4 0 .8.3.8.8 0 .4-.3.8-.8.8-.4 0-.8-.4-.8-.8zm-4.5 0c0-.4.3-.8.8-.8.4 0 .8.3.8.8 0 .4-.3.8-.8.8-.4 0-.8-.4-.8-.8zm-4.5 0c0-.4.3-.8.8-.8.4 0 .8.3.8.8 0 .4-.3.8-.8.8-.4 0-.8-.4-.8-.8zm18.6 77.7h-136c-.8 0-1.5-.7-1.5-1.5v-19.5c0-.8.7-1.5 1.5-1.5h136c.8 0 1.5.7 1.5 1.5v19.4c0 .9-.7 1.6-1.5 1.6zm-134.6-3h133v-16.5h-133v16.5z"/><path class="st1" d="M155.5 171.4c-.8 0-1.5-.7-1.5-1.5v-35.5c0-.8.7-1.5 1.5-1.5s1.5.7 1.5 1.5v35.5c0 .8-.7 1.5-1.5 1.5zm-75.8 0c-.8 0-1.5-.7-1.5-1.5v-35.5c0-.8.7-1.5 1.5-1.5s1.5.7 1.5 1.5v35.5c0 .8-.7 1.5-1.5 1.5z"/></svg>