<svg version="1.1" id="Layer_1" xmlns="http://www.w3.org/2000/svg" x="0" y="0" viewBox="0 0 363 204" xml:space="preserve"><style>.st1{opacity:.2;enable-background:new}.st1,.st2{fill:#f04931}.st3{fill:#fff}.st4{font-family:&apos;Roboto-Italic&apos;}.st5{font-size:12px}</style><path id="Bounding_BOX" fill="none" d="M0 0h363v204H0z"/><path class="st1" d="M123.5 19c-45.8 0-83 37.2-83 83s37.2 83 83 83 83-37.2 83-83-37.2-83-83-83zm81.4 86.9c-.3-.1-.6-.4-.6-.8v-2.6h-58.7v2.6c-.1.4-.4.8-.8.8s-.8-.3-.8-.8v-.5c-1.4 10.1-10 17.8-20.4 17.8-11.3 0-20.5-9.3-20.5-20.6s9.1-20.6 20.5-20.6c10.4 0 19 7.7 20.4 17.8v-.7c0-.4.3-.8.8-.8s.8.3.8.8v2.6h58.7v-2.6c0-.3.2-.7.6-.8.1 1.1.1 2.2.1 3.4v1.6c0 1.1 0 2.3-.1 3.4z"/><path class="st2" d="M144.2 101.8v.4c0 .8-.1 1.6-.2 2.4-1.4 10.1-10 17.8-20.4 17.8-11.3 0-20.5-9.3-20.5-20.6s9.1-20.6 20.5-20.6c10.4 0 19 7.7 20.4 17.8.1.7.2 1.4.2 2.2v.6z"/><path class="st3" d="M126.2 103.7c-.7.7-1.6 1-2.6 1s-1.9-.3-2.6-1-1.1-1.5-1.1-2.4v-6.8c0-.9.4-1.7 1.1-2.4.7-.7 1.6-1 2.6-1s1.9.3 2.6 1 1.1 1.5 1.1 2.4v6.8c0 .9-.3 1.7-1.1 2.4zm3.9-2.4h2.1c0 1.9-.7 3.6-2.2 5-1.4 1.4-3.2 2.3-5.2 2.6v3.7h-2.4v-3.7c-2-.3-3.8-1.1-5.2-2.6-1.4-1.4-2.2-3.1-2.2-5h2.1c0 1.7.6 3 1.9 4.1s2.8 1.6 4.6 1.6 3.3-.5 4.6-1.6c1.3-1.1 1.9-2.5 1.9-4.1z"/><text transform="translate(152.41 100.06)" class="st2 st4 st5">1</text><text transform="translate(158.01 100.06)" class="st2 st4 st5">5</text><text transform="translate(164.31 100.06)" class="st2 st4 st5">00</text><text transform="translate(177.21 100.06)" class="st2 st4 st5">m</text><text transform="translate(187.01 100.06)" class="st2 st4 st5">m</text><path class="st2" d="M205.9 101.7c0 .5-.3.8-.8.8h-60.3c-.2 0-.5-.1-.6-.3-.1-.1-.2-.3-.2-.5s.1-.4.2-.5c.1-.2.3-.2.6-.2h60.3c.4-.1.8.2.8.7z"/><path class="st2" d="M145.6 98.3v6.8c-.1.4-.4.8-.8.8s-.8-.3-.8-.8v-6.8c0-.4.3-.8.8-.8s.8.3.8.8zm60.3 0v6.8c0 .4-.3.8-.8.8h-.2c-.3-.1-.6-.4-.6-.8v-6.8c0-.3.2-.7.6-.8h.2c.5 0 .8.3.8.8z"/><path class="st1" d="M322.5 102c0 45.8-37.2 83-83 83s-83-37.2-83-83 37.2-83 83-83 83 37.2 83 83z"/><path class="st2" d="M260.2 101.8v.4c0 .8-.1 1.6-.2 2.4-1.4 10.1-10 17.8-20.4 17.8-11.3 0-20.5-9.3-20.5-20.6s9.1-20.6 20.5-20.6c10.4 0 19 7.7 20.4 17.8.1.7.2 1.4.2 2.2v.6z"/><path class="st3" d="M242.2 103.7c-.7.7-1.6 1-2.6 1s-1.9-.3-2.6-1-1.1-1.5-1.1-2.4v-6.8c0-.9.4-1.7 1.1-2.4.7-.7 1.6-1 2.6-1s1.9.3 2.6 1 1.1 1.5 1.1 2.4v6.8c0 .9-.3 1.7-1.1 2.4zm3.9-2.4h2.1c0 1.9-.7 3.6-2.2 5-1.4 1.4-3.2 2.3-5.2 2.6v3.7h-2.4v-3.7c-2-.3-3.8-1.1-5.2-2.6-1.4-1.4-2.2-3.1-2.2-5h2.1c0 1.7.6 3 1.9 4.1s2.8 1.6 4.6 1.6 3.3-.5 4.6-1.6c1.3-1.1 1.9-2.5 1.9-4.1z"/><text transform="translate(157.024 63.028)" class="st2 st4 st5">2</text><text transform="translate(162.624 63.028)" class="st2 st4 st5">0</text><text transform="translate(168.923 63.028)" class="st2 st4 st5">00</text><text transform="translate(181.824 63.028)" class="st2 st4 st5">m</text><text transform="translate(191.624 63.028)" class="st2 st4 st5">m</text><path class="st2" d="M240 64.7c0 .5-.3.8-.8.8H124.3c-.2 0-.5-.1-.6-.3-.1-.1-.2-.3-.2-.5s.1-.4.2-.5c.1-.2.3-.2.6-.2h114.9c.4-.1.8.2.8.7z"/><path class="st2" d="M124.5 60.8v6.8c-.1.4-.4.8-.8.8s-.8-.3-.8-.8v-6.8c0-.4.3-.8.8-.8s.8.3.8.8zm115.9 0v6.8c0 .4-.3.8-.8.8h-.2c-.3-.1-.6-.4-.6-.8v-6.8c0-.3.2-.7.6-.8h.2c.5 0 .8.3.8.8z"/></svg>