<svg version="1.1" id="Layer_1" xmlns="http://www.w3.org/2000/svg" xmlns:xlink="http://www.w3.org/1999/xlink" x="0" y="0" viewBox="0 0 363 204" xml:space="preserve"><style>.st1{fill:#f04931}.st2{font-family:&apos;Roboto-Italic&apos;}.st3{font-size:11.3851px}.st5{fill:none;stroke:#f04931;stroke-width:.75;stroke-miterlimit:10}.st7{fill:#fff}</style><path d="M172 0v204c56.3 0 102-45.7 102-102S228.3 0 172 0z" opacity=".2" fill="#f04931"/><text transform="translate(198.205 134.714)" class="st1 st2 st3">4m</text><path class="st1" d="M240.4 136.3c0 .5-.3.8-.9.8h-66.6c-.2 0-.6-.1-.7-.3-.1-.1-.2-.3-.2-.5s.1-.4.2-.5c.1-.2.3-.2.7-.2h66.6c.5-.1.9.2.9.7z"/><path class="st1" d="M173.5 133v6.5c-.1.4-.4.8-.8.8s-.8-.3-.8-.8V133c0-.4.3-.8.8-.8.5.1.8.4.8.8zm66.9 0v6.5c0 .4-.3.8-.8.8h-.2c-.3-.1-.6-.4-.6-.8V133c0-.3.2-.7.6-.8h.2c.5.1.8.4.8.8z"/><text transform="translate(215.004 62.412)" class="st1 st2 st3">6m</text><path class="st1" d="M274 64c0 .5-.5.8-1.3.8h-99.4c-.3 0-.8-.1-1-.3-.2-.1-.3-.3-.3-.5s.2-.4.3-.5c.2-.2.5-.2 1-.2h99.4c.6-.1 1.3.2 1.3.7z"/><path class="st1" d="M173.5 60.7v6.5c-.1.4-.4.8-.8.8s-.8-.3-.8-.8v-6.5c0-.4.3-.8.8-.8.5.1.8.4.8.8zm100.5 0v6.5c0 .4-.3.8-.8.8h-.2c-.3-.1-.6-.4-.6-.8v-6.5c0-.3.2-.7.6-.8h.2c.5.1.8.4.8.8zM167.5 164.3h-12.1c-1.1 0-2-.9-2-2V41.7c0-1.1.9-2 2-2h12.1c1.1 0 2 .9 2 2v120.5c0 1.2-.9 2.1-2 2.1z"/><defs><path id="SVGID_1_" d="M172 0v204c56.3 0 102-45.7 102-102S228.3 0 172 0z"/></defs><clipPath id="SVGID_2_"><use xlink:href="#SVGID_1_" overflow="visible"/></clipPath><g clip-path="url(#SVGID_2_)"><path class="st5" d="M216.3 50.8c-.4-.3-.8-.7-1.1-1"/><path d="M213.6 48.6c-11.5-9-25.9-14.3-41.6-14.3-37.4 0-67.7 30.3-67.7 67.7s30.3 67.7 67.7 67.7 67.7-30.3 67.7-67.7c0-11.1-2.7-21.6-7.4-30.8" fill="none" stroke="#f04931" stroke-width=".75" stroke-miterlimit="10" stroke-dasharray="3.0148,2.0098"/><path class="st5" d="M231.8 70.3c-.2-.4-.5-.9-.7-1.3"/></g><g><path class="st1" d="M254.4 101.8v.3c0 .6-.1 1.2-.2 1.8-1.1 7.6-7.6 13.4-15.4 13.4-8.5 0-15.5-7-15.5-15.6s6.9-15.6 15.5-15.6c7.9 0 14.4 5.8 15.4 13.4.1.5.2 1.1.2 1.7v.6z"/><path class="st7" d="M240.8 103.2c-.5.5-1.2.8-2 .8s-1.4-.2-2-.8c-.5-.5-.8-1.1-.8-1.8v-5.1c0-.7.3-1.3.8-1.8s1.2-.8 2-.8 1.4.2 2 .8c.5.5.8 1.1.8 1.8v5.1c0 .7-.2 1.3-.8 1.8zm3-1.8h1.6c0 1.4-.5 2.7-1.7 3.8-1.1 1.1-2.4 1.7-3.9 2v2.8H238v-2.8c-1.5-.2-2.9-.8-3.9-2-1.1-1.1-1.7-2.3-1.7-3.8h1.6c0 1.3.5 2.3 1.4 3.1s2.1 1.2 3.5 1.2 2.5-.4 3.5-1.2c.9-.8 1.4-1.9 1.4-3.1z"/></g><g><path class="st1" d="M288.5 102.1v.3c0 .6-.1 1.2-.1 1.8-1 7.5-7.4 13.2-15.1 13.2-8.4 0-15.2-6.9-15.2-15.3s6.8-15.3 15.2-15.3c7.7 0 14.1 5.7 15.1 13.2.1.5.1 1 .1 1.6v.5z"/><path class="st7" d="M270.3 97.4l-2.2 2.2a4.2 4.2 0 0 1 0 5l2.2 2.2c2.6-2.6 2.6-6.6 0-9.4zm4.3-4.4l-2.1 2.1c3.6 3.9 3.6 9.7 0 13.8l2.1 2.1c5-4.9 5-12.7 0-18z"/></g></svg>