<svg version="1.1" id="Layer_1" xmlns="http://www.w3.org/2000/svg" x="0" y="0" viewBox="0 0 363 204" xml:space="preserve"><style>.st1{fill:#f04931}</style><path id="Bounding_BOX" fill="none" d="M0 0h363v204H0z"/><path class="st1" d="M282.3 162.7H80.7V42.2h201.6v120.5zm-198.6-3h195.6V45.2H83.7v114.5z"/><path class="st1" d="M181.8 72.3c14.7 0 26.6-11.9 26.6-26.6s-11.9-26.6-26.6-26.6-26.6 11.9-26.6 26.6 11.9 26.6 26.6 26.6"/><path d="M189.9 43.3l6.4-6.4v17.7l-6.4-6.4v5.7c0 .5-.2.8-.5 1.1s-.7.5-1.2.5h-19.4c-.5 0-.8-.2-1.1-.5s-.5-.7-.5-1.1V37.6c0-.5.2-.8.5-1.1s.7-.5 1.1-.5h19.4c.5 0 .8.2 1.2.5.3.3.5.7.5 1.1v5.7z" fill="#fff"/><path class="st1" d="M172.7 116.4l8.8-8.8 8.8 8.8h-17.6zm22-27.9c.8 0 1.5.3 2.1.9s.9 1.3.9 2.1v17.6c0 .8-.3 1.5-.9 2-.6.6-1.3.9-2.1.9h-5.9v-2.9h5.9V91.5h-26.4v17.6h5.8v2.9h-5.8c-.8 0-1.5-.3-2.1-.9s-.9-1.2-.9-2V91.5c0-.8.3-1.5.9-2.1.6-.6 1.3-.9 2.1-.9h26.4z"/></svg>