<svg width="16" height="16" xmlns="http://www.w3.org/2000/svg">
    <path d="M8 15.75A7.749 7.749 0 0 0 15.75 8 7.749 7.749 0 0 0 8 .25 7.749 7.749 0 0 0 .25 8 7.749 7.749 0 0 0 8 15.75zm0-1.5A6.248 6.248 0 0 1 1.75 8 6.248 6.248 0 0 1 8 1.75 6.248 6.248 0 0 1 14.25 8 6.248 6.248 0 0 1 8 14.25zM8.625 12A.376.376 0 0 0 9 11.625V8h2.094a.375.375 0 0 0 .265-.64L8.266 4.265a.375.375 0 0 0-.532 0L4.641 7.359A.376.376 0 0 0 4.906 8H7v3.625c0 .206.169.375.375.375h1.25z" fill="#222" fill-rule="nonzero"/>
</svg>
