<svg viewBox="0 0 24 15" xmlns="http://www.w3.org/2000/svg"><g fill="none" fill-rule="evenodd" transform="translate(0 -5)"><path d="m0 0h24v24h-24z"/><path d="m22.302 15.51h1.698v1.924h-1.698v2.566h-2.94v-2.566h-14.452v2.566h-2.94v-2.566h-1.97v-1.924zm-17.392-5.334v4.695h-2.94v-9.871h2.94v3.031c1.058 1.533 3.232 3.693 7.09 3.693 3.925 0 6.242-2.278 7.362-3.821v-2.903h2.94v9.872h-2.94v-4.794c-.343.348-.73.695-1.168 1.026l-1.428 3.768h-.985l1.112-2.932c-.79.425-1.698.77-2.73.978l-.358 1.954h-.935l.331-1.804c-.385.04-.785.063-1.2.063-.418 0-.818-.023-1.202-.065l.33 1.806h-.934l-.36-1.962c-1.051-.22-1.965-.59-2.755-1.042l1.139 3.004h-.985l-1.487-3.922c-.306-.251-.583-.512-.837-.773z" fill="currentColor"/></g></svg>