<svg width="45" height="44" xmlns="http://www.w3.org/2000/svg">
    <g fill-rule="nonzero" fill="none">
        <path d="M26.813 26.637c1.518 0 2.75 1.347 2.75 3.008 0 1.611-1.158 2.926-2.613 3.004l-.137.004H22c-.76 0-1.375.673-1.375 1.504 0 .793.56 1.442 1.272 1.5l.103.004h6.875l9.075-7.444c1.325-1.088 3.19-.836 4.236.544l.095.132 1.429 2.084L30.607 42.29a3.595 3.595 0 0 1-2.161.885l-.182.004H1.72c-.57 0-1.032-.505-1.032-1.128 0-.586.41-1.068.932-1.122l.1-.005h26.545c.338 0 .668-.11.948-.312l.117-.093 11.523-9.95-.22-.323c-.322-.47-.914-.586-1.362-.287l-.083.061-9.624 7.896H22c-1.898 0-3.438-1.684-3.438-3.76 0-2.022 1.46-3.67 3.289-3.756l.149-.004h4.813c.38 0 .687-.336.687-.752 0-.385-.265-.703-.607-.747l-.08-.005h-12.72c-.803 0-1.915.472-3.31 1.42l-.37.26c-.25.179-.51.373-.778.581l-.408.324c-.345.279-.703.58-1.074.904l-.45.4-.23.208-.47.433-.48.455-.292.279H1.72c-.57 0-1.032-.505-1.032-1.128 0-.586.41-1.068.932-1.123l.1-.005h3.74l.224-.211c3.506-3.276 6.213-4.97 8.262-5.05l.149-.003h12.719z" fill="#222"/>
        <path d="m22.962 22.05 8.19-9.393c2.375-2.73 2.24-7.254-.422-9.77-2.316-2.197-5.767-1.802-7.888.633L22 4.482l-.835-.954c-2.12-2.443-5.572-2.838-7.888-.642-2.654 2.517-2.797 7.04-.42 9.771l8.188 9.392c.526.609 1.384.609 1.917 0z" fill="#4D62E4"/>
    </g>
</svg>
