<svg width="40" height="49" xmlns="http://www.w3.org/2000/svg">
    <g transform="translate(.75 .438)" fill="none" fill-rule="evenodd">
        <path fill="#EEE" d="m1.031 38.725 12.375 7.519V16.168L1.031 8.648z"/>
        <path d="M13.406 46.244V16.168L1.031 8.648v30.077l12.375 7.519zm-2.75-5.111-6.875-4.178V13.761l6.875 4.176v23.196z" fill="#FFF" fill-rule="nonzero"/>
        <path d="M12.905 47.23.53 39.71a1.149 1.149 0 0 1-.53-.985V8.648c0-.86.845-1.403 1.532-.985l12.375 7.519c.327.199.53.576.53.986v30.076c0 .86-.844 1.403-1.532.985zm-.53-2.903V16.832L2.062 10.566V38.06l10.313 6.266z" fill="#222" fill-rule="nonzero"/>
        <path fill="#FFF" d="M1.031 8.648h35.75v30.077H1.031z"/>
        <path d="M37.469 7.52H1.03C.461 7.52 0 8.027 0 8.649v30.077c0 .622.462 1.127 1.031 1.127H37.47c.57 0 1.031-.505 1.031-1.127V8.648c0-.622-.462-1.127-1.031-1.127zm-1.032 2.256v27.82H2.063V9.777h34.374z" fill="#4D62E4" fill-rule="nonzero"/>
        <path fill="#EEE" d="M1.031 8.648 13.406 1.13v30.077L1.031 38.725z"/>
        <path d="M13.406 1.13v30.076L1.031 38.725V8.648L13.406 1.13zm-2.75 5.11-6.875 4.178v23.194l6.875-4.176V6.24z" fill="#FFF" fill-rule="nonzero"/>
        <path d="M12.905.144.53 7.663c-.327.198-.53.576-.53.985v30.077c0 .86.845 1.403 1.532.985l12.375-7.519c.327-.198.53-.576.53-.985V1.129c0-.86-.844-1.403-1.532-.985zm-.53 2.902v27.495L2.062 36.807V9.312l10.313-6.266z" fill="#222" fill-rule="nonzero"/>
        <ellipse fill="#4D62E4" cx="18.219" cy="14.664" rx="1.375" ry="1.504"/>
        <ellipse fill="#4D62E4" cx="18.219" cy="20.679" rx="1.375" ry="1.504"/>
        <ellipse fill="#4D62E4" cx="18.219" cy="26.694" rx="1.375" ry="1.504"/>
        <ellipse fill="#4D62E4" cx="18.219" cy="32.709" rx="1.375" ry="1.504"/>
        <path d="M30.594 13.536c.57 0 1.031.505 1.031 1.128 0 .586-.409 1.068-.932 1.122l-.1.006h-8.25c-.569 0-1.03-.505-1.03-1.128 0-.587.408-1.068.931-1.123l.1-.005h8.25zM30.594 19.551c.57 0 1.031.505 1.031 1.128 0 .586-.409 1.068-.932 1.123l-.1.005h-8.25c-.569 0-1.03-.505-1.03-1.128 0-.586.408-1.068.931-1.123l.1-.005h8.25zM30.594 25.566c.57 0 1.031.505 1.031 1.128 0 .586-.409 1.068-.932 1.123l-.1.005h-8.25c-.569 0-1.03-.505-1.03-1.128 0-.586.408-1.068.931-1.123l.1-.005h8.25zM30.594 31.581c.57 0 1.031.505 1.031 1.128 0 .587-.409 1.068-.932 1.123l-.1.005h-8.25c-.569 0-1.03-.505-1.03-1.128 0-.586.408-1.068.931-1.122l.1-.006h8.25z" fill="#4D62E4" fill-rule="nonzero"/>
    </g>
</svg>
