<svg width="48" height="51" xmlns="http://www.w3.org/2000/svg">
    <g transform="translate(0 1)" fill="none" fill-rule="evenodd">
        <path d="M0 0h48v48.125H0z"/>
        <g stroke-linejoin="square">
            <rect stroke="#FFF" stroke-width="3.285" fill="#EEE" x="1.643" y="10.666" width="32.715" height="35.817" rx="3.285"/>
            <rect stroke="#222" stroke-width="1.643" x=".821" y="9.845" width="34.358" height="37.459" rx="3.285"/>
        </g>
        <path d="M36 20.303V9.023H24.75c0 6.23 5.037 11.28 11.25 11.28z" fill="#FFF"/>
        <ellipse fill="currentColor" cx="36" cy="9.023" rx="9" ry="9.023"/>
        <path d="M25.148 28.02a.352.352 0 0 0 .352-.352v-5.885a.352.352 0 0 0-.352-.352h-1.387a.352.352 0 0 0-.352.352v.017l.118 2.431A7.219 7.219 0 0 0 18 21.661c-.002 0-.003.005-.006.005-3.548 0-6.502 2.553-7.135 5.928a.352.352 0 0 0 .346.417h1.437a.352.352 0 0 0 .342-.273 5.161 5.161 0 0 1 5.01-3.954c1.782 0 3.351.901 4.277 2.282l-2.973-.143h-.017a.352.352 0 0 0-.346.289l-.005.063v1.393c0 .195.158.353.352.353h5.865zM12.24 36.47a.352.352 0 0 0 .352-.353V36.1l-.122-2.426a7.219 7.219 0 0 0 5.521 2.565c.002 0 .003-.004.005-.004 3.548 0 6.502-2.553 7.135-5.928a.352.352 0 0 0-.346-.417h-1.436a.352.352 0 0 0-.342.272 5.16 5.16 0 0 1-5.01 3.955l-.001.003h-.004a5.128 5.128 0 0 1-4.273-2.285l2.982.143h.017a.352.352 0 0 0 .352-.352v-1.393a.352.352 0 0 0-.352-.353h-5.865a.352.352 0 0 0-.352.353v5.884c0 .195.158.353.352.353h1.387z" fill="#222" fill-rule="nonzero"/>
    </g>
</svg>
