<svg width="43" height="50" xmlns="http://www.w3.org/2000/svg">
    <g fill="none" fill-rule="evenodd">
        <path d="M20.625 17.732c1.519 0 2.75 1.347 2.75 3.008v8.272H9.625V20.74c0-1.66 1.231-3.008 2.75-3.008h8.25z" fill="#4D62E4" fill-rule="nonzero"/>
        <path d="M20.625 19.988h-8.25c-.353 0-.643.29-.683.665l-.005.087v6.016h9.626V20.74c0-.385-.266-.703-.608-.747l-.08-.005z" fill="#FFF" fill-rule="nonzero"/>
        <path d="M27.5 9.46c1.519 0 2.75 1.348 2.75 3.009v12.783c0 1.661-1.231 3.008-2.75 3.008h-8.25c-1.519 0-2.75-1.347-2.75-3.008V12.469c0-1.661 1.231-3.008 2.75-3.008h8.25z" fill="#4D62E4" fill-rule="nonzero"/>
        <path d="M27.5 11.717h-8.25c-.353 0-.643.29-.683.664l-.005.088v12.783c0 .386.266.703.608.747l.08.005h8.25c.353 0 .643-.29.683-.664l.005-.088V12.469c0-.386-.266-.704-.608-.747l-.08-.005z" fill="#FFF" fill-rule="nonzero"/>
        <path d="M12.375 24.5h24.75v21.873c0 1.209-.98 2.19-2.19 2.19h-22.56V24.5z" fill="#FFF"/>
        <path d="M37.125 24.5v21.055c0 1.66-1.231 3.008-2.75 3.008h-22V24.5h24.75zm-2.063 2.256H14.439v19.55h19.937c.353 0 .643-.29.683-.664l.005-.087v-18.8z" fill="#222" fill-rule="nonzero"/>
        <path d="M14.438 24.5h-8.25v21.873c0 1.209.98 2.19 2.19 2.19h6.06V24.5z" fill="#EEE"/>
        <path d="M6.188 24.5v21.055c0 1.66 1.23 3.008 2.75 3.008h5.5V24.5h-8.25zm2.062 2.256h4.125v19.55H8.937c-.352 0-.643-.29-.682-.664l-.005-.087v-18.8z" fill="#222" fill-rule="nonzero"/>
        <path fill="#EEE" d="M11 26.756H6.875l-2.75 4.512H8.25z"/>
        <path d="m6.188 24.5-5.5 9.023h8.25l5.5-9.023h-8.25zm1.104 2.256h3.291l-2.75 4.512H4.542l2.75-4.512z" fill="#222" fill-rule="nonzero"/>
        <path fill="#EEE" d="M15.125 25.252h20.813l4.624 7.52H19.75z"/>
        <path d="m37.125 24.5 5.5 9.023h-24.75l-5.5-9.023h24.75zm-1.104 2.256H16.229l2.75 4.512h19.792l-2.75-4.512z" fill="#222" fill-rule="nonzero"/>
        <path d="M25.565.438h9.37c1.21 0 2.19.98 2.19 2.19v14.418c0 1.21-.98 2.19-2.19 2.19h-9.37a2.19 2.19 0 0 1-2.19-2.19V2.628c0-1.21.98-2.19 2.19-2.19z" fill="#4D62E4"/>
        <path fill="#FFF" d="M21.313 9.46h2.063v2.256h-2.064zM14.438 17.733H16.5v2.256h-2.064zM28.188 19.236h2.063v2.256h-2.064z"/>
    </g>
</svg>
