<svg viewBox="0 0 24 22" xmlns="http://www.w3.org/2000/svg"><g fill="none" fill-rule="evenodd" transform="translate(0 -1)"><path d="m0 0h24v24h-24z"/><path d="m2.243 20.808c1.262 1.214 2.92-.024 2.92-.024s-2.873-.235-3.624-3.25c0 0-.615 2.005.704 3.274zm9.412-8.294c.537.561-.737-.258-1.96 1.814-1.253 2.124-.216 4.663-1.228 6.482-1.298 2.335-4.687 2.774-6.506 1.454-3.696-2.684-2.084-8.786 4.136-10.312 2.625-.644 4.36-.522 5.558.562zm10.922 6.612c.423-1.698-1.48-2.512-1.48-2.512s1.232 2.6-1.008 4.757c0 0 2.046-.47 2.488-2.245zm-3.11-5.38c2.677-.046 4.752 2.663 4.515 4.895-.481 4.536-6.583 6.194-11.018 1.583-1.872-1.946-2.634-3.506-2.291-5.084.218-.744.145.766 2.554.787 2.47.02 4.156-2.146 6.24-2.181zm-8.517-11.35c-1.684.483-1.44 2.534-1.44 2.534s1.641-2.366 4.633-1.507c0 0-1.432-1.533-3.193-1.028zm1.898 9.678c-1.216-2.144-3.939-2.518-5.012-4.3-1.378-2.29-.064-5.438 1.991-6.35 4.178-1.852 8.668 2.592 6.883 8.73-.753 2.59-1.726 4.028-3.268 4.522-.754.183.593-.509-.594-2.602z" fill="#4d62e4"/></g></svg>