<svg viewBox="0 0 20 25" xmlns="http://www.w3.org/2000/svg"><g fill="none" fill-rule="evenodd"><path d="m0 0h24v24h-24z" transform="translate(-2 1)"/><g fill="currentColor" stroke-linecap="round" stroke-width="1.143" transform="translate(1 1)"><path d="m10.846 20.703-1.846 2.287-1.604-1.985c.979.04 1.7.04 2.167 0 .465-.04.893-.14 1.283-.3z" stroke="currentColor"/><g stroke="#fff"><path d="m3.016 12.268v2.385c-1.95.875-3.128 2-3.008 3.1.216 1.976 4.527 3.128 9.63 2.574s8.568-3.52 8.352-5.495c-.066-.607-.342-1.158-.943-1.602-1.094-.82-2.277-1.23-3.547-1.23h-1.125"/><path d="m3.016 5.983v2.384c-1.95.875-3.128 2-3.008 3.1.216 1.976 4.527 3.128 9.63 2.574s8.568-3.52 8.352-5.494c-.066-.608-.342-1.16-.943-1.603-1.094-.82-2.276-1.23-3.547-1.23h-1.125"/><path d="m3.015 0v2.653c-1.95.875-3.127 2-3.007 3.1.216 1.976 4.527 3.128 9.63 2.574s8.568-3.52 8.352-5.495c-.066-.607-.342-1.158-.943-1.602-1.094-.82-2.277-1.23-3.547-1.23z"/></g></g></g></svg>