<svg xmlns="http://www.w3.org/2000/svg" viewBox="0 0 16 24">
    <g fill="none" fill-rule="evenodd">
        <path d="M0 0H24V24H0z" transform="translate(-4)"/>
        <g fill="currentColor" fill-rule="nonzero">
            <path d="M14.475 22.594L14.006 16.969 9.9 16.969 9.431 22.594 7.969 22.594 7.969 24 15.938 24 15.938 22.594zM7.734 0H0v1.406h7.734c1.939 0 3.516 1.577 3.516 3.516v10.64h1.406V4.922C12.656 2.208 10.448 0 7.734 0z" transform="translate(-4) matrix(-1 0 0 1 20 0)"/>
            <path d="M.294 2.813c.544 1.24 1.783 2.109 3.222 2.109 1.438 0 2.677-.87 3.22-2.11H.295z" transform="translate(-4) matrix(-1 0 0 1 20 0)"/>
        </g>
    </g>
</svg>
