<svg viewBox="0 0 352 513" xmlns="http://www.w3.org/2000/svg"><path d="m96.06 454.35c.01 6.29 1.87 12.45 5.36 17.69l17.09 25.69c5.929512 8.919545 15.929379 14.28 26.64 14.28h61.71c10.710621 0 20.710488-5.360455 26.64-14.28l17.09-25.69c3.488493-5.240754 5.353012-11.394364 5.36-17.69l.04-38.35h-159.98zm-96.06-278.35c0 44.37 16.45 84.85 43.56 115.78 16.52 18.85 42.36 58.23 52.21 91.45.04.26.07.52.11.78h160.24c.04-.26.07-.51.11-.78 9.85-33.22 35.69-72.6 52.21-91.45 27.11-30.93 43.56-71.41 43.56-115.78 0-97.39-79.09-176.3-176.55-176.00085258-102.01.31085258-175.45 82.97085258-175.45 176.00085258zm176-80c-44.11 0-80 35.89-80 80 0 8.84-7.16 16-16 16s-16-7.16-16-16c0-61.76 50.24-112 112-112 8.84 0 16 7.16 16 16s-7.16 16-16 16z" transform="matrix(1 0 0 -1 0 513)"/></svg>