<svg height="22" viewBox="0 0 24 22" width="24" xmlns="http://www.w3.org/2000/svg"><g fill="none" fill-rule="evenodd" transform="matrix(-1 0 0 1 24 -1)"><path d="m6.062 11.55v2.145h2.11v3.087h-2.11v2.146l-6.062-3.69 6.062-3.689zm13.169 2.145c1.015 0 1.84-.87 1.84-1.94s-.825-1.94-1.84-1.94-1.84.87-1.84 1.94v1.94zm0-6.968c2.63 0 4.769 2.255 4.769 5.028 0 2.772-2.14 5.027-4.769 5.027h-1.84v6.218h-2.93v-6.218h-1.31v-3.087h1.31v-1.94c0-2.773 2.14-5.028 4.77-5.028zm-5.07.663h-2.035v15.61h-2.93v-15.61h-2.033l3.5-6.39 3.5 6.39z" fill="currentColor" fill-rule="nonzero"/><path d="m0 0h24v24h-24z"/></g></svg>