<?xml version="1.0" encoding="UTF-8" standalone="no"?>
<!DOCTYPE svg PUBLIC "-//W3C//DTD SVG 1.1//EN" "http://www.w3.org/Graphics/SVG/1.1/DTD/svg11.dtd">
<svg width="100%" height="100%" viewBox="0 0 200 200" version="1.1" xmlns="http://www.w3.org/2000/svg" xmlns:xlink="http://www.w3.org/1999/xlink" xml:space="preserve" xmlns:serif="http://www.serif.com/" style="fill-rule:evenodd;clip-rule:evenodd;stroke-linejoin:round;stroke-miterlimit:2;">
    <g id="icon" transform="matrix(1,0,0,1,-100,-200)">
        <g transform="matrix(0.869565,0,0,1,13.0435,0)">
            <path d="M330,248C330,221.508 305.266,200 274.8,200L155.2,200C124.734,200 100,221.508 100,248L100,352C100,378.492 124.734,400 155.2,400L274.8,400C305.266,400 330,378.492 330,352L330,248Z" style="fill:white;"/>
        </g>
        <g transform="matrix(1,0,0,1,-997.298,-930.43)">
            <path d="M1157.3,1130.43L1157.3,1160.43L1252.3,1160.43C1257.77,1160.43 1262.81,1163.41 1265.45,1168.21C1268.08,1173.01 1267.89,1178.86 1264.95,1183.48C1264.95,1183.48 1212.64,1270.41 1212.64,1270.41L1252.22,1270.38C1252.66,1270.38 1253.09,1270.39 1253.52,1270.43L1267.3,1270.43C1267.3,1270.43 1267.3,1299.18 1267.3,1300.39C1267.29,1300.39 1267.28,1300.39 1267.27,1300.4C1267.26,1300.41 1267.26,1300.42 1267.26,1300.43L1166.19,1300.43C1155.88,1300.43 1142.99,1299.33 1135.69,1292.04C1128.4,1284.74 1127.3,1271.85 1127.3,1261.54L1127.3,1133.92C1109.71,1141.05 1097.3,1158.3 1097.3,1178.43L1097.3,1282.43C1097.3,1308.92 1118.81,1330.43 1145.3,1330.43L1249.3,1330.43C1275.79,1330.43 1297.3,1308.92 1297.3,1282.43L1297.3,1178.43C1297.3,1151.94 1275.79,1130.43 1249.3,1130.43L1157.3,1130.43ZM1157.3,1190.43C1157.3,1190.43 1157.3,1231.33 1157.3,1254.64C1157.3,1263.36 1164.37,1270.43 1173.09,1270.43L1177.06,1270.43L1224.97,1190.43L1157.3,1190.43Z" style="fill:rgb(217,35,38);"/>
        </g>
    </g>
</svg>
