<?xml version="1.0" encoding="UTF-8" standalone="no"?>
<!DOCTYPE svg PUBLIC "-//W3C//DTD SVG 1.1//EN" "http://www.w3.org/Graphics/SVG/1.1/DTD/svg11.dtd">
<svg width="100%" height="100%" viewBox="0 0 200 200" version="1.1" xmlns="http://www.w3.org/2000/svg" xmlns:xlink="http://www.w3.org/1999/xlink" xml:space="preserve" xmlns:serif="http://www.serif.com/" style="fill-rule:evenodd;clip-rule:evenodd;stroke-linejoin:round;stroke-miterlimit:2;">
    <g transform="matrix(1,0,0,1,-100,-800)">
        <g id="icon">
            <path d="M160,800L160,830L255,830C260.475,830 265.515,832.983 268.149,837.782C270.784,842.581 270.594,848.434 267.655,853.053C267.655,853.053 215.339,939.979 215.339,939.979L254.924,939.946C255.361,939.945 255.793,939.964 256.219,940L270,940C270,940 270,968.746 270,969.96C269.99,969.96 269.979,969.965 269.972,969.972C269.965,969.979 269.96,969.99 269.96,970L168.895,970C158.579,970 145.686,968.902 138.392,961.608C131.098,954.314 130,941.421 130,931.105L130,803.495C112.417,810.62 100,827.871 100,848L100,952C100,978.492 121.508,1000 148,1000L252,1000C278.492,1000 300,978.492 300,952L300,848C300,821.508 278.492,800 252,800L160,800ZM160,860C160,860 160,900.898 160,924.21C160,932.931 167.069,940 175.79,940L179.766,940L227.675,860L160,860Z"/>
        </g>
    </g>
</svg>
