<?xml version="1.0" encoding="UTF-8" standalone="no"?><!DOCTYPE svg PUBLIC "-//W3C//DTD SVG 1.1//EN" "http://www.w3.org/Graphics/SVG/1.1/DTD/svg11.dtd"><svg width="100%" height="100%" viewBox="0 0 503 150" version="1.1" xmlns="http://www.w3.org/2000/svg" xmlns:xlink="http://www.w3.org/1999/xlink" xml:space="preserve" xmlns:serif="http://www.serif.com/" style="fill-rule:evenodd;clip-rule:evenodd;stroke-linejoin:round;stroke-miterlimit:2;"><g><g id="icon"><path d="M45,0l0,22.5l71.25,0c4.106,-0 7.886,2.237 9.862,5.836c1.976,3.6 1.834,7.99 -0.371,11.454c0,-0 -39.237,65.194 -39.237,65.194l29.689,-0.025c0.328,-0 0.652,0.014 0.971,0.041l10.336,0c0,0 0,21.56 0,22.47c-0.008,0 -0.015,0.003 -0.021,0.009c-0.006,0.006 -0.009,0.013 -0.009,0.021l-75.799,0c-7.737,0 -17.406,-0.823 -22.877,-6.294c-5.471,-5.471 -6.294,-15.14 -6.294,-22.877l0,-95.708c-13.188,5.344 -22.5,18.283 -22.5,33.379l0,78c0,19.869 16.131,36 36,36l78,0c19.869,0 36,-16.131 36,-36l0,-78c0,-19.869 -16.131,-36 -36,-36l-69,0Zm0,45c0,0 0,30.674 -0,48.158c-0,6.54 5.302,11.842 11.842,11.842l2.982,0l35.932,-60l-50.756,0Z"/></g><path d="M215.809,127.5l0,-14.779l-15.027,-0c-7.049,-0 -13.503,-5.579 -13.503,-13.503c0,-14.398 0,-41.159 0,-41.159l28.53,-0l0,-13.28l-28.53,0l0,-22.279l-14.779,-0l0,80.977c-0,6.371 2.531,12.482 7.036,16.987c4.505,4.505 10.616,7.036 16.987,7.036l19.286,0Z"/><g><path d="M221.893,127.5l-0,-82.659l16.272,-0l-0,14.736c4.206,-9.824 12.951,-15.301 26.234,-16.43l5.479,-0.339l1.162,14.567l-10.128,1.016c-14.722,1.468 -22.083,9.204 -22.083,23.206l-0,45.903l-16.936,-0Z" style="fill-rule:nonzero;"/><path d="M313.635,128.819c-13.208,0 -23.609,-3.727 -31.203,-11.181c-7.595,-7.454 -11.392,-17.642 -11.392,-30.563c0,-8.282 1.679,-15.598 5.036,-21.948c3.357,-6.35 8.007,-11.292 13.95,-14.826c5.944,-3.534 12.768,-5.301 20.472,-5.301c11.117,-0 19.867,3.561 26.25,10.684c6.384,7.123 9.576,16.924 9.576,29.403l-0,5.633l-59.104,-0c1.21,16.786 10.07,25.179 26.58,25.179c4.623,-0 9.163,-0.718 13.62,-2.154c4.458,-1.436 8.668,-3.81 12.63,-7.123l4.953,11.596c-3.632,3.313 -8.31,5.908 -14.033,7.785c-5.723,1.878 -11.502,2.816 -17.335,2.816Zm-2.477,-72.058c-6.934,0 -12.437,2.154 -16.509,6.461c-4.072,4.306 -6.549,10.049 -7.429,17.227l45.071,0c-0.33,-7.509 -2.312,-13.335 -5.944,-17.476c-3.632,-4.141 -8.695,-6.212 -15.189,-6.212Z" style="fill-rule:nonzero;"/><path d="M387.362,128.819c-7.061,0 -13.268,-1.685 -18.619,-5.056c-5.351,-3.37 -9.517,-8.205 -12.496,-14.504c-2.979,-6.299 -4.469,-13.759 -4.469,-22.378c0,-8.62 1.49,-16.052 4.469,-22.296c2.979,-6.244 7.117,-11.079 12.413,-14.504c5.296,-3.426 11.53,-5.139 18.702,-5.139c6.069,-0 11.475,1.326 16.22,3.978c4.744,2.652 8.275,6.244 10.592,10.775l-0.037,-37.195l16.716,-0l0.037,104.827l-16.385,0l0,-14.09c-2.317,4.863 -5.875,8.675 -10.675,11.438c-4.799,2.763 -10.289,4.144 -16.468,4.144Zm4.303,-12.929c6.841,-0 12.358,-2.487 16.551,-7.46c4.193,-4.973 6.289,-12.156 6.289,-21.549c0,-9.394 -2.096,-16.549 -6.289,-21.467c-4.193,-4.918 -9.71,-7.377 -16.551,-7.377c-6.951,0 -12.523,2.459 -16.716,7.377c-4.192,4.918 -6.289,12.073 -6.289,21.467c0,9.393 2.097,16.576 6.289,21.549c4.193,4.973 9.765,7.46 16.716,7.46Z" style="fill-rule:nonzero;"/><path d="M436.719,127.5l-0,-11.158l44.969,-58.156l-44.969,0l-0,-13.186l56.417,0c1.941,-0 3.802,0.771 5.174,2.143c1.373,1.372 2.144,3.234 2.144,5.174l-0,1.626c-0,1.545 -0.513,3.047 -1.459,4.27c-7.725,9.99 -43.511,56.27 -43.511,56.27l46.829,-0l0,13.017l-65.594,0Z" style="fill-rule:nonzero;"/></g></g></svg>