<?xml version="1.0" encoding="UTF-8" standalone="no"?>
<!DOCTYPE svg PUBLIC "-//W3C//DTD SVG 1.1//EN" "http://www.w3.org/Graphics/SVG/1.1/DTD/svg11.dtd">
<svg width="100%" height="100%" viewBox="0 0 200 200" version="1.1" xmlns="http://www.w3.org/2000/svg" xmlns:xlink="http://www.w3.org/1999/xlink" xml:space="preserve" xmlns:serif="http://www.serif.com/" style="fill-rule:evenodd;clip-rule:evenodd;stroke-linejoin:round;stroke-miterlimit:2;">
    <g transform="matrix(1,0,0,1,-100,-1084.37)">
        <g id="icon">
            <path d="M160,1084.37L160,1114.37L255,1114.37C260.475,1114.37 265.515,1117.35 268.149,1122.15C270.784,1126.95 270.594,1132.8 267.655,1137.42C267.655,1137.42 215.339,1224.35 215.339,1224.35L254.924,1224.32C255.361,1224.32 255.793,1224.33 256.219,1224.37L270,1224.37C270,1224.37 270,1253.12 270,1254.33C269.99,1254.33 269.979,1254.34 269.972,1254.34C269.965,1254.35 269.96,1254.36 269.96,1254.37L168.895,1254.37C158.579,1254.37 145.686,1253.27 138.392,1245.98C131.098,1238.68 130,1225.79 130,1215.48L130,1087.87C112.417,1094.99 100,1112.24 100,1132.37L100,1236.37C100,1262.86 121.508,1284.37 148,1284.37L252,1284.37C278.492,1284.37 300,1262.86 300,1236.37L300,1132.37C300,1105.88 278.492,1084.37 252,1084.37L160,1084.37ZM160,1144.37C160,1144.37 160,1185.27 160,1208.58C160,1217.3 167.069,1224.37 175.79,1224.37L179.766,1224.37L227.675,1144.37L160,1144.37Z" style="fill:white;"/>
        </g>
    </g>
</svg>
