<svg width="32" height="32" xmlns="http://www.w3.org/2000/svg"><g fill="none" fill-rule="evenodd"><path d="M0 0h32v32H0z"/><path d="M26.2 14.3H30v2.6h-3.8v-2.6zM22.7 24l1.8-1.7 2.3 2.3-1.8 1.8-2.3-2.4zm-8 1.8h2.5v3.8h-2.5v-3.8zM19.8 9c1.2.7 2.1 1.6 2.8 2.7.7 1.2 1 2.4 1 3.8 0 2.1-.7 3.9-2.2 5.4-1.5 1.6-3.3 2.3-5.4 2.3-2.1 0-3.9-.7-5.4-2.2-1.5-1.5-2.2-3.3-2.2-5.4 0-1.4.3-2.7 1-3.8.7-1.2 1.6-2.1 2.8-2.7V3h7.6v6zM5.3 24.6l2.3-2.3 1.8 1.8-2.3 2.3-1.8-1.8zm.5-7.7H2v-2.6h3.8v2.6z" fill="#FBAB18" fill-rule="nonzero"/></g></svg>