<svg width="32" height="32" xmlns="http://www.w3.org/2000/svg"><g fill="none" fill-rule="evenodd"><path d="M0 0h32v32H0z"/><g fill="#FFF" fill-rule="nonzero"><path d="M9.678 6.321c-.039.16-.059.327-.059.498v18.9c0 .812.458 1.532 1.125 1.913l-2.525.687c-.5.1-1.1-.2-1.2-.7l-5-18.2c-.1-.5.2-1.1.7-1.2zm10.3.798l4.341 15.8c.2.5-.1 1-.7 1.2l-5.133 1.4h-6.367V7.12h7.859zm-.686-2.5h-3.373l2.2-.6c.466-.093 1.018.16 1.173.6z"/><path d="M27.82 4.62c1.2 0 2.2 1 2.2 2.2v18.9c0 1.2-1 2.2-2.2 2.2h-16c-.389 0-.756-.105-1.075-.287l7.74-2.114h9.134V7.12h-7.641l-.659-2.4a.738.738 0 0 0-.028-.1h8.528zm-11.898 0l-6.244 1.7c.23-.966 1.112-1.702 2.141-1.702h4.103z"/></g></g></svg>