<svg width="32" height="32" xmlns="http://www.w3.org/2000/svg"><g fill="none" fill-rule="evenodd"><path d="M0 0h32v32H0z"/><path d="M19 26c.7 0 1.4-.4 2-1.3.7-.9 1.1-2.3 1.3-4.1-1.4.4-2.6 1-3.3 2-.8.9-1.2 1.7-1.2 2.3 0 .3.1.6.4.8.2.2.5.3.8.3M4.7 8L2 5.4c.5-.6.9-1.1 1.3-1.4C4.6 2.7 6 2 7.5 2c.9 0 1.8.4 2.6 1.1.8.7 1.3 1.8 1.3 3.3 0 1.4-.7 3.1-2 5.1-1.4 1.9-2.3 3.7-2.8 5.4-.3.8-.4 1.5-.3 2.1.1.6.4.9.8.9s1-.4 1.7-1.3c1.1-1.1 2.2-2.5 3.5-4.2 2.3-2.9 4.8-4.3 7.6-4.3 2 0 3.5.7 4.5 2s1.6 2.8 1.7 4.4H30v3.8h-3.8c-.3 3.3-1.2 5.7-2.7 7.2-1.5 1.5-3 2.2-4.6 2.2-1.4 0-2.5-.5-3.5-1.4-1-.9-1.4-2.1-1.4-3.4 0-1.6.7-3.3 2.2-5 1.4-1.7 3.5-2.8 6.2-3.3 0-.4-.1-.7-.1-.8 0-.1-.1-.4-.2-.7-.1-.3-.3-.5-.4-.7-.2-.1-.4-.3-.8-.4-.3-.1-.7-.2-1.2-.2-1.3 0-3.4 1.8-6.3 5.3-.8 1-1.4 1.7-1.7 2.1-.3.4-.8.8-1.3 1.3-.6.5-1.1.8-1.7.9-1.7.5-3.1.2-4.3-.9-1.2-1.2-1.8-2.6-1.8-4.3 0-.7.1-1.5.4-2.4.3-.9.6-1.7 1-2.5s.8-1.6 1.2-2.2c.4-.7.8-1.2 1.1-1.8.4-.5.6-.8.6-.9.8-1.3 1-2.1.4-2.3-.4-.1-1.2.5-2.6 1.9" fill="#FFF" fill-rule="nonzero"/></g></svg>