<svg width="30" height="30" xmlns="http://www.w3.org/2000/svg"><g fill="none"><path d="M15 30c8.3 0 15-6.7 15-15S23.3 0 15 0 0 6.7 0 15s6.7 15 15 15" fill="#FBBC04"/><path d="M23.357 24H6.643A.644.644 0 0 1 6 23.357V6.643C6 6.257 6.321 6 6.643 6h16.714c.386 0 .643.321.643.643v16.714c0 .322-.321.643-.643.643zm-4.95-1.35h4.243v-4.243h-4.243v4.243zm-5.528 0h4.178v-4.243H12.88v4.243zm-5.529 0h4.243v-4.243H7.35v4.243zm11.057-5.593h4.243V12.88h-4.243v4.178zm-5.528 0h4.178V12.88H12.88v4.178zm-5.529 0h4.243V12.88H7.35v4.178zm11.057-5.528h4.243V7.35h-4.243v4.179zm-5.528 0h4.178V7.35H12.88v4.179zm-5.529 0h4.243V7.35H7.35v4.179z" fill="#FFF"/></g></svg>