<svg width="32" height="32" xmlns="http://www.w3.org/2000/svg"><g fill="none" fill-rule="evenodd"><path d="M0 0h32v32H0z"/><path d="M23.374 15.974h-4.3l-1.2-3.1h2.9c.5 0 .9-.4.9-.9s-.4-.9-.9-.9h-4.2c-.3 0-.6.1-.7.4-.2.2-.2.5-.1.8l1.4 3.7h-3.3c0-.1.1-.1.1-.1.4-.9.5-1.8.2-2.7l-2.9-8.7c-.6-1.9-2.7-2.9-4.7-2.3-1 .3-1.8 1-2.2 1.8-.4.9-.5 1.8-.2 2.7l2.9 8.7c.5 1.5 2 2.5 3.6 2.5-.2.3-.3.7-.3 1.1v.7c0 1.7 1.6 3 3.7 3h2.7v1.8l-2.2 2.3h-.3c-.9 0-1.6.7-1.6 1.6 0 .9.7 1.6 1.6 1.6.9 0 1.6-.7 1.6-1.6v-.2l2-2 1.9 1.9v.3c0 .9.7 1.6 1.6 1.6.9 0 1.6-.7 1.6-1.6 0-.9-.7-1.6-1.6-1.6h-.2l-2.4-2.4v-1.7h4.7c2.1 0 3.7-1.3 3.7-3v-.7c-.1-1.7-1.7-3-3.8-3zm-14-1.4l-2.9-8.7c-.1-.3-.1-.6.1-.9.2-.3.5-.6.8-.7.1 0 .3-.1.4-.1.6 0 1.2.4 1.3.9l2.9 8.7c.1.3.1.6-.1.9-.2.3-.5.6-.8.7-.7.3-1.5-.1-1.7-.8zm15.4 5.1c0 .2-.5.7-1.4.7h-9.3c-.8 0-1.4-.4-1.4-.7v-.7c0-.2.5-.7 1.4-.7h9.3c.8 0 1.4.4 1.4.7v.7z" fill="#FFF" fill-rule="nonzero"/></g></svg>