<svg version="1.1" id="Layer_1" xmlns="http://www.w3.org/2000/svg" x="0" y="0" viewBox="0 0 1200 675" xml:space="preserve"><style>.st2{fill:#f04931}.st4{enable-background:new}.st5{font-family:&apos;Roboto-Black&apos;}.st6{font-size:27px}.st7{font-family:&apos;Roboto-Italic&apos;}.st8{font-size:38.5713px}</style><path d="M801.4 337.4L517.7 53.7C445 126.3 400 226.7 400 337.5c0 110.8 44.9 211.1 117.5 283.7l283.9-283.8z" opacity=".2" fill="#f04931"/><path d="M800.9 337.4L251.6 198.6c-11.2 44.5-17.2 91-17.2 138.9 0 47.8 5.9 94.3 17.1 138.6l549.4-138.7z" fill="none" stroke="#f04931" stroke-width="6" stroke-linecap="round" stroke-linejoin="round" stroke-miterlimit="10"/><path class="st2" d="M838.8 268.9c-37.9 0-68.6 30.8-68.6 68.6s30.5 68.6 68.6 68.6c38.1 0 68.6-30.8 68.6-68.6s-30.7-68.6-68.6-68.6"/><path d="M818 343.8l-16.6 16.6v-45.8l16.6 16.6v-14.7c0-1.1.6-2.1 1.4-3 .8-.6 1.9-1.1 3-1.1h49.8c1.1 0 2.1.6 3 1.1.6.6 1.1 1.9 1.1 3v41.9c0 1.1-.6 2.1-1.1 3-.6.6-1.9 1.1-3 1.1h-50.1c-1.1 0-2.1-.6-3-1.1-.8-.6-1.4-1.9-1.4-3 .3.1.3-14.6.3-14.6z" fill="#fff"/><text transform="translate(500.888 110.96)" class="st4"><tspan x="0" y="0" class="st2 st5 st6">1x</tspan><tspan x="0" y="46.3" class="st2 st7 st8">95°</tspan></text><text transform="translate(262.125 250.7)" class="st4"><tspan x="0" y="0" class="st2 st5 st6">4.3x</tspan><tspan x="0" y="46.3" class="st2 st7 st8">22°</tspan></text></svg>