<svg width="32" height="32" xmlns="http://www.w3.org/2000/svg"><g fill="none" fill-rule="evenodd"><path d="M0 0h32v32H0z"/><path d="M29.178 15c-.4 0-.7.3-.7.7 0 .7-.9 2.6-2.1 2.9-1.2.3-2.3-1.6-2.9-2.8-1.2-2.5-2.6-3.8-4-3.8-2.2 0-3.6 2.8-3.7 3.1v.1c-.1.2-.3.4-.4.7-.6 1-1.7 2.7-2.7 2.7-.7 0-1.5-1-2.3-2.7-1.1-2.3-2.4-3.5-3.8-3.5-2.5 0-4.3 3.6-4.5 4-.2.4 0 .8.4 1 .4.2.8 0 1-.4.4-.8 1.8-3.2 3.1-3.2 1 0 1.9 1.4 2.5 2.6 1.1 2.3 2.2 3.4 3.6 3.5h.1c1.8 0 3.1-2.1 3.9-3.4.2-.3.3-.5.4-.6 0-.1.1-.1.1-.2.3-.6 1.3-2.3 2.4-2.3.8 0 1.8 1.1 2.7 3 1.4 2.9 2.8 3.6 3.9 3.6.2 0 .4 0 .6-.1 2-.4 3.2-3.1 3.2-4.3-.1-.3-.4-.6-.8-.6z" fill="#0081C6" fill-rule="nonzero"/></g></svg>