<svg width="32" height="32" xmlns="http://www.w3.org/2000/svg"><g fill="none" fill-rule="evenodd"><path d="M0 0h32v32H0z"/><path d="M24.5 8.1c.1-.1.2 0 .3 0 3.3 1.7 5.3 5 5.5 8.6 0 3.1-1.4 5.9-3.9 7.7-.1.1-.2.1-.3.1-.1 0-.2-.1-.3-.2-.1-.2-.1-.5.1-.6 2.2-1.6 3.5-4.2 3.5-7 0-3.4-1.9-6.4-4.9-7.9-.1 0-.2-.1-.2-.2-.1-.1-.1-.2 0-.3 0-.1.1-.2.2-.2zM6.2 8c.1.1.2.1.3.2.1.1.1.2.1.3-.1.1-.1.2-.2.3-2.2 1.6-3.5 4.2-3.5 7 0 3.4 1.9 6.4 4.9 7.9.1.1.2.2.1.2.1.1.1.2 0 .3-.1.1-.2.2-.4.2h-.2C4 22.8 2 19.5 2 15.8c0-3 1.4-5.9 3.9-7.7.1-.1.2-.1.3-.1zm17.3 2c.1-.1.2-.1.3 0 2.6 1.2 4.2 3.8 4.2 6.7 0 2.3-1.1 4.5-2.9 6-.1.1-.2.1-.3.1-.1 0-.2-.1-.3-.2-.1-.2-.1-.5.1-.6 1.6-1.3 2.6-3.2 2.6-5.3 0-2.6-1.4-4.9-3.7-6-.1 0-.2-.1-.2-.2-.1-.1-.1-.2 0-.3 0-.1.1-.1.2-.2zM7.4 9.7c.1.1.2.1.3.2.1.2.1.5-.1.6C6 11.8 5 13.7 5 15.8c0 2.6 1.4 4.9 3.7 6l.2.2c.1.1.1.2 0 .3-.1.1-.2.2-.4.2h-.2c-2.6-1.2-4.2-3.8-4.2-6.7 0-2.4 1.1-4.6 3-6 .1-.1.2-.1.3-.1zm8.7 1.2c3.1 0 5.7 2.6 5.7 5.7s-2.5 5.7-5.7 5.7-5.7-2.6-5.7-5.7 2.6-5.7 5.7-5.7zm0 .7c-2.7 0-4.9 2.2-4.9 4.9s2.2 4.9 4.9 4.9 4.9-2.2 4.9-4.9-2.2-4.9-4.9-4.9zm6.5.1c.1-.1.2-.1.3 0 1.8 1 3 2.8 3 4.9 0 1.6-.7 3.2-2 4.2-.1.1-.2.1-.3.1-.1 0-.2-.1-.3-.2-.2-.1-.2-.4.1-.5a4.6 4.6 0 0 0 1.7-3.6c0-1.8-.9-3.3-2.5-4.1-.2-.1-.3-.4-.2-.6 0-.1.1-.2.2-.2zm-13.9-.2c.1.1.2.1.3.2.1.2.1.5-.1.6a4.6 4.6 0 0 0-1.7 3.6c0 1.8.9 3.3 2.5 4.1.2.1.3.3.3.4-.1.1-.2.2-.4.2h-.2c-1.9-.9-3-2.7-3-4.8 0-1.6.7-3.2 2-4.2.1-.1.2-.1.3-.1zm7.3.8c.2 0 .4.2.4.4v3.5h1.8c.3 0 .5.2.4.5 0 .2-.2.4-.4.4H16c-.2 0-.4-.2-.4-.4v-4c0-.2.2-.4.4-.4z" fill="#0081C6" fill-rule="nonzero"/></g></svg>