<svg width="32" height="32" xmlns="http://www.w3.org/2000/svg"><g fill="none" fill-rule="evenodd"><path d="M0 0h32v32H0z"/><path d="M28 14c-1 0-1.8.7-2 1.6h-5.9c-.1-.8-.4-1.5-.9-2.1l4.1-4.1c.3.2.7.3 1.1.3.5 0 1.1-.2 1.5-.6.4-.4.6-.9.6-1.5s-.2-1.1-.6-1.5c-.4-.4-.9-.6-1.5-.6s-1.1.2-1.5.6c-.7.7-.8 1.7-.3 2.5l-4.1 4.1c-.6-.5-1.3-.8-2.1-.9V6c.9-.2 1.6-1 1.6-2 0-1.1-.9-2-2-2s-2 .9-2 2c0 1 .7 1.8 1.6 2v5.9c-.8.1-1.5.4-2.1.9L9.4 8.7c.5-.8.4-1.8-.3-2.5-.4-.4-.9-.6-1.5-.6s-1.1.2-1.5.6c-.4.4-.6.9-.6 1.5s.2 1.1.6 1.5c.4.4.9.6 1.5.6.4 0 .8-.1 1.1-.3l4.1 4.2c-.5.6-.8 1.3-.9 2.1H6c-.2-.9-1-1.6-2-1.6-1.1 0-2 .9-2 2s.9 2 2 2c1 0 1.8-.7 2-1.6h5.9c.1.8.4 1.5.9 2.1l-4.2 4.2c-.3-.2-.7-.3-1.1-.3-.5 0-1.1.2-1.5.6-.8.8-.8 2.1 0 2.9.4.4.9.6 1.5.6s1.1-.2 1.5-.6c.7-.7.8-1.8.3-2.6l4.2-4.2c.6.5 1.3.8 2.1.9V26c-.9.2-1.6 1-1.6 2 0 1.1.9 2 2 2s2.1-.9 2-2c0-1-.7-1.8-1.6-2v-6c.8-.1 1.5-.4 2.1-.9l4.2 4.2c-.5.8-.4 1.9.3 2.6.4.4.9.6 1.5.6.5 0 1.1-.2 1.5-.6.8-.8.8-2.1 0-2.9-.4-.4-.9-.6-1.5-.6-.4 0-.8.1-1.1.3l-4.2-4.2c.5-.6.8-1.3.9-2.1H26c.2.9 1 1.6 2 1.6 1.1 0 2-.9 2-2s-.9-2-2-2zm-12 5.2c-.8 0-1.6-.3-2.2-.9 0 0 0-.1-.1-.1l-.1-.1c-.5-.6-.9-1.3-.9-2.2 0-1.8 1.4-3.2 3.2-3.2.8 0 1.6.3 2.2.9 0 0 0 .1.1.1l.1.1c.5.6.8 1.3.8 2.2.1 1.8-1.4 3.2-3.1 3.2zm7.6-12.5c.2-.2.5-.4.8-.4.3 0 .6.1.8.4.2.2.4.5.4.8 0 .3-.1.6-.4.8-.4.4-1.2.4-1.7 0-.3-.4-.3-1.1.1-1.6zM14.8 4c0-.6.5-1.2 1.2-1.2s1.2.5 1.2 1.2c0 .6-.5 1.2-1.2 1.2-.6 0-1.2-.6-1.2-1.2zM6.7 8.4c-.2-.2-.4-.5-.4-.8 0-.3.1-.6.4-.8.2-.2.5-.4.8-.4.3 0 .6.1.8.4.4.5.4 1.2 0 1.7-.4.3-1.2.3-1.6-.1zM4 17.2c-.6 0-1.2-.5-1.2-1.2s.5-1.2 1.2-1.2c.6 0 1.2.5 1.2 1.2 0 .6-.5 1.2-1.2 1.2zm4.4 8.1c-.4.4-1.2.4-1.7 0-.4-.5-.4-1.2 0-1.7.2-.2.5-.4.8-.4.3 0 .6.1.8.4.5.5.5 1.2.1 1.7zm8.8 2.6c0 .6-.5 1.2-1.2 1.2-.6 0-1.2-.5-1.2-1.2 0-.6.5-1.2 1.2-1.2.6.1 1.2.6 1.2 1.2zm8.1-4.3c.4.5.4 1.2 0 1.7s-1.2.4-1.7 0c-.4-.5-.4-1.2 0-1.7.2-.2.5-.4.8-.4.4.1.7.2.9.4zm2.7-6.4c-.6 0-1.2-.5-1.2-1.2s.5-1.2 1.2-1.2 1.1.5 1.2 1.2c-.1.6-.6 1.2-1.2 1.2z" fill="#0081C6" fill-rule="nonzero"/></g></svg>