<svg width="32" height="32" xmlns="http://www.w3.org/2000/svg"><g fill="none" fill-rule="evenodd"><path d="M0 0h32v32H0z"/><path d="M22.65 10.515c.552-.56 1.379-.56 1.93 0 .46.56.551 1.494.092 1.96L8.775 28.628c-.275.28-.643.373-1.01.373-.368 0-.736-.093-1.011-.373a1.369 1.369 0 0 1 0-1.96zm7.076-.747c.551-.56 1.378-.56 1.93 0 .459.56.459 1.4 0 1.96L15.85 27.787c-.276.28-.644.374-1.011.374-.368 0-.735-.094-1.01-.374a1.369 1.369 0 0 1 0-1.96zM16.31 4.167c.551-.56 1.378-.56 1.93 0 .551.56.551 1.494.092 1.96L2.435 22.278c-.276.28-.643.374-1.01.374-.368 0-.736-.094-1.012-.374a1.369 1.369 0 0 1 0-1.96zm7.167-.747c.552-.56 1.379-.56 1.93 0 .551.56.551 1.4 0 1.96L9.51 21.532c-.275.28-.643.374-1.01.374-.368 0-.735-.094-1.011-.374-.46-.56-.46-1.493 0-2.053z" fill="#FFF" fill-rule="nonzero"/></g></svg>