<svg width="32" height="33" xmlns="http://www.w3.org/2000/svg"><g fill="none" fill-rule="evenodd"><path d="M0 0h32v32H0z"/><path d="M3.4 10.3c5.3.6 9.8 4.1 11.6 9.1 1.5 4.2 1 8.8-1.4 12.4-.1.2-.2.2-.3.3h-.2c-.2 0-.3 0-.4-.1-.3-.2-.4-.6-.2-.9 2.2-3.4 2.7-7.5 1.3-11.3-1.6-4.6-5.7-7.8-10.5-8.3-.4 0-.6-.3-.6-.7 0-.1.1-.3.2-.4.2-.1.3-.1.5-.1zm-.4 3c4.2.5 7.7 3.2 9.1 7.2 1.2 3.1.8 6.6-1.1 9.5l-.3.3h-.2c-.1 0-.2 0-.4-.1-.3-.2-.4-.6-.2-.9 1.6-2.6 2-5.7.9-8.5-1.3-3.5-4.3-5.9-8-6.3-.2 0-.3-.1-.4-.2-.1-.1-.2-.3-.1-.5 0-.2.1-.3.2-.4.1-.1.3-.2.5-.1zm-.3 2.9c3 .3 5.5 2.3 6.6 5.2.7 2.2.5 4.7-.8 6.7l-.3.3H8c-.1 0-.2 0-.3-.1-.2-.1-.3-.2-.3-.4s0-.4.1-.5c1.1-1.7 1.3-3.8.6-5.7-.9-2.4-3-4-5.5-4.3-.4 0-.6-.4-.6-.7 0-.2.1-.3.2-.4.1-.1.3-.2.5-.1zM18.6 0c.2 0 .4 0 .6.2.2.1.3.2.3.4s0 .4-.1.5c-2.2 3.4-2.7 7.5-1.3 11.3 1.6 4.6 5.7 7.8 10.5 8.3.1 0 .3.1.4.2.1.1.2.3.2.4-.1.4-.4.6-.7.6h-.1l-.337-.042C22.91 21.15 18.562 17.694 16.8 12.8 15.3 8.6 15.8 4 18.3.3c.1-.2.2-.3.3-.3zm2.72 2c.16.004.32.02.48.1.3.2.4.6.2.9-1.7 2.5-2 5.6-1 8.5 1.3 3.5 4.3 5.9 8 6.3.1 0 .3.1.4.2.1.1.1.3.2.7 0 .1-.1.3-.2.4-.1.1-.3.1-.4.1h-.1c-4.2-.5-7.7-3.3-9.1-7.2-1.2-3.3-.8-6.8 1.1-9.7.1-.2.2-.2.3-.3zm2.38 1.8c.2 0 .4 0 .6.1.3.2.4.6.2.9-1.1 1.7-1.3 3.8-.6 5.7.9 2.4 3 4 5.5 4.3.1 0 .3.1.4.2.1.2.1.3.2.7 0 .1-.1.3-.2.4-.1.1-.3.1-.4.1h-.1c-3.1-.4-5.6-2.4-6.6-5.2-.8-2.3-.6-4.8.7-6.9 0-.2.2-.2.3-.3z" fill="#FFF" fill-rule="nonzero"/></g></svg>