<svg version="1.1" id="Layer_1" xmlns="http://www.w3.org/2000/svg" x="0" y="0" viewBox="0 0 363 204" xml:space="preserve"><style>.st1{fill:#754e9e}.st2{fill:#fff}</style><path id="Bounding_BOX" fill="none" d="M0 0h363v204H0z"/><path class="st1" d="M174.3 96.7l25.1-25.1 25 25.1h-50.1zm62.8-79.5c2.2 0 4.1.9 5.9 2.6 1.7 1.7 2.6 3.6 2.6 5.9V76c0 2.2-.9 4.1-2.6 5.8-1.7 1.7-3.6 2.4-5.9 2.4h-16.6V76h16.6V25.8h-75.4V76h16.6v8.3h-16.6c-2.2 0-4.1-.8-5.9-2.4-1.7-1.7-2.6-3.6-2.6-5.8V25.8c0-2.2.9-4.1 2.6-5.9 1.7-1.7 3.6-2.6 5.9-2.6h75.4zM286.4 150H112.3c-1.2 0-2.1-.9-2.1-2.1v-15c0-1.2.9-2.1 2.1-2.1h174.3c1.2 0 2.1.9 2.1 2.1v15c-.2 1.2-1.1 2.1-2.3 2.1zm-172.1-4.1h170.2v-11H114.3v11z"/><path class="st1" d="M259 180.3c-1.2 0-2.1-.9-2.1-2.1v-30.3c0-1.2.9-2.1 2.1-2.1 1.2 0 2.1.9 2.1 2.1v30.3c-.1 1.2-1 2.1-2.1 2.1zm-120.6 0c-1.2 0-2.1-.9-2.1-2.1v-30.3c0-1.2.9-2.1 2.1-2.1 1.2 0 2.1.9 2.1 2.1v30.3c0 1.2-.9 2.1-2.1 2.1zm-53.1-96c6.1 0 11-4.9 11-11s-4.9-11-11-11-11 4.9-11 11 5 11 11 11"/><path class="st2" d="M89.8 76c0 2.4-2.1 4.5-4.6 4.5s-4.5-2.1-4.5-4.5 2.1-4.5 4.6-4.5 4.5 2 4.5 4.5"/><path class="st2" d="M82.9 74.4c-.4 0-.6-.3-.6-.6v-7c0-.4.3-.6.6-.6.4 0 .6.3.6.6v7c0 .3-.2.6-.6.6m5 0c-.4 0-.6-.3-.6-.6v-7c0-.4.3-.6.6-.6s.6.3.6.6v7c.2.3-.2.6-.6.6"/><path class="st1" d="M109.6 84.3c6.1 0 11-4.9 11-11s-4.9-11-11-11-11 4.9-11 11 4.9 11 11 11"/><path class="st2" d="M114.1 76c0 2.4-2.1 4.5-4.6 4.5s-4.6-2.1-4.6-4.5 2.1-4.5 4.6-4.5 4.6 2 4.6 4.5"/><path class="st2" d="M104.8 71h9.3v4.5h-9.3zm-24.1 0H90v4.5h-9.3z"/><path class="st2" d="M107.1 74.4c-.4 0-.6-.3-.6-.6v-7c0-.4.3-.6.6-.6s.6.3.6.6v7c.1.3-.3.6-.6.6m5 0c-.4 0-.6-.3-.6-.6v-7c0-.4.3-.6.6-.6s.6.3.6.6v7c.1.3-.2.6-.6.6"/><path class="st1" d="M187.3 186.8c6.1 0 11-4.9 11-11s-4.9-11-11-11-11 4.9-11 11 4.9 11 11 11"/><path class="st2" d="M191.8 178.4c0 2.4-2.1 4.5-4.6 4.5-2.6 0-4.6-2.1-4.6-4.5s2.1-4.5 4.6-4.5c2.6 0 4.6 2 4.6 4.5"/><path class="st2" d="M182.5 173.3h9.3v4.5h-9.3z"/><path class="st2" d="M184.9 176.8c-.4 0-.6-.3-.6-.6v-7c0-.4.3-.6.6-.6s.6.3.6.6v7c0 .2-.4.6-.6.6m5 0c-.4 0-.6-.3-.6-.6v-7c0-.4.3-.6.6-.6.4 0 .6.3.6.6v7c0 .2-.2.6-.6.6"/><path class="st1" d="M211.4 186.8c6.1 0 11-4.9 11-11s-4.9-11-11-11-11 4.9-11 11 4.9 11 11 11"/><path class="st2" d="M216 178.4c0 2.4-2.1 4.5-4.6 4.5-2.6 0-4.6-2.1-4.6-4.5s2.1-4.5 4.6-4.5c2.6 0 4.6 2 4.6 4.5"/><path class="st2" d="M206.8 173.3h9.3v4.5h-9.3z"/><path class="st2" d="M209 176.8c-.4 0-.6-.3-.6-.6v-7c0-.4.3-.6.6-.6s.6.3.6.6v7c.1.2-.3.6-.6.6m5.1 0c-.4 0-.6-.3-.6-.6v-7c0-.4.3-.6.6-.6s.6.3.6.6v7c.1.2-.2.6-.6.6"/></svg>