<svg version="1.1" id="Layer_1" xmlns="http://www.w3.org/2000/svg" x="0" y="0" viewBox="0 0 363 204" xml:space="preserve"><style>.st1{fill:#754e9e}</style><path id="Bounding_BOX" fill="none" d="M0 0h363v204H0z"/><path class="st1" d="M247.7 39.2c0 .5-.4.9-.9.9h-74.7c-.5 0-.9-.4-.9-.9V27.6c0-.5.4-.9.9-.9h74.8c.5 0 .9.4.9.9v11.6h-.1zm-62.5 8.5c.2-.4.8-.8 1.3-.8h5.5c.5 0 .7.3.4.7 0 0-.8 1.2-.9 2.5-.1.9-.2 2 .2 3.5.2.9 2 2.8 2.1 4.4.1 2.3-.5 4.1-.7 4.9-.3.8-.7 2.2-.7 2.2-.2.4.1.8.6.8h3.1c.5 0 .6.3.3.7l-7.6 9.6c-.3.4-.8.4-1.1 0l-7.9-9.6c-.3-.4-.2-.7.3-.7h3.5c.5 0 .9-.4.9-.9 0 0 0-.1.6-2.3.6-1.9.5-1.2.8-2.7.3-1.7 0-2.9-.4-3.8-.6-1.3-1.9-3.2-1.3-5.3.4-2.1 1-3.2 1-3.2M206.6 58c.2-.4.8-.8 1.3-.8h5.5c.5 0 .7.3.4.7 0 0-.8 1.2-.9 2.5-.1.9-.2 2 .2 3.5.2.9 2 2.8 2.1 4.4.1 2.3-.5 4.1-.7 4.9-.3.8-.7 2.2-.7 2.2-.2.4.1.8.6.8h3.1c.5 0 .6.3.3.7l-7.6 9.6c-.3.4-.8.4-1.1 0l-7.9-9.6c-.3-.4-.2-.7.3-.7h3.5c.5 0 .9-.4.9-.9 0 0 0-.1.6-2.3.6-1.9.5-1.2.8-2.7.3-1.7 0-2.9-.4-3.8-.6-1.3-1.9-3.2-1.3-5.3.4-2.1 1-3.2 1-3.2M228 47.7c.2-.4.8-.8 1.3-.8h5.5c.5 0 .7.3.4.7 0 0-.8 1.2-.9 2.5-.1.9-.2 2 .2 3.5.2.9 2 2.8 2.1 4.4.1 2.3-.5 4.1-.7 4.9-.3.8-.7 2.2-.7 2.2-.2.4.1.8.6.8h3.1c.5 0 .6.3.3.7l-7.6 9.6c-.3.4-.8.4-1.1 0l-7.9-9.6c-.3-.4-.2-.7.3-.7h3.5c.5 0 .9-.4.9-.9 0 0 0-.1.6-2.3.6-1.9.5-1.2.8-2.7.3-1.7 0-2.9-.4-3.8-.6-1.3-1.9-3.2-1.3-5.3.4-2.1 1-3.2 1-3.2m-23.4 65.2c0-2.6 2.2-4.8 4.8-4.8s4.8 2.2 4.8 4.8v24.8c0 2.6-2.1 4.8-4.8 4.8-2.6 0-4.8-2.2-4.8-4.8v-24.8zm4.8 36.4c6.6 0 12-5.4 12-12v-24c0-6.6-5.4-12-12-12s-12 5.4-12 12v24c0 6.6 5.4 12 12 12"/><path class="st1" d="M230.6 137.3c0 12-10.2 20.4-21.2 20.4s-21.2-8.4-21.2-20.4h-6.8c0 13.6 10.9 24.9 24 26.9v13.1h8v-13.1c13.1-1.9 24-13.2 24-26.9h-6.8z"/><path d="M115.2 77.4l32 32m-32 0l32-32" fill="none" stroke="#ef4931" stroke-width="4" stroke-linecap="round" stroke-linejoin="round"/></svg>