<svg xmlns="http://www.w3.org/2000/svg" viewBox="0 0 363 204"><path fill="none" d="M0 0h363v204H0z"/><path d="M58.5 63.7c.5 0 .9.4.9.9v74.8c0 .5-.4.9-.9.9H46.9c-.5 0-.9-.4-.9-.9V64.5c0-.5.4-.9.9-.9l11.6.1zm8.5 62.5c-.4-.2-.8-.8-.8-1.3v-5.5c0-.5.3-.7.7-.4 0 0 1.2.8 2.5.9.9.1 2 .2 3.5-.2.9-.2 2.8-2 4.4-2.1 2.3-.1 4.1.5 4.9.7.8.3 2.2.7 2.2.7.5.2.8-.1.8-.6v-3.1c0-.5.3-.6.7-.3l9.6 7.6c.4.3.4.8 0 1.1l-9.6 7.9c-.4.3-.7.2-.7-.3v-3.4c0-.5-.4-.9-.9-.9 0 0-.1 0-2.3-.6-1.9-.6-1.2-.5-2.7-.8-1.7-.3-2.9 0-3.8.4-1.3.6-3.2 1.9-5.3 1.3-2.1-.5-3.2-1.1-3.2-1.1m10.3-21.5c-.4-.2-.8-.8-.8-1.3v-5.5c0-.5.3-.7.7-.4 0 0 1.2.8 2.5.9.9.1 2 .2 3.5-.2.9-.2 2.8-2 4.4-2.1 2.3-.1 4.1.5 4.9.7.8.3 2.2.7 2.2.7.5.2.8-.1.8-.6v-3c0-.5.3-.6.7-.3l9.6 7.6c.4.3.4.8 0 1.1l-9.6 7.9c-.4.3-.7.2-.7-.3v-3.5c0-.5-.4-.9-.9-.9 0 0-.1 0-2.3-.6-1.9-.6-1.2-.5-2.7-.8-1.7-.3-2.9 0-3.8.4-1.3.6-3.2 1.9-5.3 1.3-2.1-.5-3.2-1.1-3.2-1.1M67 83.3c-.4-.2-.8-.8-.8-1.3v-5.5c0-.5.3-.7.7-.4 0 0 1.2.8 2.5.9.9.1 2 .2 3.5-.2.9-.2 2.8-2 4.4-2.1 2.3-.1 4.1.5 4.9.7.8.3 2.2.7 2.2.7.5.2.8-.1.8-.6v-3.1c0-.5.3-.6.7-.3l9.6 7.6c.4.3.4.8 0 1.1l-9.6 7.9c-.4.3-.7.2-.7-.3v-3.5c0-.5-.4-.9-.9-.9 0 0-.1 0-2.3-.6-1.9-.6-1.2-.5-2.7-.8-1.7-.3-2.9 0-3.8.4-1.3.6-3.2 1.9-5.3 1.3-2.1-.4-3.2-1-3.2-1m248 14.4c-1.1 0-2 .9-2 2 0 2.6-1.5 7.8-4.9 13-2 3.1-6.3 8.6-12 9.9-7.9 1.8-15.9-5.4-23.1-20.8-7.7-16.3-16.1-24.5-25.1-24.5-13.5 0-22.6 18.8-23 19.6-.1.2-2 3.4-3.1 5.3-4.7 7.6-12.5 20.3-21.2 19.8-6.1-.3-12.3-7.1-18.5-20.2-7-14.8-14.9-22.3-23.6-22.3-15.8 0-27.6 24.9-28.1 25.9s0 2.2 1 2.7 2.2 0 2.7-1c.1-.2 11.2-23.6 24.4-23.6 7.1 0 13.8 6.7 20 20 6.9 14.7 14.1 22 21.9 22.5h.7c10.7 0 18.7-13.1 24.1-21.8 1.1-1.8 3.3-5.6 3.4-5.7.1-.2 8.3-17.3 19.3-17.3 7.2 0 14.6 7.7 21.5 22.2 5.2 11 13.4 23.3 24.3 23.3 1.1 0 2.2-.1 3.3-.4 11.7-2.6 20-18.9 20-26.7 0-1-.9-1.9-2-1.9z" fill="#754e9e"/></svg>