<svg version="1.1" id="Layer_1" xmlns="http://www.w3.org/2000/svg" x="0" y="0" viewBox="0 0 1200 675" xml:space="preserve"><style>.st1{fill:#fbab18}</style><path id="Bounding_BOX" fill="none" d="M0 0h1200v675H0z"/><path class="st1" d="M986.4 187.4l-642.6-46.3c-1.3 0-2.6.3-3.6 1.3s-1.7 2.3-1.7 3.6v381.5c0 1.3.7 2.6 1.7 3.6s2 1.3 3.3 1.3h.3l643-37.7c2.6-.3 4.6-2.3 4.6-5V192.4c-.3-2.7-2.3-5-5-5zm-5.2 297.5l-633.1 37V151.7l633.1 45.6v287.6zm-807.6-79.7l46.3-46 46 46h-92.3zm115.3-145.7c4 0 7.6 1.7 10.9 4.6 3 3 4.6 6.6 4.6 10.9v92.2c0 4-1.7 7.6-4.6 10.6-3 3-6.6 4.6-10.9 4.6h-30.4v-15.2h30.4v-91.9H150.7v92.2h30.4v15.2h-30.4c-4 0-7.6-1.7-10.9-4.6-3-3-4.6-6.6-4.6-10.6v-92.2c0-4 1.7-7.6 4.6-10.9 3-3 6.6-4.6 10.9-4.6l138.2-.3z"/><path class="st1" d="M564.6 119.6L350.7 333.5l211.6 211.6c118.4-117.7 119.4-308.8 2.3-425.5"/><path d="M516.7 323.9l22.8-22.8v62.8l-22.8-22.8v20.2c0 1.7-.7 3-1.7 4-1.3 1-2.6 1.7-4.3 1.7h-68.4c-1.7 0-3-.7-4-1.7s-1.7-2.3-1.7-4v-56.9c0-1.7.7-3 1.7-4s2.3-1.7 4-1.7h68.4c1.7 0 3 .7 4.3 1.7 1.3 1 1.7 2.3 1.7 4v19.5z" fill="#fff"/><path class="st1" d="M667.8 135.8c15.2 0 27.4-12.2 27.4-27.4S683 81 667.8 81s-27.4 12.2-27.4 27.4c-.1 14.9 12.2 27.4 27.4 27.4m120 12.3c15.2 0 27.4-12.2 27.4-27.4S803 93.3 787.8 93.3s-27.4 12.2-27.4 27.4c-.4 14.8 12.2 27.4 27.4 27.4m249.6 158.6c15.2 0 27.4-12.2 27.4-27.4s-12.2-27.4-27.4-27.4-27.4 12.2-27.4 27.4 12.1 27.4 27.4 27.4m0 131.3c15.2 0 27.4-12.2 27.4-27.4s-12.2-27.4-27.4-27.4-27.4 12.2-27.4 27.4 12.1 27.4 27.4 27.4M667.8 594.7c15.2 0 27.4-12.2 27.4-27.4s-12.2-27.4-27.4-27.4-27.4 12.2-27.4 27.4c-.1 14.5 12.2 27.4 27.4 27.4m120-16.9c15.2 0 27.4-12.2 27.4-27.4S803 523 787.8 523s-27.4 12.2-27.4 27.4c-.4 14.8 12.2 27.4 27.4 27.4"/></svg>