<svg version="1.1" id="Layer_1" xmlns="http://www.w3.org/2000/svg" x="0" y="0" viewBox="0 0 1200 675" xml:space="preserve"><style>.st1{fill:#faab18}</style><path id="Bounding_BOX" fill="none" d="M0 .3h1200v674.4H0z"/><path class="st1" d="M116.4 632c-3.6 0-6.6-3-6.6-6.6V50.2c0-3.6 3-6.6 6.6-6.6s6.6 3 6.6 6.6v575.2c0 3.6-3 6.6-6.6 6.6z"/><path class="st1" d="M612.9 188.4H126.3c-1.7 0-3.6-1.3-3.6-3.6s1.3-3.6 3.6-3.6h486.6c1.7 0 3.6 1.3 3.6 3.6s-2 3.6-3.6 3.6z"/><path class="st1" d="M612.9 203.3c-1.7 0-3.6-1.3-3.6-3.6v-30.1c0-1.7 1.3-3.6 3.6-3.6s3.6 1.3 3.6 3.6v30.1c-.6 1.9-2 3.6-3.6 3.6zm-486.6 0c-1.7 0-3.6-1.3-3.6-3.6v-30.1c0-1.7 1.3-3.6 3.6-3.6s3.6 1.3 3.6 3.6v30.1c-.6 1.9-2 3.6-3.6 3.6zm216.5 255.2c-16.9 0-32.7-10.2-38-26.1l-37.4-108.1c-3-9.3-2.6-19.2 2.3-27.8 5-9.3 13.6-16.5 23.8-19.5 20.8-6.3 43.3 5 49.9 24.5l37.7 108.4c3 9.3 2.6 19.2-2.3 27.8-5 9.3-13.6 16.5-23.8 19.5-3.9.9-8.2 1.3-12.2 1.3zm-37.3-170.3c-2.6 0-5.6.3-8.3 1.3-6.9 2.3-12.9 6.6-15.9 12.9-2.6 5.3-3 11.6-1.3 17.2L317.4 428c4.3 12.9 19.5 19.8 34 15.9 6.9-2.3 12.9-6.6 15.9-12.9 2.6-5.3 3-11.6 1.3-17.2l-37.7-108.4c-4-10.6-14.2-17.2-25.4-17.2z"/><path class="st1" d="M494.5 516H379.2c-21.2 0-38-14.2-38-31.7v-9.6c0-17.9 17.2-31.7 38-31.7h115.4c21.2 0 38 14.2 38 31.7v9.6c.6 17.1-16.6 31.7-38.1 31.7zm-115.3-60.5c-13.6 0-24.8 8.3-24.8 18.5v9.6c0 10.2 10.9 18.5 24.8 18.5h115.4c13.6 0 24.8-8.3 24.8-18.5V474c0-10.2-10.9-18.5-24.8-18.5H379.2z"/><path class="st1" d="M434 476.3c-2.6 0-5.3-1.7-6.3-4l-27.1-67.8c-1-2.3-.3-4.3 1-6.3 1.3-1.7 3-3 5.3-3h58.5c3.6 0 6.6 3 6.6 6.6 0 3.6-3 6.6-6.6 6.6h-48.6l23.5 58.8c1.3 3.6-.3 6.9-3.6 8.3-1 .5-1.7.8-2.7.8zm-20.1 38H436v43.3h-22.1z"/><path class="st1" d="M452.2 586.7l-26.4-26.4-26.4 26.4H368l50.6-50.6c4.3-4.3 11.6-4.3 15.5 0l50.6 50.6h-32.5z"/><path class="st1" d="M485 586.1c0-10.6-8.3-19.2-19.2-19.2-10.6 0-19.2 8.3-19.2 19.2 0 10.6 8.3 19.2 19.2 19.2 10.9-.4 19.2-8.6 19.2-19.2m-82.7 0c0-10.6-8.3-19.2-19.2-19.2-10.6 0-19.2 8.3-19.2 19.2 0 10.6 8.3 19.2 19.2 19.2 10.3-.4 19.2-8.6 19.2-19.2m681.3-156.7H622.5c-3.6 0-6.6-3-6.6-6.6v-63.1c0-3.6 3-6.6 6.6-6.6h461.2c3.6 0 6.6 3 6.6 6.6v63.1c-.1 3.6-3 6.6-6.7 6.6zm-454.5-13.2h447.6v-49.9H629.1v49.9z"/><path class="st1" d="M985.5 610.2c-3.6 0-6.6-3-6.6-6.6V422.1c0-3.6 3-6.6 6.6-6.6 3.6 0 6.6 3 6.6 6.6v180.8c0 4.3-3.3 7.3-6.6 7.3zm-258.6 0c-3.6 0-6.6-3-6.6-6.6V422.1c0-3.6 3-6.6 6.6-6.6 3.6 0 6.6 3 6.6 6.6v180.8c.1 4.3-2.9 7.3-6.6 7.3zM275.5 158.6h-5.3l6.2-35.7-11.2 4 .9-5.1 15.7-5.7h.9l-7.2 42.5zm42.8 0h-26.9l.6-4.1 15.6-15.2 2.8-2.8c3.3-3.3 5.1-6.3 5.4-9.1.3-2.1-.2-3.9-1.2-5.2-1.1-1.3-2.6-2.1-4.6-2.1-2.5-.1-4.7.7-6.4 2.2-1.7 1.6-2.7 3.7-3.1 6.4h-5.2c.3-2.6 1.1-4.9 2.4-6.9 1.3-2 3.1-3.5 5.3-4.6 2.2-1.1 4.6-1.6 7.2-1.5 3.5.1 6.3 1.1 8.4 3.2 2.1 2 2.9 4.7 2.7 7.9-.3 3.7-2.5 7.6-6.4 11.7l-2.7 2.7-13.6 12.9H319l-.7 4.5zm18.8.6c-3.6-.1-6.2-1.3-8-3.8-1.8-2.5-2.6-6-2.4-10.6 0-1.4.1-2.8.3-4.2l1-7.1c.9-6 2.7-10.5 5.3-13.5s6.1-4.4 10.3-4.3c3.6.1 6.3 1.3 8.1 3.7s2.6 5.9 2.5 10.4c-.1 1.5-.2 2.9-.3 4.3l-1 6.8c-1 6.4-2.8 11-5.4 14s-6.1 4.4-10.4 4.3zm11.7-26c.3-2.3.4-4.2.4-5.5-.1-4.9-2-7.4-5.7-7.6-2.7-.1-4.9.9-6.6 3-1.7 2.1-2.8 5.4-3.5 9.9l-1.2 8.4c-.3 2.2-.4 4.1-.4 5.5.1 5.1 2 7.8 5.7 7.9 2.6.1 4.7-.8 6.4-2.8 1.7-2 2.9-5.2 3.6-9.6l1.3-9.2zm21 26c-3.6-.1-6.2-1.3-8-3.8s-2.6-6-2.4-10.6c0-1.4.1-2.8.3-4.2l1-7.1c.9-6 2.7-10.5 5.3-13.5s6.1-4.4 10.3-4.3c3.6.1 6.3 1.3 8.1 3.7s2.6 5.9 2.5 10.4c-.1 1.5-.2 2.9-.3 4.3l-1 6.8c-1 6.4-2.8 11-5.4 14-2.7 3-6.1 4.4-10.4 4.3zm11.7-26c.3-2.3.4-4.2.4-5.5-.1-4.9-2-7.4-5.7-7.6-2.7-.1-4.9.9-6.6 3-1.7 2.1-2.8 5.4-3.5 9.9l-1.2 8.4c-.3 2.2-.4 4.1-.4 5.5.1 5.1 2 7.8 5.7 7.9 2.6.1 4.7-.8 6.4-2.8 1.7-2 2.9-5.2 3.6-9.6l1.3-9.2zm18.6-6l-.7 3.5c2.6-2.8 5.8-4.1 9.6-4.1 2 0 3.7.5 5.1 1.4 1.4.9 2.3 2.1 2.9 3.7 2.9-3.4 6.4-5.1 10.4-5.1 3.1.1 5.5 1.1 6.9 3.2 1.5 2 2 4.8 1.7 8.2l-3.5 20.7h-5.2l3.4-20.7c.1-1 .1-1.9 0-2.8-.4-2.6-2.1-4-5.2-4-1.9 0-3.7.6-5.2 1.8-1.6 1.2-2.6 2.8-3 4.8l-3.6 20.9h-5.3l3.5-20.7c.3-2.2-.1-3.8-1-5-.9-1.2-2.3-1.8-4.2-1.8-3.3-.1-5.9 1.4-7.8 4.5l-4 23h-5.3l5.5-31.4 5-.1zm50.9 0l-.7 3.5c2.6-2.8 5.8-4.1 9.6-4.1 2 0 3.7.5 5.1 1.4 1.4.9 2.3 2.1 2.9 3.7 2.9-3.4 6.4-5.1 10.4-5.1 3.1.1 5.5 1.1 6.9 3.2 1.5 2 2 4.8 1.7 8.2l-3.5 20.7h-5.2l3.4-20.7c.1-1 .1-1.9 0-2.8-.4-2.6-2.1-4-5.2-4-1.9 0-3.7.6-5.2 1.8-1.6 1.2-2.6 2.8-3 4.8l-3.6 20.9h-5.3l3.5-20.7c.3-2.2-.1-3.8-1-5-.9-1.2-2.3-1.8-4.2-1.8-3.3-.1-5.9 1.4-7.8 4.5l-4 23h-5.3l5.5-31.4 5-.1z"/></svg>