<svg version="1.1" id="Layer_1" xmlns="http://www.w3.org/2000/svg" x="0" y="0" viewBox="0 0 363 204" xml:space="preserve"><style>.st2{fill:#139eae}</style><path id="Bounding_BOX" fill="none" d="M0 0h363v204H0z"/><path d="M181.5 175.4c75.8 0 137.5-61.7 137.5-137.5H44c0 75.7 61.7 137.5 137.5 137.5z" opacity=".2" fill="#139eae"/><text transform="rotate(-90 150.637 -21.593)" class="st2" font-size="12" font-family="Roboto-Italic">1500mm</text><path class="st2" d="M99.7 28.6h163.5v9.1H99.7zm87.5 143.9h-4.4V40.6h4.4c.8 0 1.3-.7 1.3-1.3 0-.8-.7-1.3-1.3-1.3h-11.5c-.8 0-1.3.5-1.3 1.3s.7 1.3 1.3 1.3h4.4v131.9h-4.4c-.8 0-1.3.5-1.3 1.3s.7 1.3 1.3 1.3h11.5c.8 0 1.3-.7 1.3-1.3.1-.6-.6-1.1-1.3-1.3z"/></svg>