<svg version="1.1" id="Layer_1" xmlns="http://www.w3.org/2000/svg" x="0" y="0" viewBox="0 0 363 204" xml:space="preserve"><style>.st1{fill:#139eae}.st3{font-family:&apos;Roboto-Italic&apos;}.st4{font-size:18px}</style><path id="Bounding_BOX" fill="none" d="M0 0h363v204H0z"/><path class="st1" d="M134.5 134.2H21.1c-1.1 0-2.1-1-2.1-2.1V66.2c0-1.1 1-2.1 2.1-2.1h113.2c1.1 0 2.1 1 2.1 2.1v65.9c.2 1.3-.8 2.1-1.9 2.1zm-111.2-4.3h108.9V68.3H23.3v61.6z"/><path d="M67.3 115.9l10.6-10.6 10.6 10.6H67.3zm26.4-33.4c1 0 1.7.3 2.4 1s1 1.6 1 2.4V107c0 1-.3 1.7-1 2.4s-1.6 1-2.4 1h-7V107h7V86.1H62v21.1h7v3.4h-7c-1 0-1.7-.3-2.4-1s-1-1.4-1-2.4V86.1c0-1 .3-1.7 1-2.4s1.6-1 2.4-1h31.7v-.2z" fill="#139eae"/><path class="st1" d="M315.1 118.6c1.3-1.3 2.9-2 4.6-2 1.9 0 3.3.7 4.6 2 1.3 1.3 2 2.9 2 4.7 0 1.9-.7 3.3-2 4.6-1.3 1.3-2.9 2-4.6 2-1.9 0-3.3-.7-4.6-2-1.3-1.3-2-2.9-2-4.6-.1-1.7.7-3.4 2-4.7m-3.2 12.5c2.1 2.1 4.7 3.3 7.9 3.3 3 0 5.6-1.1 7.9-3.3 2.1-2.1 3.3-4.7 3.3-7.9 0-3-1.1-5.6-3.3-7.9-2.1-2.1-4.7-3.3-7.9-3.3-3 0-5.6 1.1-7.9 3.3-2.1 2.1-3.3 4.7-3.3 7.9.1 3.2 1.2 5.7 3.3 7.9m-6.9-19.8c4.4-3 9.3-4.6 14.8-4.6 5.4 0 10.3 1.6 14.8 4.6 4.4 3 7.6 7 9.5 12-1.9 5-5.2 9-9.5 12-4.4 3-9.3 4.6-14.8 4.6-5.4 0-10.3-1.6-14.8-4.6-4.4-3-7.6-7-9.5-12 1.9-5 5.1-9 9.5-12m-161.5 22.1V65.5c0-.4.4-.9 1.1-.9s1.1.3 1.1.9v67.9c0 .4-.4.9-1.1.9s-1.1-.3-1.1-.9z"/><path class="st1" d="M138.4 65.5c0-.6.4-1.1 1.1-1.1h9.7c.6 0 1.1.4 1.1 1.1s-.4 1.1-1.1 1.1h-9.7c-.6-.1-1.1-.6-1.1-1.1zm.3 67.9c0-.6.4-1.1 1.1-1.1h9.7c.6 0 1.1.4 1.1 1.1s-.4 1.1-1.1 1.1h-9.7c-.6 0-1.1-.4-1.1-1.1zm156-5.2v9.7c0 .6-.4 1.1-1.1 1.1s-1.1-.4-1.1-1.1v-9.7c.1-.6.6-1.1 1.1-1.1s1.1.4 1.1 1.1z"/><text transform="translate(153.8 104.68)" class="st1 st3 st4">x</text><text transform="translate(213.97 127.908)" class="st1 st3 st4">8x</text><path class="st1" d="M294.7 132.4v2.1h-142c-.6 0-1-.6-1-1.1 0-.6.4-1 1-1.1h140.2c.8-.1 1.4-.1 1.8.1z"/></svg>