<svg version="1.1" id="Layer_1" xmlns="http://www.w3.org/2000/svg" x="0" y="0" viewBox="0 0 363 204" xml:space="preserve"><style>.st1{fill:#139eae}.st2{fill:#fff}.st3{font-family:&apos;Roboto-Italic&apos;}.st4{font-size:24.6409px}</style><path id="Bounding_BOX" fill="none" d="M0 0h363v204H0z"/><path class="st1" d="M60.9 132.6c16.8 0 30.6-13.8 30.6-30.6S77.7 71.4 60.9 71.4 30.3 85.2 30.3 102c0 17 13.7 30.6 30.6 30.6"/><path class="st2" d="M51.2 117.2l9.7-9.7 9.7 9.7H51.2zm24.1-30.4c.8 0 1.6.4 2.3 1 .6.6 1 1.4 1 2.3v19.1c0 .8-.4 1.6-1 2.3-.6.6-1.4 1-2.3 1h-6.4v-3.1h6.4V90.1H46.5v19.1h6.4v3.1h-6.4c-.8 0-1.6-.4-2.3-1-.6-.6-1-1.4-1-2.3V90.1c0-.8.4-1.6 1-2.3.6-.6 1.4-1 2.3-1h28.8z"/><path class="st1" d="M143 132.6c16.8 0 30.6-13.8 30.6-30.6S159.9 71.4 143 71.4s-30.6 13.8-30.6 30.6c0 17 13.8 30.6 30.6 30.6"/><path class="st2" d="M133.4 117.2l9.7-9.7 9.7 9.7h-19.4zm24-30.4c.8 0 1.6.4 2.3 1 .6.6 1 1.4 1 2.3v19.1c0 .8-.4 1.6-1 2.3s-1.4 1-2.3 1H151v-3.1h6.4V90.1h-28.7v19.1h6.4v3.1h-6.4c-.8 0-1.6-.4-2.3-1-.6-.6-1-1.4-1-2.3V90.1c0-.8.4-1.6 1-2.3.6-.6 1.4-1 2.3-1h28.7z"/><path class="st1" d="M302.1 132.6c16.8 0 30.6-13.8 30.6-30.6S319 71.4 302.1 71.4s-30.6 13.8-30.6 30.6c0 17 13.8 30.6 30.6 30.6"/><path class="st2" d="M292.5 117.2l9.7-9.7 9.7 9.7h-19.4zm24-30.4c.8 0 1.6.4 2.3 1s1 1.4 1 2.3v19.1c0 .8-.4 1.6-1 2.3s-1.4 1-2.3 1h-6.4v-3.1h6.4V90.1h-28.7v19.1h6.4v3.1h-6.4c-.8 0-1.6-.4-2.3-1s-1-1.4-1-2.3V90.1c0-.8.4-1.6 1-2.3s1.4-1 2.3-1h28.7z"/><text transform="translate(209.613 113.133)" class="st1 st3 st4">V</text><text transform="translate(223.37 113.133)" class="st1 st3 st4">s</text></svg>