<svg version="1.1" id="Layer_1" xmlns="http://www.w3.org/2000/svg" x="0" y="0" viewBox="0 0 363 204" xml:space="preserve"><style>.st1{fill:#139eae}</style><path id="Bounding_BOX" fill="none" d="M0 0h363v204H0z"/><path class="st1" d="M188.3 110.7H70.9c-1.2 0-2.2-1-2.2-2.2V40.2c0-1.2 1-2.2 2.2-2.2h117.3c1.2 0 2.2 1 2.2 2.2v68.3c.1 1.2-.9 2.2-2.1 2.2zm-115.1-4.4H186V42.4H73.2v63.9zm137.3 29.4H47.9c-1.2 0-2.2-1-2.2-2.2v-13.4c0-1.2 1-2.2 2.2-2.2h162.6c1.2 0 2.2 1 2.2 2.2v13.4c.1 1.2-.9 2.2-2.2 2.2zm-160.3-4.5h158.2v-8.9H50.2v8.9z"/><path class="st1" d="M75.1 165.2c-1.2 0-2.2-1-2.2-2.2v-26.9c0-1.2 1-2.2 2.2-2.2 1.2 0 2.2 1 2.2 2.2V163c0 1.2-1 2.2-2.2 2.2zm109.7 0c-1.2 0-2.2-1-2.2-2.2v-26.9c0-1.2 1-2.2 2.2-2.2s2.2 1 2.2 2.2V163c.1 1.2-.9 2.2-2.2 2.2zm51.7-52.2h-10.1c-.6 0-1.1-.5-1.1-1.1 0-.6.5-1.1 1.1-1.1h10.1c.6 0 1.1.5 1.1 1.1 0 .6-.5 1.1-1.1 1.1zm0 53h-10.1c-.6 0-1.1-.5-1.1-1.1 0-.6.5-1.1 1.1-1.1h10.1c.6 0 1.1.5 1.1 1.1 0 .6-.5 1.1-1.1 1.1z"/><path class="st1" d="M231.5 166c-.6 0-1.1-.5-1.1-1.1v-53c0-.6.5-1.1 1.1-1.1.6 0 1.1.5 1.1 1.1v53c0 .6-.5 1.1-1.1 1.1z"/><text transform="translate(246.666 143.685)" class="st1" font-size="18" font-family="Roboto-Italic">1100mm</text></svg>